<svg width="99" height="99" viewBox="0 0 99 99" fill="none" xmlns="http://www.w3.org/2000/svg">
<path fill-rule="evenodd" clip-rule="evenodd" d="M35.7712 31.9275C35.7712 24.3901 41.9034 18.2846 49.4674 18.2846C57.0313 18.2846 63.1635 24.3901 63.1635 31.9275C63.1635 39.4649 57.0313 45.5703 49.4674 45.5703C41.9034 45.5703 35.7712 39.4649 35.7712 31.9275Z" fill="#3B82F6"/>
<path d="M72.1105 68.5476C73.5791 66.6072 73.7415 63.9842 72.5855 61.8432C68.0006 53.353 60.2097 50.3372 49.4697 50.3372C38.9114 50.3372 30.8254 53.1608 26.0144 61.6371C24.7409 63.8812 24.9649 66.6755 26.5904 68.68C32.0614 75.4262 41.0438 80.0829 49.4697 80.0829C57.9464 80.0829 66.9513 75.3649 72.1105 68.5476Z" fill="#3B82F6"/>
<path d="M91.7055 61.0421C91.7055 77.1102 74.5179 87.5143 62.1686 92.9149C59.2899 94.1742 56.165 91.9983 56.165 88.8627V88.6106C56.165 86.7747 57.2816 85.1323 58.9641 84.3899C68.9318 79.9936 82.6014 71.9729 82.6014 61.0366V58.9749C82.6014 56.4843 84.6573 54.4645 87.1535 54.4645C89.6496 54.4645 91.7055 56.4843 91.7055 58.9749V61.0421Z" fill="#ADC7F1"/>
<path d="M15.8376 61.0366C15.8376 71.9659 29.4897 79.9839 39.4599 84.3815C41.1424 85.124 42.259 86.7663 42.259 88.6023V88.853C42.259 91.99 39.1338 94.1644 36.2552 92.9052C23.9021 87.5004 6.73351 77.0948 6.73351 61.0366V58.9749C6.73351 56.4843 8.7894 54.4645 11.2855 54.4645C13.7817 54.4645 15.8376 56.4843 15.8376 58.9749V61.0366Z" fill="#ADC7F1"/>
<path d="M42.2592 8.6854C42.2592 10.6467 40.9889 12.4047 39.1169 13.0036L16.894 20.1009C16.2627 20.3001 15.8378 20.8823 15.8378 21.5426V28.8794C15.8378 31.3715 13.7819 33.3899 11.2857 33.3899C8.78959 33.3899 6.7337 31.3715 6.7337 28.8794V21.5482C6.7337 16.9207 9.70172 12.8616 14.1201 11.4505L36.3618 4.34764C39.2783 3.41574 42.2592 5.6292 42.2592 8.6854Z" fill="#ADC7F1"/>
<path d="M84.3191 11.4507C88.7376 12.8562 91.7055 16.914 91.7055 21.5484V28.8797C91.7055 31.3717 89.6496 33.3901 87.1535 33.3901C84.6573 33.3901 82.6014 31.3717 82.6014 28.8797V21.5484C82.6014 20.8881 82.1827 20.3073 81.5454 20.1067L59.3072 13.0039C57.4353 12.4063 56.165 10.6456 56.165 8.68424C56.165 5.62804 59.1459 3.41181 62.0623 4.34232L84.3191 11.4507Z" fill="#ADC7F1"/>
</svg>
