<svg width="99" height="99" viewBox="0 0 99 99" fill="none" xmlns="http://www.w3.org/2000/svg">
<path d="M33.599 84.5166C32.8034 87.2768 34.4109 90.1507 37.1711 90.9463C39.9314 91.7419 42.8053 90.1345 43.6009 87.3742L64.384 14.6334C65.1796 11.8731 63.5721 8.99922 60.8119 8.20361C58.0516 7.40801 55.1777 9.01545 54.3821 11.7757L33.599 84.5166Z" fill="#B8E5D7"/>
<path d="M71.3008 30.3182C69.2712 32.3478 69.2712 35.6439 71.3008 37.6735L83.2186 49.5913L71.3008 61.5091C69.2712 63.5387 69.2712 66.8348 71.3008 68.8644C73.3304 70.894 76.6265 70.894 78.6561 68.8644L94.2434 53.277C96.273 51.2474 96.273 47.9514 94.2434 45.9218L78.6561 30.3344C76.6265 28.3048 73.3304 28.3048 71.3008 30.3344V30.3182ZM26.6983 30.3182C24.6687 28.2886 21.3726 28.2886 19.343 30.3182L3.75572 45.9055C1.72612 47.9351 1.72612 51.2312 3.75572 53.2608L19.343 68.8481C21.3726 70.8777 24.6687 70.8777 26.6983 68.8481C28.7279 66.8185 28.7279 63.5225 26.6983 61.4929L14.7805 49.575L26.6821 37.6572C28.7117 35.6276 28.7117 32.3316 26.6821 30.302L26.6983 30.3182Z" fill="#5EC2A9"/>
</svg>
