<svg viewBox="0 0 140 140" height="140" width="140" xmlns="http://www.w3.org/2000/svg"><g transform="matrix(5.833333333333333,0,0,5.833333333333333,0,0)"><path d="M6.75,13.875a.375.375,0,1,0,.375.375.375.375,0,0,0-.375-.375h0" fill="none" stroke="#0F2B4D" stroke-linecap="round" stroke-linejoin="round" stroke-width="1.5"></path><path d="M12 14.25L13.5 14.25" fill="none" stroke="#0F2B4D" stroke-linecap="round" stroke-linejoin="round" stroke-width="1.5"></path><path d="M16.5 14.25L18 14.25" fill="none" stroke="#0F2B4D" stroke-linecap="round" stroke-linejoin="round" stroke-width="1.5"></path><path d="M6.75,19.875a.375.375,0,1,0,.375.375.375.375,0,0,0-.375-.375h0" fill="none" stroke="#0F2B4D" stroke-linecap="round" stroke-linejoin="round" stroke-width="1.5"></path><path d="M12 20.25L13.5 20.25" fill="none" stroke="#0F2B4D" stroke-linecap="round" stroke-linejoin="round" stroke-width="1.5"></path><path d="M16.5 20.25L18 20.25" fill="none" stroke="#0F2B4D" stroke-linecap="round" stroke-linejoin="round" stroke-width="1.5"></path><path d="M21,14.25a3,3,0,0,1-3,3H6a3,3,0,0,1,0-6H18A3,3,0,0,1,21,14.25Z" fill="none" stroke="#0F2B4D" stroke-linecap="round" stroke-linejoin="round" stroke-width="1.5"></path><path d="M21,20.25a3,3,0,0,1-3,3H6a3,3,0,0,1,0-6H18A3,3,0,0,1,21,20.25Z" fill="none" stroke="#0F2B4D" stroke-linecap="round" stroke-linejoin="round" stroke-width="1.5"></path><path d="M23.12,12a4.881,4.881,0,0,0-4.745-6,4.844,4.844,0,0,0-2.764.865A7.5,7.5,0,1,0,1.375,11.251" fill="none" stroke="#0F2B4D" stroke-linecap="round" stroke-linejoin="round" stroke-width="1.5"></path></g></svg>