<svg viewBox="0 0 140 140" height="140" width="140" xmlns="http://www.w3.org/2000/svg"><g transform="matrix(5.833333333333333,0,0,5.833333333333333,0,0)"><path d="M0.750 4.800 A2.250 2.250 0 1 0 5.250 4.800 A2.250 2.250 0 1 0 0.750 4.800 Z" fill="none" stroke="#0F2B4D" stroke-linecap="round" stroke-linejoin="round" stroke-width="1.5"></path><path d="M18.750 4.800 A2.250 2.250 0 1 0 23.250 4.800 A2.250 2.250 0 1 0 18.750 4.800 Z" fill="none" stroke="#0F2B4D" stroke-linecap="round" stroke-linejoin="round" stroke-width="1.5"></path><path d="M17.25 22.05L13.5 22.05 12.75 13.05 13.5 13.05" fill="none" stroke="#0F2B4D" stroke-linecap="round" stroke-linejoin="round" stroke-width="1.5"></path><path d="M11.25 13.05L12.75 13.05" fill="none" stroke="#0F2B4D" stroke-linecap="round" stroke-linejoin="round" stroke-width="1.5"></path><path d="M21,22.05a1.5,1.5,0,0,1-1.5-1.5V13.64a7.424,7.424,0,0,1-4.794.88,1.5,1.5,0,0,1,.575-2.944,4.355,4.355,0,0,0,4.433-2.3,1.5,1.5,0,0,1,2.786.772v10.5A1.5,1.5,0,0,1,21,22.05Z" fill="none" stroke="#0F2B4D" stroke-linecap="round" stroke-linejoin="round" stroke-width="1.5"></path><path d="M3,22.05a1.5,1.5,0,0,1-1.5-1.5V10.05A1.5,1.5,0,0,1,3.671,8.708,3.371,3.371,0,0,0,8.408,7.129a1.5,1.5,0,0,1,2.684,1.342A6.469,6.469,0,0,1,4.5,12.1v8.45A1.5,1.5,0,0,1,3,22.05Z" fill="none" stroke="#0F2B4D" stroke-linecap="round" stroke-linejoin="round" stroke-width="1.5"></path><path d="M9.289 6.372L10.946 1.951 15.16 3.53 13.054 9.149 11.111 8.42" fill="none" stroke="#0F2B4D" stroke-linecap="round" stroke-linejoin="round" stroke-width="1.5"></path></g></svg>