<svg viewBox="0 0 140 140" height="140" width="140" xmlns="http://www.w3.org/2000/svg"><g transform="matrix(5.833333333333333,0,0,5.833333333333333,0,0)"><path d="M20.29 14.34L15.13 15.326" fill="none" stroke="#0F2B4D" stroke-linecap="round" stroke-linejoin="round" stroke-width="1.5"></path><path d="M14.416,8.478,10.948,9.624a1.151,1.151,0,0,1-1.405-.611,1.164,1.164,0,0,1,.529-1.53l3.359-1.689a2.343,2.343,0,0,1,1.861-.108l4.973,1.819" fill="none" stroke="#0F2B4D" stroke-linecap="round" stroke-linejoin="round" stroke-width="1.5"></path><path d="M3.685,14.348H6.13l3.512,3.936A1.342,1.342,0,0,0,12,17.408v-.615l.175.07a1.656,1.656,0,0,0,2.271-1.537h.489a1.468,1.468,0,0,0,1.174-2.348L12.97,8.956" fill="none" stroke="#0F2B4D" stroke-linecap="round" stroke-linejoin="round" stroke-width="1.5"></path><path d="M10.583,7.225l-.358-.295A2.1,2.1,0,0,0,8.98,6.521a2.081,2.081,0,0,0-.779.151L3.75,8.452" fill="none" stroke="#0F2B4D" stroke-linecap="round" stroke-linejoin="round" stroke-width="1.5"></path><path d="M.75,6.75h2a.961.961,0,0,1,1,.916v6.417a.962.962,0,0,1-1,.917h-2" fill="none" stroke="#0F2B4D" stroke-linecap="round" stroke-linejoin="round" stroke-width="1.5"></path><path d="M23.25,15h-2a.962.962,0,0,1-1-.917V7.666a.961.961,0,0,1,1-.916h2" fill="none" stroke="#0F2B4D" stroke-linecap="round" stroke-linejoin="round" stroke-width="1.5"></path><path d="M12 16.793L11.022 15.815" fill="none" stroke="#0F2B4D" stroke-linecap="round" stroke-linejoin="round" stroke-width="1.5"></path><path d="M14.446 15.326L12.978 13.858" fill="none" stroke="#0F2B4D" stroke-linecap="round" stroke-linejoin="round" stroke-width="1.5"></path></g></svg>