<svg xmlns="http://www.w3.org/2000/svg" viewBox="0 0 250 250"><g transform="matrix(10.416666666666666,0,0,10.416666666666666,0,0)"><defs><style>.a{fill:none;stroke:#0F2B4D;stroke-linecap:round;stroke-linejoin:round;stroke-width:1.5px;}</style></defs><title>award-medal-1</title><circle class="a" cx="12" cy="15" r="8.25"></circle><path class="a" d="M12.531,10.292l1.248,2.458h2.127a.582.582,0,0,1,.419,1l-1.953,1.922,1.082,2.485a.589.589,0,0,1-.839.737L12,17.419,9.385,18.89a.589.589,0,0,1-.839-.737l1.082-2.485L7.675,13.746a.582.582,0,0,1,.419-1h2.127l1.249-2.458A.6.6,0,0,1,12.531,10.292Z"></path><polyline class="a" points="17.25 8.636 20.25 0.75 3.75 0.75 6.75 8.636"></polyline><line class="a" x1="10.13" y1="6.963" x2="9" y2="0.75"></line><line class="a" x1="13.87" y1="6.963" x2="15" y2="0.75"></line></g></svg>