<svg viewBox="0 0 140 140" height="140" width="140" xmlns="http://www.w3.org/2000/svg"><g transform="matrix(5.833333333333333,0,0,5.833333333333333,0,0)"><path d="M3,12H2.25a1.5,1.5,0,0,1-1.5-1.5V3a1.5,1.5,0,0,1,1.5-1.5h10.5" fill="none" stroke="#0F2B4D" stroke-linecap="round" stroke-linejoin="round" stroke-width="1.5"></path><path d="M5.25,22.5,2.486,19.39a1.557,1.557,0,1,1,2.327-2.069L6.75,19.5v-9a1.5,1.5,0,0,1,3,0v6.75h1.5a4.5,4.5,0,0,1,4.5,4.5V22.5" fill="none" stroke="#0F2B4D" stroke-linecap="round" stroke-linejoin="round" stroke-width="1.5"></path><path d="M14.250 6.000 L23.250 6.000 L23.250 13.500 L14.250 13.500 Z" fill="none" stroke="#0F2B4D" stroke-linecap="round" stroke-linejoin="round" stroke-width="1.5"></path><path d="M18.75,1.5h0a3,3,0,0,0-3,3V6h6V4.5A3,3,0,0,0,18.75,1.5Z" fill="none" stroke="#0F2B4D" stroke-linecap="round" stroke-linejoin="round" stroke-width="1.5"></path><path d="M18.75,9.4a.375.375,0,1,1-.375.375A.375.375,0,0,1,18.75,9.4" fill="none" stroke="#0F2B4D" stroke-linecap="round" stroke-linejoin="round" stroke-width="1.5"></path></g></svg>