<svg viewBox="0 0 140 140" height="140" width="140" xmlns="http://www.w3.org/2000/svg"><g transform="matrix(5.833333333333333,0,0,5.833333333333333,0,0)"><path d="M23.25,9.937A13.5,13.5,0,0,1,12,23.25,13.5,13.5,0,0,1,.75,9.937V2.25A1.5,1.5,0,0,1,2.25.75h19.5a1.5,1.5,0,0,1,1.5,1.5Z" fill="none" stroke="#0F2B4D" stroke-linecap="round" stroke-linejoin="round" stroke-width="1.5"></path><path d="M9.750 6.000 A2.250 2.250 0 1 0 14.250 6.000 A2.250 2.250 0 1 0 9.750 6.000 Z" fill="none" stroke="#0F2B4D" stroke-linecap="round" stroke-linejoin="round" stroke-width="1.5"></path><path d="M13.5,18.75l.75-4.5h1.5V13.5a3.75,3.75,0,0,0-7.5,0v.75h1.5l.75,4.5Z" fill="none" stroke="#0F2B4D" stroke-linecap="round" stroke-linejoin="round" stroke-width="1.5"></path></g></svg>