<svg viewBox="0 0 140 140" height="140" width="140" xmlns="http://www.w3.org/2000/svg"><g transform="matrix(5.833333333333333,0,0,5.833333333333333,0,0)"><path d="M0.750 15.750 A7.500 7.500 0 1 0 15.750 15.750 A7.500 7.500 0 1 0 0.750 15.750 Z" fill="none" stroke="#0F2B4D" stroke-linecap="round" stroke-linejoin="round" stroke-width="1.5"></path><path d="M5.250 14.250 A3.000 3.000 0 1 0 11.250 14.250 A3.000 3.000 0 1 0 5.250 14.250 Z" fill="none" stroke="#0F2B4D" stroke-linecap="round" stroke-linejoin="round" stroke-width="1.5"></path><path d="M13.137,21.439a5.462,5.462,0,0,0-9.774,0" fill="none" stroke="#0F2B4D" stroke-linecap="round" stroke-linejoin="round" stroke-width="1.5"></path><path d="M3.75,5.25v-3A1.5,1.5,0,0,1,5.25.75H15.879a1.5,1.5,0,0,1,1.06.439l5.872,5.872a1.5,1.5,0,0,1,.439,1.06V21.75a1.5,1.5,0,0,1-1.5,1.5h-4.5" fill="none" stroke="#0F2B4D" stroke-linecap="round" stroke-linejoin="round" stroke-width="1.5"></path><path d="M23.25,8.25h-6a1.5,1.5,0,0,1-1.5-1.5v-6" fill="none" stroke="#0F2B4D" stroke-linecap="round" stroke-linejoin="round" stroke-width="1.5"></path></g></svg>