<svg viewBox="0 0 140 140" height="140" width="140" xmlns="http://www.w3.org/2000/svg"><g transform="matrix(5.833333333333333,0,0,5.833333333333333,0,0)"><path d="M4.5,3.375a.375.375,0,1,0,.375.375A.375.375,0,0,0,4.5,3.375h0" fill="none" stroke="#0F2B4D" stroke-linecap="round" stroke-linejoin="round" stroke-width="1.5"></path><path d="M9.751 3.75L11.251 3.75" fill="none" stroke="#0F2B4D" stroke-linecap="round" stroke-linejoin="round" stroke-width="1.5"></path><path d="M14.251 3.75L15.751 3.75" fill="none" stroke="#0F2B4D" stroke-linecap="round" stroke-linejoin="round" stroke-width="1.5"></path><path d="M4.5,9.375a.375.375,0,1,0,.375.375A.375.375,0,0,0,4.5,9.375h0" fill="none" stroke="#0F2B4D" stroke-linecap="round" stroke-linejoin="round" stroke-width="1.5"></path><path d="M9.751 9.75L11.251 9.75" fill="none" stroke="#0F2B4D" stroke-linecap="round" stroke-linejoin="round" stroke-width="1.5"></path><path d="M4.501 18.75L7.501 18.75 7.501 12.75" fill="none" stroke="#0F2B4D" stroke-linecap="round" stroke-linejoin="round" stroke-width="1.5"></path><path d="M1.126,18a.375.375,0,1,0,.375.375A.375.375,0,0,0,1.126,18h0" fill="none" stroke="#0F2B4D" stroke-linecap="round" stroke-linejoin="round" stroke-width="1.5"></path><path d="M18.751,3.75a3,3,0,0,1-3,3h-12a3,3,0,0,1,0-6h12A3,3,0,0,1,18.751,3.75Z" fill="none" stroke="#0F2B4D" stroke-linecap="round" stroke-linejoin="round" stroke-width="1.5"></path><path d="M8.251,12.75h-4.5a3,3,0,0,1,0-6h12a3,3,0,0,1,2.6,1.5" fill="none" stroke="#0F2B4D" stroke-linecap="round" stroke-linejoin="round" stroke-width="1.5"></path><path d="M10.501 15.750 A5.250 5.250 0 1 0 21.001 15.750 A5.250 5.250 0 1 0 10.501 15.750 Z" fill="none" stroke="#0F2B4D" stroke-linecap="round" stroke-linejoin="round" stroke-width="1.5"></path><path d="M23.251 23.25L19.463 19.462" fill="none" stroke="#0F2B4D" stroke-linecap="round" stroke-linejoin="round" stroke-width="1.5"></path></g></svg>