<svg viewBox="0 0 140 140" height="140" width="140" xmlns="http://www.w3.org/2000/svg"><g transform="matrix(5.833333333333333,0,0,5.833333333333333,0,0)"><path d="M23.25,18.75v3a1.5,1.5,0,0,1-1.5,1.5h-3" fill="none" stroke="#0F2B4D" stroke-linecap="round" stroke-linejoin="round" stroke-width="1.5"></path><path d="M18.75.75h3a1.5,1.5,0,0,1,1.5,1.5v3" fill="none" stroke="#0F2B4D" stroke-linecap="round" stroke-linejoin="round" stroke-width="1.5"></path><path d="M.75,5.25v-3A1.5,1.5,0,0,1,2.25.75h3" fill="none" stroke="#0F2B4D" stroke-linecap="round" stroke-linejoin="round" stroke-width="1.5"></path><path d="M5.25,23.25h-3a1.5,1.5,0,0,1-1.5-1.5v-3" fill="none" stroke="#0F2B4D" stroke-linecap="round" stroke-linejoin="round" stroke-width="1.5"></path><path d="M7.875 9.000 A4.125 4.125 0 1 0 16.125 9.000 A4.125 4.125 0 1 0 7.875 9.000 Z" fill="none" stroke="#0F2B4D" stroke-linecap="round" stroke-linejoin="round" stroke-width="1.5"></path><path d="M18.365,19.125a6.751,6.751,0,0,0-12.73,0" fill="none" stroke="#0F2B4D" stroke-linecap="round" stroke-linejoin="round" stroke-width="1.5"></path></g></svg>