<svg viewBox="0 0 140 140" height="140" width="140" xmlns="http://www.w3.org/2000/svg"><g transform="matrix(5.833333333333333,0,0,5.833333333333333,0,0)"><path d="M12.37,22.54l.01.007a4.5,4.5,0,0,0,5.6-.615l.629-.629a1.5,1.5,0,0,0,0-2.122L15.956,16.53a1.5,1.5,0,0,0-2.122,0h0a1.5,1.5,0,0,1-2.121,0L7.471,12.287a1.5,1.5,0,0,1,0-2.121h0a1.5,1.5,0,0,0,0-2.122L4.819,5.393a1.5,1.5,0,0,0-2.121,0l-.63.629a4.5,4.5,0,0,0-.614,5.6l.006.01A40.606,40.606,0,0,0,12.37,22.54Z" fill="none" stroke="#0F2B4D" stroke-linecap="round" stroke-linejoin="round" stroke-width="1.5"></path><path d="M23.25 0.75L13.5 10.5" fill="none" stroke="#0F2B4D" stroke-linecap="round" stroke-linejoin="round" stroke-width="1.5"></path><path d="M17.25 0.75L23.25 0.75 23.25 6.75" fill="none" stroke="#0F2B4D" stroke-linecap="round" stroke-linejoin="round" stroke-width="1.5"></path></g></svg>