<svg viewBox="0 0 140 140" height="140" width="140" xmlns="http://www.w3.org/2000/svg"><g transform="matrix(5.833333333333333,0,0,5.833333333333333,0,0)"><path d="M9.000 5.250 A3.000 3.000 0 1 0 15.000 5.250 A3.000 3.000 0 1 0 9.000 5.250 Z" fill="none" stroke="#0F2B4D" stroke-linecap="round" stroke-linejoin="round" stroke-width="1.5"></path><path d="M15.75,15.75V13.5a3.75,3.75,0,0,0-7.5,0v2.25h1.5l.75,6h3l.75-6Z" fill="none" stroke="#0F2B4D" stroke-linecap="round" stroke-linejoin="round" stroke-width="1.5"></path><path d="M20.25 23.25L20.25 15.75" fill="none" stroke="#0F2B4D" stroke-linecap="round" stroke-linejoin="round" stroke-width="1.5"></path><path d="M3.75 8.25L3.75 0.75" fill="none" stroke="#0F2B4D" stroke-linecap="round" stroke-linejoin="round" stroke-width="1.5"></path><path d="M17.25 20.25L20.25 23.25 23.25 20.25" fill="none" stroke="#0F2B4D" stroke-linecap="round" stroke-linejoin="round" stroke-width="1.5"></path><path d="M0.75 3.75L3.75 0.75 6.75 3.75" fill="none" stroke="#0F2B4D" stroke-linecap="round" stroke-linejoin="round" stroke-width="1.5"></path></g></svg>