<svg viewBox="0 0 140 140" height="140" width="140" xmlns="http://www.w3.org/2000/svg"><g transform="matrix(5.833333333333333,0,0,5.833333333333333,0,0)"><path d="M8.25,18l-3,2.25v-4.5h-3a1.5,1.5,0,0,1-1.5-1.5v-12A1.5,1.5,0,0,1,2.25.75h16.5a1.5,1.5,0,0,1,1.5,1.5v4.5" fill="none" stroke="#0F2B4D" stroke-linecap="round" stroke-linejoin="round" stroke-width="1.5"></path><path d="M5.25 5.25L15.75 5.25" fill="none" stroke="#0F2B4D" stroke-linecap="round" stroke-linejoin="round" stroke-width="1.5"></path><path d="M5.25 9.75L8.25 9.75" fill="none" stroke="#0F2B4D" stroke-linecap="round" stroke-linejoin="round" stroke-width="1.5"></path><path d="M23.25 18.75L20.25 18.75 20.25 23.25 15.75 18.75 11.25 18.75 11.25 9.75 23.25 9.75 23.25 18.75z" fill="none" stroke="#0F2B4D" stroke-linecap="round" stroke-linejoin="round" stroke-width="1.5"></path><path d="M20.25 12.75L14.25 12.75" fill="none" stroke="#0F2B4D" stroke-linecap="round" stroke-linejoin="round" stroke-width="1.5"></path><path d="M20.25 15.75L14.25 15.75" fill="none" stroke="#0F2B4D" stroke-linecap="round" stroke-linejoin="round" stroke-width="1.5"></path></g></svg>