<svg viewBox="0 0 140 140" height="140" width="140" xmlns="http://www.w3.org/2000/svg"><g transform="matrix(5.833333333333333,0,0,5.833333333333333,0,0)"><path d="M9.750 10.498 A3.750 3.750 0 1 0 17.250 10.498 A3.750 3.750 0 1 0 9.750 10.498 Z" fill="none" stroke="#102B4D" stroke-linecap="round" stroke-linejoin="round" stroke-width="1.5"></path><path d="M18.750 2.998 A2.250 2.250 0 1 0 23.250 2.998 A2.250 2.250 0 1 0 18.750 2.998 Z" fill="none" stroke="#102B4D" stroke-linecap="round" stroke-linejoin="round" stroke-width="1.5"></path><path d="M18.750 15.748 A2.250 2.250 0 1 0 23.250 15.748 A2.250 2.250 0 1 0 18.750 15.748 Z" fill="none" stroke="#102B4D" stroke-linecap="round" stroke-linejoin="round" stroke-width="1.5"></path><path d="M11.250 20.998 A2.250 2.250 0 1 0 15.750 20.998 A2.250 2.250 0 1 0 11.250 20.998 Z" fill="none" stroke="#102B4D" stroke-linecap="round" stroke-linejoin="round" stroke-width="1.5"></path><path d="M0.750 20.998 A2.250 2.250 0 1 0 5.250 20.998 A2.250 2.250 0 1 0 0.750 20.998 Z" fill="none" stroke="#102B4D" stroke-linecap="round" stroke-linejoin="round" stroke-width="1.5"></path><path d="M1.500 5.248 A2.250 2.250 0 1 0 6.000 5.248 A2.250 2.250 0 1 0 1.500 5.248 Z" fill="none" stroke="#102B4D" stroke-linecap="round" stroke-linejoin="round" stroke-width="1.5"></path><path d="M16.151 7.848L19.411 4.588" fill="none" stroke="#102B4D" stroke-linecap="round" stroke-linejoin="round" stroke-width="1.5"></path><path d="M16.794 12.292L19.079 14.577" fill="none" stroke="#102B4D" stroke-linecap="round" stroke-linejoin="round" stroke-width="1.5"></path><path d="M13.5 14.248L13.5 18.748" fill="none" stroke="#102B4D" stroke-linecap="round" stroke-linejoin="round" stroke-width="1.5"></path><path d="M10.851 13.147L4.59 19.408" fill="none" stroke="#102B4D" stroke-linecap="round" stroke-linejoin="round" stroke-width="1.5"></path><path d="M10.001 9.149L5.61 6.514" fill="none" stroke="#102B4D" stroke-linecap="round" stroke-linejoin="round" stroke-width="1.5"></path></g></svg>