<svg viewBox="0 0 140 140" height="140" width="140" xmlns="http://www.w3.org/2000/svg"><g transform="matrix(5.833333333333333,0,0,5.833333333333333,0,0)"><path d="M0.75 17.5L7.5 17.5" fill="none" stroke="#102B4D" stroke-linecap="round" stroke-linejoin="round" stroke-width="1.5"></path><path d="M7.5 6.25L0.75 6.25" fill="none" stroke="#102B4D" stroke-linecap="round" stroke-linejoin="round" stroke-width="1.5"></path><path d="M23.25 6.25L16.5 6.25" fill="none" stroke="#102B4D" stroke-linecap="round" stroke-linejoin="round" stroke-width="1.5"></path><path d="M16.5 17.5L23.25 17.5" fill="none" stroke="#102B4D" stroke-linecap="round" stroke-linejoin="round" stroke-width="1.5"></path><path d="M0.75 13.75L7.5 13.75" fill="none" stroke="#102B4D" stroke-linecap="round" stroke-linejoin="round" stroke-width="1.5"></path><path d="M0.75 10L7.5 10" fill="none" stroke="#102B4D" stroke-linecap="round" stroke-linejoin="round" stroke-width="1.5"></path><path d="M16.5 13.75L23.25 13.75" fill="none" stroke="#102B4D" stroke-linecap="round" stroke-linejoin="round" stroke-width="1.5"></path><path d="M16.5 10L23.25 10" fill="none" stroke="#102B4D" stroke-linecap="round" stroke-linejoin="round" stroke-width="1.5"></path><path d="M7.500 4.750 L16.500 4.750 L16.500 19.000 L7.500 19.000 Z" fill="none" stroke="#102B4D" stroke-linecap="round" stroke-linejoin="round" stroke-width="1.5"></path><path d="M10.142,14.094A2.221,2.221,0,0,0,12,14.969c1.139,0,2.063-.693,2.063-1.547S13.139,11.876,12,11.876s-2.062-.693-2.062-1.548S10.861,8.781,12,8.781a2.221,2.221,0,0,1,1.858.875" fill="none" stroke="#102B4D" stroke-linecap="round" stroke-linejoin="round" stroke-width="1.5"></path><path d="M12 14.969L12 16" fill="none" stroke="#102B4D" stroke-linecap="round" stroke-linejoin="round" stroke-width="1.5"></path><path d="M12 7.75L12 8.781" fill="none" stroke="#102B4D" stroke-linecap="round" stroke-linejoin="round" stroke-width="1.5"></path></g></svg>