<svg viewBox="0 0 140 140" height="140" width="140" xmlns="http://www.w3.org/2000/svg"><g transform="matrix(5.833333333333333,0,0,5.833333333333333,0,0)"><path d="M12.818,14.517l2.545-2.545,1.752.47a1.572,1.572,0,0,0,1.924-1.924l-.47-1.752.784-.784,1.752.47a1.571,1.571,0,0,0,1.924-1.924L22.56,4.776a2.356,2.356,0,0,0-3.333-3.332L9.486,11.185a6.283,6.283,0,1,0,3.332,3.332Z" fill="none" stroke="#0F2B4D" stroke-linecap="round" stroke-linejoin="round" stroke-width="1.5"></path><path d="M4.351 18.081 A1.571 1.571 0 1 0 7.493 18.081 A1.571 1.571 0 1 0 4.351 18.081 Z" fill="none" stroke="#0F2B4D" stroke-linecap="round" stroke-linejoin="round" stroke-width="1.5"></path></g></svg>