<svg viewBox="0 0 140 140" height="140" width="140" xmlns="http://www.w3.org/2000/svg"><g transform="matrix(5.833333333333333,0,0,5.833333333333333,0,0)"><path d="M9.750 16.500 A6.750 6.750 0 1 0 23.250 16.500 A6.750 6.750 0 1 0 9.750 16.500 Z" fill="none" stroke="#0F2B4D" stroke-linecap="round" stroke-linejoin="round" stroke-width="1.5"></path><path d="M10.134 18.75L22.866 18.75" fill="none" stroke="#0F2B4D" stroke-linecap="round" stroke-linejoin="round" stroke-width="1.5"></path><path d="M10.134 14.25L22.866 14.25" fill="none" stroke="#0F2B4D" stroke-linecap="round" stroke-linejoin="round" stroke-width="1.5"></path><path d="M15.044,9.908a21.863,21.863,0,0,0,.51,13.276" fill="none" stroke="#0F2B4D" stroke-linecap="round" stroke-linejoin="round" stroke-width="1.5"></path><path d="M17.956,9.908a21.734,21.734,0,0,1,.794,5.842,21.7,21.7,0,0,1-1.3,7.434" fill="none" stroke="#0F2B4D" stroke-linecap="round" stroke-linejoin="round" stroke-width="1.5"></path><path d="M21.75,7.5V2.366A1.62,1.62,0,0,0,20.135.75H2.357A1.612,1.612,0,0,0,.75,2.357V17.885A1.62,1.62,0,0,0,2.365,19.5H6.75" fill="none" stroke="#0F2B4D" stroke-linecap="round" stroke-linejoin="round" stroke-width="1.5"></path><path d="M0.75 5.25L21.75 5.25" fill="none" stroke="#0F2B4D" stroke-linecap="round" stroke-linejoin="round" stroke-width="1.5"></path><path d="M6.75 0.75L6.75 5.25" fill="none" stroke="#0F2B4D" stroke-linecap="round" stroke-linejoin="round" stroke-width="1.5"></path><path d="M11.25 0.75L11.25 5.25" fill="none" stroke="#0F2B4D" stroke-linecap="round" stroke-linejoin="round" stroke-width="1.5"></path></g></svg>