<svg viewBox="0 0 250 250" height="250" width="250" xmlns="http://www.w3.org/2000/svg"><g transform="matrix(10.416666666666666,0,0,10.416666666666666,0,0)"><path d="M12.75.75h4.5a3,3,0,0,1,3,3v3" fill="none" stroke="#0F2B4D" stroke-linecap="round" stroke-linejoin="round" stroke-width="1.5"></path><path d="M18 4.5L20.25 6.75 22.5 4.5" fill="none" stroke="#0F2B4D" stroke-linecap="round" stroke-linejoin="round" stroke-width="1.5"></path><path d="M10.5,23.25H6a3,3,0,0,1-3-3v-3" fill="none" stroke="#0F2B4D" stroke-linecap="round" stroke-linejoin="round" stroke-width="1.5"></path><path d="M5.25 19.5L3 17.25 0.75 19.5" fill="none" stroke="#0F2B4D" stroke-linecap="round" stroke-linejoin="round" stroke-width="1.5"></path><path d="M18.75,14.25H16.717a1.342,1.342,0,0,0-.5,2.587l2.064.826a1.342,1.342,0,0,1-.5,2.587H15.75" fill="none" stroke="#0F2B4D" stroke-linecap="round" stroke-linejoin="round" stroke-width="1.5"></path><path d="M17.25 14.25L17.25 13.5" fill="none" stroke="#0F2B4D" stroke-linecap="round" stroke-linejoin="round" stroke-width="1.5"></path><path d="M17.25 21L17.25 20.25" fill="none" stroke="#0F2B4D" stroke-linecap="round" stroke-linejoin="round" stroke-width="1.5"></path><path d="M11.250 17.250 A6.000 6.000 0 1 0 23.250 17.250 A6.000 6.000 0 1 0 11.250 17.250 Z" fill="none" stroke="#0F2B4D" stroke-linecap="round" stroke-linejoin="round" stroke-width="1.5"></path><path d="M2.25,11.25h6V1.5A.75.75,0,0,0,7.5.75H3a.75.75,0,0,0-.75.75Z" fill="none" stroke="#0F2B4D" stroke-linecap="round" stroke-linejoin="round" stroke-width="1.5"></path><path d="M5.25 4.5L8.25 4.5" fill="none" stroke="#0F2B4D" stroke-linecap="round" stroke-linejoin="round" stroke-width="1.5"></path><path d="M5.25 7.5L8.25 7.5" fill="none" stroke="#0F2B4D" stroke-linecap="round" stroke-linejoin="round" stroke-width="1.5"></path><path d="M9.75 11.25L8.25 11.25" fill="none" stroke="#0F2B4D" stroke-linecap="round" stroke-linejoin="round" stroke-width="1.5"></path><path d="M2.25 11.25L0.75 11.25" fill="none" stroke="#0F2B4D" stroke-linecap="round" stroke-linejoin="round" stroke-width="1.5"></path></g></svg>