<svg viewBox="0 0 140 140" height="140" width="140" xmlns="http://www.w3.org/2000/svg"><g transform="matrix(5.833333333333333,0,0,5.833333333333333,0,0)"><path d="M4.5,18.011H3.75a3,3,0,0,1-3-3v-3a3,3,0,0,1,3-3H4.5c.414,0,1.5.336,1.5.75v7.5C6,17.675,4.914,18.011,4.5,18.011Z" fill="none" stroke="#0F2B4D" stroke-linecap="round" stroke-linejoin="round" stroke-width="1.5"></path><path d="M20.25,18.011H19.5c-.414,0-1.5-.336-1.5-.75v-7.5c0-.414,1.086-.75,1.5-.75h.75a3,3,0,0,1,3,3v3A3,3,0,0,1,20.25,18.011Z" fill="none" stroke="#0F2B4D" stroke-linecap="round" stroke-linejoin="round" stroke-width="1.5"></path><path d="M3.75,9.011A8.25,8.25,0,0,1,12,.761h0a8.25,8.25,0,0,1,8.25,8.25" fill="none" stroke="#0F2B4D" stroke-linecap="round" stroke-linejoin="round" stroke-width="1.5"></path><path d="M15,21.761h2.25a3,3,0,0,0,3-3h0v-.75" fill="none" stroke="#0F2B4D" stroke-linecap="round" stroke-linejoin="round" stroke-width="1.5"></path><path d="M13.5,23.261h-3a1.5,1.5,0,0,1-1.5-1.5H9a1.5,1.5,0,0,1,1.5-1.5h3a1.5,1.5,0,0,1,1.5,1.5h0A1.5,1.5,0,0,1,13.5,23.261Z" fill="none" stroke="#0F2B4D" stroke-linecap="round" stroke-linejoin="round" stroke-width="1.5"></path></g></svg>