<?xml version="1.0" encoding="UTF-8"?>
<svg id="Layer_1" data-name="Layer 1" xmlns="http://www.w3.org/2000/svg" viewBox="0 0 140 140">
  <defs>
    <style>
      .cls-1 {
        stroke-width: 4px;
      }

      .cls-1, .cls-2 {
        fill: none;
        stroke: #0f2b4d;
        stroke-linecap: round;
        stroke-linejoin: round;
      }

      .cls-2 {
        stroke-width: 8.75px;
      }
    </style>
  </defs>
  <g>
    <path class="cls-2" d="m52.08,85.88h23.89v23.81h-23.89v-23.81Z"/>
    <path class="cls-2" d="m92.25,85.88h23.89v23.81h-23.89v-23.81Z"/>
  </g>
  <path class="cls-2" d="m52.08,45.33h23.89v23.81h-23.89v-23.81Z"/>
  <g>
    <polyline class="cls-1" points="92.25 51.33 92.25 45.33 98.25 45.33"/>
    <polyline class="cls-1" points="110.14 45.33 116.14 45.33 116.14 51.33"/>
    <polyline class="cls-1" points="116.14 63.14 116.14 69.14 110.14 69.14"/>
    <polyline class="cls-1" points="98.25 69.14 92.25 69.14 92.25 63.14"/>
  </g>
  <path class="cls-2" d="m19.35,12.37c-7.3,0-13.21,5.91-13.21,13.21v86.1h1.3c2.13-4.44,6.65-7.52,11.91-7.52s9.78,3.08,11.91,7.52h1.3V25.58c0-7.3-5.91-13.21-13.21-13.21Z"/>
  <path class="cls-2" d="m32.56,27.38h101.29v100.25H21.97c-8.74,0-15.83-7.09-15.83-15.83"/>
</svg>