<svg viewBox="0 0 140 140" height="140" width="140" xmlns="http://www.w3.org/2000/svg"><g transform="matrix(5.833333333333333,0,0,5.833333333333333,0,0)"><path d="M14.250 15.750 L23.250 15.750 L23.250 23.250 L14.250 23.250 Z" fill="none" stroke="#102B4D" stroke-linecap="round" stroke-linejoin="round" stroke-width="1.5"></path><path d="M18.75,11.25h0a3,3,0,0,0-3,3v1.5h6v-1.5A3,3,0,0,0,18.75,11.25Z" fill="none" stroke="#102B4D" stroke-linecap="round" stroke-linejoin="round" stroke-width="1.5"></path><path d="M18.75,19.155a.375.375,0,1,0,.375.375.375.375,0,0,0-.375-.375h0" fill="none" stroke="#102B4D" stroke-linecap="round" stroke-linejoin="round" stroke-width="1.5"></path><path d="M23.1,9.659a4.868,4.868,0,0,0-7.486-2.794A7.5,7.5,0,1,0,8.25,15.75h3" fill="none" stroke="#102B4D" stroke-linecap="round" stroke-linejoin="round" stroke-width="1.5"></path></g></svg>