<svg viewBox="0 0 140 140" height="140" width="140" xmlns="http://www.w3.org/2000/svg"><g transform="matrix(5.833333333333333,0,0,5.833333333333333,0,0)"><path d="M10.782,10.516A6.052,6.052,0,0,0,6.75,9a6,6,0,0,0-6,5.25" fill="none" stroke="#0F2B4D" stroke-linecap="round" stroke-linejoin="round" stroke-width="1.5"></path><path d="M3.375 4.128 A3.375 3.375 0 1 0 10.125 4.128 A3.375 3.375 0 1 0 3.375 4.128 Z" fill="none" stroke="#0F2B4D" stroke-linecap="round" stroke-linejoin="round" stroke-width="1.5"></path><path d="M13.875 3.378 A2.625 2.625 0 1 0 19.125 3.378 A2.625 2.625 0 1 0 13.875 3.378 Z" fill="none" stroke="#0F2B4D" stroke-linecap="round" stroke-linejoin="round" stroke-width="1.5"></path><path d="M20.4,9a4.5,4.5,0,0,0-7.285-.71" fill="none" stroke="#0F2B4D" stroke-linecap="round" stroke-linejoin="round" stroke-width="1.5"></path><path d="M11.250 17.247 A6.000 6.000 0 1 0 23.250 17.247 A6.000 6.000 0 1 0 11.250 17.247 Z" fill="none" stroke="#0F2B4D" stroke-linecap="round" stroke-linejoin="round" stroke-width="1.5"></path><path d="M19.924,15.5l-2.905,3.874a.751.751,0,0,1-1.131.08l-1.5-1.5" fill="none" stroke="#0F2B4D" stroke-linecap="round" stroke-linejoin="round" stroke-width="1.5"></path></g></svg>