<svg width="99" height="99" viewBox="0 0 99 99" fill="none" xmlns="http://www.w3.org/2000/svg">
<path d="M15.1007 29.4134C15.1007 25.5185 18.2612 22.3663 22.1669 22.3663C24.5082 22.3663 26.4064 20.4736 26.4064 18.1378C26.4064 15.8033 24.5082 13.9092 22.1669 13.9092C13.5786 13.9092 6.62174 20.8483 6.62174 29.4134V77.3345C6.62174 85.8996 13.5786 92.8387 22.1669 92.8387H81.5196C86.9803 92.8387 91.4113 88.4201 91.4113 82.973V46.3275C91.4113 40.8791 86.9803 36.4605 81.5196 36.4605H22.1669C18.2612 36.4605 15.1007 33.3082 15.1007 29.4134Z" fill="#5EC269"/>
<path fill-rule="evenodd" clip-rule="evenodd" d="M35.2398 10.8678C37.6276 5.9678 43.5423 3.93011 48.4533 6.30559L82.4484 22.7507C84.2249 23.6109 85.1713 25.5802 84.7309 27.4989C84.2892 29.4189 82.5783 30.781 80.6036 30.7838L32.2339 30.8522C30.7706 30.8535 29.4085 30.1027 28.633 28.8637C27.8576 27.6261 27.7769 26.0752 28.4211 24.7637L35.2398 10.8678Z" fill="#B8E5BE"/>
<path d="M70.2139 71.6976C74.1142 71.6976 77.2802 68.5398 77.2802 64.6505C77.2802 60.7597 74.1142 57.602 70.2139 57.602C66.3136 57.602 63.1476 60.7597 63.1476 64.6505C63.1476 68.5398 66.3136 71.6976 70.2139 71.6976Z" fill="#B8E5BE"/>
</svg>
