<?xml version="1.0" encoding="UTF-8"?>
<svg id="Layer_1" data-name="Layer 1" xmlns="http://www.w3.org/2000/svg" viewBox="0 0 250 250">
  <path d="M54.7,78.1c-21.5,0-39.1-17.5-39.1-39.1S33.1,0,54.7,0s39.1,17.5,39.1,39.1-17.5,39.1-39.1,39.1v-.1ZM54.7,15.6c-12.9,0-23.4,10.5-23.4,23.4s10.5,23.4,23.4,23.4,23.4-10.5,23.4-23.4-10.5-23.4-23.4-23.4Z"/>
  <path d="M78.1,250H31.2c-4,0-7.4-3-7.8-7l-7.1-71.1H7.8c-4.3,0-7.8-3.5-7.8-7.8v-31.2c0-30.2,24.5-54.7,54.7-54.7s54.7,24.5,54.7,54.7v31.2c0,4.3-3.5,7.8-7.8,7.8h-8.6l-7.1,71.1c-.4,4-3.8,7-7.8,7ZM38.3,234.4h32.7l7.1-71.1c.4-4,3.8-7,7.8-7h7.8v-23.4c0-21.5-17.5-39.1-39.1-39.1s-39.1,17.5-39.1,39.1v23.4h7.8c4,0,7.4,3,7.8,7l7.1,71.1h.1Z"/>
  <path d="M179.7,140.6c-38.8,0-70.3-31.5-70.3-70.3S140.9,0,179.7,0c7.67,0,7.8,3.5,7.8,7.8s-3.5,7.8-7.8,7.8c-30.2,0-54.7,24.5-54.7,54.7s24.5,54.7,54.7,54.7,54.7-24.5,54.7-54.7c0-7.9,3.5-7.8,7.8-7.8s7.8,3.5,7.8,7.8c0,38.8-31.5,70.3-70.3,70.3Z"/>
  <path d="M179.7,90.5c-4.2,0-8.1-1.6-11-4.6h0l-17.9-17.9c-3.1-3-3.1-8,0-11,3.1-3.1,8-3.1,11,0l17.9,17.9h0l57-57c3.1-3.1,8-3.1,11,0,3.1,3.1,3.1,8,0,11l-57,57c-2.9,2.9-6.9,4.6-11,4.6h0Z"/>
</svg>