<svg id="Layer_1" data-name="Layer 1" xmlns="http://www.w3.org/2000/svg" viewBox="0 0 140 140">
  <title>Artboard 4</title>
  <g>
    <g>
      <path d="M38.3,127.6A33.6,33.6,0,0,1,7.1,106.5a33.4,33.4,0,0,1,.2-25.8A33,33,0,0,1,25.7,62.6,33.4,33.4,0,0,1,50,62.2L97.5,14.7a14,14,0,0,1,10-4.2h0a14.1,14.1,0,0,1,10.9,23.1l2,7.5a9.5,9.5,0,0,1,0,5.3,10.5,10.5,0,0,1-4.7,6.2,10.6,10.6,0,0,1-7.8,1l-7.4-2-2,2,2,7.4a9.6,9.6,0,0,1,0,5.3,10.5,10.5,0,0,1-4.7,6.2,10.6,10.6,0,0,1-7.8,1l-7.4-2L69.9,82.2a33.7,33.7,0,0,1-19,42.9A34.1,34.1,0,0,1,38.3,127.6Zm0-62.8a29,29,0,0,0-26.9,39.9A28.5,28.5,0,0,0,27,120.5a29,29,0,0,0,38-38,2.3,2.3,0,0,1,.5-2.6L78.2,67.2a2.4,2.4,0,0,1,2.3-.6L89.2,69a6.1,6.1,0,0,0,4.2-.6A5.4,5.4,0,0,0,96,65.1a7.1,7.1,0,0,0,0-2.9l-2.4-8.7a2.4,2.4,0,0,1,.6-2.3l3.9-3.9a2.4,2.4,0,0,1,2.3-.6l8.8,2.3a5.5,5.5,0,0,0,6.7-3.8,7.1,7.1,0,0,0,0-2.9l-2.4-8.7a2.4,2.4,0,0,1,.6-2.3,9.3,9.3,0,0,0,0-13.3,9.1,9.1,0,0,0-6.6-2.8h0a9.5,9.5,0,0,0-6.7,2.8L52.2,66.6a2.3,2.3,0,0,1-2.6.5A30,30,0,0,0,38.3,64.8Z" fill="#002a4e"/>
      <path d="M32.8,109.6A10.2,10.2,0,1,1,43,99.4,10.2,10.2,0,0,1,32.8,109.6Zm0-15.7a5.4,5.4,0,0,0-5.5,5.5,5.5,5.5,0,1,0,10.9,0A5.4,5.4,0,0,0,32.8,93.9Z" fill="#002a4e"/>
    </g>
    <g>
      <path d="M84.4,126.4a2.3,2.3,0,0,1-2.3-2.3V108.9a2.3,2.3,0,0,1,2.3-2.4H99.6a2.4,2.4,0,0,1,2.4,2.4,2.3,2.3,0,0,1-2.4,2.3H86.8v12.9A2.3,2.3,0,0,1,84.4,126.4Z" fill="#002a4e"/>
      <path d="M109.3,129.5a24.5,24.5,0,0,1-8-1.4,25.2,25.2,0,0,1-16.5-18.8,2.4,2.4,0,0,1,4.7-.9,20.2,20.2,0,0,0,39,2.7,2.3,2.3,0,1,1,4.4,1.5A25,25,0,0,1,109.3,129.5Z" fill="#002a4e"/>
      <path d="M133.1,99H117.9a2.3,2.3,0,0,1-2.4-2.3,2.4,2.4,0,0,1,2.4-2.4h12.8V81.5a2.4,2.4,0,0,1,2.4-2.4,2.3,2.3,0,0,1,2.3,2.4V96.7A2.3,2.3,0,0,1,133.1,99Z" fill="#002a4e"/>
      <path d="M130.3,99a2.3,2.3,0,0,1-2.3-1.9,20.2,20.2,0,0,0-39-2.6,2.3,2.3,0,0,1-3,1.4A2.3,2.3,0,0,1,84.5,93a24.9,24.9,0,0,1,48.1,3.2,2.3,2.3,0,0,1-1.8,2.8Z" fill="#002a4e"/>
    </g>
  </g>
</svg>
