<?xml version="1.0" encoding="UTF-8"?>
<svg id="Layer_1" xmlns="http://www.w3.org/2000/svg" version="1.1" viewBox="0 0 140 140">
  <!-- Generator: Adobe Illustrator 29.6.0, SVG Export Plug-In . SVG Version: 2.1.1 Build 207)  -->
  <defs>
    <style>
      .st0 {
        fill: #0f2b4d;
      }
    </style>
  </defs>
  <path class="st0" d="M70,140c-2.7,0-5.3-.5-7.9-1.5l-6.1-2.3c-28.3-10.9-47.3-38.6-47.3-68.9V22.9c0-5.1,3-9.8,7.6-11.9C33.4,3.5,51.5-.2,70,0c18.5-.2,36.5,3.5,53.5,10.9,4.7,2.2,7.7,6.9,7.7,12v44.4c0,30.3-19,58-47.3,68.9l-6.1,2.3c-2.5,1-5.2,1.5-7.9,1.5ZM68.9,8.7c-17,0-33.4,3.4-48.9,10.2-1.5.7-2.4,2.2-2.4,3.9h0v44.4c0,26.7,16.8,51.1,41.7,60.7l6.1,2.3c3,1.2,6.4,1.2,9.4,0l6.1-2.3c24.9-9.6,41.7-34,41.7-60.7V22.9c0-1.7-1-3.3-2.5-4-15.8-6.9-32.6-10.3-49.9-10.2-.4,0-.8,0-1.2,0Z"/>
  <path class="st0" d="M70.1,96.3c-1.7,0-3.4-.1-5.1-.4-19.1-2.8-32.4-20.5-29.6-39.6,2.5-17.1,17.3-30,34.6-30h0c2.4,0,4.4,2,4.4,4.4,0,2.4-2,4.4-4.4,4.4-13,0-24.1,9.7-26,22.5-2.1,14.3,7.9,27.7,22.2,29.7,6.9,1,13.9-.8,19.5-5,5.6-4.2,9.3-10.3,10.3-17.3.3-2.4,2.6-4.1,5-3.7,2.4.3,4,2.6,3.7,5-1.3,9.3-6.2,17.4-13.7,23-6.1,4.6-13.4,7-20.9,7Z"/>
  <path class="st0" d="M70,71.7c-2.1,0-4.2-.8-5.8-2.4l-8.8-8.8c-1.7-1.7-1.7-4.5,0-6.2,1.7-1.7,4.5-1.7,6.2,0l8.4,8.4,27.5-27.5c1.7-1.7,4.5-1.7,6.2,0,1.7,1.7,1.7,4.5,0,6.2l-27.9,27.9c-1.6,1.6-3.7,2.4-5.8,2.4Z"/>
</svg>