<?xml version="1.0" encoding="UTF-8"?>
<svg id="Layer_1" xmlns="http://www.w3.org/2000/svg" version="1.1" viewBox="0 0 140 140">
  <!-- Generator: Adobe Illustrator 29.6.0, SVG Export Plug-In . SVG Version: 2.1.1 Build 207)  -->
  <defs>
    <style>
      .st0 {
        fill: #102b4d;
      }
    </style>
  </defs>
  <path class="st0" d="M135.6,87.5h-4.4v-4.4c0-12.1-9.8-21.9-21.9-21.9s-21.9,9.8-21.9,21.9v4.4h-4.4c-2.4,0-4.4,2-4.4,4.4v43.8c0,2.4,2,4.4,4.4,4.4h52.5c2.4,0,4.4-2,4.4-4.4v-43.8c0-2.4-2-4.4-4.4-4.4h.1ZM96.2,83.1c0-7.2,5.9-13.1,13.1-13.1s13.1,5.9,13.1,13.1v4.4h-26.2v-4.4ZM131.2,131.2h-43.8v-35h43.8v35ZM109.4,107.3c3.6,0,6.6,3,6.6,6.6s-3,6.6-6.6,6.6-6.6-3-6.6-6.6,3-6.6,6.6-6.6ZM89.4,44.1c1.4.6,2.9.4,4.2-.4,2.3-1.6,4.9-2.8,7.7-3.5,12.8-3.3,25.9,4.5,29.2,17.3.6,2.3,3,3.8,5.3,3.2s3.8-3,3.2-5.3c-4.5-17.5-22.4-28.1-39.9-23.6-1.8.5-3.5,1.1-5.2,1.8-3.2-10.2-9.7-18.9-18.7-25.1C64.6,1.1,51.8-1.5,39.2.8,26.6,3.2,15.6,10.4,8.4,21,1.1,31.6-1.6,44.4.8,57c4.3,22.7,24.2,39.2,47.3,39.2h17.5c2.4,0,4.4-2,4.4-4.4s-2-4.4-4.4-4.4h-17.5c-18.9,0-35.2-13.5-38.7-32.1-1.9-10.3.3-20.8,6.2-29.5,5.9-8.7,14.9-14.5,25.2-16.5,10.3-1.9,20.8.3,29.5,6.2,8.7,5.9,14.5,14.9,16.5,25.2.3,1.5,1.3,2.7,2.6,3.2v.2Z"/>
</svg>