<?xml version="1.0" encoding="UTF-8"?>
<svg id="Layer_1" xmlns="http://www.w3.org/2000/svg" version="1.1" viewBox="0 0 140 140">
  <!-- Generator: Adobe Illustrator 29.6.0, SVG Export Plug-In . SVG Version: 2.1.1 Build 207)  -->
  <defs>
    <style>
      .st0 {
        fill: #0f2b4d;
      }
    </style>
  </defs>
  <path class="st0" d="M100.6,109.4c-7.2,0-13.1-5.9-13.1-13.1s5.9-13.1,13.1-13.1,13.1,5.9,13.1,13.1-5.9,13.1-13.1,13.1ZM100.6,91.9c-2.4,0-4.4,2-4.4,4.4s2,4.4,4.4,4.4,4.4-2,4.4-4.4-2-4.4-4.4-4.4Z"/>
  <path class="st0" d="M100.7,140.1c-1.2,0-2.3-.2-3.5-.5-3.9-1.2-7-4.2-8.1-8.1l-2.6-8.5c-.2-.7-1-1.2-1.7-1l-8.6,2c-6.6,1.5-13.1-2.6-14.6-9.2-.9-3.9.2-8,3-11l6-6.5c.5-.6.5-1.4,0-2l-6-6.5c-4.6-4.9-4.3-12.6.6-17.2,2.9-2.7,7.1-3.8,11-3l8.6,2c.7.2,1.5-.3,1.7-1l2.6-8.5c.9-3.1,3-5.6,5.8-7.2,2.9-1.5,6.1-1.9,9.2-1,3.9,1.2,7,4.2,8.2,8.1l2.6,8.5c.2.7,1,1.2,1.7,1l8.6-2c3.2-.7,6.5-.2,9.2,1.6s4.7,4.4,5.4,7.6c.9,3.9-.2,8-3,11l-6,6.5c-.5.6-.5,1.4,0,2l6,6.5c4.6,4.9,4.3,12.6-.6,17.2-2.9,2.7-7.1,3.8-11,3l-8.6-2c-.7-.2-1.5.3-1.7,1l-2.6,8.5c-.9,3.1-3,5.6-5.9,7.2-1.8,1-3.8,1.5-5.7,1.5ZM85.1,113.2c4.4,0,8.4,2.9,9.7,7.2l2.6,8.5c.3,1.1,1.2,2,2.3,2.3.9.3,1.8.2,2.6-.3.8-.4,1.4-1.1,1.6-2l2.6-8.5c1.5-5.1,6.8-8.2,12-7l8.6,2c1.1.2,2.2,0,3.1-.8,1.4-1.3,1.5-3.5.2-4.9l-6-6.5c-3.6-3.9-3.6-10,0-13.9l6-6.5c.8-.8,1.1-2,.8-3.1-.2-.9-.7-1.7-1.5-2.1-.8-.5-1.7-.6-2.6-.4l-8.6,2c-5.2,1.2-10.5-1.9-12-7l-2.6-8.5s0,0,0,0c-.3-1.1-1.2-1.9-2.3-2.3-.9-.3-1.8-.2-2.6.3-.8.4-1.4,1.1-1.6,2l-2.6,8.5c-1.5,5.1-6.8,8.2-12,7l-8.6-2c-1.1-.2-2.2,0-3.1.8-1.4,1.3-1.5,3.5-.2,4.9l6,6.5c3.6,3.9,3.6,10,0,13.9l-6,6.5c-.8.8-1.1,2-.8,3.1.4,1.8,2.3,3,4.1,2.6l8.6-2c.8-.2,1.5-.3,2.3-.3Z"/>
  <path class="st0" d="M48.1,122.5H13.1C5.9,122.5,0,116.6,0,109.4V13.1C0,5.9,5.9,0,13.1,0h62c3.5,0,6.8,1.4,9.3,3.9l16.8,16.7c2.5,2.5,3.8,5.8,3.8,9.3v9.5c0,2.4-2,4.4-4.4,4.4s-4.4-2-4.4-4.4v-9.5c0-1.2-.5-2.3-1.3-3.1l-16.8-16.7c-.8-.8-1.9-1.3-3.1-1.3H13.1c-2.4,0-4.4,2-4.4,4.4v96.2c0,2.4,2,4.4,4.4,4.4h35c2.4,0,4.4,2,4.4,4.4s-2,4.4-4.4,4.4Z"/>
  <path class="st0" d="M52.5,65.6c-1.1,0-2.2-.4-3.1-1.3-1.7-1.7-1.7-4.5,0-6.2l10-10-10-10c-1.7-1.7-1.7-4.5,0-6.2,1.7-1.7,4.5-1.7,6.2,0l13.1,13.1c1.7,1.7,1.7,4.5,0,6.2l-13.1,13.1c-.9.9-2,1.3-3.1,1.3Z"/>
  <path class="st0" d="M35,65.6c-1.1,0-2.2-.4-3.1-1.3l-13.1-13.1c-1.7-1.7-1.7-4.5,0-6.2l13.1-13.1c1.7-1.7,4.5-1.7,6.2,0,1.7,1.7,1.7,4.5,0,6.2l-10,10,10,10c1.7,1.7,1.7,4.5,0,6.2-.9.9-2,1.3-3.1,1.3Z"/>
</svg>