<?xml version="1.0" encoding="UTF-8"?>
<svg id="Layer_1" xmlns="http://www.w3.org/2000/svg" version="1.1" viewBox="0 0 140 140">
  <!-- Generator: Adobe Illustrator 29.6.0, SVG Export Plug-In . SVG Version: 2.1.1 Build 207)  -->
  <defs>
    <style>
      .st0 {
        fill: #0f2b4d;
      }
    </style>
  </defs>
  <path class="st0" d="M88.3,93.8c-2.1,0-3.9-1.5-4.3-3.6-.5-2.4,1.1-4.7,3.5-5.1l30.1-5.8c2.4-.5,4.7,1.1,5.1,3.5.5,2.4-1.1,4.7-3.5,5.1l-30.1,5.8c-.3,0-.6,0-.8,0Z"/>
  <path class="st0" d="M61.8,60.9c-4.2,0-8.2-2.4-10.1-6.4-2.6-5.5-.3-11.9,5.1-14.7l19.6-9.9c4.4-2.2,9.7-2.5,14.3-.8l29,10.6c2.3.8,3.4,3.3,2.6,5.6s-3.3,3.4-5.6,2.6l-29-10.6c-2.4-.9-5.1-.7-7.4.4l-19.6,9.9c-1.2.6-1.6,2-1.1,3.2.5,1.1,1.7,1.6,2.9,1.3l20.2-6.7c2.3-.8,4.8.5,5.5,2.8.8,2.3-.5,4.8-2.8,5.5l-20.2,6.7c-1.1.4-2.3.6-3.5.6Z"/>
  <path class="st0" d="M62.2,113.7c-.3,0-.6,0-.9,0-3.3-.2-6.2-1.7-8.3-4.2l-19.1-21.4h-12.3c-2.4,0-4.4-2-4.4-4.4s2-4.4,4.4-4.4h14.3c1.2,0,2.4.5,3.3,1.5l20.5,23c.7.8,1.5,1.2,2.4,1.2.9,0,1.8-.2,2.5-.8.8-.7,1.2-1.6,1.2-2.6v-3.6c0-1.5.7-2.8,1.9-3.6,1.2-.8,2.7-1,4.1-.4l1,.4c2.7,1.1,5.8-.2,6.9-2.9.3-.6.4-1.3.4-2,0-2.4,2-4.4,4.4-4.4h2.9c1.1,0,2.2-.4,3-1.2.8-.8,1.2-1.8,1.2-3,0-.9-.3-1.8-.8-2.5l-18.3-23.4c-1.5-1.9-1.1-4.7.8-6.1,1.9-1.5,4.7-1.1,6.1.8l18.3,23.5c1.7,2.3,2.6,5,2.6,7.8,0,3.5-1.3,6.7-3.8,9.2-2.2,2.2-5.2,3.6-8.3,3.8,0,.3-.2.6-.3.9-2.2,5.6-7.7,9-13.4,8.8-.4,2.8-1.9,5.4-4.1,7.4-2.2,1.9-5,3-8,3Z"/>
  <path class="st0" d="M21.9,53.7c-1.7,0-3.4-1-4.1-2.8-.9-2.2.2-4.8,2.4-5.7l26-10.4c2-.8,4-1.2,6.2-1.2h0c3.6,0,7,1.1,9.9,3.2,0,0,.1,0,.2.1l2.1,1.7c1.9,1.5,2.1,4.3.6,6.2-1.5,1.9-4.3,2.1-6.2.6l-2-1.6c-1.3-1-2.9-1.5-4.6-1.5h0c-1,0-2,.2-2.9.6l-26,10.4c-.5.2-1.1.3-1.6.3Z"/>
  <path class="st0" d="M16.3,91.9c-.1,0-.2,0-.3,0H4.4c-2.4,0-4.4-2-4.4-4.4s2-4.4,4.4-4.4h11.7c0,0,.1,0,.2,0,.6,0,1.2-.5,1.3-1.1v-37.2c0-.6-.6-1.1-1.3-1.1,0,0-.1,0-.2,0H4.4c-2.4,0-4.4-2-4.4-4.4s2-4.4,4.4-4.4h11.6c.1,0,.2,0,.3,0,5.3,0,9.7,4.2,10,9.5,0,0,0,.1,0,.2v37.4c0,0,0,.1,0,.2-.2,5.3-4.7,9.5-10,9.5Z"/>
  <path class="st0" d="M123.7,91.9c-5.3,0-9.7-4.2-10-9.5,0,0,0-.1,0-.2v-37.4c0,0,0-.1,0-.2.2-5.4,4.8-9.7,10.3-9.5h11.6c2.4,0,4.4,2,4.4,4.4s-2,4.4-4.4,4.4h-11.7c0,0-.1,0-.2,0-.7,0-1.2.5-1.3,1.1v37.2c0,.6.6,1.1,1.3,1.1,0,0,.1,0,.2,0h11.7c2.4,0,4.4,2,4.4,4.4s-2,4.4-4.4,4.4h-11.6c-.1,0-.2,0-.3,0Z"/>
  <path class="st0" d="M70,102.3c-1.1,0-2.2-.4-3.1-1.3l-5.7-5.7c-1.7-1.7-1.7-4.5,0-6.2,1.7-1.7,4.5-1.7,6.2,0l5.7,5.7c1.7,1.7,1.7,4.5,0,6.2-.9.9-2,1.3-3.1,1.3Z"/>
  <path class="st0" d="M84.3,93.8c-1.1,0-2.2-.4-3.1-1.3l-8.6-8.6c-1.7-1.7-1.7-4.5,0-6.2,1.7-1.7,4.5-1.7,6.2,0l8.6,8.6c1.7,1.7,1.7,4.5,0,6.2-.9.9-2,1.3-3.1,1.3Z"/>
</svg>