<?xml version="1.0" encoding="UTF-8"?>
<svg id="Layer_1" xmlns="http://www.w3.org/2000/svg" version="1.1" viewBox="0 0 140 140">
  <!-- Generator: Adobe Illustrator 29.6.0, SVG Export Plug-In . SVG Version: 2.1.1 Build 207)  -->
  <defs>
    <style>
      .st0 {
        fill: #0f2b4d;
      }
    </style>
  </defs>
  <path class="st0" d="M70,140C31.4,140,0,108.6,0,70S31.4,0,70,0s70,31.4,70,70-31.4,70-70,70ZM70,8.8c-33.8,0-61.2,27.5-61.2,61.2s27.5,61.2,61.2,61.2,61.2-27.5,61.2-61.2S103.8,8.8,70,8.8Z"/>
  <path class="st0" d="M5,83.7c-1.3,0-2.6-.6-3.4-1.7-1.5-1.9-1.2-4.6.7-6.1,39.8-31.4,95.5-31.4,135.3,0,1.9,1.5,2.2,4.2.7,6.1-1.5,1.9-4.2,2.2-6.1.7-36.7-28.9-87.8-28.9-124.5,0-.8.6-1.8.9-2.7.9Z"/>
  <path class="st0" d="M70,140c-2.4,0-4.4-2-4.4-4.4V4.4c0-2.4,2-4.4,4.4-4.4s4.4,2,4.4,4.4v131.2c0,2.4-2,4.4-4.4,4.4Z"/>
  <path class="st0" d="M108.5,127.5c-2,0-3.8-1.4-4.3-3.5-4-18.9-22.6-31-41.5-27-13.5,2.9-24.1,13.5-27,27-.5,2.4-2.8,3.9-5.2,3.4-2.4-.5-3.9-2.8-3.4-5.2,3.6-16.9,16.8-30.2,33.8-33.8,23.6-5,46.9,10.2,51.9,33.8.5,2.4-1,4.7-3.4,5.2-.3,0-.6,0-.9,0Z"/>
  <path class="st0" d="M70,87.5c-7.3,0-14.6-2.8-20.1-8.3-1.7-1.7-1.7-4.5,0-6.2s4.5-1.7,6.2,0c7.7,7.7,20.2,7.7,27.8,0,1.7-1.7,4.5-1.7,6.2,0,1.7,1.7,1.7,4.5,0,6.2-5.5,5.5-12.8,8.3-20.1,8.3Z"/>
  <path class="st0" d="M45.9,64c-2.4,0-4.3-1.9-4.4-4.3-.2-7.6,2.6-14.8,7.9-20.3,5.3-5.5,12.3-8.6,19.9-8.8,15.7-.4,28.7,12.1,29.1,27.8,0,.4,0,.8,0,1.3,0,2.4-2.1,4.3-4.5,4.3-2.4,0-4.3-2.1-4.3-4.5,0-.3,0-.6,0-.9-.2-10.9-9.3-19.5-20.1-19.2-10.9.2-19.5,9.3-19.2,20.1,0,2.4-1.9,4.4-4.3,4.5,0,0,0,0,0,0Z"/>
</svg>