<?xml version="1.0" encoding="UTF-8"?>
<svg id="Layer_1" xmlns="http://www.w3.org/2000/svg" version="1.1" viewBox="0 0 140 140">
  <!-- Generator: Adobe Illustrator 29.6.0, SVG Export Plug-In . SVG Version: 2.1.1 Build 207)  -->
  <defs>
    <style>
      .st0 {
        fill: #002a4e;
      }
    </style>
  </defs>
  <g>
    <path class="st0" d="M37.5,116.5H13.4c-6.4,0-11.6-5.3-11.7-11.7V19.5c0-6.4,5.2-11.6,11.6-11.7h97.8c6.4,0,11.6,5.3,11.7,11.7v28.2c.3,1.6-.7,3.1-2.3,3.4-1.6.3-3.1-.7-3.4-2.3,0-.4,0-.7,0-1.1v-28.2c0-3.3-2.7-6-6-6,0,0,0,0-.1,0H13.4c-3.3,0-6,2.7-6,6v85.3c0,3.3,2.7,6,6,6.1h24.1c1.5,0,2.7,1.1,2.8,2.6,0,0,0,.1,0,.2,0,1.5-1.3,2.8-2.8,2.8Z"/>
    <path class="st0" d="M119.9,38.2H4.5c-1.6-.3-2.6-1.8-2.3-3.4.2-1.2,1.1-2.1,2.3-2.3h115.4c1.6-.3,3.1.7,3.4,2.3.3,1.6-.7,3.1-2.3,3.4-.4,0-.7,0-1.1,0Z"/>
    <path class="st0" d="M37.5,38.2c-1.5,0-2.8-1.3-2.8-2.8V10.6c0-1.5,1.3-2.8,2.8-2.8,1.5,0,2.8,1.3,2.8,2.8v24.8c0,1.5-1.3,2.8-2.8,2.8Z"/>
    <path class="st0" d="M62.2,38.2c-1.5,0-2.7-1.3-2.8-2.8V10.6c.3-1.6,1.8-2.6,3.4-2.3,1.2.2,2.1,1.1,2.3,2.3v24.8c0,1.6-1.3,2.8-2.9,2.8Z"/>
  </g>
  <g>
    <path class="st0" d="M63.3,81.7c-2.3,0-4.2-1.9-4.2-4.2,0,0,0,0,0-.1-.4-2.3,1.2-4.5,3.6-4.9,2.3-.4,4.5,1.2,4.9,3.6,0,.4,0,.9,0,1.3,0,2.4-1.9,4.3-4.3,4.3h0Z"/>
    <path class="st0" d="M63.3,116.3c-2.4,0-4.3-1.9-4.3-4.3,0-2.4,1.9-4.3,4.3-4.3s4.3,1.9,4.3,4.3c0,2.3-1.8,4.2-4.1,4.3,0,0-.1,0-.2,0Z"/>
    <path class="st0" d="M118.2,97.6h-52c-11.1-.8-19.5-10.4-18.7-21.6.7-10,8.7-18,18.7-18.7h52c11.1.8,19.5,10.4,18.7,21.6-.7,10-8.7,18-18.7,18.7ZM66.2,62.9c-8,0-14.5,6.5-14.5,14.5,0,8,6.5,14.5,14.5,14.5h52c8,0,14.5-6.5,14.5-14.5s-6.5-14.5-14.5-14.5h-52Z"/>
    <path class="st0" d="M118.2,132.2h-52c-11.1-.8-19.5-10.4-18.7-21.6.7-10,8.7-18,18.7-18.7h52c11.1.8,19.5,10.4,18.7,21.6-.7,10-8.7,18-18.7,18.7ZM66.2,97.6c-8-.7-15,5.3-15.7,13.2-.7,8,5.3,15,13.2,15.7.8,0,1.6,0,2.4,0h52c8-.7,13.9-7.7,13.2-15.7-.6-7.1-6.2-12.7-13.2-13.2h-52Z"/>
    <path class="st0" d="M118.2,80.2h-31.8c-1.5,0-2.8-1.3-2.8-2.8h0c0-1.5,1.3-2.7,2.8-2.8h31.8c1.5,0,2.7,1.3,2.8,2.8,0,1.5-1.3,2.8-2.8,2.8h0Z"/>
    <path class="st0" d="M118.2,114.9h-31.8c-1.6-.3-2.6-1.8-2.3-3.4.2-1.2,1.1-2.1,2.3-2.3h31.8c1.6.3,2.6,1.8,2.3,3.4-.2,1.2-1.1,2.1-2.3,2.3Z"/>
  </g>
</svg>