<?xml version="1.0" encoding="UTF-8"?>
<svg id="Layer_1" xmlns="http://www.w3.org/2000/svg" version="1.1" viewBox="0 0 32 32">
  <!-- Generator: Adobe Illustrator 29.6.0, SVG Export Plug-In . SVG Version: 2.1.1 Build 207)  -->
  <path d="M23.9,30h-7.9c-.6,0-1-.4-1-1s.4-1,1-1h7.9c2.1,0,3.8-1.7,3.8-3.8v-8.9c0-6.5-5.3-11.7-11.7-11.7S4.3,8.8,4.3,15.2v2.3c0,.6-.4,1-1,1s-1-.4-1-1v-2.3C2.3,7.7,8.4,1.5,16,1.5s13.7,6.2,13.7,13.7v8.9c0,3.2-2.6,5.8-5.8,5.8Z"/>
  <path d="M5,24.3c-1.5,0-2.7-1.2-2.7-2.7v-3.9c0-1.5,1.2-2.7,2.7-2.7s2.7,1.2,2.7,2.7v3.9c0,1.5-1.2,2.7-2.7,2.7ZM5,17.1c-.4,0-.7.3-.7.7v3.9c0,.4.3.7.7.7s.7-.3.7-.7v-3.9c0-.4-.3-.7-.7-.7Z"/>
  <path d="M27,24.3c-1.5,0-2.7-1.2-2.7-2.7v-3.9c0-1.5,1.2-2.7,2.7-2.7s2.7,1.2,2.7,2.7v3.9c0,1.5-1.2,2.7-2.7,2.7ZM27,17.1c-.4,0-.7.3-.7.7v3.9c0,.4.3.7.7.7s.7-.3.7-.7v-3.9c0-.4-.3-.7-.7-.7Z"/>
  <path d="M16,23.2h0c-.4,0-.8-.3-.9-.7l-1.5-4.1-4.1-1.5c-.4-.1-.7-.5-.7-.9s.3-.8.7-.9l4.1-1.5,1.5-4.1c.1-.4.5-.7.9-.7s.8.3.9.7l1.5,4.1,4.1,1.5c.4.1.7.5.7.9s-.3.8-.7.9l-4.1,1.5-1.5,4.1c-.1.4-.5.7-.9.7ZM12.7,16l2,.7c.3.1.5.3.6.6l.7,2,.7-2c.1-.3.3-.5.6-.6l2-.7-2-.7c-.3-.1-.5-.3-.6-.6l-.7-2-.7,2c-.1.3-.3.5-.6.6l-2,.7Z"/>
</svg>