<?xml version="1.0" encoding="UTF-8"?>
<svg id="Layer_1" xmlns="http://www.w3.org/2000/svg" version="1.1" viewBox="0 0 140 140">
  <!-- Generator: Adobe Illustrator 29.6.0, SVG Export Plug-In . SVG Version: 2.1.1 Build 207)  -->
  <defs>
    <style>
      .st0 {
        fill: #0f2b4d;
      }
    </style>
  </defs>
  <path class="st0" d="M70,74.4c-14.5,0-26.2-11.8-26.2-26.2s11.8-26.2,26.2-26.2,26.2,11.8,26.2,26.2-11.8,26.2-26.2,26.2ZM70,30.6c-9.6,0-17.5,7.9-17.5,17.5s7.9,17.5,17.5,17.5,17.5-7.9,17.5-17.5-7.9-17.5-17.5-17.5Z"/>
  <path class="st0" d="M70,140c-1.7,0-3.4-.5-4.8-1.5-1-.7-1.8-1.5-2.5-2.5-.4-.6-40.8-62.7-40.8-88S43.5,0,70,0s48.1,21.6,48.1,48.1-40.4,87.3-40.8,88c-1.3,1.9-3.3,3.3-5.6,3.7-.6.1-1.2.2-1.8.2ZM70,8.8c-21.7,0-39.4,17.7-39.4,39.4s5.5,22.7,15.6,42.3c9.2,17.8,19.2,34,23.7,40.8,4.5-6.8,14.6-23.1,23.7-40.8,10.1-19.6,15.6-34.6,15.6-42.3,0-21.7-17.7-39.4-39.4-39.4Z"/>
</svg>