<svg viewBox="0 0 140 140" height="140" width="140" xmlns="http://www.w3.org/2000/svg"><g transform="matrix(5.833333333333333,0,0,5.833333333333333,0,0)"><path d="M11.479,23.1a.814.814,0,0,0,1.05-.089L23.01,12.529a.815.815,0,0,0,.089-1.05,4.081,4.081,0,0,1,0-4.728A.814.814,0,0,0,23.01,5.7L18.3.989A.815.815,0,0,0,17.248.9a4.081,4.081,0,0,1-4.727,0,.816.816,0,0,0-1.05.089L.99,11.471A.816.816,0,0,0,.9,12.521a4.081,4.081,0,0,1,0,4.728A.814.814,0,0,0,.99,18.3L5.7,23.011a.814.814,0,0,0,1.05.087A4.081,4.081,0,0,1,11.479,23.1Z" fill="none" stroke="#0F2B4D" stroke-linecap="round" stroke-linejoin="round" stroke-width="1.5"></path><path d="M7.104 6.288 L16.896 6.288 L16.896 17.712 L7.104 17.712 Z" fill="none" stroke="#0F2B4D" stroke-linecap="round" stroke-linejoin="round" stroke-width="1.5" transform="translate(12 -4.971) rotate(45)"></path><path d="M12.577 9.115L9.115 12.577" fill="none" stroke="#0F2B4D" stroke-linecap="round" stroke-linejoin="round" stroke-width="1.5"></path><path d="M13.779 12.529L12.701 13.607" fill="none" stroke="#0F2B4D" stroke-linecap="round" stroke-linejoin="round" stroke-width="1.5"></path></g></svg>