<?xml version="1.0" encoding="UTF-8"?>
<svg id="Layer_1" xmlns="http://www.w3.org/2000/svg" version="1.1" viewBox="0 0 140 140">
  <!-- Generator: Adobe Illustrator 29.6.0, SVG Export Plug-In . SVG Version: 2.1.1 Build 207)  -->
  <defs>
    <style>
      .st0 {
        fill: #0f2b4d;
      }
    </style>
  </defs>
  <g>
    <path class="st0" d="M94.4,86.8h-48.8c-2.4,0-4.4-2-4.4-4.4v-39.9c0-2.4,2-4.4,4.4-4.4h48.8c2.4,0,4.4,2,4.4,4.4v39.9c0,2.4-2,4.4-4.4,4.4ZM50,78h40.1v-31.2h-40.1v31.2Z"/>
    <path class="st0" d="M85.5,46.8c-2.4,0-4.4-2-4.4-4.4v-11.1c0-6.2-5-11.2-11.2-11.2s-11.2,5-11.2,11.2v11.1c0,2.4-2,4.4-4.4,4.4s-4.4-2-4.4-4.4v-11.1c0-11,8.9-19.9,19.9-19.9s19.9,8.9,19.9,19.9v11.1c0,2.4-2,4.4-4.4,4.4Z"/>
    <path class="st0" d="M70,71.3c-2.4,0-4.4-2-4.4-4.4v-8.9c0-2.4,2-4.4,4.4-4.4s4.4,2,4.4,4.4v8.9c0,2.4-2,4.4-4.4,4.4Z"/>
  </g>
  <g>
    <path class="st0" d="M31.2,66.8H8.5c-2.4,0-4.4-2-4.4-4.4s2-4.4,4.4-4.4h22.7c2.4,0,4.4,2,4.4,4.4s-2,4.4-4.4,4.4Z"/>
    <path class="st0" d="M16,77.6c-1.1,0-2.2-.4-3.1-1.3l-10.8-10.8c-1.7-1.7-1.7-4.5,0-6.2l10.8-10.8c1.7-1.7,4.5-1.7,6.2,0,1.7,1.7,1.7,4.5,0,6.2l-7.7,7.7,7.7,7.7c1.7,1.7,1.7,4.5,0,6.2-.9.9-2,1.3-3.1,1.3Z"/>
  </g>
  <g>
    <path class="st0" d="M19.6,115.4c-1.1,0-2.2-.4-3.1-1.3-1.7-1.7-1.7-4.5,0-6.2l16-16c1.7-1.7,4.5-1.7,6.2,0,1.7,1.7,1.7,4.5,0,6.2l-16,16c-.9.9-2,1.3-3.1,1.3Z"/>
    <path class="st0" d="M32.5,117.8h-15.2c-2.4,0-4.4-2-4.4-4.4v-15.2c0-2.4,2-4.4,4.4-4.4s4.4,2,4.4,4.4v10.9h10.9c2.4,0,4.4,2,4.4,4.4s-2,4.4-4.4,4.4Z"/>
  </g>
  <g>
    <path class="st0" d="M120.4,115.4c-1.1,0-2.2-.4-3.1-1.3l-16-16c-1.7-1.7-1.7-4.5,0-6.2,1.7-1.7,4.5-1.7,6.2,0l16,16c1.7,1.7,1.7,4.5,0,6.2-.9.9-2,1.3-3.1,1.3Z"/>
    <path class="st0" d="M122.8,117.8h-15.2c-2.4,0-4.4-2-4.4-4.4s2-4.4,4.4-4.4h10.9v-10.9c0-2.4,2-4.4,4.4-4.4s4.4,2,4.4,4.4v15.2c0,2.4-2,4.4-4.4,4.4Z"/>
  </g>
  <g>
    <path class="st0" d="M70.5,125.2c-2.4,0-4.4-2-4.4-4.4v-22.7c0-2.4,2-4.4,4.4-4.4s4.4,2,4.4,4.4v22.7c0,2.4-2,4.4-4.4,4.4Z"/>
    <path class="st0" d="M70.5,128.5c-1.1,0-2.2-.4-3.1-1.3l-10.8-10.8c-1.7-1.7-1.7-4.5,0-6.2,1.7-1.7,4.5-1.7,6.2,0l7.7,7.7,7.7-7.7c1.7-1.7,4.5-1.7,6.2,0,1.7,1.7,1.7,4.5,0,6.2l-10.8,10.8c-.9.9-2,1.3-3.1,1.3Z"/>
  </g>
  <g>
    <path class="st0" d="M131.5,65.9h-22.7c-2.4,0-4.4-2-4.4-4.4s2-4.4,4.4-4.4h22.7c2.4,0,4.4,2,4.4,4.4s-2,4.4-4.4,4.4Z"/>
    <path class="st0" d="M124,76.6c-1.1,0-2.2-.4-3.1-1.3-1.7-1.7-1.7-4.5,0-6.2l7.7-7.7-7.7-7.7c-1.7-1.7-1.7-4.5,0-6.2,1.7-1.7,4.5-1.7,6.2,0l10.8,10.8c.8.8,1.3,1.9,1.3,3.1s-.5,2.3-1.3,3.1l-10.8,10.8c-.9.9-2,1.3-3.1,1.3Z"/>
  </g>
</svg>