<?xml version="1.0" encoding="UTF-8"?>
<svg id="Layer_1" xmlns="http://www.w3.org/2000/svg" version="1.1" viewBox="0 0 140 140">
  <!-- Generator: Adobe Illustrator 29.6.0, SVG Export Plug-In . SVG Version: 2.1.1 Build 207)  -->
  <defs>
    <style>
      .st0 {
        fill: #0f2b4d;
      }
    </style>
  </defs>
  <path class="st0" d="M33.2,140c-3,0-5.8-1.1-8-3.1-2.7-2.4-4.1-5.9-3.9-9.5l.3-5.4c0-1.8-1.3-3.3-3.1-3.4h-.3l-5.4.3c-3.2.2-6.3-.9-8.6-3.1-2.4-2.1-3.8-5.1-3.9-8.3-.2-3.6,1.3-7.1,3.9-9.5l4.1-3.7c.6-.6,1-1.4,1.1-2.2s-.3-1.7-.8-2.3c0,0-.1-.2-.2-.2l-4-3.7c-4.9-4.4-5.3-12-.9-16.9,2.4-2.7,5.9-4.1,9.5-3.9l5.4.3c1.8,0,3.3-1.3,3.4-3.1v-.3l-.3-5.5c-.3-6.6,4.8-12.2,11.4-12.6,3.6-.2,7.1,1.3,9.5,3.9l3.7,4.1c.6.6,1.4,1,2.2,1.1.9,0,1.7-.3,2.3-.8,0,0,.2,0,.2-.2l3.6-4.1c2.2-2.4,5.1-3.8,8.3-3.9,3.2-.2,6.3.9,8.6,3.1,2.7,2.4,4.1,5.9,3.9,9.5l-.3,5.4c0,1.8,1.3,3.3,3,3.4h.4l5.5-.3c6.6-.3,12.2,4.7,12.6,11.3.2,3.6-1.3,7.1-4,9.5l-4,3.7c-1.3,1.2-1.4,3.3-.2,4.6l.2.2,4.1,3.7c2.4,2.1,3.8,5.1,3.9,8.3.2,3.2-.9,6.3-3.1,8.6-2.4,2.7-5.9,4.1-9.5,3.9l-5.4-.3c-1.8,0-3.3,1.3-3.4,3.1v.3l.3,5.5c.2,3.2-.9,6.3-3.1,8.6-2.1,2.4-5.1,3.8-8.3,3.9-3.6.2-7.1-1.2-9.5-3.9l-3.7-4.1c-.6-.6-1.4-1-2.2-1s-1.7.3-2.3.8c0,0-.2.1-.2.2l-3.6,4.1c-2.2,2.4-5.1,3.8-8.3,3.9h-.9ZM18.2,109.8h.6c6.6.3,11.7,6,11.4,12.6l-.3,5.4c0,1,.3,1.9,1.1,2.6.6.6,1.5.9,2.3.8.9,0,1.7-.4,2.2-1.1l3.6-4.1c.3-.3.6-.6.9-.9,2.4-2.2,5.4-3.2,8.7-3.1,3.2.2,6.2,1.6,8.3,3.9l3.7,4.1c.6.7,1.6,1.1,2.6,1,.9,0,1.7-.4,2.2-1.1.6-.6.9-1.5.8-2.3l-.3-5.4v-1.2c.3-6.6,6-11.7,12.6-11.3l5.4.3c1,0,1.9-.3,2.6-1.1.6-.6.9-1.5.8-2.3s-.4-1.7-1.1-2.2l-4.1-3.7-.9-.9c-4.4-4.9-4-12.5.9-16.9l4-3.7c.7-.7,1.1-1.6,1.1-2.6,0-1.8-1.6-3.2-3.4-3.1l-5.5.3h-1.3c-3.2-.2-6.1-1.6-8.2-4s-3.2-5.5-3-8.6l.3-5.4c0-1-.3-1.9-1.1-2.6-.6-.6-1.5-.9-2.3-.8-.9,0-1.7.4-2.2,1.1l-3.6,4.1-.9.9c-2.4,2.1-5.4,3.2-8.6,3.1-3.2-.2-6.2-1.6-8.3-3.9h0l-3.7-4.1c-.6-.7-1.6-1.1-2.6-1-1.8,0-3.2,1.6-3.1,3.4l.3,5.4v1.2c-.3,6.6-6,11.7-12.6,11.3l-5.4-.3c-1,0-1.9.3-2.6,1.1-1.2,1.3-1.1,3.4.2,4.6l4.1,3.7c.3.3.6.6.8.8,2.2,2.4,3.3,5.5,3.1,8.7s-1.6,6.2-3.9,8.3l-4.1,3.7c-.7.7-1.1,1.6-1.1,2.6s.4,1.7,1.1,2.2c.6.6,1.5.9,2.3.8l5.4-.3h.8Z"/>
  <path class="st0" d="M48.1,107.2c-8.4,0-15.3-6.9-15.3-15.3s6.9-15.3,15.3-15.3,15.3,6.9,15.3,15.3-6.9,15.3-15.3,15.3ZM48.1,85.3c-3.6,0-6.6,2.9-6.6,6.6s2.9,6.6,6.6,6.6,6.6-2.9,6.6-6.6-2.9-6.6-6.6-6.6Z"/>
  <path class="st0" d="M108.7,37.9c-3.6,0-6.6-2.9-6.6-6.6s2.9-6.6,6.6-6.6,6.6,2.9,6.6,6.6-2.9,6.6-6.6,6.6Z"/>
  <path class="st0" d="M114.8,62.6c-.4,0-.9,0-1.4,0-2.2-.3-4.1-1.5-5.5-3.2l-5-6.3-7.5,2.9c-2.2.8-4.6.8-6.7,0-2.1-.9-3.8-2.7-4.6-4.8-.8-2-.8-4.3,0-6.3l2.9-7.5-6.3-5c-1.8-1.5-3-3.5-3.2-5.9-.3-2.3.4-4.6,1.9-6.4,1.4-1.7,3.3-2.8,5.5-3.2l8-1.2,1.2-7.9c.7-4.8,5.2-8,10-7.3,2.2.3,4.1,1.5,5.5,3.2l5,6.3,7.5-2.9h0c4.5-1.8,9.6.5,11.3,5,.8,2,.8,4.3,0,6.3l-2.9,7.5,6.3,5c3.8,3,4.4,8.5,1.3,12.3-1.4,1.7-3.3,2.8-5.5,3.2l-8,1.2-1.2,8c-.4,2.3-1.6,4.3-3.5,5.7-1.5,1.1-3.3,1.7-5.2,1.7v-.2ZM102.9,44.3c2.6,0,5.1,1.2,6.8,3.3l5,6.3,1.2-8c.6-3.8,3.5-6.7,7.3-7.3l7.9-1.2-6.3-5c-3-2.4-4.1-6.4-2.7-10l2.9-7.5h0l-7.5,2.9c-3.6,1.4-7.6.3-10-2.7l-5-6.3-1.2,7.9c-.6,3.8-3.5,6.7-7.3,7.3l-8,1.2,6.3,5c3,2.4,4.1,6.4,2.7,10l-2.9,7.5,7.5-2.9c1-.4,2.1-.6,3.2-.6h0Z"/>
</svg>