<?xml version="1.0" encoding="UTF-8"?>
<svg id="Layer_1" xmlns="http://www.w3.org/2000/svg" version="1.1" viewBox="0 0 140 140">
  <!-- Generator: Adobe Illustrator 29.6.0, SVG Export Plug-In . SVG Version: 2.1.1 Build 207)  -->
  <defs>
    <style>
      .st0 {
        fill: #0f2b4d;
      }
    </style>
  </defs>
  <path class="st0" d="M4.4,52.5C2,52.5,0,50.5,0,48.1c0-8.4,2.2-16.8,6.4-24.1C12.9,12.9,23.3,5,35.7,1.6,48.1-1.7,61.1,0,72.2,6.4c2.1,1.2,2.8,3.9,1.6,6-1.2,2.1-3.9,2.8-6,1.6-9.1-5.3-19.7-6.7-29.9-3.9-10.2,2.7-18.7,9.2-23.9,18.3-3.5,6-5.3,12.8-5.3,19.7,0,2.4-2,4.4-4.4,4.4h0Z"/>
  <path class="st0" d="M91.9,52.5h0c-2.4,0-4.4-2-4.4-4.4,0-5.5-1.1-10.7-3.3-15.7-1-2.2,0-4.8,2.3-5.8,2.2-1,4.8,0,5.8,2.3,2.7,6.1,4,12.6,4,19.3,0,2.4-2,4.4-4.4,4.4Z"/>
  <path class="st0" d="M48.1,140c-2.4,0-4.4-2-4.4-4.4s2-4.4,4.4-4.4,5.3-.3,7.9-.8c2.4-.5,4.7,1.1,5.2,3.4.5,2.4-1.1,4.7-3.4,5.2-3.2.6-6.4,1-9.6,1Z"/>
  <path class="st0" d="M30.6,136.4c-.6,0-1.2-.1-1.7-.4C11.3,128.3,0,111,0,91.9v-17.5c0-2.4,2-4.4,4.4-4.4s4.4,2,4.4,4.4v17.5c0,15.7,9.3,29.8,23.6,36.1,2.2,1,3.2,3.5,2.3,5.8-.7,1.6-2.3,2.6-4,2.6Z"/>
  <path class="st0" d="M74.4,78.8c-2.4,0-4.4-2-4.4-4.4v-26.2c0-12.1-9.8-21.9-21.9-21.9h0c-3.8,0-7.6,1-10.9,2.9-2.1,1.2-4.8.5-6-1.6-1.2-2.1-.5-4.8,1.6-6,4.6-2.7,9.9-4.1,15.3-4.1h0c16.9,0,30.6,13.7,30.6,30.6v26.2c0,2.4-2,4.4-4.4,4.4Z"/>
  <path class="st0" d="M48.1,122.5h0c-8.2,0-15.9-3.2-21.7-9s-9-13.5-9-21.7v-43.7c0-2.4,2-4.4,4.4-4.4s4.4,2,4.4,4.4v43.8c0,5.8,2.3,11.3,6.4,15.5,4.1,4.1,9.6,6.4,15.5,6.4h0c2.5,0,4.9-.4,7.3-1.3,2.3-.8,4.8.4,5.6,2.7s-.4,4.8-2.7,5.6c-3.3,1.2-6.7,1.8-10.2,1.8Z"/>
  <path class="st0" d="M48.1,105c-7.2,0-13.1-5.9-13.1-13.1s2-4.4,4.4-4.4,4.4,2,4.4,4.4,2,4.4,4.4,4.4,4.4-2,4.4-4.4v-43.8c0-2.4-2-4.4-4.4-4.4s-4.4,2-4.4,4.4v17.5c0,2.4-2,4.4-4.4,4.4s-4.4-2-4.4-4.4v-17.5c0-7.2,5.9-13.1,13.1-13.1s13.1,5.9,13.1,13.1v43.8c0,7.2-5.9,13.1-13.1,13.1Z"/>
  <path class="st0" d="M135.6,140h-52.5c-2.4,0-4.4-2-4.4-4.4v-43.8c0-2.4,2-4.4,4.4-4.4h52.5c2.4,0,4.4,2,4.4,4.4v43.8c0,2.4-2,4.4-4.4,4.4ZM87.5,131.2h43.8v-35h-43.8v35Z"/>
  <path class="st0" d="M126.9,96.2h-35c-2.4,0-4.4-2-4.4-4.4v-8.8c0-12.1,9.8-21.9,21.9-21.9s21.9,9.8,21.9,21.9v8.8c0,2.4-2,4.4-4.4,4.4ZM96.2,87.5h26.2v-4.4c0-7.2-5.9-13.1-13.1-13.1s-13.1,5.9-13.1,13.1v4.4Z"/>
  <path class="st0" d="M109.4,120.5c-3.6,0-6.6-2.9-6.6-6.6s2.9-6.6,6.6-6.6,6.6,2.9,6.6,6.6-2.9,6.6-6.6,6.6ZM109.4,111.7c-1.2,0-2.2,1-2.2,2.2s1,2.2,2.2,2.2,2.2-1,2.2-2.2-1-2.2-2.2-2.2Z"/>
</svg>