<?xml version="1.0" encoding="UTF-8"?>
<svg id="Layer_1" xmlns="http://www.w3.org/2000/svg" version="1.1" viewBox="0 0 140 140">
  <!-- Generator: Adobe Illustrator 29.6.0, SVG Export Plug-In . SVG Version: 2.1.1 Build 207)  -->
  <defs>
    <style>
      .st0 {
        fill: #0f2b4d;
      }
    </style>
  </defs>
  <path class="st0" d="M80.2,61.2s0,0,0,0c-14.9,0-29.4-6.2-39.7-16.9-1.7-1.7-1.6-4.5.1-6.2,1.7-1.7,4.5-1.6,6.2.1,8.7,9,20.9,14.2,33.4,14.2h0c6.4,0,12.5-1.3,18.4-3.8,2.2-1,4.8,0,5.7,2.3,1,2.2,0,4.8-2.3,5.7-6.9,3-14.3,4.5-21.8,4.5Z"/>
  <path class="st0" d="M70,91.9c-19.3,0-35-15.7-35-35s15.7-35,35-35,35,15.7,35,35-15.7,35-35,35ZM70,30.6c-14.5,0-26.2,11.8-26.2,26.2s11.8,26.2,26.2,26.2,26.2-11.8,26.2-26.2-11.8-26.2-26.2-26.2Z"/>
  <path class="st0" d="M110.3,126.2c-1.1,0-2.2-.4-3.1-1.3-20.4-20.5-53.7-20.6-74.2-.2l-.2.2c-1.7,1.7-4.5,1.7-6.2,0-1.7-1.7-1.7-4.5,0-6.2l.3-.3c23.9-23.8,62.8-23.7,86.6.3,1.7,1.7,1.7,4.5,0,6.2-.9.8-2,1.3-3.1,1.3Z"/>
  <path class="st0" d="M70,140C31.4,140,0,108.6,0,70S31.4,0,70,0s70,31.4,70,70-31.4,70-70,70ZM70,8.8c-33.8,0-61.2,27.5-61.2,61.2s27.5,61.2,61.2,61.2,61.2-27.5,61.2-61.2S103.8,8.8,70,8.8Z"/>
</svg>