<?xml version="1.0" encoding="UTF-8"?>
<svg id="Layer_1" xmlns="http://www.w3.org/2000/svg" version="1.1" viewBox="0 0 140 140">
  <!-- Generator: Adobe Illustrator 29.6.0, SVG Export Plug-In . SVG Version: 2.1.1 Build 207)  -->
  <defs>
    <style>
      .st0 {
        fill: #0f2b4d;
      }
    </style>
  </defs>
  <path class="st0" d="M70,140C31.4,140,0,108.6,0,70S31.4,0,70,0s70,31.4,70,70-31.4,70-70,70ZM70,8.8c-33.8,0-61.2,27.5-61.2,61.2s27.5,61.2,61.2,61.2,61.2-27.5,61.2-61.2S103.8,8.8,70,8.8Z"/>
  <path class="st0" d="M100.6,52.5h-48.1c-2.4,0-4.4-2-4.4-4.4s2-4.4,4.4-4.4h48.1c2.4,0,4.4,2,4.4,4.4s-2,4.4-4.4,4.4Z"/>
  <path class="st0" d="M83.1,70c-1.1,0-2.2-.4-3.1-1.3-1.7-1.7-1.7-4.5,0-6.2l14.4-14.4-14.4-14.4c-1.7-1.7-1.7-4.5,0-6.2,1.7-1.7,4.5-1.7,6.2,0l17.5,17.5c1.7,1.7,1.7,4.5,0,6.2l-17.5,17.5c-.9.9-2,1.3-3.1,1.3Z"/>
  <path class="st0" d="M87.5,96.2h-48.1c-2.4,0-4.4-2-4.4-4.4s2-4.4,4.4-4.4h48.1c2.4,0,4.4,2,4.4,4.4s-2,4.4-4.4,4.4Z"/>
  <path class="st0" d="M56.9,113.8c-1.1,0-2.2-.4-3.1-1.3l-17.5-17.5c-1.7-1.7-1.7-4.5,0-6.2l17.5-17.5c1.7-1.7,4.5-1.7,6.2,0,1.7,1.7,1.7,4.5,0,6.2l-14.4,14.4,14.4,14.4c1.7,1.7,1.7,4.5,0,6.2-.9.9-2,1.3-3.1,1.3Z"/>
</svg>