<?xml version="1.0" encoding="UTF-8"?>
<svg id="Layer_1" xmlns="http://www.w3.org/2000/svg" version="1.1" viewBox="0 0 140 140">
  <!-- Generator: Adobe Illustrator 29.6.0, SVG Export Plug-In . SVG Version: 2.1.1 Build 207)  -->
  <defs>
    <style>
      .st0 {
        fill: #0f2b4d;
      }
    </style>
  </defs>
  <path class="st0" d="M41,140c-5.4,0-10.9-1.1-16-3.3-10.1-4.3-17.9-12.2-22-22.4-4.1-10.2-4-21.3.3-31.4,8.4-19.9,30.8-29.7,51-22.8L109.1,5.3C112.5,1.9,117,0,121.9,0h0c4.8,0,9.4,1.9,12.8,5.3s5.3,8,5.3,12.8c0,4-1.3,7.7-3.6,10.8l2.1,8c.6,2.3.6,4.7,0,7-.9,3.5-3.2,6.4-6.3,8.2-3.1,1.8-6.8,2.3-10.3,1.4l-7.8-2.1-1,1,2.1,7.8c.6,2.3.6,4.7,0,7-.9,3.5-3.2,6.4-6.3,8.2s-6.8,2.3-10.3,1.4l-7.8-2.1-11.1,11.1c3.2,9.5,2.9,20-1.1,29.2-4.3,10.1-12.2,17.9-22.4,22-5,2-10.2,3-15.4,3ZM41.1,66.7c-12.6,0-24.5,7.4-29.8,19.7-3.4,7.9-3.4,16.7-.2,24.7,3.2,8,9.4,14.2,17.3,17.6,7.9,3.4,16.7,3.4,24.7.2,8-3.2,14.2-9.4,17.6-17.3,3.4-8,3.4-17.2,0-25.2-.7-1.6-.3-3.5.9-4.8l14.8-14.8c1.1-1.1,2.7-1.5,4.2-1.1l10.2,2.7c1.2.3,2.5.2,3.6-.5s1.9-1.7,2.2-2.9c.2-.8.2-1.7,0-2.5l-2.7-10.2c-.4-1.5,0-3.1,1.1-4.2l4.6-4.6c1.1-1.1,2.7-1.5,4.2-1.1l10.2,2.7c2.5.7,5.2-.8,5.9-3.4.2-.8.2-1.7,0-2.5l-2.7-10.2c-.4-1.5,0-3.1,1.1-4.2,1.8-1.8,2.7-4.1,2.7-6.6,0-2.5-1-4.9-2.7-6.6-1.8-1.8-4.1-2.7-6.6-2.7-2.5,0-4.9,1-6.6,2.7l-56.8,56.8c-1.3,1.3-3.2,1.6-4.8.9-4.1-1.7-8.4-2.6-12.6-2.6Z"/>
  <path class="st0" d="M34.5,119c-7.5,0-13.5-6.1-13.5-13.5s6.1-13.5,13.5-13.5,13.5,6.1,13.5,13.5-6.1,13.5-13.5,13.5ZM34.5,100.7c-2.6,0-4.8,2.1-4.8,4.8s2.1,4.8,4.8,4.8,4.8-2.1,4.8-4.8-2.1-4.8-4.8-4.8Z"/>
</svg>