<?xml version="1.0" encoding="UTF-8"?>
<svg id="Layer_1" xmlns="http://www.w3.org/2000/svg" version="1.1" viewBox="0 0 140 140">
  <!-- Generator: Adobe Illustrator 29.6.0, SVG Export Plug-In . SVG Version: 2.1.1 Build 207)  -->
  <defs>
    <style>
      .st0 {
        fill: #0f2b4d;
      }
    </style>
  </defs>
  <path class="st0" d="M13.1,61.2c-2.4,0-4.4-2-4.4-4.4v-17.5c0-12.1,9.8-21.9,21.9-21.9h17.5c2.4,0,4.4,2,4.4,4.4s-2,4.4-4.4,4.4h-17.5c-7.2,0-13.1,5.9-13.1,13.1v17.5c0,2.4-2,4.4-4.4,4.4Z"/>
  <path class="st0" d="M13.1,61.2c-1.1,0-2.2-.4-3.1-1.3L1.3,51.2c-1.7-1.7-1.7-4.5,0-6.2,1.7-1.7,4.5-1.7,6.2,0l5.7,5.7,5.7-5.7c1.7-1.7,4.5-1.7,6.2,0,1.7,1.7,1.7,4.5,0,6.2l-8.8,8.8c-.9.9-2,1.3-3.1,1.3Z"/>
  <path class="st0" d="M39.4,35c-1.1,0-2.2-.4-3.1-1.3-1.7-1.7-1.7-4.5,0-6.2l5.7-5.7-5.7-5.7c-1.7-1.7-1.7-4.5,0-6.2,1.7-1.7,4.5-1.7,6.2,0l8.8,8.8c1.7,1.7,1.7,4.5,0,6.2l-8.8,8.8c-.9.9-2,1.3-3.1,1.3Z"/>
  <path class="st0" d="M74.4,122.5H4.4c-2.4,0-4.4-2-4.4-4.4v-43.8c0-2.4,2-4.4,4.4-4.4h70c2.4,0,4.4,2,4.4,4.4v43.8c0,2.4-2,4.4-4.4,4.4ZM8.8,113.8h61.2v-35H8.8v35Z"/>
  <path class="st0" d="M39.4,140c-2.4,0-4.4-2-4.4-4.4v-17.5c0-2.4,2-4.4,4.4-4.4s4.4,2,4.4,4.4v17.5c0,2.4-2,4.4-4.4,4.4Z"/>
  <path class="st0" d="M52.5,140h-26.2c-2.4,0-4.4-2-4.4-4.4s2-4.4,4.4-4.4h26.2c2.4,0,4.4,2,4.4,4.4s-2,4.4-4.4,4.4Z"/>
  <path class="st0" d="M135.6,52.5h-70c-2.4,0-4.4-2-4.4-4.4V4.4c0-2.4,2-4.4,4.4-4.4h70c2.4,0,4.4,2,4.4,4.4v43.8c0,2.4-2,4.4-4.4,4.4ZM70,43.8h61.2V8.8h-61.2v35Z"/>
  <path class="st0" d="M100.6,70c-2.4,0-4.4-2-4.4-4.4v-17.5c0-2.4,2-4.4,4.4-4.4s4.4,2,4.4,4.4v17.5c0,2.4-2,4.4-4.4,4.4Z"/>
  <path class="st0" d="M113.8,70h-26.2c-2.4,0-4.4-2-4.4-4.4s2-4.4,4.4-4.4h26.2c2.4,0,4.4,2,4.4,4.4s-2,4.4-4.4,4.4Z"/>
</svg>