<?xml version="1.0" encoding="UTF-8"?>
<svg id="Layer_1" xmlns="http://www.w3.org/2000/svg" version="1.1" viewBox="0 0 140 140">
  <!-- Generator: Adobe Illustrator 29.6.0, SVG Export Plug-In . SVG Version: 2.1.1 Build 207)  -->
  <defs>
    <style>
      .st0 {
        fill: #0f2b4d;
      }
    </style>
  </defs>
  <path class="st0" d="M109.4,87.5c-.5,0-1,0-1.5-.3-2.3-.8-3.5-3.3-2.6-5.6,8.6-24.2,8.4-43.7-.6-56.5-8.5-12.1-23.5-16.4-34.6-16.4-11.2,0-26.1,4.3-34.6,16.4-9,12.8-9.3,32.4-.6,56.5.8,2.3-.4,4.8-2.6,5.6-2.3.8-4.8-.4-5.6-2.6-9.8-27.3-9.2-49,1.7-64.5C38.7,5.3,56.6,0,70,0c13.4,0,31.3,5.3,41.8,20.1,10.9,15.5,11.5,37.2,1.7,64.5-.6,1.8-2.3,2.9-4.1,2.9Z"/>
  <path class="st0" d="M126.9,140c-.2,0-.4,0-.6,0-2.4-.4-4-2.6-3.7-5l4.8-32.5c.5-3.5-.4-6.9-2.5-9.7-2.1-2.8-5.2-4.6-8.6-5.2-.6,0-1.3-.1-1.9-.1H25.7c-3.5,0-6.8,1.4-9.3,3.9-2.5,2.5-3.8,5.8-3.8,9.3,0,.6,0,1.3.1,1.9l4.8,32.4c.4,2.4-1.3,4.6-3.7,5-2.4.4-4.6-1.3-5-3.7l-4.8-32.5c-.2-1-.2-2.1-.2-3.1,0-5.9,2.3-11.4,6.4-15.5s9.6-6.4,15.5-6.4h88.7c1.1,0,2.1,0,3.2.2,5.8.9,10.9,3.9,14.4,8.6s4.9,10.5,4.1,16.2l-4.8,32.5c-.3,2.2-2.2,3.7-4.3,3.7Z"/>
  <path class="st0" d="M87.5,61.2c-7.2,0-13.1-5.9-13.1-13.1s5.9-13.1,13.1-13.1,13.1,5.9,13.1,13.1-5.9,13.1-13.1,13.1ZM87.5,43.8c-2.4,0-4.4,2-4.4,4.4s2,4.4,4.4,4.4,4.4-2,4.4-4.4-2-4.4-4.4-4.4Z"/>
  <path class="st0" d="M52.5,61.2c-7.2,0-13.1-5.9-13.1-13.1s5.9-13.1,13.1-13.1,13.1,5.9,13.1,13.1-5.9,13.1-13.1,13.1ZM52.5,43.8c-2.4,0-4.4,2-4.4,4.4s2,4.4,4.4,4.4,4.4-2,4.4-4.4-2-4.4-4.4-4.4Z"/>
  <path class="st0" d="M109.4,131.2h-17.5c-2.4,0-4.4-2-4.4-4.4s2-4.4,4.4-4.4h17.5c2.4,0,4.4,2,4.4,4.4s-2,4.4-4.4,4.4ZM109.4,113.8h-17.5c-2.4,0-4.4-2-4.4-4.4s2-4.4,4.4-4.4h17.5c2.4,0,4.4,2,4.4,4.4s-2,4.4-4.4,4.4ZM135.6,56.9h-19.7c-2.4,0-4.4-2-4.4-4.4s2-4.4,4.4-4.4h19.7c2.4,0,4.4,2,4.4,4.4s-2,4.4-4.4,4.4ZM24,56.9H4.4C2,56.9,0,54.9,0,52.5s2-4.4,4.4-4.4h19.6c2.4,0,4.4,2,4.4,4.4s-2,4.4-4.4,4.4Z"/>
  <path class="st0" d="M70,140h-35c-4.8,0-8.8-3.9-8.8-8.8v-17.5c0-4.8,3.9-8.8,8.8-8.8h35c4.8,0,8.8,3.9,8.8,8.8v17.5c0,4.8-3.9,8.8-8.8,8.8ZM35,113.8h0v17.5h35v-17.5h-35Z"/>
</svg>