<?xml version="1.0" encoding="UTF-8"?>
<svg id="Layer_1" xmlns="http://www.w3.org/2000/svg" version="1.1" viewBox="0 0 140 140">
  <!-- Generator: Adobe Illustrator 29.6.0, SVG Export Plug-In . SVG Version: 2.1.1 Build 207)  -->
  <defs>
    <style>
      .st0 {
        fill: #0f2b4d;
      }
    </style>
  </defs>
  <path class="st0" d="M135.6,118.1H4.4c-2.4,0-4.4-2-4.4-4.4V26.2c0-2.4,2-4.4,4.4-4.4h131.2c2.4,0,4.4,2,4.4,4.4v87.5c0,2.4-2,4.4-4.4,4.4ZM8.8,109.4h122.5V30.6H8.8v78.8Z"/>
  <path class="st0" d="M113.7,83.1c-1.1,0-2.1-.4-3-1.2l-22.2-20.6c-1.8-1.6-1.9-4.4-.2-6.2,1.6-1.8,4.4-1.9,6.2-.2l22.2,20.6c1.8,1.6,1.9,4.4.2,6.2-.9.9-2,1.4-3.2,1.4Z"/>
  <path class="st0" d="M26.3,83.1c-1.2,0-2.4-.5-3.2-1.4-1.6-1.8-1.5-4.5.2-6.2l22.2-20.6c1.8-1.6,4.5-1.5,6.2.2,1.6,1.8,1.5,4.5-.2,6.2l-22.2,20.6c-.8.8-1.9,1.2-3,1.2Z"/>
  <path class="st0" d="M70,74.4c-3.7,0-7.3-1.1-10.5-3.2L4,32.9c-2-1.4-2.5-4.1-1.1-6.1,1.4-2,4.1-2.5,6.1-1.1l55.5,38.3c3.3,2.3,7.7,2.3,11,0l55.5-38.3c2-1.4,4.7-.9,6.1,1.1,1.4,2,.9,4.7-1.1,6.1l-55.5,38.3c-3.1,2.2-6.8,3.2-10.5,3.2Z"/>
</svg>