<?xml version="1.0" encoding="UTF-8"?>
<svg id="Layer_1" xmlns="http://www.w3.org/2000/svg" version="1.1" viewBox="0 0 140 140">
  <!-- Generator: Adobe Illustrator 29.6.0, SVG Export Plug-In . SVG Version: 2.1.1 Build 207)  -->
  <defs>
    <style>
      .st0 {
        fill: #0f2b4d;
      }
    </style>
  </defs>
  <path class="st0" d="M17.5,74.4h-4.4c-7.2,0-13.1-5.9-13.1-13.1V17.5C0,10.3,5.9,4.4,13.1,4.4h61.2c2.4,0,4.4,2,4.4,4.4s-2,4.4-4.4,4.4H13.1c-2.4,0-4.4,2-4.4,4.4v43.8c0,2.4,2,4.4,4.4,4.4h4.4c2.4,0,4.4,2,4.4,4.4s-2,4.4-4.4,4.4Z"/>
  <path class="st0" d="M30.6,135.6c-1.2,0-2.4-.5-3.3-1.5l-16.1-18.1c-2.4-2.6-3.6-6.1-3.5-9.7s1.7-6.9,4.4-9.3c2.7-2.4,6.1-3.7,9.7-3.5,3.6.2,6.9,1.7,9.3,4.4l3.8,4.3v-41c0-7.2,5.9-13.1,13.1-13.1s13.1,5.9,13.1,13.1v35h4.4c16.9,0,30.6,13.7,30.6,30.6v4.4c0,2.4-2,4.4-4.4,4.4s-4.4-2-4.4-4.4v-4.4c0-12.1-9.8-21.9-21.9-21.9h-8.8c-2.4,0-4.4-2-4.4-4.4v-39.4c0-2.4-2-4.4-4.4-4.4s-4.4,2-4.4,4.4v52.5c0,1.8-1.1,3.4-2.8,4.1s-3.6.2-4.8-1.2l-11.4-12.8c-.9-.9-2-1.5-3.3-1.5-1.3,0-2.5.4-3.4,1.2-.9.8-1.5,2-1.5,3.3,0,1.3.4,2.5,1.2,3.4l16.2,18.2c1.6,1.8,1.4,4.6-.4,6.2-.8.7-1.9,1.1-2.9,1.1Z"/>
  <path class="st0" d="M135.6,83.1h-52.5c-2.4,0-4.4-2-4.4-4.4v-43.8c0-2.4,2-4.4,4.4-4.4h52.5c2.4,0,4.4,2,4.4,4.4v43.8c0,2.4-2,4.4-4.4,4.4ZM87.5,74.4h43.8v-35h-43.8v35Z"/>
  <path class="st0" d="M126.9,39.4h-35c-2.4,0-4.4-2-4.4-4.4v-8.8c0-12.1,9.8-21.9,21.9-21.9s21.9,9.8,21.9,21.9v8.8c0,2.4-2,4.4-4.4,4.4ZM96.2,30.6h26.2v-4.4c0-7.2-5.9-13.1-13.1-13.1s-13.1,5.9-13.1,13.1v4.4Z"/>
  <path class="st0" d="M109.4,63.6c-3.6,0-6.6-2.9-6.6-6.6s2.9-6.6,6.6-6.6,6.6,2.9,6.6,6.6-2.9,6.6-6.6,6.6ZM109.4,54.8c-1.2,0-2.2,1-2.2,2.2s1,2.2,2.2,2.2,2.2-1,2.2-2.2-1-2.2-2.2-2.2Z"/>
</svg>