<svg id="Layer_1" data-name="Layer 1" xmlns="http://www.w3.org/2000/svg" viewBox="0 0 140 140">
  <title>Artboard 4</title>
  <g>
    <g>
      <path d="M37.5,116.5H13.4A11.8,11.8,0,0,1,1.7,104.8V19.5A11.7,11.7,0,0,1,13.3,7.8h97.8a11.8,11.8,0,0,1,11.7,11.7V47.7a2.9,2.9,0,1,1-5.7,0V19.5a6,6,0,0,0-6.1-6H13.4a6,6,0,0,0-6,6v85.3a6.2,6.2,0,0,0,6,6.1H37.5a2.7,2.7,0,0,1,2.8,2.8A2.8,2.8,0,0,1,37.5,116.5Z" fill="#002a4e"/>
      <path d="M119.9,38.2H4.5a2.9,2.9,0,0,1,0-5.7H119.9a2.9,2.9,0,1,1,0,5.7Z" fill="#002a4e"/>
      <path d="M37.5,38.2a2.8,2.8,0,0,1-2.8-2.8V10.6a2.8,2.8,0,0,1,5.6,0V35.4A2.8,2.8,0,0,1,37.5,38.2Z" fill="#002a4e"/>
      <path d="M62.2,38.2a2.9,2.9,0,0,1-2.8-2.8V10.6a2.9,2.9,0,0,1,5.7,0V35.4A2.9,2.9,0,0,1,62.2,38.2Z" fill="#002a4e"/>
    </g>
    <g>
      <path d="M63.3,81.7a4.2,4.2,0,0,1-4.2-4.3,4.3,4.3,0,1,1,8.5,0A4.3,4.3,0,0,1,63.3,81.7Zm0-5.7a1.5,1.5,0,0,0-1.4,1.4,1.4,1.4,0,0,0,1.4,1.4,1.4,1.4,0,0,0,1.4-1.4A1.4,1.4,0,0,0,63.3,76Z" fill="#002a4e"/>
      <path d="M63.3,116.3a4.3,4.3,0,1,1,4.3-4.3A4.2,4.2,0,0,1,63.3,116.3Zm0-5.6a1.4,1.4,0,0,0-1.4,1.3,1.4,1.4,0,0,0,1.4,1.4,1.4,1.4,0,0,0,1.4-1.4A1.3,1.3,0,0,0,63.3,110.7Z" fill="#002a4e"/>
      <path d="M118.2,97.6h-52a20.2,20.2,0,0,1,0-40.3h52a20.2,20.2,0,0,1,0,40.3Zm-52-34.7a14.5,14.5,0,1,0,0,29h52a14.5,14.5,0,0,0,0-29Z" fill="#002a4e"/>
      <path d="M118.2,132.2h-52a20.2,20.2,0,0,1,0-40.3h52a20.2,20.2,0,0,1,0,40.3Zm-52-34.6a14.5,14.5,0,1,0,0,28.9h52a14.5,14.5,0,0,0,0-28.9Z" fill="#002a4e"/>
      <path d="M118.2,80.2H86.4a2.8,2.8,0,0,1-2.8-2.8,2.9,2.9,0,0,1,2.8-2.8h31.8a2.9,2.9,0,0,1,2.8,2.8A2.8,2.8,0,0,1,118.2,80.2Z" fill="#002a4e"/>
      <path d="M118.2,114.9H86.4a2.9,2.9,0,0,1,0-5.7h31.8a2.9,2.9,0,0,1,0,5.7Z" fill="#002a4e"/>
    </g>
  </g>
</svg>
