<?xml version="1.0" encoding="UTF-8"?>
<svg id="Layer_1" xmlns="http://www.w3.org/2000/svg" version="1.1" viewBox="0 0 140 140">
  <!-- Generator: Adobe Illustrator 29.6.0, SVG Export Plug-In . SVG Version: 2.1.1 Build 207)  -->
  <defs>
    <style>
      .st0 {
        fill: #0f2b4d;
      }
    </style>
  </defs>
  <path class="st0" d="M54.4,116.2c-1.2,0-2.3-.5-3.1-1.3s-1.4-2.3-1.2-3.7l3.1-21.7c.1-.9.6-1.8,1.2-2.5l55.7-55.7c6.8-6.8,17.9-6.8,24.8,0,6.8,6.8,6.8,17.9,0,24.7l-55.7,55.7c-.7.7-1.5,1.1-2.5,1.2l-21.7,3.1c-.2,0-.4,0-.6,0ZM76.1,108.7h0,0ZM61.7,92.2l-2.1,14.4,14.4-2.1,54.7-54.7c3.4-3.4,3.4-9,0-12.4-3.4-3.4-9-3.4-12.4,0l-54.7,54.7Z"/>
  <path class="st0" d="M74.4,26.2H30.6c-2.4,0-4.4-2-4.4-4.4V4.4C26.2,2,28.2,0,30.6,0h43.8c2.4,0,4.4,2,4.4,4.4v17.5c0,2.4-2,4.4-4.4,4.4ZM35,17.5h35v-8.8h-35v8.8Z"/>
  <path class="st0" d="M100.6,26.2c-2.4,0-4.4-2-4.4-4.4s-2-4.4-4.4-4.4h-17.5c-2.4,0-4.4-2-4.4-4.4s2-4.4,4.4-4.4h17.5c7.2,0,13.1,5.9,13.1,13.1s-2,4.4-4.4,4.4Z"/>
  <path class="st0" d="M91.9,140H13.1c-7.2,0-13.1-5.9-13.1-13.1V21.9c0-7.2,5.9-13.1,13.1-13.1h17.5c2.4,0,4.4,2,4.4,4.4s-2,4.4-4.4,4.4H13.1c-2.4,0-4.4,2-4.4,4.4v105c0,2.4,2,4.4,4.4,4.4h78.8c2.4,0,4.4-2,4.4-4.4v-17.5c0-2.4,2-4.4,4.4-4.4s4.4,2,4.4,4.4v17.5c0,7.2-5.9,13.1-13.1,13.1Z"/>
  <path class="st0" d="M74.4,52.5H30.6c-2.4,0-4.4-2-4.4-4.4s2-4.4,4.4-4.4h43.8c2.4,0,4.4,2,4.4,4.4s-2,4.4-4.4,4.4Z"/>
  <path class="st0" d="M48.1,78.7h-17.5c-2.4,0-4.4-2-4.4-4.4s2-4.4,4.4-4.4h17.5c2.4,0,4.4,2,4.4,4.4s-2,4.4-4.4,4.4Z"/>
</svg>