<?xml version="1.0" encoding="UTF-8"?>
<svg id="Layer_1" xmlns="http://www.w3.org/2000/svg" version="1.1" viewBox="0 0 140 140">
  <!-- Generator: Adobe Illustrator 29.6.0, SVG Export Plug-In . SVG Version: 2.1.1 Build 207)  -->
  <defs>
    <style>
      .st0 {
        fill: #0f2b4d;
      }
    </style>
  </defs>
  <path class="st0" d="M61.2,122.5C27.5,122.5,0,95,0,61.2S27.5,0,61.2,0s61.2,27.5,61.2,61.2-27.5,61.2-61.2,61.2ZM61.2,8.8c-28.9,0-52.5,23.6-52.5,52.5s23.6,52.5,52.5,52.5,52.5-23.6,52.5-52.5S90.2,8.8,61.2,8.8Z"/>
  <path class="st0" d="M135.6,140c-1.1,0-2.2-.4-3.1-1.3l-34.2-34.2c-1.7-1.7-1.7-4.5,0-6.2,1.7-1.7,4.5-1.7,6.2,0l34.2,34.2c1.7,1.7,1.7,4.5,0,6.2-.9.9-2,1.3-3.1,1.3Z"/>
  <path class="st0" d="M61.2,74.3c-13.3,0-24.1-10.8-24.1-24.1s10.8-24.1,24.1-24.1,24.1,10.8,24.1,24.1-10.8,24.1-24.1,24.1ZM61.2,35c-8.4,0-15.3,6.9-15.3,15.3s6.9,15.3,15.3,15.3,15.3-6.9,15.3-15.3-6.9-15.3-15.3-15.3Z"/>
  <path class="st0" d="M87.5,94.8c-1.2,0-2.4-.5-3.2-1.4-5.6-6.1-13.2-9.8-21.4-10.2-8.3-.4-16.2,2.4-22.4,8-.8.7-1.5,1.4-2.2,2.2-1.6,1.8-4.4,1.9-6.2.3-1.8-1.6-1.9-4.4-.3-6.2.9-1,1.9-2,2.8-2.8,7.9-7.1,18.1-10.7,28.7-10.2,10.6.5,20.4,5.2,27.5,13.1,1.6,1.8,1.5,4.6-.3,6.2-.8.8-1.9,1.1-2.9,1.1Z"/>
</svg>