<?xml version="1.0" encoding="UTF-8"?>
<svg id="Layer_1" xmlns="http://www.w3.org/2000/svg" version="1.1" viewBox="0 0 140 140">
  <!-- Generator: Adobe Illustrator 29.6.0, SVG Export Plug-In . SVG Version: 2.1.1 Build 207)  -->
  <defs>
    <style>
      .st0 {
        fill: #0f2b4d;
      }
    </style>
  </defs>
  <path class="st0" d="M26.2,28.4c-3.6,0-6.6-2.9-6.6-6.6s2.9-6.6,6.6-6.6,6.6,2.9,6.6,6.6-2.9,6.6-6.6,6.6ZM26.2,19.7c-1.2,0-2.2,1-2.2,2.2s1,2.2,2.2,2.2,2.2-1,2.2-2.2-1-2.2-2.2-2.2Z"/>
  <path class="st0" d="M65.6,26.2h-8.8c-2.4,0-4.4-2-4.4-4.4s2-4.4,4.4-4.4h8.8c2.4,0,4.4,2,4.4,4.4s-2,4.4-4.4,4.4Z"/>
  <path class="st0" d="M91.9,26.2h-8.8c-2.4,0-4.4-2-4.4-4.4s2-4.4,4.4-4.4h8.8c2.4,0,4.4,2,4.4,4.4s-2,4.4-4.4,4.4Z"/>
  <path class="st0" d="M91.9,61.2h-8.8c-2.4,0-4.4-2-4.4-4.4s2-4.4,4.4-4.4h8.8c2.4,0,4.4,2,4.4,4.4s-2,4.4-4.4,4.4Z"/>
  <path class="st0" d="M26.2,63.4c-3.6,0-6.6-2.9-6.6-6.6s2.9-6.6,6.6-6.6,6.6,2.9,6.6,6.6-2.9,6.6-6.6,6.6ZM26.2,54.7c-1.2,0-2.2,1-2.2,2.2s1,2.2,2.2,2.2,2.2-1,2.2-2.2-1-2.2-2.2-2.2Z"/>
  <path class="st0" d="M65.6,61.2h-8.8c-2.4,0-4.4-2-4.4-4.4s2-4.4,4.4-4.4h8.8c2.4,0,4.4,2,4.4,4.4s-2,4.4-4.4,4.4Z"/>
  <path class="st0" d="M48.1,113.8h-21.9c-2.4,0-4.4-2-4.4-4.4s2-4.4,4.4-4.4h17.5v-30.6c0-2.4,2-4.4,4.4-4.4s4.4,2,4.4,4.4v35c0,2.4-2,4.4-4.4,4.4Z"/>
  <path class="st0" d="M6.6,113.8C2.9,113.8,0,110.8,0,107.2s2.9-6.6,6.6-6.6,6.6,2.9,6.6,6.6-2.9,6.6-6.6,6.6ZM6.6,105c-1.2,0-2.2,1-2.2,2.2s1,2.2,2.2,2.2,2.2-1,2.2-2.2-1-2.2-2.2-2.2Z"/>
  <path class="st0" d="M91.9,43.8H21.9C9.8,43.8,0,33.9,0,21.9S9.8,0,21.9,0h70c12.1,0,21.9,9.8,21.9,21.9s-9.8,21.9-21.9,21.9ZM21.9,8.8c-7.2,0-13.1,5.9-13.1,13.1s5.9,13.1,13.1,13.1h70c7.2,0,13.1-5.9,13.1-13.1s-5.9-13.1-13.1-13.1H21.9Z"/>
  <path class="st0" d="M74.4,78.8H21.9C9.8,78.8,0,68.9,0,56.9s9.8-21.9,21.9-21.9h70c7.8,0,15,4.2,18.9,10.9,1.2,2.1.5,4.8-1.6,6-2.1,1.2-4.8.5-6-1.6-2.3-4-6.7-6.5-11.3-6.5H21.9c-7.2,0-13.1,5.9-13.1,13.1s5.9,13.1,13.1,13.1h52.5c2.4,0,4.4,2,4.4,4.4s-2,4.4-4.4,4.4Z"/>
  <path class="st0" d="M65.6,113.8h-17.5c-2.4,0-4.4-2-4.4-4.4s2-4.4,4.4-4.4h17.5c2.4,0,4.4,2,4.4,4.4s-2,4.4-4.4,4.4Z"/>
  <path class="st0" d="M135.6,140h-52.5c-2.4,0-4.4-2-4.4-4.4v-43.8c0-2.4,2-4.4,4.4-4.4h52.5c2.4,0,4.4,2,4.4,4.4v43.8c0,2.4-2,4.4-4.4,4.4ZM87.5,131.2h43.8v-35h-43.8v35Z"/>
  <path class="st0" d="M126.9,96.2h-35c-2.4,0-4.4-2-4.4-4.4v-8.8c0-12.1,9.8-21.9,21.9-21.9s21.9,9.8,21.9,21.9v8.8c0,2.4-2,4.4-4.4,4.4ZM96.3,87.5h26.2v-4.4c0-7.2-5.9-13.1-13.1-13.1s-13.1,5.9-13.1,13.1v4.4Z"/>
  <path class="st0" d="M109.4,120.5c-3.6,0-6.6-2.9-6.6-6.6s2.9-6.6,6.6-6.6,6.6,2.9,6.6,6.6-2.9,6.6-6.6,6.6ZM109.4,111.7c-1.2,0-2.2,1-2.2,2.2s1,2.2,2.2,2.2,2.2-1,2.2-2.2-1-2.2-2.2-2.2Z"/>
</svg>