<?xml version="1.0" encoding="UTF-8"?>
<svg id="Layer_1" xmlns="http://www.w3.org/2000/svg" version="1.1" viewBox="0 0 32 32">
  <!-- Generator: Adobe Illustrator 29.6.0, SVG Export Plug-In . SVG Version: 2.1.1 Build 207)  -->
  <path d="M27.3,20.3l-5.9-2.6h0c-.6-.3-1.3-.2-1.9.2,0,0,0,0,0,0l-3,2.6c-1.9-.9-3.9-2.9-4.9-4.8l2.6-3.1s0,0,0,0c.4-.6.4-1.3.2-1.9h0s-2.6-5.9-2.6-5.9c-.4-.8-1.2-1.3-2.1-1.2-3.5.5-6.1,3.5-6.1,7,0,9.9,8.1,18,18,18,3.5,0,6.5-2.6,7-6.1.1-.9-.4-1.7-1.2-2.1ZM21.5,26.5c-8.8,0-16-7.2-16-16,0-2.5,1.9-4.7,4.4-5,0,0,0,0,0,0l2.6,5.9-2.6,3.1s0,0,0,0c-.4.6-.4,1.3-.1,2,1.1,2.3,3.5,4.6,5.8,5.8.6.3,1.4.2,2-.1,0,0,0,0,0,0l3-2.6,5.9,2.6h0c-.3,2.5-2.5,4.4-5,4.4Z"/>
  <path d="M27.2,7.2l-4,4c-.4.4-1,.4-1.4,0h0s-2-2-2-2c-.4-.4-.4-1,0-1.4s1-.4,1.4,0l1.3,1.3,3.3-3.3c.4-.4,1-.4,1.4,0,.4.4.4,1,0,1.4Z"/>
</svg>