<?xml version="1.0" encoding="UTF-8"?>
<svg id="Layer_1" xmlns="http://www.w3.org/2000/svg" version="1.1" viewBox="0 0 250 250">
  <!-- Generator: Adobe Illustrator 29.6.0, SVG Export Plug-In . SVG Version: 2.1.1 Build 207)  -->
  <defs>
    <style>
      .st0 {
        fill: #0f2b4d;
      }
    </style>
  </defs>
  <path class="st0" d="M210.9,78.1c-4.3,0-7.8-3.5-7.8-7.8v-31.2c0-12.9-10.5-23.4-23.4-23.4h-46.9c-4.3,0-7.8-3.5-7.8-7.8s3.5-7.8,7.8-7.8h46.9c21.5,0,39.1,17.5,39.1,39.1v31.2c0,4.3-3.5,7.8-7.8,7.8Z"/>
  <path class="st0" d="M210.9,78.1c-2,0-4-.8-5.5-2.3l-23.4-23.4c-3.1-3.1-3.1-8,0-11,3.1-3.1,8-3.1,11,0l17.9,17.9,17.9-17.9c3.1-3.1,8-3.1,11,0,3.1,3.1,3.1,8,0,11l-23.4,23.4c-1.5,1.5-3.5,2.3-5.5,2.3Z"/>
  <path class="st0" d="M109.4,250h-46.9c-21.5,0-39.1-17.5-39.1-39.1v-31.2c0-4.3,3.5-7.8,7.8-7.8s7.8,3.5,7.8,7.8v31.2c0,12.9,10.5,23.4,23.4,23.4h46.9c4.3,0,7.8,3.5,7.8,7.8s-3.5,7.8-7.8,7.8Z"/>
  <path class="st0" d="M54.7,210.9c-2,0-4-.8-5.5-2.3l-17.9-17.9-17.9,17.9c-3.1,3.1-8,3.1-11,0-3.1-3.1-3.1-8,0-11l23.4-23.4c3.1-3.1,8-3.1,11,0l23.4,23.4c3.1,3.1,3.1,8,0,11-1.5,1.5-3.5,2.3-5.5,2.3Z"/>
  <path class="st0" d="M164.1,218.8c-4.3,0-7.8-3.5-7.8-7.8s3.5-7.8,7.8-7.8h21.2c2.5,0,4.8-1.5,5.7-3.9.6-1.5.6-3.2,0-4.7-.6-1.5-1.8-2.7-3.4-3.3l-21.5-8.6c-8.3-3.3-13.7-11.3-13.7-20.2,0-12,9.8-21.8,21.8-21.8h21.2c4.3,0,7.8,3.5,7.8,7.8s-3.5,7.8-7.8,7.8h-21.2c-3.4,0-6.2,2.8-6.2,6.2,0,2.5,1.5,4.8,3.9,5.7l21.5,8.6c5.4,2.2,9.6,6.3,11.9,11.7,2.3,5.4,2.3,11.3.2,16.7-3.3,8.3-11.3,13.7-20.2,13.7h-21.2Z"/>
  <path class="st0" d="M179.7,156.2c-4.3,0-7.8-3.5-7.8-7.8v-7.8c0-4.3,3.5-7.8,7.8-7.8s7.8,3.5,7.8,7.8v7.8c0,4.3-3.5,7.8-7.8,7.8Z"/>
  <path class="st0" d="M179.7,226.6c-4.3,0-7.8-3.5-7.8-7.8v-7.8c0-4.3,3.5-7.8,7.8-7.8s7.8,3.5,7.8,7.8v7.8c0,4.3-3.5,7.8-7.8,7.8Z"/>
  <path class="st0" d="M179.7,250c-38.8,0-70.3-31.5-70.3-70.3s31.5-70.3,70.3-70.3,70.3,31.5,70.3,70.3-31.5,70.3-70.3,70.3ZM179.7,125c-30.2,0-54.7,24.5-54.7,54.7s24.5,54.7,54.7,54.7,54.7-24.5,54.7-54.7-24.5-54.7-54.7-54.7Z"/>
  <path class="st0" d="M85.9,125H23.4c-4.3,0-7.8-3.5-7.8-7.8V15.6C15.6,7,22.6,0,31.2,0h46.9c8.6,0,15.6,7,15.6,15.6v101.6c0,4.3-3.5,7.8-7.8,7.8ZM31.2,109.4h46.9V15.6H31.2v93.8Z"/>
  <path class="st0" d="M85.9,54.7h-31.2c-4.3,0-7.8-3.5-7.8-7.8s3.5-7.8,7.8-7.8h31.2c4.3,0,7.8,3.5,7.8,7.8s-3.5,7.8-7.8,7.8Z"/>
  <path class="st0" d="M85.9,85.9h-31.2c-4.3,0-7.8-3.5-7.8-7.8s3.5-7.8,7.8-7.8h31.2c4.3,0,7.8,3.5,7.8,7.8s-3.5,7.8-7.8,7.8Z"/>
  <path class="st0" d="M101.6,125h-15.6c-4.3,0-7.8-3.5-7.8-7.8s3.5-7.8,7.8-7.8h15.6c4.3,0,7.8,3.5,7.8,7.8s-3.5,7.8-7.8,7.8Z"/>
  <path class="st0" d="M23.4,125H7.8c-4.3,0-7.8-3.5-7.8-7.8s3.5-7.8,7.8-7.8h15.6c4.3,0,7.8,3.5,7.8,7.8s-3.5,7.8-7.8,7.8Z"/>
</svg>