<?xml version="1.0" encoding="UTF-8"?>
<svg id="Layer_1" xmlns="http://www.w3.org/2000/svg" version="1.1" viewBox="0 0 140 140">
  <!-- Generator: Adobe Illustrator 29.6.0, SVG Export Plug-In . SVG Version: 2.1.1 Build 207)  -->
  <defs>
    <style>
      .st0 {
        fill: #0f2b4d;
      }
    </style>
  </defs>
  <path class="st0" d="M126.9,140c-2.4,0-4.4-2-4.4-4.4v-61.2c0-2.4,2-4.4,4.4-4.4s4.4,2,4.4,4.4v61.2c0,2.4-2,4.4-4.4,4.4ZM50.7,140c-3.6,0-6.9-2.3-8.2-5.7l-7.6-20.3c-.5-1.5-.8-3-.8-4.6,0-6.4,4.5-11.7,10.5-12.9l7.8-19.4c.9-2.2,3.4-3.3,5.7-2.4,2.2.9,3.3,3.4,2.4,5.7l-6.4,15.9h30.8l-6.4-15.9c-.9-2.2.2-4.8,2.4-5.7,2.2-.9,4.8.2,5.7,2.4l7.8,19.4c.7.1,1.4.3,2,.6,3.3,1.2,5.9,3.7,7.3,6.9,1.5,3.2,1.6,6.8.3,10l-7.6,20.3c-1.3,3.4-4.5,5.7-8.2,5.7h-37.7ZM47.1,105c-2.4,0-4.4,2-4.3,4.4,0,.5,0,1,.3,1.5l7.6,20.3h37.7s7.6-20.3,7.6-20.3c.4-1.1.4-2.3-.1-3.3-.5-1.1-1.4-1.9-2.4-2.3-.5-.2-1-.3-1.5-.3h-.4c0,0-.1,0-.2,0h-43.6c0,0-.1,0-.2,0h-.4ZM13.1,140c-2.4,0-4.4-2-4.4-4.4v-61.2c0-2.4,2-4.4,4.4-4.4s4.4,2,4.4,4.4v61.2c0,2.4-2,4.4-4.4,4.4ZM78.8,126.9c-2.4,0-4.4-2-4.4-4.4v-8.8c0-2.4,2-4.4,4.4-4.4s4.4,2,4.4,4.4v8.8c0,2.4-2,4.4-4.4,4.4ZM61.2,126.9c-2.4,0-4.4-2-4.4-4.4v-8.8c0-2.4,2-4.4,4.4-4.4s4.4,2,4.4,4.4v8.8c0,2.4-2,4.4-4.4,4.4ZM122.5,61.2c-5.2,0-9.9-2.3-13.1-5.9-3.2,3.6-7.9,5.9-13.1,5.9s-9.9-2.3-13.1-5.9c-3.2,3.6-7.9,5.9-13.1,5.9s-9.9-2.3-13.1-5.9c-3.2,3.6-7.9,5.9-13.1,5.9s-9.9-2.3-13.1-5.9c-3.2,3.6-7.9,5.9-13.1,5.9C7.9,61.2,0,53.4,0,43.8s0-.6.1-.9L8.1,6.9C9,2.8,12.5,0,16.6,0h106.7c4.1,0,7.6,2.8,8.5,6.9l8,35.9c0,.3.1.6.1.9,0,9.6-7.9,17.5-17.5,17.5ZM109.4,39.4c2.4,0,4.4,2,4.4,4.4,0,4.8,3.9,8.8,8.8,8.8s8.5-3.7,8.7-8.3l-7.9-35.4H16.6l-7.9,35.4c.2,4.6,4.1,8.3,8.7,8.3s8.8-3.9,8.8-8.8,2-4.4,4.4-4.4,4.4,2,4.4,4.4c0,4.8,3.9,8.8,8.8,8.8s8.8-3.9,8.8-8.8,2-4.4,4.4-4.4,4.4,2,4.4,4.4c0,4.8,3.9,8.8,8.8,8.8s8.8-3.9,8.8-8.8,2-4.4,4.4-4.4,4.4,2,4.4,4.4c0,4.8,3.9,8.8,8.8,8.8s8.8-3.9,8.8-8.8,2-4.4,4.4-4.4ZM123.4,8.7s0,0,0,0h0Z"/>
</svg>