<?xml version="1.0" encoding="UTF-8"?>
<svg id="Layer_1" xmlns="http://www.w3.org/2000/svg" version="1.1" viewBox="0 0 140 140">
  <!-- Generator: Adobe Illustrator 29.6.0, SVG Export Plug-In . SVG Version: 2.1.1 Build 207)  -->
  <defs>
    <style>
      .st0 {
        fill: #0f2b4d;
      }
    </style>
  </defs>
  <path class="st0" d="M126.2,131.2H13.1c-7.2,0-13.1-5.9-13.1-13.1V22.5c0-7.6,6.2-13.8,13.8-13.8h112.5c7.6,0,13.7,6.2,13.7,13.7v95c0,7.6-6.2,13.8-13.8,13.8ZM126.2,17.5H13.8c-2.8,0-5,2.3-5,5.1v95.6c0,2.4,2,4.4,4.4,4.4h113.1c2.8,0,5-2.3,5-5.1V22.5c0-2.7-2.3-5-5-5Z"/>
  <path class="st0" d="M28.1,113.8c-5.7,0-10.4-4.6-10.6-10.3,0,0,0,0,0-.1V37.1s0,0,0-.1c.2-6.1,5.3-10.9,11.3-10.8h82.4c6-.1,11.1,4.7,11.3,10.7,0,0,0,0,0,.1v65.7s0,0,0,.1c-.2,6-5.2,10.8-11.1,10.8s-.1,0-.2,0H28.3c0,0-.2,0-.2,0ZM26.2,103.2c0,1,.9,1.8,1.9,1.8,0,0,0,0,.1,0h82.9c0,0,.1,0,.2,0,1.3,0,2.3-1,2.4-2.2V37.2c0-1.3-1.2-2.3-2.4-2.2,0,0,0,0-.1,0H28.8c0,0-.1,0-.2,0-1.3,0-2.3,1-2.4,2.2v66Z"/>
  <path class="st0" d="M96.2,74.4h-17.5c-2.4,0-4.4-2-4.4-4.4s2-4.4,4.4-4.4h17.5c2.4,0,4.4,2,4.4,4.4s-2,4.4-4.4,4.4Z"/>
  <path class="st0" d="M48.1,87.5c-1.1,0-2.2-.4-3.1-1.3-1.7-1.7-1.7-4.5,0-6.2l10-10-10-10c-1.7-1.7-1.7-4.5,0-6.2,1.7-1.7,4.5-1.7,6.2,0l13.1,13.1c1.7,1.7,1.7,4.5,0,6.2l-13.1,13.1c-.9.9-2,1.3-3.1,1.3Z"/>
</svg>