<?xml version="1.0" encoding="UTF-8"?>
<svg id="Layer_1" xmlns="http://www.w3.org/2000/svg" version="1.1" viewBox="0 0 140 140">
  <!-- Generator: Adobe Illustrator 29.6.0, SVG Export Plug-In . SVG Version: 2.1.1 Build 207)  -->
  <defs>
    <style>
      .st0 {
        fill: #0f2b4d;
      }
    </style>
  </defs>
  <path class="st0" d="M126.9,140h-35c-2.4,0-4.4-2-4.4-4.4s2-4.4,4.4-4.4h35c2.4,0,4.4-2,4.4-4.4v-35c0-2.4,2-4.4,4.4-4.4s4.4,2,4.4,4.4v35c0,7.2-5.9,13.1-13.1,13.1Z"/>
  <path class="st0" d="M135.6,52.5c-2.4,0-4.4-2-4.4-4.4V13.1c0-2.4-2-4.4-4.4-4.4h-35c-2.4,0-4.4-2-4.4-4.4s2-4.4,4.4-4.4h35c7.2,0,13.1,5.9,13.1,13.1v35c0,2.4-2,4.4-4.4,4.4Z"/>
  <path class="st0" d="M4.4,52.5c-2.4,0-4.4-2-4.4-4.4V13.1C0,5.9,5.9,0,13.1,0h35c2.4,0,4.4,2,4.4,4.4s-2,4.4-4.4,4.4H13.1c-2.4,0-4.4,2-4.4,4.4v35c0,2.4-2,4.4-4.4,4.4Z"/>
  <path class="st0" d="M48.1,140H13.1c-7.2,0-13.1-5.9-13.1-13.1v-35c0-2.4,2-4.4,4.4-4.4s4.4,2,4.4,4.4v35c0,2.4,2,4.4,4.4,4.4h35c2.4,0,4.4,2,4.4,4.4s-2,4.4-4.4,4.4Z"/>
  <path class="st0" d="M70,105c-2.4,0-4.4-2-4.4-4.4v-61.2c0-2.4,2-4.4,4.4-4.4s4.4,2,4.4,4.4v61.2c0,2.4-2,4.4-4.4,4.4Z"/>
  <path class="st0" d="M48.1,91.9c-2.4,0-4.4-2-4.4-4.4v-35c0-2.4,2-4.4,4.4-4.4s4.4,2,4.4,4.4v35c0,2.4-2,4.4-4.4,4.4Z"/>
  <path class="st0" d="M91.9,91.9c-2.4,0-4.4-2-4.4-4.4v-35c0-2.4,2-4.4,4.4-4.4s4.4,2,4.4,4.4v35c0,2.4-2,4.4-4.4,4.4Z"/>
  <path class="st0" d="M26.2,83.1c-2.4,0-4.4-2-4.4-4.4v-17.5c0-2.4,2-4.4,4.4-4.4s4.4,2,4.4,4.4v17.5c0,2.4-2,4.4-4.4,4.4Z"/>
  <path class="st0" d="M113.8,83.1c-2.4,0-4.4-2-4.4-4.4v-17.5c0-2.4,2-4.4,4.4-4.4s4.4,2,4.4,4.4v17.5c0,2.4-2,4.4-4.4,4.4Z"/>
</svg>