<?xml version="1.0" encoding="UTF-8"?>
<svg id="Layer_1" xmlns="http://www.w3.org/2000/svg" version="1.1" viewBox="0 0 140 140">
  <!-- Generator: Adobe Illustrator 29.6.0, SVG Export Plug-In . SVG Version: 2.1.1 Build 207)  -->
  <defs>
    <style>
      .st0 {
        fill: #0f2b4d;
      }
    </style>
  </defs>
  <path class="st0" d="M70,61.2c-15.8,0-30.7-2.9-42-8.1-12.4-5.7-19.2-13.7-19.2-22.5S15.6,13.8,28,8.1C39.3,2.9,54.2,0,70,0s30.7,2.9,42,8.1c12.4,5.7,19.2,13.7,19.2,22.5s-6.8,16.8-19.2,22.5c-11.3,5.2-26.2,8.1-42,8.1ZM70,8.8c-14.6,0-28.2,2.6-38.4,7.3-9,4.1-14.1,9.5-14.1,14.6,0,10.3,21.6,21.9,52.5,21.9s28.2-2.6,38.4-7.3c9-4.1,14.1-9.5,14.1-14.6,0-10.3-21.6-21.9-52.5-21.9Z"/>
  <path class="st0" d="M70,140c-9.6,0-17.5-7.9-17.5-17.5v-33.2c-25.9-7.7-43.7-31.3-43.8-58.7,0-2.4,2-4.4,4.4-4.4h0c2.4,0,4.4,2,4.4,4.4,0,24.4,16.6,45.4,40.4,51,2,.5,3.4,2.2,3.4,4.3v36.6c0,4.8,3.9,8.8,8.8,8.8s8.8-3.9,8.8-8.8v-36.6c0-2,1.4-3.8,3.4-4.3,23.8-5.6,40.4-26.6,40.4-51,0-2.4,2-4.4,4.4-4.4h0c2.4,0,4.4,2,4.4,4.4,0,27.3-17.8,51-43.8,58.7v33.2c0,9.6-7.9,17.5-17.5,17.5Z"/>
</svg>