<?xml version="1.0" encoding="UTF-8"?>
<svg id="Layer_1" xmlns="http://www.w3.org/2000/svg" version="1.1" viewBox="0 0 140 140">
  <!-- Generator: Adobe Illustrator 29.6.0, SVG Export Plug-In . SVG Version: 2.1.1 Build 207)  -->
  <defs>
    <style>
      .st0 {
        fill: #0f2b4d;
      }
    </style>
  </defs>
  <path class="st0" d="M69.7,140c-1.8,0-3.7-.6-5.3-1.7h0c-6.7-4.8-15.8-4.8-22.5,0-3.6,2.6-8.6,2.2-11.8-1L2.7,109.8c-3.2-3.2-3.6-8.1-1-11.8,4.8-6.7,4.8-15.8,0-22.5-2.6-3.7-2.2-8.6,1-11.8L63.8,2.7c3.2-3.2,8.1-3.6,11.8-1,6.7,4.8,15.8,4.8,22.5,0,3.7-2.6,8.6-2.2,11.8,1l27.5,27.5c3.2,3.2,3.6,8.1,1,11.8-4.8,6.7-4.8,15.8,0,22.5,2.6,3.6,2.2,8.6-1,11.8l-61.1,61.1c-1.8,1.8-4.1,2.7-6.5,2.7ZM53.2,126c5.7,0,11.5,1.7,16.3,5.2,0,0,0,0,0,0,.1.1.4,0,.5,0l61.1-61.2c.1-.1.2-.3,0-.5-6.9-9.8-6.9-22.9,0-32.7.1-.2,0-.4,0-.5l-27.5-27.5c-.1-.1-.3-.2-.5,0-9.8,6.9-22.9,6.9-32.7,0-.2-.1-.4,0-.5,0L8.9,70c-.1.1-.2.3,0,.5,6.9,9.8,6.9,22.9,0,32.6-.1.2,0,.4,0,.5l27.5,27.5c.1.1.3.2.5,0,4.9-3.5,10.6-5.2,16.3-5.2Z"/>
  <path class="st0" d="M66.6,118.1c-1.1,0-2.2-.4-3.1-1.3l-40.4-40.4c-.8-.8-1.3-1.9-1.3-3.1s.5-2.3,1.3-3.1l47.1-47.1c1.7-1.7,4.5-1.7,6.2,0l40.4,40.4c1.7,1.7,1.7,4.5,0,6.2l-47.1,47.1c-.9.9-2,1.3-3.1,1.3ZM32.4,73.4l34.2,34.2,40.9-40.9-34.2-34.2-40.9,40.9Z"/>
  <path class="st0" d="M53.2,77.7c-1.1,0-2.2-.4-3.1-1.3-1.7-1.7-1.7-4.5,0-6.2l20.2-20.2c1.7-1.7,4.5-1.7,6.2,0,1.7,1.7,1.7,4.5,0,6.2l-20.2,20.2c-.9.9-2,1.3-3.1,1.3Z"/>
  <path class="st0" d="M74.1,83.7c-1.1,0-2.2-.4-3.1-1.3-1.7-1.7-1.7-4.5,0-6.2l6.3-6.3c1.7-1.7,4.5-1.7,6.2,0s1.7,4.5,0,6.2l-6.3,6.3c-.9.9-2,1.3-3.1,1.3Z"/>
</svg>