<?xml version="1.0" encoding="UTF-8"?>
<svg id="Layer_1" xmlns="http://www.w3.org/2000/svg" version="1.1" viewBox="0 0 140 140">
  <!-- Generator: Adobe Illustrator 29.6.0, SVG Export Plug-In . SVG Version: 2.1.1 Build 207)  -->
  <defs>
    <style>
      .st0 {
        fill: #0f2b4d;
      }
    </style>
  </defs>
  <path class="st0" d="M57.3,114.5c-22.3,0-43.5-13.1-52.8-34.9h0C-7.8,50.6,5.8,16.9,34.9,4.6c14.1-6,29.6-6.1,43.8-.4,14.2,5.7,25.3,16.6,31.3,30.7,12.3,29-1.2,62.7-30.3,75.1-7.3,3.1-14.9,4.6-22.3,4.6ZM12.6,76.2c10.5,24.6,39,36.1,63.6,25.7,24.6-10.5,36.1-39,25.7-63.6-5.1-11.9-14.5-21.2-26.5-26-12-4.8-25.2-4.7-37.1.3C13.7,23.1,2.2,51.6,12.6,76.2h0Z"/>
  <path class="st0" d="M135.6,140c-1.1,0-2.2-.4-3.1-1.3l-41-41c-1.7-1.7-1.7-4.5,0-6.2,1.7-1.7,4.5-1.7,6.2,0l41,41c1.7,1.7,1.7,4.5,0,6.2s-2,1.3-3.1,1.3Z"/>
</svg>