<?xml version="1.0" encoding="UTF-8"?>
<svg id="Layer_1" xmlns="http://www.w3.org/2000/svg" version="1.1" viewBox="0 0 140 140">
  <!-- Generator: Adobe Illustrator 29.6.0, SVG Export Plug-In . SVG Version: 2.1.1 Build 207)  -->
  <defs>
    <style>
      .st0 {
        fill: #0f2b4d;
      }
    </style>
  </defs>
  <path class="st0" d="M64.3,73.6c-1.1,0-2.2-.4-3.1-1.3-1.7-1.7-1.7-4.5,0-6.2l24.3-24.3c1.7-1.7,4.5-1.7,6.2,0,1.7,1.7,1.7,4.5,0,6.2l-24.3,24.3c-.9.9-2,1.3-3.1,1.3Z"/>
  <path class="st0" d="M88.6,49.2c-1.2,0-2.3-.5-3.1-1.3-1-1-1.4-2.4-1.2-3.7l3.3-21.9c.1-.9.6-1.8,1.3-2.5L107.8,1.3c1.1-1.1,2.8-1.5,4.4-1.1,1.5.5,2.7,1.8,3,3.4l2.4,12.4,12.4,2.4c1.6.3,2.9,1.5,3.4,3,.5,1.5,0,3.2-1.1,4.4l-18.6,18.9c-.7.7-1.5,1.1-2.5,1.3l-21.9,3.3c-.2,0-.4,0-.7,0ZM96,25.1l-2.2,14.6,14.6-2.2,11.9-12.1-7.3-1.4c-1.8-.3-3.1-1.7-3.5-3.5l-1.4-7.3-12.1,11.9Z"/>
  <path class="st0" d="M67.7,131.3c-10.7,0-21.2-2.8-30.7-8.4-14.1-8.2-24.2-21.5-28.4-37.3-4.2-15.8-1.9-32.3,6.3-46.5,8.2-14.1,21.5-24.2,37.3-28.4,7.1-1.9,14.5-2.5,21.8-1.7,2.4.2,4.2,2.4,3.9,4.8-.2,2.4-2.4,4.1-4.8,3.9-6.3-.6-12.6-.1-18.7,1.5-13.6,3.6-24.9,12.2-32,24.3s-9,26.3-5.4,39.8c3.6,13.6,12.2,24.9,24.3,32,12.1,7.1,26.3,9,39.8,5.4,13.6-3.6,24.9-12.2,32-24.3s9-26.3,5.4-39.8c-.6-2.3.8-4.7,3.1-5.3,2.3-.6,4.7.8,5.3,3.1,4.2,15.8,1.9,32.3-6.3,46.5-8.2,14.1-21.5,24.2-37.3,28.4-5.2,1.4-10.5,2.1-15.7,2.1Z"/>
  <path class="st0" d="M67.8,105c-6.3,0-12.5-1.7-18-5-8-4.8-13.7-12.5-15.9-21.6-4.6-18.7,6.8-37.8,25.6-42.4,2.7-.7,5.6-1,8.4-1h0c2.4,0,4.4,2,4.4,4.4,0,2.4-2,4.4-4.4,4.4-2.1,0-4.2.3-6.3.8-6.8,1.7-12.5,5.9-16.2,11.9-3.6,6-4.7,13.1-3,19.9,3.5,14.1,17.8,22.7,31.8,19.2,14.1-3.5,22.6-17.8,19.2-31.8-.6-2.3.8-4.7,3.2-5.3,2.3-.6,4.7.8,5.3,3.2,4.6,18.7-6.8,37.8-25.5,42.4-2.8.7-5.7,1-8.5,1Z"/>
  <path class="st0" d="M33.6,140c-.4,0-.7,0-1.1-.1-2.3-.6-3.8-3-3.2-5.3l4.4-17.5c.6-2.3,3-3.8,5.3-3.2,2.3.6,3.8,3,3.2,5.3l-4.4,17.5c-.5,2-2.3,3.3-4.2,3.3Z"/>
  <path class="st0" d="M103.6,140c-2,0-3.7-1.3-4.2-3.3l-4.4-17.5c-.6-2.3.8-4.7,3.2-5.3,2.4-.6,4.7.8,5.3,3.2l4.4,17.5c.6,2.3-.8,4.7-3.2,5.3-.4,0-.7.1-1.1.1Z"/>
</svg>