<?xml version="1.0" encoding="UTF-8"?>
<svg id="Layer_1" xmlns="http://www.w3.org/2000/svg" version="1.1" viewBox="0 0 140 140">
  <!-- Generator: Adobe Illustrator 29.6.0, SVG Export Plug-In . SVG Version: 2.1.1 Build 207)  -->
  <defs>
    <style>
      .st0 {
        fill: #0f2b4d;
      }
    </style>
  </defs>
  <path class="st0" d="M135.6,135.6c-2.4,0-4.4-2-4.4-4.4v-26.2c0-2.4-2-4.4-4.4-4.4H13.1c-2.4,0-4.4,2-4.4,4.4v26.2c0,2.4-2,4.4-4.4,4.4s-4.4-2-4.4-4.4v-26.2c0-7.2,5.9-13.1,13.1-13.1v-18.9c-.2-7.9,5.5-14.6,13.1-15.9v-9c0-2.4,2-4.4,4.4-4.4s4.4,2,4.4,4.4v8.8h24.1s0,0,.1,0c8.6.3,15.4,7.5,15.2,16.1v18.9h52.5c7.2,0,13.1,5.9,13.1,13.1v26.2c0,2.4-2,4.4-4.4,4.4ZM21.9,91.9h43.8v-19s0,0,0-.1c.1-3.8-2.9-7-6.6-7.2h-30.5c-3.8.2-6.8,3.4-6.6,7.2,0,0,0,0,0,.1v19ZM43.8,83.1h-8.8c-2.4,0-4.4-2-4.4-4.4s2-4.4,4.4-4.4h8.8c2.4,0,4.4,2,4.4,4.4s-2,4.4-4.4,4.4Z"/>
  <path class="st0" d="M100.6,48.1c-12.1,0-21.9-9.8-21.9-21.9s9.8-21.9,21.9-21.9,21.9,9.8,21.9,21.9-9.8,21.9-21.9,21.9ZM100.6,13.1c-7.2,0-13.1,5.9-13.1,13.1s5.9,13.1,13.1,13.1,13.1-5.9,13.1-13.1-5.9-13.1-13.1-13.1Z"/>
  <path class="st0" d="M126.9,83.1h0c-2.4,0-4.4-2-4.4-4.4,0-5.8-2.3-11.3-6.4-15.5-4.1-4.1-9.6-6.4-15.5-6.4h0c-5.8,0-11.4,2.4-15.5,6.5-1.7,1.7-4.5,1.7-6.2,0-1.7-1.7-1.7-4.5,0-6.2,5.7-5.7,13.6-9,21.7-9h0c8.2,0,15.9,3.2,21.7,9,5.8,5.8,9,13.5,9,21.7,0,2.4-2,4.4-4.4,4.4Z"/>
  <path class="st0" d="M45.2,52.6h-29.2c-4,0-7.3-3.3-7.3-7.3v-11.7c0-4,3.3-7.3,7.3-7.3h29.2c4,0,7.3,3.3,7.3,7.3v11.7c0,4-3.3,7.3-7.3,7.3ZM17.5,43.8h26.2v-8.8h-26.2v8.8ZM45.2,35.1h0,0Z"/>
</svg>