<?xml version="1.0" encoding="UTF-8"?>
<svg id="Layer_1" xmlns="http://www.w3.org/2000/svg" version="1.1" viewBox="0 0 140 140">
  <!-- Generator: Adobe Illustrator 29.6.0, SVG Export Plug-In . SVG Version: 2.1.1 Build 207)  -->
  <defs>
    <style>
      .st0 {
        fill: #0f2b4d;
      }
    </style>
  </defs>
  <path class="st0" d="M40.3,84.7c-9.4,0-17.1-7.7-17.1-17.1s7.7-17.1,17.1-17.1,17.1,7.7,17.1,17.1-7.7,17.1-17.1,17.1ZM40.3,59.2c-4.6,0-8.4,3.7-8.4,8.4s3.7,8.4,8.4,8.4,8.4-3.7,8.4-8.4-3.7-8.4-8.4-8.4Z"/>
  <path class="st0" d="M108.4,71.5c-17.2,0-31.2-14-31.2-31.2s14-31.2,31.2-31.2,31.2,14,31.2,31.2-14,31.2-31.2,31.2ZM108.4,17.9c-12.4,0-22.4,10.1-22.4,22.4s10.1,22.4,22.4,22.4,22.4-10.1,22.4-22.4-10.1-22.4-22.4-22.4Z"/>
  <path class="st0" d="M62.5,111.5c-2.4,0-4.4-2-4.4-4.4,0-9.8-8-17.8-17.8-17.8s-17.8,8-17.8,17.8-2,4.4-4.4,4.4-4.4-2-4.4-4.4c0-14.6,11.9-26.6,26.6-26.6s26.6,11.9,26.6,26.6-2,4.4-4.4,4.4Z"/>
  <path class="st0" d="M114.2,90.5h-37.2c-2.4,0-4.4-2-4.4-4.4s2-4.4,4.4-4.4h37.2c2.4,0,4.4,2,4.4,4.4s-2,4.4-4.4,4.4Z"/>
  <path class="st0" d="M133.8,112.8H6.2c-2.4,0-4.4-2-4.4-4.4V31.6c0-2.4,2-4.4,4.4-4.4h60.7c2.4,0,4.4,2,4.4,4.4s-2,4.4-4.4,4.4H10.6v68.1h118.8v-30.9c0-2.4,2-4.4,4.4-4.4s4.4,2,4.4,4.4v35.2c0,2.4-2,4.4-4.4,4.4Z"/>
  <path class="st0" d="M104.5,51.1c-1.1,0-2.2-.4-3.1-1.3l-6.4-6.4c-1.7-1.7-1.7-4.5,0-6.2,1.7-1.7,4.5-1.7,6.2,0l3.3,3.3,11.1-11.1c1.7-1.7,4.5-1.7,6.2,0,1.7,1.7,1.7,4.5,0,6.2l-14.2,14.2c-.9.9-2,1.3-3.1,1.3Z"/>
</svg>