<?xml version="1.0" encoding="UTF-8"?>
<svg id="Layer_1" xmlns="http://www.w3.org/2000/svg" version="1.1" viewBox="0 0 140 140">
  <!-- Generator: Adobe Illustrator 29.6.0, SVG Export Plug-In . SVG Version: 2.1.1 Build 207)  -->
  <defs>
    <style>
      .st0 {
        fill: #0f2b4d;
      }
    </style>
  </defs>
  <path class="st0" d="M70,96.2c-2.4,0-4.4-2-4.4-4.4V21.9c0-2.4,2-4.4,4.4-4.4s4.4,2,4.4,4.4v70c0,2.4-2,4.4-4.4,4.4Z"/>
  <path class="st0" d="M96.3,52.5c-1.1,0-2.2-.4-3.1-1.3l-23.2-23.2-23.2,23.2c-1.7,1.7-4.5,1.7-6.2,0-1.7-1.7-1.7-4.5,0-6.2l26.2-26.2c1.7-1.7,4.5-1.7,6.2,0l26.2,26.2c1.7,1.7,1.7,4.5,0,6.2-.9.9-2,1.3-3.1,1.3Z"/>
  <path class="st0" d="M118.1,122.5H21.9C9.8,122.5,0,112.7,0,100.6v-8.8c0-2.4,2-4.4,4.4-4.4s4.4,2,4.4,4.4v8.8c0,7.2,5.9,13.1,13.1,13.1h96.2c7.2,0,13.1-5.9,13.1-13.1v-8.8c0-2.4,2-4.4,4.4-4.4s4.4,2,4.4,4.4v8.8c0,12.1-9.8,21.9-21.9,21.9Z"/>
</svg>