<?xml version="1.0" encoding="UTF-8"?>
<svg id="Layer_1" xmlns="http://www.w3.org/2000/svg" version="1.1" viewBox="0 0 140 140">
  <!-- Generator: Adobe Illustrator 29.6.0, SVG Export Plug-In . SVG Version: 2.1.1 Build 207)  -->
  <defs>
    <style>
      .st0 {
        fill: #0f2b4d;
      }
    </style>
  </defs>
  <path class="st0" d="M126.9,140h-17.5c-2.4,0-4.4-2-4.4-4.4s2-4.4,4.4-4.4h17.5c2.4,0,4.4-2,4.4-4.4v-17.5c0-2.4,2-4.4,4.4-4.4s4.4,2,4.4,4.4v17.5c0,7.2-5.9,13.1-13.1,13.1Z"/>
  <path class="st0" d="M135.6,35c-2.4,0-4.4-2-4.4-4.4V13.1c0-2.4-2-4.4-4.4-4.4h-17.5c-2.4,0-4.4-2-4.4-4.4s2-4.4,4.4-4.4h17.5c7.2,0,13.1,5.9,13.1,13.1v17.5c0,2.4-2,4.4-4.4,4.4Z"/>
  <path class="st0" d="M4.4,35c-2.4,0-4.4-2-4.4-4.4V13.1C0,5.9,5.9,0,13.1,0h17.5c2.4,0,4.4,2,4.4,4.4s-2,4.4-4.4,4.4H13.1c-2.4,0-4.4,2-4.4,4.4v17.5c0,2.4-2,4.4-4.4,4.4Z"/>
  <path class="st0" d="M30.6,140H13.1c-7.2,0-13.1-5.9-13.1-13.1v-17.5c0-2.4,2-4.4,4.4-4.4s4.4,2,4.4,4.4v17.5c0,2.4,2,4.4,4.4,4.4h17.5c2.4,0,4.4,2,4.4,4.4s-2,4.4-4.4,4.4Z"/>
  <path class="st0" d="M70,80.9c-15.7,0-28.4-12.8-28.4-28.4s12.8-28.4,28.4-28.4,28.4,12.8,28.4,28.4-12.8,28.4-28.4,28.4ZM70,32.8c-10.9,0-19.7,8.8-19.7,19.7s8.8,19.7,19.7,19.7,19.7-8.8,19.7-19.7-8.8-19.7-19.7-19.7Z"/>
  <path class="st0" d="M107.1,115.9c-1.8,0-3.5-1.1-4.1-2.9-6.4-18.2-26.5-27.8-44.7-21.3-10,3.5-17.8,11.3-21.3,21.3-.8,2.3-3.3,3.5-5.6,2.7-2.3-.8-3.5-3.3-2.7-5.6,4.4-12.5,14.1-22.2,26.7-26.7,22.7-8,47.8,3.9,55.8,26.7.8,2.3-.4,4.8-2.7,5.6-.5.2-1,.3-1.5.3Z"/>
</svg>