<?xml version="1.0" encoding="UTF-8"?>
<svg id="Layer_1" xmlns="http://www.w3.org/2000/svg" version="1.1" viewBox="0 0 140 140">
  <!-- Generator: Adobe Illustrator 29.6.0, SVG Export Plug-In . SVG Version: 2.1.1 Build 207)  -->
  <defs>
    <style>
      .st0 {
        fill: #0f2b4d;
      }
    </style>
  </defs>
  <path class="st0" d="M118.1,140H21.9c-2.4,0-4.4-2-4.4-4.4V56.9c0-2.4,2-4.4,4.4-4.4h96.2c2.4,0,4.4,2,4.4,4.4v78.8c0,2.4-2,4.4-4.4,4.4ZM26.2,131.2h87.5V61.2H26.2v70Z"/>
  <path class="st0" d="M100.6,61.2c-2.4,0-4.4-2-4.4-4.4v-21.9c0-14.5-11.8-26.2-26.2-26.2s-26.2,11.8-26.2,26.2v21.9c0,2.4-2,4.4-4.4,4.4s-4.4-2-4.4-4.4v-21.9C35,15.7,50.7,0,70,0s35,15.7,35,35v21.9c0,2.4-2,4.4-4.4,4.4Z"/>
  <path class="st0" d="M70,109.4c-2.4,0-4.4-2-4.4-4.4v-17.5c0-2.4,2-4.4,4.4-4.4s4.4,2,4.4,4.4v17.5c0,2.4-2,4.4-4.4,4.4Z"/>
</svg>