<svg viewBox="0 0 140 140" height="140" width="140" xmlns="http://www.w3.org/2000/svg"><g transform="matrix(5.833333333333333,0,0,5.833333333333333,0,0)"><path d="M11.25 17.25L0.75 17.25 0.75 0.75 23.25 0.75 23.25 5.25" fill="none" stroke="#0F2B4D" stroke-linecap="round" stroke-linejoin="round" stroke-width="1.5"></path><path d="M0.75 9.75L8.25 17.25" fill="none" stroke="#0F2B4D" stroke-linecap="round" stroke-linejoin="round" stroke-width="1.5"></path><path d="M15.75 0.75L20.25 5.25" fill="none" stroke="#0F2B4D" stroke-linecap="round" stroke-linejoin="round" stroke-width="1.5"></path><path d="M16.237,16.483l-.8,5.879a.751.751,0,0,0,1.269.666l2.049-2.05,2.049,2.05a.751.751,0,0,0,1.269-.666l-.8-5.879" fill="none" stroke="#0F2B4D" stroke-linecap="round" stroke-linejoin="round" stroke-width="1.5"></path><path d="M14.250 12.750 A4.500 4.500 0 1 0 23.250 12.750 A4.500 4.500 0 1 0 14.250 12.750 Z" fill="none" stroke="#0F2B4D" stroke-linecap="round" stroke-linejoin="round" stroke-width="1.5"></path><path d="M0.75 8.25L8.25 0.75" fill="none" stroke="#0F2B4D" stroke-linecap="round" stroke-linejoin="round" stroke-width="1.5"></path><path d="M18.75 12.375L18.75 12.375" fill="none" stroke="#0F2B4D" stroke-linecap="round" stroke-linejoin="round" stroke-width="1.5"></path><path d="M18.75,12.375a.375.375,0,1,0,.375.375.375.375,0,0,0-.375-.375" fill="none" stroke="#0F2B4D" stroke-linecap="round" stroke-linejoin="round" stroke-width="1.5"></path></g></svg>