<?xml version="1.0" encoding="UTF-8"?>
<svg id="Layer_1" xmlns="http://www.w3.org/2000/svg" version="1.1" viewBox="0 0 140 140">
  <!-- Generator: Adobe Illustrator 29.6.0, SVG Export Plug-In . SVG Version: 2.1.1 Build 207)  -->
  <defs>
    <style>
      .st0 {
        fill: #0f2b4d;
      }
    </style>
  </defs>
  <path class="st0" d="M47.6,139.9c-3.9,0-7.7-1.4-10.6-4.1-3.5-3.2-5.4-7.7-5.2-12.4l.4-8.2c0-1.9-.5-3.7-1.8-5.1s-3-2.2-4.9-2.3c-.2,0-.5,0-.7,0l-8.2.4c-4.2.2-8.3-1.2-11.4-4-3.1-2.8-5-6.7-5.2-10.9-.2-4.8,1.6-9.3,5.2-12.5l6.1-5.5c2.9-2.6,3.1-7.1.5-10-.2-.2-.3-.3-.5-.5l-6.1-5.5c-6.5-5.9-6.9-15.9-1.1-22.3,3.2-3.5,7.7-5.4,12.5-5.2l8.2.4c1.9,0,3.7-.5,5.1-1.8,1.4-1.3,2.2-3,2.3-4.9,0-.2,0-.5,0-.7l-.4-8.2C31.4,7.9,38.1.5,46.8,0c4.7-.2,9.3,1.7,12.4,5.2l5.5,6.1s0,0,0,0c1.3,1.4,3,2.2,4.9,2.3,1.9.1,3.7-.5,5.1-1.8.2-.2.4-.3.5-.5l5.5-6.1c5.8-6.5,15.8-7,22.3-1.1,3.5,3.2,5.4,7.8,5.2,12.5l-.4,8.2c-.2,3.9,2.8,7.2,6.7,7.4.2,0,.5,0,.7,0l8.2-.4c8.7-.4,16.1,6.3,16.6,15,.2,4.8-1.7,9.3-5.2,12.5l-6.1,5.5c-1.4,1.3-2.2,3-2.3,4.9s.5,3.7,1.8,5.1c.2.2.3.3.5.5l6.1,5.5c6.5,5.8,7,15.9,1.1,22.3-3.2,3.5-7.8,5.4-12.5,5.2l-8.2-.4c-1.9,0-3.7.5-5.1,1.8-1.4,1.3-2.2,3-2.3,4.9,0,.2,0,.5,0,.7l.4,8.2c.4,8.7-6.4,16.1-15.1,16.5-4.7.2-9.2-1.7-12.4-5.1l-5.5-6.1c-1.3-1.4-3-2.2-4.9-2.3-1.9,0-3.7.5-5.1,1.8-.2.2-.4.3-.5.5l-5.5,6.1c-2.8,3.1-6.7,5-10.9,5.2-.3,0-.5,0-.8,0ZM25.2,99.1c.3,0,.5,0,.8,0,4.2.2,8.1,2.1,10.9,5.2,2.8,3.1,4.3,7.2,4,11.4l-.4,8.2c0,2.1.7,4.1,2.3,5.5,1.4,1.3,3.2,1.9,5.1,1.8,1.9,0,3.6-.9,4.9-2.3l5.5-6.1c.4-.4.7-.8,1.1-1.1,3.1-2.8,7.2-4.3,11.4-4,4.2.2,8.1,2.1,10.9,5.2l5.5,6.1c1.4,1.5,3.4,2.4,5.5,2.3,3.9-.2,6.9-3.5,6.7-7.4l-.4-8.1c0-.5,0-1.1,0-1.6.4-8.7,7.9-15.4,16.6-15l8.2.4c2.1.1,4.2-.7,5.6-2.3,2.6-2.9,2.4-7.4-.5-10l-6.1-5.5c-.4-.4-.8-.7-1.1-1.1-2.8-3.1-4.3-7.2-4.1-11.4.2-4.2,2.1-8.1,5.2-10.9l6.1-5.5c1.6-1.4,2.4-3.5,2.3-5.6-.2-3.9-3.5-6.9-7.4-6.7l-8.2.4c-.5,0-1.1,0-1.6,0-8.7-.4-15.4-7.9-15-16.6l.4-8.2c.1-2.1-.7-4.2-2.3-5.6-2.9-2.6-7.4-2.4-10,.5l-5.5,6.1c-.4.4-.7.8-1.1,1.1-3.1,2.8-7.2,4.3-11.4,4-4.2-.2-8.1-2.1-10.9-5.2l-5.5-6.1c-1.4-1.6-3.4-2.4-5.5-2.3-3.9.2-6.9,3.5-6.7,7.4l.4,8.2c0,.5,0,1.1,0,1.6-.5,8.7-7.9,15.4-16.6,14.9l-8.2-.4c-2.1,0-4.1.7-5.5,2.3-2.6,2.9-2.4,7.3.5,10l6.1,5.5c.4.4.8.7,1.1,1.1,2.8,3.1,4.3,7.2,4.1,11.4-.2,4.2-2.1,8.1-5.2,10.9l-6.1,5.5c-1.6,1.4-2.4,3.5-2.3,5.6,0,1.9.9,3.6,2.3,4.9,1.4,1.3,3.2,1.9,5.1,1.8l8.2-.4c.3,0,.5,0,.8,0Z"/>
  <path class="st0" d="M70,100.6c-16.9,0-30.6-13.7-30.6-30.6s13.7-30.6,30.6-30.6,30.6,13.7,30.6,30.6-13.7,30.6-30.6,30.6ZM70,48.1c-12.1,0-21.9,9.8-21.9,21.9s9.8,21.9,21.9,21.9,21.9-9.8,21.9-21.9-9.8-21.9-21.9-21.9Z"/>
</svg>