<?xml version="1.0" encoding="UTF-8"?>
<svg id="Layer_1" xmlns="http://www.w3.org/2000/svg" version="1.1" viewBox="0 0 140 140">
  <!-- Generator: Adobe Illustrator 29.6.0, SVG Export Plug-In . SVG Version: 2.1.1 Build 207)  -->
  <defs>
    <style>
      .st0 {
        fill: #0f2b4d;
      }
    </style>
  </defs>
  <path class="st0" d="M131.2,140H4.4C2,140,0,138,0,135.6s2-4.4,4.4-4.4h126.9c2.4,0,4.4,2,4.4,4.4s-2,4.4-4.4,4.4Z"/>
  <path class="st0" d="M35,140H13.1c-2.4,0-4.4-2-4.4-4.4v-23.3c0-4,3.3-7.3,7.3-7.3h16c4,0,7.3,3.3,7.3,7.3v23.3c0,2.4-2,4.4-4.4,4.4ZM17.5,131.2h13.1v-17.5h-13.1v17.5ZM32.1,113.8h0,0Z"/>
  <path class="st0" d="M78.8,140h-21.9c-2.4,0-4.4-2-4.4-4.4V59.8c0-4,3.3-7.3,7.3-7.3h16c4,0,7.3,3.3,7.3,7.3v75.8c0,2.4-2,4.4-4.4,4.4ZM61.2,131.2h13.1V61.2h-13.1v70ZM75.8,61.2h0,0Z"/>
  <path class="st0" d="M122.5,140h-21.9c-2.4,0-4.4-2-4.4-4.4v-49.6c0-4,3.3-7.3,7.3-7.3h16.1c4,0,7.3,3.3,7.3,7.3v49.6c0,2.4-2,4.4-4.4,4.4ZM105,131.2h13.1v-43.8h-13.1v43.8ZM103.5,87.5h0,0Z"/>
  <path class="st0" d="M16.7,57.7c-1.1,0-2.2-.4-3.1-1.3-1.7-1.7-1.7-4.5,0-6.2l23.4-23.4c1.7-1.7,4.5-1.7,6.2,0,1.7,1.7,1.7,4.5,0,6.2l-23.4,23.4c-.9.9-2,1.3-3.1,1.3Z"/>
  <path class="st0" d="M83.5,41.3c-.4,0-.8,0-1.1-.1l-27.3-7.3c-2.3-.6-3.7-3-3.1-5.4.6-2.3,3-3.7,5.4-3.1l27.3,7.3c2.3.6,3.7,3,3.1,5.4-.5,2-2.3,3.2-4.2,3.2Z"/>
  <path class="st0" d="M98.1,37.6c-1.3,0-2.6-.6-3.4-1.7-1.5-1.9-1.2-4.7.8-6.1l20.9-16.3c1.9-1.5,4.7-1.2,6.1.8,1.5,1.9,1.2,4.7-.8,6.1l-20.9,16.3c-.8.6-1.8.9-2.7.9Z"/>
  <path class="st0" d="M48.1,39.4h0c-3.5,0-6.8-1.4-9.3-3.8s-3.8-5.8-3.8-9.3h0c0-7.2,5.9-13.1,13.1-13.1h0c3.5,0,6.8,1.4,9.3,3.8,2.5,2.5,3.8,5.8,3.8,9.3,0,7.2-5.9,13.1-13.1,13.1ZM48.1,21.9c-1.2,0-2.3.5-3.1,1.3-.8.8-1.3,1.9-1.3,3.1h0c0,1.2.5,2.3,1.3,3.1.8.8,1.9,1.3,3.1,1.3h0c1.2,0,2.3-.5,3.1-1.3.8-.8,1.3-1.9,1.3-3.1,0-1.2-.5-2.3-1.3-3.1-.8-.8-1.9-1.3-3.1-1.3h0ZM39.4,26.3h0,0Z"/>
  <path class="st0" d="M126.9,26.2c-7.2,0-13.1-5.9-13.1-13.1S119.6,0,126.9,0s13.1,5.9,13.1,13.1-5.9,13.1-13.1,13.1ZM126.9,8.8c-2.4,0-4.4,2-4.4,4.4s2,4.4,4.4,4.4,4.4-2,4.4-4.4-2-4.4-4.4-4.4Z"/>
  <path class="st0" d="M91.9,52.5c-7.2,0-13.1-5.9-13.1-13.1s5.9-13.1,13.1-13.1,13.1,5.9,13.1,13.1-5.9,13.1-13.1,13.1ZM91.9,35c-2.4,0-4.4,2-4.4,4.4s2,4.4,4.4,4.4,4.4-2,4.4-4.4-2-4.4-4.4-4.4Z"/>
  <path class="st0" d="M13.1,74.4C5.9,74.4,0,68.5,0,61.3s5.9-13.1,13.1-13.1,13.1,5.9,13.1,13.1-5.9,13.1-13.1,13.1ZM13.1,56.9c-2.4,0-4.4,2-4.4,4.4s2,4.4,4.4,4.4,4.4-2,4.4-4.4-2-4.4-4.4-4.4Z"/>
</svg>