<?xml version="1.0" encoding="UTF-8"?>
<svg id="Layer_1" xmlns="http://www.w3.org/2000/svg" version="1.1" viewBox="0 0 140 140">
  <!-- Generator: Adobe Illustrator 29.6.0, SVG Export Plug-In . SVG Version: 2.1.1 Build 207)  -->
  <defs>
    <style>
      .st0 {
        fill: #0f2b4d;
      }
    </style>
  </defs>
  <path class="st0" d="M86.4,140.1c-5.7,0-11.4-1.6-16.5-4.8,0,0-.1,0-.2-.1h0C44,117.8,22.2,96,4.9,70.3c0,0,0-.1-.1-.2-7.7-12.2-6-27.8,4.2-38.1l3.7-3.7c5.1-5.1,13.4-5.1,18.6,0l15.5,15.5s0,0,0,0c5.1,5.1,5.1,13.4,0,18.6-1.7,1.7-1.7,4.5,0,6.2l24.7,24.8c1.7,1.7,4.5,1.7,6.2,0,5.1-5.1,13.5-5.1,18.6,0l15.5,15.5c2.5,2.5,3.8,5.8,3.8,9.3s-1.4,6.8-3.8,9.3l-3.7,3.7c-6,6-13.7,9-21.6,9ZM74.6,127.9c8.7,5.5,19.9,4.3,27.1-3l3.7-3.7c1.7-1.7,1.7-4.5,0-6.2l-15.5-15.5c-1.7-1.7-4.5-1.7-6.2,0-5.1,5.1-13.4,5.1-18.6,0l-24.7-24.8c-5.1-5.1-5.1-13.4,0-18.6,1.7-1.7,1.7-4.5,0-6.2,0,0,0,0,0,0l-15.5-15.5c-1.7-1.7-4.5-1.7-6.2,0l-3.7,3.7c-7.3,7.3-8.5,18.5-3,27.2,0,0,0,0,0,0,16.7,24.7,37.7,45.7,62.4,62.4,0,0,0,0,0,0Z"/>
  <path class="st0" d="M78.8,65.6c-1.1,0-2.2-.4-3.1-1.3-1.7-1.7-1.7-4.5,0-6.2L132.5,1.3c1.7-1.7,4.5-1.7,6.2,0,1.7,1.7,1.7,4.5,0,6.2l-56.9,56.9c-.9.9-2,1.3-3.1,1.3Z"/>
  <path class="st0" d="M135.6,43.8c-2.4,0-4.4-2-4.4-4.4V8.8h-30.6c-2.4,0-4.4-2-4.4-4.4s2-4.4,4.4-4.4h35c2.4,0,4.4,2,4.4,4.4v35c0,2.4-2,4.4-4.4,4.4Z"/>
</svg>