<?xml version="1.0" encoding="UTF-8"?>
<svg id="Layer_1" xmlns="http://www.w3.org/2000/svg" version="1.1" viewBox="0 0 140 140">
  <!-- Generator: Adobe Illustrator 29.6.0, SVG Export Plug-In . SVG Version: 2.1.1 Build 207)  -->
  <defs>
    <style>
      .st0 {
        fill: #0f2b4d;
      }
    </style>
  </defs>
  <path class="st0" d="M110.2,140c-1.4,0-2.8-.3-4.1-1l-36.1-17.9-36.1,17.9c-4.5,2.2-10,.4-12.2-4.1-1-2-1.2-4.3-.7-6.4l10.8-39.2L2.7,60.5C1,58.8,0,56.5,0,54.1c0-2.4.9-4.7,2.6-6.4,1.5-1.5,3.5-2.5,5.7-2.7l35.1-3.5L61.8,5c2.3-4.5,7.8-6.3,12.3-4,1.7.9,3.1,2.3,4,4h0s18.4,36.5,18.4,36.5l35.2,3.5c4.9.4,8.6,4.8,8.2,9.8-.2,2.1-1.1,4.2-2.7,5.7l-29.1,28.8,10.8,39.2c.6,2.4.3,4.8-.9,7-1.2,2.1-3.2,3.6-5.5,4.2-.8.2-1.6.3-2.3.3ZM70,111.9c.7,0,1.3.2,1.9.5l38.1,18.9c.1,0,.2,0,.3,0,0,0,.1,0,.2-.2,0-.1,0-.2,0-.3l-11.5-41.6c-.4-1.5,0-3.2,1.1-4.3l30.9-30.6c0,0,0-.1,0-.2,0-.2-.1-.3-.3-.3l-37.6-3.7c-1.5-.1-2.8-1-3.5-2.4l-19.5-38.7c0,0-.1-.1-.2-.2-.2-.1-.4,0-.5.2l-19.5,38.6c-.7,1.3-2,2.2-3.5,2.4l-37.6,3.7c-.1,0-.2,0-.3,0,0,0,0,0,0,.2s0,.2,0,.2l30.9,30.6c1.1,1.1,1.6,2.7,1.1,4.3l-11.5,41.6s0,.1,0,.2c0,.2.3.3.5.2l38.1-18.8c.6-.3,1.3-.5,1.9-.5Z"/>
</svg>