<?xml version="1.0" encoding="UTF-8"?>
<svg id="Layer_1" xmlns="http://www.w3.org/2000/svg" version="1.1" viewBox="0 0 140 140">
  <!-- Generator: Adobe Illustrator 29.6.0, SVG Export Plug-In . SVG Version: 2.1.1 Build 207)  -->
  <defs>
    <style>
      .st0 {
        fill: #102b4d;
      }
    </style>
  </defs>
  <path class="st0" d="M135.6,140h-52.5c-2.4,0-4.4-2-4.4-4.4v-43.8c0-2.4,2-4.4,4.4-4.4h52.5c2.4,0,4.4,2,4.4,4.4v43.8c0,2.4-2,4.4-4.4,4.4ZM87.5,131.2h43.8v-35h-43.8v35Z"/>
  <path class="st0" d="M126.9,96.2h-35c-2.4,0-4.4-2-4.4-4.4v-8.8c0-12.1,9.8-21.9,21.9-21.9s21.9,9.8,21.9,21.9v8.8c0,2.4-2,4.4-4.4,4.4ZM96.2,87.5h26.2v-4.4c0-7.2-5.9-13.1-13.1-13.1s-13.1,5.9-13.1,13.1v4.4Z"/>
  <path class="st0" d="M109.4,120.5c-3.6,0-6.6-2.9-6.6-6.6s2.9-6.6,6.6-6.6,6.6,2.9,6.6,6.6-2.9,6.6-6.6,6.6Z"/>
  <path class="st0" d="M48.1,96.2c-23.1,0-43-16.5-47.3-39.2-2.4-12.6.3-25.4,7.6-36C15.6,10.4,26.6,3.2,39.2.8c12.6-2.4,25.4.3,36,7.6,9,6.1,15.4,14.9,18.7,25.1,1.7-.7,3.4-1.3,5.2-1.8,17.5-4.5,35.4,6.1,39.9,23.6.6,2.3-.8,4.7-3.2,5.3-2.3.6-4.7-.8-5.3-3.2-3.3-12.8-16.4-20.6-29.2-17.3-2.8.7-5.4,1.9-7.7,3.5-1.2.8-2.8,1-4.2.4s-2.4-1.8-2.6-3.2c-1.9-10.3-7.8-19.3-16.5-25.2-8.7-5.9-19.2-8.1-29.5-6.2-10.3,1.9-19.3,7.8-25.2,16.5-5.9,8.7-8.1,19.2-6.2,29.5,3.5,18.6,19.8,32.1,38.7,32.1h17.5c2.4,0,4.4,2,4.4,4.4s-2,4.4-4.4,4.4h-17.5Z"/>
</svg>