<?xml version="1.0" encoding="UTF-8"?>
<svg id="Layer_1" xmlns="http://www.w3.org/2000/svg" version="1.1" viewBox="0 0 140 140">
  <!-- Generator: Adobe Illustrator 29.6.0, SVG Export Plug-In . SVG Version: 2.1.1 Build 207)  -->
  <defs>
    <style>
      .st0 {
        fill: #0f2b4d;
      }
    </style>
  </defs>
  <path class="st0" d="M100.6,140c-21.7,0-39.4-17.7-39.4-39.4s17.7-39.4,39.4-39.4,4.4,2,4.4,4.4-2,4.4-4.4,4.4c-16.9,0-30.6,13.7-30.6,30.6s13.7,30.6,30.6,30.6,30.6-13.7,30.6-30.6,2-4.4,4.4-4.4,4.4,2,4.4,4.4c0,21.7-17.7,39.4-39.4,39.4Z"/>
  <path class="st0" d="M100.6,111.9c-2.2,0-4.5-.9-6.2-2.6l-10-10c-1.7-1.7-1.7-4.5,0-6.2,1.7-1.7,4.5-1.7,6.2,0l10,10,31.9-31.9c1.7-1.7,4.5-1.7,6.2,0,1.7,1.7,1.7,4.5,0,6.2l-31.9,31.9c-1.7,1.7-3.9,2.6-6.2,2.6Z"/>
  <path class="st0" d="M21.9,140c-.7,0-1.3-.2-2-.5-1.5-.7-2.4-2.3-2.4-3.9v-21.9h-4.4c-7.2,0-13.1-5.9-13.1-13.1V13.1C0,5.9,5.9,0,13.1,0h113.8c7.2,0,13.1,5.9,13.1,13.1v43.8c0,2.4-2,4.4-4.4,4.4s-4.4-2-4.4-4.4V13.1c0-2.4-2-4.4-4.4-4.4H13.1c-2.4,0-4.4,2-4.4,4.4v87.5c0,2.4,2,4.4,4.4,4.4h8.8c2.4,0,4.4,2,4.4,4.4v17.5l19.1-14.3c1.9-1.4,4.7-1.1,6.1.9,1.4,1.9,1.1,4.7-.9,6.1l-26.1,19.5c-.8.6-1.7.9-2.6.9Z"/>
</svg>