<svg viewBox="0 0 140 140" height="140" width="140" xmlns="http://www.w3.org/2000/svg"><g transform="matrix(5.833333333333333,0,0,5.833333333333333,0,0)"><path d="M1.874 17.625 A2.625 2.625 0 1 0 7.124 17.625 A2.625 2.625 0 1 0 1.874 17.625 Z" fill="none" stroke="#0F2B4D" stroke-linecap="round" stroke-linejoin="round" stroke-width="1.5"></path><path d="M8.249,23.25a4.25,4.25,0,0,0-7.5,0" fill="none" stroke="#0F2B4D" stroke-linecap="round" stroke-linejoin="round" stroke-width="1.5"></path><path d="M16.874 17.625 A2.625 2.625 0 1 0 22.124 17.625 A2.625 2.625 0 1 0 16.874 17.625 Z" fill="none" stroke="#0F2B4D" stroke-linecap="round" stroke-linejoin="round" stroke-width="1.5"></path><path d="M23.249,23.25a4.25,4.25,0,0,0-7.5,0" fill="none" stroke="#0F2B4D" stroke-linecap="round" stroke-linejoin="round" stroke-width="1.5"></path><path d="M9.374 3.375 A2.625 2.625 0 1 0 14.624 3.375 A2.625 2.625 0 1 0 9.374 3.375 Z" fill="none" stroke="#0F2B4D" stroke-linecap="round" stroke-linejoin="round" stroke-width="1.5"></path><path d="M15.248,8.25a4.269,4.269,0,0,0-6.5,0" fill="none" stroke="#0F2B4D" stroke-linecap="round" stroke-linejoin="round" stroke-width="1.5"></path><path d="M9.05,19.707a8.277,8.277,0,0,0,5.944-.018" fill="none" stroke="#0F2B4D" stroke-linecap="round" stroke-linejoin="round" stroke-width="1.5"></path><path d="M6.348,6a8.217,8.217,0,0,0-2.6,6c0,.253.015.5.038.75" fill="none" stroke="#0F2B4D" stroke-linecap="round" stroke-linejoin="round" stroke-width="1.5"></path><path d="M20.211,12.75c.022-.248.038-.5.038-.75a8.214,8.214,0,0,0-2.6-6" fill="none" stroke="#0F2B4D" stroke-linecap="round" stroke-linejoin="round" stroke-width="1.5"></path></g></svg>