<?xml version="1.0" encoding="UTF-8"?>
<svg id="Layer_1" xmlns="http://www.w3.org/2000/svg" version="1.1" viewBox="0 0 140 140">
  <!-- Generator: Adobe Illustrator 29.6.0, SVG Export Plug-In . SVG Version: 2.1.1 Build 207)  -->
  <defs>
    <style>
      .st0 {
        fill: #0f2b4d;
      }
    </style>
  </defs>
  <path class="st0" d="M122.5,140H17.5c-2.4,0-4.4-2-4.4-4.4V4.4c0-2.4,2-4.4,4.4-4.4h105c2.4,0,4.4,2,4.4,4.4v131.2c0,2.4-2,4.4-4.4,4.4ZM21.9,131.2h96.2V8.8H21.9v122.5Z"/>
  <path class="st0" d="M43.8,140c-2.4,0-4.4-2-4.4-4.4V4.4c0-2.4,2-4.4,4.4-4.4s4.4,2,4.4,4.4v131.2c0,2.4-2,4.4-4.4,4.4Z"/>
  <path class="st0" d="M96.2,52.5h-26.2c-7.2,0-13.1-5.9-13.1-13.1s5.9-13.1,13.1-13.1h26.2c7.2,0,13.1,5.9,13.1,13.1s-5.9,13.1-13.1,13.1ZM70,35c-2.4,0-4.4,2-4.4,4.4s2,4.4,4.4,4.4h26.2c2.4,0,4.4-2,4.4-4.4s-2-4.4-4.4-4.4h-26.2Z"/>
</svg>