<?xml version="1.0" encoding="UTF-8"?>
<svg id="Layer_1" xmlns="http://www.w3.org/2000/svg" version="1.1" viewBox="0 0 140 140">
  <!-- Generator: Adobe Illustrator 29.6.0, SVG Export Plug-In . SVG Version: 2.1.1 Build 207)  -->
  <defs>
    <style>
      .st0 {
        fill: #0f2b4d;
      }
    </style>
  </defs>
  <path class="st0" d="M65.6,140H21.9c-12.1,0-21.9-9.8-21.9-21.9V21.9C0,9.8,9.8,0,21.9,0h43.8c2.4,0,4.4,2,4.4,4.4s-2,4.4-4.4,4.4H21.9c-7.2,0-13.1,5.9-13.1,13.1v83.1h70v-21.8c0-2.4,2-4.4,4.4-4.4s4.4,2,4.4,4.4v35c0,12.1-9.8,21.9-21.9,21.9ZM8.8,113.7v4.4c0,7.2,5.9,13.1,13.1,13.1h43.8c7.2,0,13.1-5.9,13.1-13.1v-4.4H8.8ZM100.6,78.8c-2.4,0-4.4-2-4.4-4.4V13.1c0-2.4,2-4.4,4.4-4.4s4.4,2,4.4,4.4v61.2c0,2.4-2,4.4-4.4,4.4ZM118.1,65.6c-2.4,0-4.4-2-4.4-4.4V26.2c0-2.4,2-4.4,4.4-4.4s4.4,2,4.4,4.4v35c0,2.4-2,4.4-4.4,4.4ZM83.1,65.6c-2.4,0-4.4-2-4.4-4.4V26.2c0-2.4,2-4.4,4.4-4.4s4.4,2,4.4,4.4v35c0,2.4-2,4.4-4.4,4.4ZM135.6,56.9c-2.4,0-4.4-2-4.4-4.4v-17.5c0-2.4,2-4.4,4.4-4.4s4.4,2,4.4,4.4v17.5c0,2.4-2,4.4-4.4,4.4ZM65.6,56.9c-2.4,0-4.4-2-4.4-4.4v-17.5c0-2.4,2-4.4,4.4-4.4s4.4,2,4.4,4.4v17.5c0,2.4-2,4.4-4.4,4.4Z"/>
</svg>