<svg viewBox="0 0 140 140" height="140" width="140" xmlns="http://www.w3.org/2000/svg"><g transform="matrix(5.833333333333333,0,0,5.833333333333333,0,0)"><path d="M23.25,15.75v6a1.5,1.5,0,0,1-1.5,1.5h-6" fill="none" stroke="#0F2B4D" stroke-linecap="round" stroke-linejoin="round" stroke-width="1.5"></path><path d="M15.75.75h6a1.5,1.5,0,0,1,1.5,1.5v6" fill="none" stroke="#0F2B4D" stroke-linecap="round" stroke-linejoin="round" stroke-width="1.5"></path><path d="M.75,8.25v-6A1.5,1.5,0,0,1,2.25.75h6" fill="none" stroke="#0F2B4D" stroke-linecap="round" stroke-linejoin="round" stroke-width="1.5"></path><path d="M8.25,23.25h-6a1.5,1.5,0,0,1-1.5-1.5v-6" fill="none" stroke="#0F2B4D" stroke-linecap="round" stroke-linejoin="round" stroke-width="1.5"></path><path d="M12 6.75L12 17.25" fill="none" stroke="#0F2B4D" stroke-linecap="round" stroke-linejoin="round" stroke-width="1.5"></path><path d="M8.25 9L8.25 15" fill="none" stroke="#0F2B4D" stroke-linecap="round" stroke-linejoin="round" stroke-width="1.5"></path><path d="M15.75 9L15.75 15" fill="none" stroke="#0F2B4D" stroke-linecap="round" stroke-linejoin="round" stroke-width="1.5"></path><path d="M4.5 10.5L4.5 13.5" fill="none" stroke="#0F2B4D" stroke-linecap="round" stroke-linejoin="round" stroke-width="1.5"></path><path d="M19.5 10.5L19.5 13.5" fill="none" stroke="#0F2B4D" stroke-linecap="round" stroke-linejoin="round" stroke-width="1.5"></path></g></svg>