<?xml version="1.0" encoding="UTF-8"?>
<svg id="Layer_1" xmlns="http://www.w3.org/2000/svg" version="1.1" viewBox="0 0 250 250">
  <!-- Generator: Adobe Illustrator 29.6.0, SVG Export Plug-In . SVG Version: 2.1.1 Build 207)  -->
  <path d="M97.1,186.6c-1.2,0-2.5-.1-3.7-.4-4.9-1-9.1-3.8-11.9-7.9l-25.5-36.2c-2.5-3.5-1.6-8.4,1.9-10.9,3.5-2.5,8.4-1.6,10.9,1.9l25.5,36.2c0,0,0,.1.1.2.6.9,1.5,1.2,2,1.3.5,0,1.4.2,2.3-.5.3-.2.5-.4.7-.7,0,0,0,0,0-.1l81.7-103.4c2.7-3.4,7.6-4,11-1.3,3.4,2.7,4,7.6,1.3,11l-81.7,103.3c-1.2,1.6-2.7,3-4.4,4.2-3.1,2.1-6.7,3.2-10.4,3.2Z"/>
  <path d="M125,250C56.1,250,0,193.9,0,125S56.1,0,125,0s125,56.1,125,125-56.1,125-125,125ZM125,15.6c-60.3,0-109.4,49.1-109.4,109.4s49.1,109.4,109.4,109.4,109.4-49.1,109.4-109.4S185.3,15.6,125,15.6Z"/>
</svg>