<?xml version="1.0" encoding="UTF-8"?>
<svg id="Layer_1" xmlns="http://www.w3.org/2000/svg" version="1.1" viewBox="0 0 140 140">
  <!-- Generator: Adobe Illustrator 29.6.0, SVG Export Plug-In . SVG Version: 2.1.1 Build 207)  -->
  <defs>
    <style>
      .st0 {
        fill: #0f2b4d;
      }
    </style>
  </defs>
  <path class="st0" d="M74.4,140H13.1c-2.4,0-4.4-2-4.4-4.4V62.7c0-5.6,4.6-10.2,10.2-10.2h49.6c5.6,0,10.2,4.6,10.2,10.2v72.9c0,2.4-2,4.4-4.4,4.4ZM17.5,131.2h52.5V62.7c0-.8-.7-1.5-1.5-1.5H19c-.8,0-1.5.7-1.5,1.5v68.5Z"/>
  <path class="st0" d="M126.9,140h-35c-2.4,0-4.4-2-4.4-4.4s2-4.4,4.4-4.4h30.6V13.1c0-2.4-2-4.4-4.4-4.4h-52.5c-2.4,0-4.4,2-4.4,4.4v21.9h4.4c2.4,0,4.4,2,4.4,4.4s-2,4.4-4.4,4.4h-8.8c-2.4,0-4.4-2-4.4-4.4V13.1c0-7.2,5.9-13.1,13.1-13.1h52.5c7.2,0,13.1,5.9,13.1,13.1v122.5c0,2.4-2,4.4-4.4,4.4Z"/>
  <path class="st0" d="M13.1,140H4.4c-2.4,0-4.4-2-4.4-4.4s2-4.4,4.4-4.4h8.8c2.4,0,4.4,2,4.4,4.4s-2,4.4-4.4,4.4Z"/>
  <path class="st0" d="M135.6,140h-8.8c-2.4,0-4.4-2-4.4-4.4s2-4.4,4.4-4.4h8.8c2.4,0,4.4,2,4.4,4.4s-2,4.4-4.4,4.4Z"/>
  <path class="st0" d="M83.1,26.2h-26.2c-2.4,0-4.4-2-4.4-4.4s2-4.4,4.4-4.4h26.2c2.4,0,4.4,2,4.4,4.4s-2,4.4-4.4,4.4Z"/>
  <path class="st0" d="M26.2,78.8h-13.1c-2.4,0-4.4-2-4.4-4.4s2-4.4,4.4-4.4h13.1c2.4,0,4.4,2,4.4,4.4s-2,4.4-4.4,4.4Z"/>
  <path class="st0" d="M48.1,140h-17.5c-2.4,0-4.4-2-4.4-4.4v-17.5c0-7.2,5.9-13.1,13.1-13.1s13.1,5.9,13.1,13.1v17.5c0,2.4-2,4.4-4.4,4.4ZM35,131.2h8.8v-13.1c0-2.4-2-4.4-4.4-4.4s-4.4,2-4.4,4.4v13.1Z"/>
  <path class="st0" d="M109.4,140h-17.5c-2.4,0-4.4-2-4.4-4.4v-26.2c0-7.2,5.9-13.1,13.1-13.1s13.1,5.9,13.1,13.1v26.2c0,2.4-2,4.4-4.4,4.4ZM96.2,131.2h8.8v-21.9c0-2.4-2-4.4-4.4-4.4s-4.4,2-4.4,4.4v21.9Z"/>
</svg>