<?xml version="1.0" encoding="UTF-8"?>
<svg id="Layer_1" xmlns="http://www.w3.org/2000/svg" version="1.1" viewBox="0 0 140 140">
  <!-- Generator: Adobe Illustrator 29.6.0, SVG Export Plug-In . SVG Version: 2.1.1 Build 207)  -->
  <defs>
    <style>
      .st0 {
        fill: #0f2b4d;
      }
    </style>
  </defs>
  <path class="st0" d="M110.1,49.6c-12.5,0-22.6-10.1-22.6-22.6s10.1-22.6,22.6-22.6,22.6,10.1,22.6,22.6-10.1,22.6-22.6,22.6ZM110.1,13.1c-7.6,0-13.9,6.2-13.9,13.9s6.2,13.9,13.9,13.9,13.9-6.2,13.9-13.9-6.2-13.9-13.9-13.9Z"/>
  <path class="st0" d="M135.6,56.9c-1.1,0-2.2-.4-3.1-1.3l-12.6-12.6c-1.7-1.7-1.7-4.5,0-6.2,1.7-1.7,4.5-1.7,6.2,0l12.6,12.6c1.7,1.7,1.7,4.5,0,6.2s-2,1.3-3.1,1.3Z"/>
  <path class="st0" d="M74.4,48.1H13.1c-7.2,0-13.1-5.9-13.1-13.1v-8.8c0-7.2,5.9-13.1,13.1-13.1h61.2c2.4,0,4.4,2,4.4,4.4s-2,4.4-4.4,4.4H13.1c-2.4,0-4.4,2-4.4,4.4v8.8c0,2.4,2,4.4,4.4,4.4h61.2c2.4,0,4.4,2,4.4,4.4s-2,4.4-4.4,4.4Z"/>
  <path class="st0" d="M15.3,74.4c-3.6,0-6.6-2.9-6.6-6.6s2.9-6.6,6.6-6.6,6.6,2.9,6.6,6.6-2.9,6.6-6.6,6.6Z"/>
  <path class="st0" d="M105,74.4H35c-2.4,0-4.4-2-4.4-4.4s2-4.4,4.4-4.4h70c2.4,0,4.4,2,4.4,4.4s-2,4.4-4.4,4.4Z"/>
  <path class="st0" d="M15.3,105c-3.6,0-6.6-2.9-6.6-6.6s2.9-6.6,6.6-6.6,6.6,2.9,6.6,6.6-2.9,6.6-6.6,6.6Z"/>
  <path class="st0" d="M105,105H35c-2.4,0-4.4-2-4.4-4.4s2-4.4,4.4-4.4h70c2.4,0,4.4,2,4.4,4.4s-2,4.4-4.4,4.4Z"/>
  <path class="st0" d="M15.3,135.6c-3.6,0-6.6-2.9-6.6-6.6s2.9-6.6,6.6-6.6,6.6,2.9,6.6,6.6-2.9,6.6-6.6,6.6Z"/>
  <path class="st0" d="M105,135.6H35c-2.4,0-4.4-2-4.4-4.4s2-4.4,4.4-4.4h70c2.4,0,4.4,2,4.4,4.4s-2,4.4-4.4,4.4Z"/>
</svg>