<?xml version="1.0" encoding="UTF-8"?>
<svg id="Layer_1" xmlns="http://www.w3.org/2000/svg" version="1.1" viewBox="0 0 140 140">
  <!-- Generator: Adobe Illustrator 29.6.0, SVG Export Plug-In . SVG Version: 2.1.1 Build 207)  -->
  <defs>
    <style>
      .st0 {
        fill: #0f2b4d;
      }
    </style>
  </defs>
  <path class="st0" d="M19.7,89.8c-10.9,0-19.7-8.8-19.7-19.7s8.8-19.7,19.7-19.7,19.7,8.8,19.7,19.7-8.8,19.7-19.7,19.7ZM19.7,59.2c-6,0-10.9,4.9-10.9,10.9s4.9,10.9,10.9,10.9,10.9-4.9,10.9-10.9-4.9-10.9-10.9-10.9Z"/>
  <path class="st0" d="M120.3,89.8c-10.9,0-19.7-8.8-19.7-19.7s8.8-19.7,19.7-19.7,19.7,8.8,19.7,19.7-8.8,19.7-19.7,19.7ZM120.3,59.2c-6,0-10.9,4.9-10.9,10.9s4.9,10.9,10.9,10.9,10.9-4.9,10.9-10.9-4.9-10.9-10.9-10.9Z"/>
  <path class="st0" d="M70,89.8c-10.9,0-19.7-8.8-19.7-19.7s8.8-19.7,19.7-19.7,19.7,8.8,19.7,19.7-8.8,19.7-19.7,19.7ZM70,59.2c-6,0-10.9,4.9-10.9,10.9s4.9,10.9,10.9,10.9,10.9-4.9,10.9-10.9-4.9-10.9-10.9-10.9Z"/>
</svg>