<?xml version="1.0" encoding="UTF-8"?>
<svg id="Layer_1" xmlns="http://www.w3.org/2000/svg" version="1.1" viewBox="0 0 140 140">
  <!-- Generator: Adobe Illustrator 29.6.0, SVG Export Plug-In . SVG Version: 2.1.1 Build 207)  -->
  <defs>
    <style>
      .st0 {
        fill: #0f2b40;
      }
    </style>
  </defs>
  <path class="st0" d="M96.2,140h-35c-1.3,0-2.5-.6-3.3-1.5-.8-1-1.2-2.3-1-3.5l4.4-26.2c.4-2.1,2.2-3.7,4.3-3.7h26.2c2.1,0,4,1.5,4.3,3.7l4.4,26.2c.2,1.3-.1,2.6-1,3.5-.8,1-2.1,1.5-3.3,1.5ZM66.4,131.2h24.7l-2.9-17.5h-18.8l-2.9,17.5Z"/>
  <path class="st0" d="M109.4,140h-61.2c-2.4,0-4.4-2-4.4-4.4s2-4.4,4.4-4.4h61.2c2.4,0,4.4,2,4.4,4.4s-2,4.4-4.4,4.4Z"/>
  <path class="st0" d="M126.9,113.8H30.6c-7.2,0-13.1-5.9-13.1-13.1v-8.8c0-2.4,2-4.4,4.4-4.4s4.4,2,4.4,4.4v8.8c0,2.4,2,4.4,4.4,4.4h96.2c2.4,0,4.4-2,4.4-4.4v-61.2c0-2.4-2-4.4-4.4-4.4h-61.2c-2.4,0-4.4-2-4.4-4.4s2-4.4,4.4-4.4h61.2c7.2,0,13.1,5.9,13.1,13.1v61.2c0,7.2-5.9,13.1-13.1,13.1Z"/>
  <path class="st0" d="M135.6,96.2H21.9c-2.4,0-4.4-2-4.4-4.4s2-4.4,4.4-4.4h113.8c2.4,0,4.4,2,4.4,4.4s-2,4.4-4.4,4.4Z"/>
  <path class="st0" d="M48.1,78.8H4.4c-2.4,0-4.4-2-4.4-4.4V4.4C0,2,2,0,4.4,0h43.8c2.4,0,4.4,2,4.4,4.4v70c0,2.4-2,4.4-4.4,4.4ZM8.8,70h35V8.8H8.8v61.2Z"/>
  <path class="st0" d="M48.1,61.2H4.4c-2.4,0-4.4-2-4.4-4.4s2-4.4,4.4-4.4h43.8c2.4,0,4.4,2,4.4,4.4s-2,4.4-4.4,4.4Z"/>
</svg>