<?xml version="1.0" encoding="UTF-8"?>
<svg id="Layer_1" xmlns="http://www.w3.org/2000/svg" version="1.1" viewBox="0 0 140 140">
  <!-- Generator: Adobe Illustrator 29.6.0, SVG Export Plug-In . SVG Version: 2.1.1 Build 207)  -->
  <defs>
    <style>
      .st0 {
        fill: #0f2b4d;
      }
    </style>
  </defs>
  <path class="st0" d="M4.4,87.5c-.2,0-.4,0-.6,0-2.4-.3-4.1-2.5-3.8-4.9,2.5-19.7,19.2-34.5,39.1-34.5s.3,0,.5,0c9.6,0,19,3.5,26.2,9.9,1.8,1.6,2,4.4.4,6.2-1.6,1.8-4.4,2-6.2.4-5.7-5-12.9-7.7-20.5-7.7-.1,0-.3,0-.4,0-15.5,0-28.5,11.5-30.4,26.8-.3,2.2-2.2,3.8-4.3,3.8Z"/>
  <path class="st0" d="M39.4,48.1c-13.3,0-24.1-10.8-24.1-24.1S26.1,0,39.4,0s24.1,10.8,24.1,24.1-10.8,24.1-24.1,24.1ZM39.4,8.8c-8.4,0-15.3,6.9-15.3,15.3s6.9,15.3,15.3,15.3,15.3-6.9,15.3-15.3-6.9-15.3-15.3-15.3Z"/>
  <path class="st0" d="M96.2,39.4c-10.9,0-19.7-8.8-19.7-19.7S85.4,0,96.2,0s19.7,8.8,19.7,19.7-8.8,19.7-19.7,19.7ZM96.2,8.8c-6,0-10.9,4.9-10.9,10.9s4.9,10.9,10.9,10.9,10.9-4.9,10.9-10.9-4.9-10.9-10.9-10.9Z"/>
  <path class="st0" d="M119,56.9c-1.5,0-3-.8-3.8-2.2-2.9-5.1-7.6-8.7-13.3-10.2-5.6-1.5-11.5-.7-16.6,2.2-2.1,1.2-3.9,2.7-5.5,4.5-1.6,1.8-4.4,2-6.2.4-1.8-1.6-2-4.4-.4-6.2,2.2-2.5,4.8-4.7,7.7-6.4,7.1-4.1,15.3-5.2,23.2-3.1,7.9,2.1,14.5,7.2,18.6,14.3,1.2,2.1.5,4.8-1.6,6-.7.4-1.4.6-2.2.6Z"/>
  <path class="st0" d="M100.6,140c-21.7,0-39.4-17.7-39.4-39.4s17.7-39.4,39.4-39.4,39.4,17.7,39.4,39.4-17.7,39.4-39.4,39.4ZM100.6,70c-16.9,0-30.6,13.7-30.6,30.6s13.7,30.6,30.6,30.6,30.6-13.7,30.6-30.6-13.7-30.6-30.6-30.6Z"/>
  <path class="st0" d="M95.8,119.1c-1.9,0-3.7-.6-5.2-1.8-.3-.2-.6-.5-.9-.8l-8.8-8.8c-1.7-1.7-1.7-4.5,0-6.2,1.7-1.7,4.5-1.7,6.2,0l8.8,8.8,17-22.6c1.5-1.9,4.2-2.3,6.1-.9,1.9,1.4,2.3,4.2.9,6.1l-16.9,22.6c-1.4,1.9-3.5,3.1-5.8,3.4-.4,0-.8,0-1.2,0Z"/>
</svg>