<svg viewBox="0 0 140 140" height="140" width="140" xmlns="http://www.w3.org/2000/svg"><g transform="matrix(5.833333333333333,0,0,5.833333333333333,0,0)"><path d="M0.750 6.751 A6 3 0 1 0 12.750 6.751 A6 3 0 1 0 0.750 6.751 Z" fill="none" stroke="#0F2B4D" stroke-linecap="round" stroke-linejoin="round" stroke-width="1.5"></path><path d="M.75,6.751v4.5c0,1.657,2.686,3,6,3s6-1.343,6-3v-4.5" fill="none" stroke="#0F2B4D" stroke-linecap="round" stroke-linejoin="round" stroke-width="1.5"></path><path d="M.75,11.251v4.5c0,1.657,2.686,3,6,3s6-1.343,6-3v-4.5" fill="none" stroke="#0F2B4D" stroke-linecap="round" stroke-linejoin="round" stroke-width="1.5"></path><path d="M15.75 6.751L12.75 9.751" fill="none" stroke="#0F2B4D" stroke-linecap="round" stroke-linejoin="round" stroke-width="1.5"></path><path d="M15.750 3.001 A3.75 2.25 0 1 0 23.250 3.001 A3.75 2.25 0 1 0 15.750 3.001 Z" fill="none" stroke="#0F2B4D" stroke-linecap="round" stroke-linejoin="round" stroke-width="1.5"></path><path d="M15.75,3V7.5c0,1.242,1.679,2.25,3.75,2.25s3.75-1.008,3.75-2.25V3" fill="none" stroke="#0F2B4D" stroke-linecap="round" stroke-linejoin="round" stroke-width="1.5"></path><path d="M12.341 16.842L15.75 20.251" fill="none" stroke="#0F2B4D" stroke-linecap="round" stroke-linejoin="round" stroke-width="1.5"></path><path d="M15.750 16.501 A3.75 2.25 0 1 0 23.250 16.501 A3.75 2.25 0 1 0 15.750 16.501 Z" fill="none" stroke="#0F2B4D" stroke-linecap="round" stroke-linejoin="round" stroke-width="1.5"></path><path d="M15.75,16.5V21c0,1.242,1.679,2.25,3.75,2.25s3.75-1.008,3.75-2.25V16.5" fill="none" stroke="#0F2B4D" stroke-linecap="round" stroke-linejoin="round" stroke-width="1.5"></path></g></svg>