<svg id="Layer_1" data-name="Layer 1" xmlns="http://www.w3.org/2000/svg" viewBox="0 0 140 140">
  <title>Artboard 4</title>
  <g>
    <path d="M24.1,99.1H21A18.6,18.6,0,0,1,2.7,84.5v-.2A142.9,142.9,0,0,1,2.7,29h0A18.6,18.6,0,0,1,21,14.3h3.1a8.2,8.2,0,0,1,8.2,8.2V35.6a8.2,8.2,0,0,1-8.2,8.2h0a2.3,2.3,0,0,0-2.3,2.4v21a2.3,2.3,0,0,0,2.3,2.3h0a8.2,8.2,0,0,1,8.2,8.2V90.9A8.2,8.2,0,0,1,24.1,99.1ZM8.4,83.1h0A12.8,12.8,0,0,0,21,93.2h3.1a2.3,2.3,0,0,0,2.3-2.3V77.7a2.3,2.3,0,0,0-2.3-2.3h0a8.2,8.2,0,0,1-8.2-8.2V46.1a8.2,8.2,0,0,1,8.2-8.2h0a2.3,2.3,0,0,0,2.3-2.3V22.5a2.3,2.3,0,0,0-2.3-2.3H21a12.7,12.7,0,0,0-12.5,10A140.5,140.5,0,0,0,8.4,83.1Z" fill="#002a4e"/>
    <g>
      <path d="M71.5,82.1a2.7,2.7,0,0,1-2-.9,2.7,2.7,0,0,1-.9-2.1v-.5c.1-.2.1-.4.2-.6l.3-.5.4-.5.4-.3.5-.3.6-.2h1.1l.6.2.5.3.4.3.4.5.3.5c0,.2.1.4.1.6a.7.7,0,0,1,.1.5,3.1,3.1,0,0,1-3,3Z" fill="#002a4e"/>
      <path d="M71.5,86a4.9,4.9,0,1,1,5-4.9A4.9,4.9,0,0,1,71.5,86Zm0-5.9a1,1,0,0,0,0,2,1,1,0,0,0,0-2Z" fill="#002a4e"/>
      <path d="M93.4,82.1h-.6l-.5-.2-.6-.2-.4-.4-.4-.4a1.7,1.7,0,0,1-.2-.5,1.4,1.4,0,0,1-.2-.6,1.3,1.3,0,0,1-.1-.6.7.7,0,0,1,.1-.5,1.4,1.4,0,0,1,.2-.6.8.8,0,0,1,.2-.5l.4-.5.4-.3.6-.3.5-.2H94l.5.2.5.3.5.3.3.5.3.5c.1.2.1.4.2.6v.5a3,3,0,0,1-.8,2.1A2.9,2.9,0,0,1,93.4,82.1Z" fill="#002a4e"/>
      <path d="M93.4,86a4.9,4.9,0,1,1,0-9.8,4.9,4.9,0,1,1,0,9.8Zm0-5.9a1,1,0,0,0,0,2,1,1,0,0,0,0-2Z" fill="#002a4e"/>
      <path d="M115.2,82.1h-.6l-.5-.2-.5-.2-.5-.4a3,3,0,0,1-.8-2.1v-.5c.1-.2.1-.4.2-.6s.1-.4.3-.5l.3-.5.5-.3.5-.3.5-.2h1.2l.5.2.6.3.4.3.4.5a.8.8,0,0,1,.2.5,1.4,1.4,0,0,1,.2.6,4.3,4.3,0,0,1,.1.5,3.1,3.1,0,0,1-.9,2.1A2.7,2.7,0,0,1,115.2,82.1Z" fill="#002a4e"/>
      <path d="M115.2,86a4.9,4.9,0,1,1,4.9-4.9A4.9,4.9,0,0,1,115.2,86Zm0-5.9a1,1,0,1,0,1,1A1.1,1.1,0,0,0,115.2,80.1Z" fill="#002a4e"/>
      <path d="M71.5,101.9H71l-.6-.2-.5-.3-.4-.3-.4-.5-.3-.5c-.1-.2-.1-.4-.2-.5V98.4c.1-.2.1-.4.2-.6l.3-.5.4-.4a2.8,2.8,0,0,1,2.6-.8h.6l.5.3.4.4.4.4.3.5c0,.2.1.4.1.6a1.3,1.3,0,0,1,.1.6,2.9,2.9,0,0,1-.9,2.1l-.4.3-.5.3-.6.2Z" fill="#002a4e"/>
      <path d="M71.5,105.9a5,5,0,1,1,5-4.9A4.9,4.9,0,0,1,71.5,105.9Zm0-5.9a.9.9,0,0,0-.9,1,.9.9,0,0,0,.9.9.9.9,0,0,0,1-.9A.9.9,0,0,0,71.5,100Z" fill="#002a4e"/>
      <path d="M93.4,101.9a3,3,0,0,1-2.1-.8,2.9,2.9,0,0,1-.9-2.1,1.3,1.3,0,0,1,.1-.6,1.4,1.4,0,0,1,.2-.6l.2-.5.4-.4.4-.4.6-.3h2.2l.5.3.5.4.3.4.3.5c.1.2.1.4.2.6v1.2c-.1.1-.1.3-.2.5l-.3.5-.3.5A3.4,3.4,0,0,1,93.4,101.9Z" fill="#002a4e"/>
      <path d="M93.4,105.9a5,5,0,1,1,0-9.9,5,5,0,0,1,0,9.9Zm0-5.9a.9.9,0,0,0-1,1,.9.9,0,0,0,1,.9.9.9,0,0,0,.9-.9A.9.9,0,0,0,93.4,100Z" fill="#002a4e"/>
      <path d="M115.2,101.9h-.6l-.5-.2-.5-.3-.5-.3-.3-.5c-.2-.1-.2-.3-.3-.5s-.1-.4-.2-.5V98.4c.1-.2.1-.4.2-.6s.1-.3.3-.5l.3-.4a3,3,0,0,1,2.7-.8h.5l.6.3.4.4.4.4.2.5a1.4,1.4,0,0,1,.2.6c0,.2.1.4.1.6a3.3,3.3,0,0,1-.9,2.1l-.4.3-.6.3-.5.2Z" fill="#002a4e"/>
      <path d="M115.2,105.9a5,5,0,1,1,4.9-4.9A4.9,4.9,0,0,1,115.2,105.9Zm0-5.9a1,1,0,0,0-1,1,1,1,0,0,0,2,0A1,1,0,0,0,115.2,100Z" fill="#002a4e"/>
      <path d="M137,62.2H49.7a2.9,2.9,0,0,1-2.9-2.9,3,3,0,0,1,2.9-3H137a3,3,0,0,1,3,3A2.9,2.9,0,0,1,137,62.2Z" fill="#002a4e"/>
      <path d="M137,125.7H49.7a2.9,2.9,0,0,1-2.9-2.9V21.8a2.9,2.9,0,0,1,2.9-3H137a2.9,2.9,0,0,1,3,3v101A2.9,2.9,0,0,1,137,125.7Zm-84.3-5.9h81.4V24.7H52.7Z" fill="#002a4e"/>
    </g>
    <path d="M49.7,117H33a15,15,0,0,1-15-14.9v-6a3,3,0,0,1,5.9,0v6a9,9,0,0,0,9.1,9H49.7a3.1,3.1,0,0,1,3,3A3,3,0,0,1,49.7,117Z" fill="#002a4e"/>
  </g>
</svg>
