<?xml version="1.0" encoding="UTF-8"?>
<svg id="Layer_1" xmlns="http://www.w3.org/2000/svg" version="1.1" viewBox="0 0 140 140">
  <!-- Generator: Adobe Illustrator 29.6.0, SVG Export Plug-In . SVG Version: 2.1.1 Build 207)  -->
  <defs>
    <style>
      .st0 {
        fill: #0f2b4d;
      }
    </style>
  </defs>
  <path class="st0" d="M135.6,140H4.4c-2.4,0-4.4-2-4.4-4.4V4.4C0,2,2,0,4.4,0h131.2c2.4,0,4.4,2,4.4,4.4v131.2c0,2.4-2,4.4-4.4,4.4ZM8.8,131.2h122.5V8.8H8.8v122.5Z"/>
  <path class="st0" d="M91.9,70.1c-2.4,0-4.4-2-4.4-4.4V30.7c0-2.4,2-4.4,4.4-4.4s4.4,2,4.4,4.4v35c0,2.4-2,4.4-4.4,4.4Z"/>
  <path class="st0" d="M91.9,113.8c-2.4,0-4.4-2-4.4-4.4v-17.5c0-2.4,2-4.4,4.4-4.4s4.4,2,4.4,4.4v17.5c0,2.4-2,4.4-4.4,4.4Z"/>
  <path class="st0" d="M91.9,96.3c-9.6,0-17.5-7.9-17.5-17.5s7.9-17.5,17.5-17.5,17.5,7.9,17.5,17.5-7.9,17.5-17.5,17.5ZM91.9,70.1c-4.8,0-8.8,3.9-8.8,8.8s3.9,8.8,8.8,8.8,8.8-3.9,8.8-8.8-3.9-8.8-8.8-8.8Z"/>
  <path class="st0" d="M48.1,113.8c-2.4,0-4.4-2-4.4-4.4v-52.5c0-2.4,2-4.4,4.4-4.4s4.4,2,4.4,4.4v52.5c0,2.4-2,4.4-4.4,4.4Z"/>
  <path class="st0" d="M48.1,61.3c-9.6,0-17.5-7.9-17.5-17.5s7.9-17.5,17.5-17.5,17.5,7.9,17.5,17.5-7.9,17.5-17.5,17.5ZM48.1,35.1c-4.8,0-8.8,3.9-8.8,8.8s3.9,8.8,8.8,8.8,8.8-3.9,8.8-8.8-3.9-8.8-8.8-8.8Z"/>
</svg>