<?xml version="1.0" encoding="UTF-8"?>
<svg id="Layer_1" xmlns="http://www.w3.org/2000/svg" version="1.1" viewBox="0 0 140 140">
  <!-- Generator: Adobe Illustrator 29.6.0, SVG Export Plug-In . SVG Version: 2.1.1 Build 207)  -->
  <defs>
    <style>
      .st0 {
        fill: #0f2b4d;
      }
    </style>
  </defs>
  <path class="st0" d="M26.2,122.5c-10.9,0-19.7-8.8-19.7-19.7s8.8-19.7,19.7-19.7,19.7,8.8,19.7,19.7-8.8,19.7-19.7,19.7ZM26.2,91.9c-6,0-10.9,4.9-10.9,10.9s4.9,10.9,10.9,10.9,10.9-4.9,10.9-10.9-4.9-10.9-10.9-10.9Z"/>
  <path class="st0" d="M4.4,140c-.7,0-1.4-.2-2.1-.5-2.1-1.1-2.9-3.8-1.8-5.9,2.7-5.1,6.9-9.3,12-12,6.9-3.7,14.8-4.4,22.2-2.2s13.6,7.3,17.2,14.2c1.1,2.1.3,4.8-1.8,5.9-2.1,1.1-4.8.3-5.9-1.8-5.3-9.9-17.7-13.7-27.6-8.4-3.6,1.9-6.5,4.8-8.4,8.4-.8,1.5-2.3,2.3-3.9,2.3Z"/>
  <path class="st0" d="M113.7,122.5c-10.9,0-19.7-8.8-19.7-19.7s8.8-19.7,19.7-19.7,19.7,8.8,19.7,19.7-8.8,19.7-19.7,19.7ZM113.7,91.9c-6,0-10.9,4.9-10.9,10.9s4.9,10.9,10.9,10.9,10.9-4.9,10.9-10.9-4.9-10.9-10.9-10.9Z"/>
  <path class="st0" d="M135.6,140c-1.6,0-3.1-.8-3.9-2.3-5.3-9.9-17.7-13.7-27.6-8.4-3.6,1.9-6.5,4.8-8.4,8.4-1.1,2.1-3.8,2.9-5.9,1.8-2.1-1.1-2.9-3.8-1.8-5.9,2.7-5.1,6.9-9.3,12-12,14.2-7.6,31.9-2.2,39.5,12,1.1,2.1.3,4.8-1.8,5.9-.7.3-1.4.5-2.1.5Z"/>
  <path class="st0" d="M70,39.4c-10.9,0-19.7-8.8-19.7-19.7S59.1,0,70,0s19.7,8.8,19.7,19.7-8.8,19.7-19.7,19.7ZM70,8.8c-6,0-10.9,4.9-10.9,10.9s4.9,10.9,10.9,10.9,10.9-4.9,10.9-10.9-4.9-10.9-10.9-10.9Z"/>
  <path class="st0" d="M88.9,52.5c-1.2,0-2.5-.5-3.3-1.5-3.6-4.2-8.5-6.7-14-7.2-5.5-.4-10.8,1.3-14.9,4.8-.8.7-1.6,1.5-2.3,2.3-1.6,1.8-4.3,2.1-6.2.5-1.8-1.6-2.1-4.3-.5-6.2,1-1.2,2.1-2.3,3.3-3.3,6-5.1,13.5-7.5,21.3-6.9,7.8.6,14.9,4.2,20,10.2,1.6,1.8,1.3,4.6-.5,6.2-.8.7-1.8,1-2.8,1Z"/>
  <path class="st0" d="M70,122.5c-6.4,0-12.7-1.2-18.8-3.5-2.3-.9-3.4-3.4-2.5-5.6.9-2.3,3.4-3.4,5.6-2.5,10.2,3.9,21.4,3.8,31.5,0,2.2-.9,4.8.2,5.7,2.5.9,2.3-.2,4.8-2.5,5.7-6.1,2.4-12.6,3.6-19.1,3.6Z"/>
  <path class="st0" d="M22.1,78.8c-2.2,0-4.1-1.7-4.4-4-.2-1.8-.2-3.3-.2-4.8,0-14.4,6-28.3,16.6-38.2,1.8-1.6,4.5-1.6,6.2.2,1.7,1.8,1.6,4.5-.2,6.2-8.8,8.2-13.8,19.8-13.8,31.8,0,1.2,0,2.5.2,4,.2,2.4-1.5,4.5-4,4.8-.1,0-.3,0-.4,0Z"/>
  <path class="st0" d="M117.9,78.8c-.1,0-.3,0-.4,0-2.4-.2-4.2-2.3-4-4.7.1-1.6.2-2.8.2-4,0-12-5-23.6-13.8-31.8-1.8-1.7-1.9-4.4-.2-6.2,1.7-1.8,4.4-1.9,6.2-.2,10.5,9.9,16.6,23.8,16.6,38.2,0,1.4,0,2.9-.2,4.8-.2,2.3-2.1,4-4.4,4Z"/>
</svg>