<?xml version="1.0" encoding="UTF-8"?>
<svg id="Layer_1" xmlns="http://www.w3.org/2000/svg" version="1.1" viewBox="0 0 140 140">
  <!-- Generator: Adobe Illustrator 29.6.0, SVG Export Plug-In . SVG Version: 2.1.1 Build 207)  -->
  <defs>
    <style>
      .st0 {
        fill: #0f2b4d;
      }
    </style>
  </defs>
  <path class="st0" d="M118.1,113.8H21.8c-2.4,0-4.4-2-4.4-4.4s2-4.4,4.4-4.4h96.2c2.4,0,4.4,2,4.4,4.4s-2,4.4-4.4,4.4Z"/>
  <path class="st0" d="M118.1,140H21.9c-2.4,0-4.4-2-4.4-4.4V4.4c0-2.4,2-4.4,4.4-4.4h96.2c2.4,0,4.4,2,4.4,4.4v131.2c0,2.4-2,4.4-4.4,4.4ZM26.2,131.2h87.5V8.8H26.2v122.5Z"/>
  <path class="st0" d="M61.2,52.5h-17.5c-2.4,0-4.4-2-4.4-4.4v-17.5c0-2.4,2-4.4,4.4-4.4h17.5c2.4,0,4.4,2,4.4,4.4v17.5c0,2.4-2,4.4-4.4,4.4ZM48.1,43.8h8.8v-8.8h-8.8v8.8Z"/>
  <path class="st0" d="M96.2,52.5h-17.5c-2.4,0-4.4-2-4.4-4.4v-17.5c0-2.4,2-4.4,4.4-4.4h17.5c2.4,0,4.4,2,4.4,4.4v17.5c0,2.4-2,4.4-4.4,4.4ZM83.1,43.8h8.8v-8.8h-8.8v8.8Z"/>
  <path class="st0" d="M61.2,87.5h-17.5c-2.4,0-4.4-2-4.4-4.4v-17.5c0-2.4,2-4.4,4.4-4.4h17.5c2.4,0,4.4,2,4.4,4.4v17.5c0,2.4-2,4.4-4.4,4.4ZM48.1,78.8h8.8v-8.8h-8.8v8.8Z"/>
</svg>