<?xml version="1.0" encoding="UTF-8"?>
<svg id="Layer_1" xmlns="http://www.w3.org/2000/svg" version="1.1" viewBox="0 0 140 140">
  <!-- Generator: Adobe Illustrator 29.6.0, SVG Export Plug-In . SVG Version: 2.1.1 Build 207)  -->
  <defs>
    <style>
      .st0 {
        fill: #0f2b4d;
      }
    </style>
  </defs>
  <path class="st0" d="M109.4,115.9H30.6c-7.2,0-13.1-5.9-13.1-13.1v-17.5c0-7.2,5.9-13.1,13.1-13.1h17.5v-17.5c0-7.2,5.9-13.1,13.1-13.1h17.5c7.2,0,13.1,5.9,13.1,13.1v17.5h17.5c7.2,0,13.1,5.9,13.1,13.1v17.5c0,7.2-5.9,13.1-13.1,13.1ZM30.6,80.9c-2.4,0-4.4,2-4.4,4.4v17.5c0,2.4,2,4.4,4.4,4.4h78.8c2.4,0,4.4-2,4.4-4.4v-17.5c0-2.4-2-4.4-4.4-4.4h-21.9c-2.4,0-4.4-2-4.4-4.4v-21.9c0-2.4-2-4.4-4.4-4.4h-17.5c-2.4,0-4.4,2-4.4,4.4v21.9c0,2.4-2,4.4-4.4,4.4h-21.9Z"/>
  <path class="st0" d="M135.6,98.4h-17.5c-2.4,0-4.4-2-4.4-4.4s2-4.4,4.4-4.4h17.5c2.4,0,4.4,2,4.4,4.4s-2,4.4-4.4,4.4Z"/>
  <path class="st0" d="M21.9,98.4H4.4c-2.4,0-4.4-2-4.4-4.4s2-4.4,4.4-4.4h17.5c2.4,0,4.4,2,4.4,4.4s-2,4.4-4.4,4.4Z"/>
  <path class="st0" d="M70,50.3c-2.4,0-4.4-2-4.4-4.4v-17.5c0-2.4,2-4.4,4.4-4.4s4.4,2,4.4,4.4v17.5c0,2.4-2,4.4-4.4,4.4Z"/>
</svg>