<svg viewBox="0 0 140 140" height="140" width="140" xmlns="http://www.w3.org/2000/svg"><g transform="matrix(5.833333333333333,0,0,5.833333333333333,0,0)"><path d="M16.313,11.26l-5.592,5.592a.818.818,0,0,1-1.158,0L7.688,14.976" fill="none" stroke="#0F2B4D" stroke-linecap="round" stroke-linejoin="round" stroke-width="1.5"></path><path d="M15.75,4.51H19.5A1.5,1.5,0,0,1,21,6.01V21.76a1.5,1.5,0,0,1-1.5,1.5H4.5A1.5,1.5,0,0,1,3,21.76V6.01a1.5,1.5,0,0,1,1.5-1.5H8.25a3.75,3.75,0,0,1,7.5,0Z" fill="none" stroke="#0F2B4D" stroke-linecap="round" stroke-linejoin="round" stroke-width="1.5"></path><path d="M12.057,3.765a.375.375,0,1,1-.428.313.375.375,0,0,1,.428-.313" fill="none" stroke="#0F2B4D" stroke-linecap="round" stroke-linejoin="round" stroke-width="1.5"></path></g></svg>