<?xml version="1.0" encoding="UTF-8"?>
<svg id="Layer_1" xmlns="http://www.w3.org/2000/svg" version="1.1" viewBox="0 0 140 140">
  <!-- Generator: Adobe Illustrator 29.6.0, SVG Export Plug-In . SVG Version: 2.1.1 Build 207)  -->
  <defs>
    <style>
      .st0 {
        fill: #0f2b4d;
      }
    </style>
  </defs>
  <path class="st0" d="M133.8,112.8H6.2c-2.4,0-4.4-2-4.4-4.4V31.6c0-2.4,2-4.4,4.4-4.4h127.5c2.4,0,4.4,2,4.4,4.4v76.9c0,2.4-2,4.4-4.4,4.4ZM10.6,104.1h118.8V35.9H10.6v68.1Z"/>
  <path class="st0" d="M40.3,84.7c-9.4,0-17.1-7.7-17.1-17.1s7.7-17.1,17.1-17.1,17.1,7.7,17.1,17.1-7.7,17.1-17.1,17.1ZM40.3,59.2c-4.6,0-8.4,3.7-8.4,8.4s3.7,8.4,8.4,8.4,8.4-3.7,8.4-8.4-3.7-8.4-8.4-8.4Z"/>
  <path class="st0" d="M62.5,111.5c-2.4,0-4.4-2-4.4-4.4,0-9.8-8-17.8-17.8-17.8s-17.8,8-17.8,17.8-2,4.4-4.4,4.4-4.4-2-4.4-4.4c0-14.6,11.9-26.6,26.6-26.6s26.6,11.9,26.6,26.6-2,4.4-4.4,4.4Z"/>
  <path class="st0" d="M114.2,77.9h-37.2c-2.4,0-4.4-2-4.4-4.4s2-4.4,4.4-4.4h37.2c2.4,0,4.4,2,4.4,4.4s-2,4.4-4.4,4.4Z"/>
  <path class="st0" d="M97.3,94.4h-20.4c-2.4,0-4.4-2-4.4-4.4s2-4.4,4.4-4.4h20.4c2.4,0,4.4,2,4.4,4.4s-2,4.4-4.4,4.4Z"/>
  <circle class="st0" cx="112.2" cy="50" r="5.9"/>
</svg>