<svg xmlns="http://www.w3.org/2000/svg" viewBox="0 0 140 140" height="140" width="140"><g transform="matrix(5.833333333333333,0,0,5.833333333333333,0,0)"><path d="M.75 22.5V18a1.5 1.5 0 0 1 1.5-1.5h19.5a1.5 1.5 0 0 1 1.5 1.5v4.5M3 16.5v-4a1.94 1.94 0 0 1 1.875-2h5.25a1.941 1.941 0 0 1 1.875 2v4m-6.75-6V8.25M6 13.5h1.5" fill="none" stroke="#0F2B4D" stroke-linecap="round" stroke-linejoin="round" stroke-width="1.5"></path><circle cx="17.25" cy="4.5" r="3" fill="none" stroke="#0F2B4D" stroke-linecap="round" stroke-linejoin="round" stroke-width="1.5"></circle><path d="M21.75 13.5a4.5 4.5 0 0 0-7.691-3.174" fill="none" stroke="#0F2B4D" stroke-linecap="round" stroke-linejoin="round" stroke-width="1.5"></path><rect x="2.25" y="5.266" width="6" height="3" rx=".5" ry=".5" fill="none" stroke="#0F2B4D" stroke-linecap="round" stroke-linejoin="round" stroke-width="1.5"></rect></g></svg>