<?xml version="1.0" encoding="UTF-8"?>
<svg id="Layer_1" xmlns="http://www.w3.org/2000/svg" version="1.1" viewBox="0 0 140 140">
  <!-- Generator: Adobe Illustrator 29.6.0, SVG Export Plug-In . SVG Version: 2.1.1 Build 207)  -->
  <defs>
    <style>
      .st0 {
        fill: #0f2b4d;
      }
    </style>
  </defs>
  <path class="st0" d="M96.2,140c-24.1,0-43.8-19.6-43.8-43.8s19.6-43.8,43.8-43.8,43.8,19.6,43.8,43.8-19.6,43.8-43.8,43.8ZM96.2,61.2c-19.3,0-35,15.7-35,35s15.7,35,35,35,35-15.7,35-35-15.7-35-35-35Z"/>
  <path class="st0" d="M133.4,113.8H59.1c-2.4,0-4.4-2-4.4-4.4s2-4.4,4.4-4.4h74.3c2.4,0,4.4,2,4.4,4.4s-2,4.4-4.4,4.4Z"/>
  <path class="st0" d="M133.4,87.5H59.1c-2.4,0-4.4-2-4.4-4.4s2-4.4,4.4-4.4h74.3c2.4,0,4.4,2,4.4,4.4s-2,4.4-4.4,4.4Z"/>
  <path class="st0" d="M90.7,139.6c-1.8,0-3.5-1.1-4.1-2.9-9.4-25.9-10.4-53.6-3.1-80.1.6-2.3,3.1-3.7,5.4-3,2.3.6,3.7,3.1,3,5.4-6.9,24.8-5.9,50.6,2.9,74.8.8,2.3-.4,4.8-2.6,5.6-.5.2-1,.3-1.5.3Z"/>
  <path class="st0" d="M101.8,139.6c-.5,0-1,0-1.5-.3-2.3-.8-3.4-3.3-2.6-5.6,4.9-13.5,7.3-27.5,7.3-41.9,0-11.1-1.5-22.2-4.5-32.9-.6-2.3.7-4.7,3-5.4,2.3-.6,4.7.7,5.4,3,3.2,11.5,4.8,23.3,4.8,35.3,0,15.3-2.6,30.4-7.8,44.9-.6,1.8-2.3,2.9-4.1,2.9Z"/>
  <path class="st0" d="M39.4,118.1H13.8c-7.6,0-13.8-6.2-13.8-13.8V13.7C0,6.2,6.2,0,13.7,0h103.7c7.6,0,13.8,6.2,13.8,13.8v30c0,2.4-2,4.4-4.4,4.4s-4.4-2-4.4-4.4V13.8c0-2.8-2.3-5-5.1-5.1H13.7c-2.7,0-5,2.3-5,5v90.6c0,2.8,2.3,5,5.1,5h25.6c2.4,0,4.4,2,4.4,4.4s-2,4.4-4.4,4.4Z"/>
  <path class="st0" d="M126.9,35H4.4c-2.4,0-4.4-2-4.4-4.4s2-4.4,4.4-4.4h122.5c2.4,0,4.4,2,4.4,4.4s-2,4.4-4.4,4.4Z"/>
  <path class="st0" d="M39.4,35c-2.4,0-4.4-2-4.4-4.4V4.4c0-2.4,2-4.4,4.4-4.4s4.4,2,4.4,4.4v26.2c0,2.4-2,4.4-4.4,4.4Z"/>
  <path class="st0" d="M65.6,35c-2.4,0-4.4-2-4.4-4.4V4.4c0-2.4,2-4.4,4.4-4.4s4.4,2,4.4,4.4v26.2c0,2.4-2,4.4-4.4,4.4Z"/>
</svg>