<?xml version="1.0" encoding="UTF-8"?>
<svg id="Layer_1" xmlns="http://www.w3.org/2000/svg" version="1.1" viewBox="0 0 140 140">
  <!-- Generator: Adobe Illustrator 29.6.0, SVG Export Plug-In . SVG Version: 2.1.1 Build 207)  -->
  <defs>
    <style>
      .st0 {
        fill: #0f2b4d;
      }
    </style>
  </defs>
  <path class="st0" d="M64.1,105.1c-2.4,0-4.4-2-4.4-4.4v-13.3c0-1.3.6-2.5,1.5-3.3,1-.8,2.3-1.2,3.5-1l4.5.7c4.8.8,9.4-2.5,10.2-7.3,0-.5,0-1,0-1.5v-10.9c0-2,1.4-3.8,3.3-4.2l4.1-1c.6,0,1.1-.5,1.4-1s.4-1.1.3-1.7c0-.3-.2-.5-.3-.7l-8.1-12.1c-.5-.7-.7-1.6-.7-2.4v-3.3c0-7.2-3.2-14.1-9.1-19.5-7.6-6.9-18.4-10.3-29.6-9.2C21.5,10.7,7.1,28,8.9,47.4c1,11.5,7.6,21.8,17.6,27.5,1.4.8,2.2,2.2,2.2,3.8v22c0,2.4-2,4.4-4.4,4.4s-4.4-2-4.4-4.4v-19.5C8.7,73.8,1.4,61.6.2,48.2-.9,36.4,2.7,25,10.2,15.9,17.8,6.9,28.4,1.3,40.2.2c13.7-1.3,26.9,2.9,36.3,11.5,7.7,7,11.9,16.2,11.9,25.9v2l7.3,11c.7,1.1,1.2,2.2,1.5,3.4.7,2.9.3,5.8-1.2,8.3-1.5,2.5-3.9,4.3-6.8,5l-.8.2v7.5c0,1,0,1.9-.2,2.9-1.6,9.4-10.3,15.8-19.7,14.6v8.1c0,2.4-2,4.4-4.4,4.4h0Z"/>
  <path class="st0" d="M110.1,140c-1.7,0-3.4-.3-5-1-6.7-2.8-9.9-10.5-7.1-17.1l16.7-40.4c2.8-6.7,10.5-9.9,17.2-7.1,3.2,1.3,5.8,3.9,7.1,7.1s1.3,6.8,0,10.1l-16.7,40.4c-1.3,3.2-3.9,5.8-7.1,7.1-1.6.7-3.3,1-5,1h-.1ZM126.9,82.1c-1.7,0-3.4,1-4.1,2.7l-16.7,40.4c-.4,1.1-.4,2.3,0,3.3s1.3,1.9,2.4,2.4,2.3.4,3.3,0,1.9-1.3,2.4-2.4h0l16.7-40.4c.5-1.1.5-2.3,0-3.4s-1.3-1.9-2.4-2.4c-.5-.2-1.1-.3-1.7-.3h0Z"/>
  <path class="st0" d="M68.9,133.6c-2.4,0-4.6-1.7-5-4.2-.5-2.7,1.3-5.4,4-5.9,2.7-.6,5.4,1.2,6,4h0c.5,2.9-1.3,5.5-4.1,6h-.9ZM65.3,129.2h0Z"/>
  <path class="st0" d="M51.8,137.1c-1,0-2-.3-2.9-.9-1.1-.8-1.9-1.9-2.1-3.3-.5-2.7,1.3-5.4,4-5.9,1.3-.3,2.7,0,3.8.7,1.1.8,1.9,1.9,2.2,3.2h0c.5,2.9-1.3,5.5-4.1,6h-.9v.2ZM48.2,132.6h0ZM48.2,132.6h0Z"/>
  <path class="st0" d="M86,130.2c-2.3,0-4.4-1.6-5-3.9-.6-2.7,1.1-5.5,3.8-6.1h.3c2.4-.4,4.7.9,5.6,3.1,0,.3.2.6.3.9.3,1.3,0,2.7-.8,3.8-.7,1.1-1.9,1.9-3.1,2.1-.4,0-.8.1-1.1.1h0ZM82.5,125.8h0Z"/>
  <path class="st0" d="M112.6,50.8c-.8,0-1.6-.2-2.3-.5-1.2-.6-2.1-1.7-2.6-3-.4-1.3-.3-2.7.3-3.9.6-1.2,1.7-2.1,3-2.6,2.7-.9,5.6.6,6.5,3.2.4,1.3.3,2.7-.3,3.9-.6,1.2-1.7,2.1-3,2.6-.5.2-1.1.3-1.6.3Z"/>
  <path class="st0" d="M118.1,67.4c-2.1,0-4.1-1.4-4.9-3.5-.9-2.7.6-5.6,3.2-6.4h0c1.3-.4,2.7-.3,3.9.3,1.2.6,2.1,1.7,2.5,3s.3,2.7-.3,3.9c-.6,1.2-1.7,2.1-3,2.5-.5.2-1.1.2-1.6.2h.2Z"/>
  <path class="st0" d="M107.1,34.2c-.8,0-1.6-.2-2.3-.5-1.2-.6-2.1-1.7-2.6-3-.9-2.7.6-5.6,3.2-6.5h0c2.7-.9,5.6.6,6.5,3.2.4,1.3.3,2.7-.3,3.9-.6,1.2-1.7,2.1-3,2.6-.5.2-1.1.3-1.6.3h.1Z"/>
</svg>