<?xml version="1.0" encoding="UTF-8"?>
<svg id="Layer_1" xmlns="http://www.w3.org/2000/svg" version="1.1" viewBox="0 0 140 140">
  <!-- Generator: Adobe Illustrator 29.6.0, SVG Export Plug-In . SVG Version: 2.1.1 Build 207)  -->
  <defs>
    <style>
      .st0 {
        fill: #0f2b4d;
      }
    </style>
  </defs>
  <path class="st0" d="M17.5,45.5C7.9,45.5,0,37.6,0,28S7.9,10.5,17.5,10.5s17.5,7.9,17.5,17.5-7.9,17.5-17.5,17.5ZM17.5,19.2c-4.8,0-8.8,3.9-8.8,8.8s3.9,8.8,8.8,8.8,8.8-3.9,8.8-8.8-3.9-8.8-8.8-8.8Z"/>
  <path class="st0" d="M122.5,45.5c-9.6,0-17.5-7.9-17.5-17.5s7.9-17.5,17.5-17.5,17.5,7.9,17.5,17.5-7.9,17.5-17.5,17.5ZM122.5,19.2c-4.8,0-8.8,3.9-8.8,8.8s3.9,8.8,8.8,8.8,8.8-3.9,8.8-8.8-3.9-8.8-8.8-8.8Z"/>
  <path class="st0" d="M100.6,133h-21.9c-2.3,0-4.2-1.7-4.4-4l-4.4-52.5c-.1-1.2.3-2.4,1.1-3.3.8-.9,2-1.4,3.2-1.4h4.4c2.4,0,4.4,2,4.4,4.4s-1.8,4.2-4,4.4l3.6,43.8h17.8c2.4,0,4.4,2,4.4,4.4s-2,4.4-4.4,4.4Z"/>
  <path class="st0" d="M74.4,80.5h-8.8c-2.4,0-4.4-2-4.4-4.4s2-4.4,4.4-4.4h8.8c2.4,0,4.4,2,4.4,4.4s-2,4.4-4.4,4.4Z"/>
  <path class="st0" d="M122.5,133h0c-7.2,0-13.1-5.9-13.1-13.1v-33.4c-7.7,2.9-16.1,3.8-24.3,2.6,0,0-.2,0-.2,0-7.1-1.5-11.6-8.5-10.1-15.6,1.5-6.9,8.1-11.4,15-10.2,8.7,1.1,17.3-3.3,21.3-11.1,0,0,0-.2.1-.2,3.7-6.2,11.8-8.2,18-4.5,3.9,2.4,6.4,6.7,6.4,11.3v61.2c0,7.2-5.9,13.1-13.1,13.1ZM113.8,75.2c.8,0,1.5.2,2.2.6,1.3.8,2.2,2.2,2.2,3.8v40.3c0,2.4,2,4.4,4.4,4.4h0c2.4,0,4.4-2,4.4-4.4v-61.3c0-1.5-.8-3-2.1-3.8-2-1.2-4.7-.6-5.9,1.4-5.8,11-17.9,17.2-30.2,15.6,0,0-.1,0-.2,0-2.3-.4-4.6,1.1-5.1,3.4-.2,1.1,0,2.3.6,3.3.6,1,1.6,1.6,2.7,1.9,8.6,1.3,17.5-.4,25-4.6.7-.4,1.4-.6,2.2-.6Z"/>
  <path class="st0" d="M17.5,133c-7.2,0-13.1-5.9-13.1-13.1v-61.2c0-7.2,5.9-13.1,13.1-13.1h0c2,0,4.1.5,5.9,1.4,0,0,.1,0,.2,0,7.4,4.1,16.7,1.5,20.8-5.8.2-.4.5-.9.7-1.3,0,0,0-.1,0-.2,1.6-3.1,4.3-5.5,7.6-6.6,3.3-1.1,6.9-.9,10,.7,3.1,1.6,5.5,4.3,6.6,7.6,1.1,3.3.9,6.9-.7,10-7,14.7-21.9,23.8-37.9,23.8h0v44.7c0,7.2-5.9,13.1-13.1,13.1ZM17.5,54.2h0c-2.4,0-4.4,2-4.4,4.4v61.3c0,2.4,2,4.4,4.4,4.4s4.4-2,4.4-4.4v-49.3c0-1.2.5-2.4,1.5-3.3.9-.8,2.2-1.2,3.4-1.1,14.2,1.7,27.8-5.8,34-18.7.6-1.1.6-2.3.3-3.4-.4-1.1-1.1-2-2.2-2.5-1-.5-2.2-.6-3.3-.2-1.1.4-2,1.1-2.5,2.1-.3.7-.6,1.3-1,2-6.5,11.5-21.1,15.6-32.6,9.2-.6-.3-1.2-.4-1.9-.4Z"/>
  <path class="st0" d="M76.1,57.7c-.5,0-1,0-1.5-.3l-11.3-4.3c-2.3-.8-3.4-3.4-2.6-5.6.8-2.3,3.4-3.4,5.6-2.6l7.2,2.7,9.2-24.6-16.4-6.1-8.1,21.7c-.8,2.3-3.4,3.4-5.6,2.6-2.3-.8-3.4-3.4-2.6-5.6l9.7-25.8c.8-2.3,3.4-3.4,5.6-2.6l24.6,9.2c1.1.4,2,1.2,2.4,2.3.5,1.1.5,2.3.1,3.3l-12.3,32.8c-.4,1.1-1.2,2-2.3,2.4-.6.3-1.2.4-1.8.4Z"/>
</svg>