<?xml version="1.0" encoding="UTF-8"?>
<svg id="Layer_1" xmlns="http://www.w3.org/2000/svg" version="1.1" viewBox="0 0 140 140">
  <!-- Generator: Adobe Illustrator 29.6.0, SVG Export Plug-In . SVG Version: 2.1.1 Build 207)  -->
  <defs>
    <style>
      .st0 {
        fill: #0f2b4d;
      }
    </style>
  </defs>
  <path class="st0" d="M26.2,109.4h-4.4C9.7,109.4,0,99.6,0,87.5v-17.5c0-12.1,9.8-21.9,21.9-21.9h4.4c2.8,0,13.1,2.2,13.1,8.8v43.8c0,6.6-10.3,8.8-13.1,8.8h0ZM21.9,56.9c-7.2,0-13.1,5.9-13.1,13.1v17.5c0,7.2,5.9,13.1,13.1,13.1h4.4c.9,0,3.2-.7,4.4-1.3v-41.1c-1.2-.6-3.5-1.3-4.4-1.3,0,0-4.4,0-4.4,0Z"/>
  <path class="st0" d="M118.1,109.4h-4.4c-2.8,0-13.1-2.2-13.1-8.8v-43.8c0-6.6,10.3-8.8,13.1-8.8h4.4c12.1,0,21.9,9.8,21.9,21.9v17.5c0,12.1-9.8,21.9-21.9,21.9h0ZM109.4,99.4c1.2.6,3.5,1.3,4.4,1.3h4.4c7.2,0,13.1-5.9,13.1-13.1v-17.5c0-7.2-5.9-13.1-13.1-13.1h-4.4c-.9,0-3.2.7-4.4,1.3,0,0,0,41.1,0,41.1Z"/>
  <path class="st0" d="M118.4,53.6c-2.4,0-4.7,1.3-4.7-1.1,0-24.1-19.6-43.8-43.8-43.8S26.2,28.4,26.2,52.6s-1.8,1.7-4.2,1.7-4.6.7-4.6-1.7C17.5,23.6,41.1,0,70,0s52.5,23.6,52.5,52.5-1.7,1.1-4.1,1.1Z"/>
  <path class="st0" d="M100.6,131.3h-13.1c-2.4,0-4.4-2-4.4-4.4s2-4.4,4.4-4.4h13.1c7.2,0,13.1-5.9,13.1-13.1v-4.4c0-2.4,2-4.4,4.4-4.4s4.4,2,4.4,4.4v4.4c0,12.1-9.8,21.9-21.9,21.9Z"/>
  <path class="st0" d="M78.8,140.1h-17.5c-7.2,0-13.1-5.9-13.1-13.1s5.9-13.1,13.1-13.1h17.5c7.2,0,13.1,5.9,13.1,13.1s-5.9,13.1-13.1,13.1ZM61.2,122.6c-2.4,0-4.4,2-4.4,4.4s2,4.4,4.4,4.4h17.5c2.4,0,4.4-2,4.4-4.4s-2-4.4-4.4-4.4c0,0-17.5,0-17.5,0Z"/>
</svg>