<svg id="Layer_1" data-name="Layer 1" xmlns="http://www.w3.org/2000/svg" viewBox="0 0 140 140">
  <title>Artboard 4</title>
  <g>
    <g>
      <path d="M109.9,135.8a8.1,8.1,0,0,1-8.1-8.1v-8.9a.8.8,0,0,0-.7-.7H38.9a.8.8,0,0,0-.7.7v8.9a8.1,8.1,0,0,1-8.1,8.1H12.3a8.2,8.2,0,0,1-8.2-8.1V92.2A8.2,8.2,0,0,1,12.3,84H127.7a8.2,8.2,0,0,1,8.2,8.2v35.5a8.2,8.2,0,0,1-8.2,8.1Zm-8.8-25.2a8.2,8.2,0,0,1,8.1,8.2v8.9a.7.7,0,0,0,.7.7h17.8a.7.7,0,0,0,.7-.7V92.2a.7.7,0,0,0-.7-.7H12.3a.7.7,0,0,0-.7.7v35.5a.7.7,0,0,0,.7.7H30.1a.7.7,0,0,0,.7-.7v-8.9a8.2,8.2,0,0,1,8.1-8.2Z" fill="#002a4e"/>
      <path d="M127.7,135.2H109.9a7.5,7.5,0,0,1-7.4-7.5v-8.9a1.4,1.4,0,0,0-1.4-1.4H38.9a1.4,1.4,0,0,0-1.4,1.4v8.9a7.5,7.5,0,0,1-7.4,7.5H12.3a7.6,7.6,0,0,1-7.5-7.5V92.2a7.6,7.6,0,0,1,7.5-7.5H127.7a7.6,7.6,0,0,1,7.5,7.5v35.5A7.6,7.6,0,0,1,127.7,135.2ZM38.9,111.3h62.2a7.5,7.5,0,0,1,7.4,7.5v8.9a1.4,1.4,0,0,0,1.4,1.4h17.8a1.4,1.4,0,0,0,1.4-1.4V92.2a1.4,1.4,0,0,0-1.4-1.4H12.3a1.4,1.4,0,0,0-1.4,1.4v35.5a1.4,1.4,0,0,0,1.4,1.4H30.1a1.4,1.4,0,0,0,1.4-1.4v-8.9A7.5,7.5,0,0,1,38.9,111.3Z" fill="#002a4e"/>
    </g>
    <g>
      <path d="M25.6,73.7A3.7,3.7,0,0,1,21.9,70V7.9a3.7,3.7,0,0,1,3.7-3.7h88.8a3.7,3.7,0,0,1,3.7,3.7V70a3.7,3.7,0,0,1-3.7,3.7Zm85-7.4V11.6H29.4V66.3Z" fill="#002a4e"/>
      <path d="M114.4,73H25.6a2.9,2.9,0,0,1-3-3V7.9a3,3,0,0,1,3-3.1h88.8a3,3,0,0,1,3,3.1V70A2.9,2.9,0,0,1,114.4,73ZM28.7,67h82.6V10.9H28.7Z" fill="#002a4e"/>
    </g>
    <g>
      <path d="M56.7,91.5h-.9a3.8,3.8,0,0,1-2.7-4.6l4.4-17.7a3.6,3.6,0,0,1,3.6-2.8H62a3.7,3.7,0,0,1,2.7,4.5L60.3,88.7A3.8,3.8,0,0,1,56.7,91.5Z" fill="#002a4e"/>
      <path d="M56.7,90.8H56A3.1,3.1,0,0,1,53.7,87l4.5-17.7A3,3,0,0,1,61.9,67a3.1,3.1,0,0,1,2.2,3.7L59.6,88.5A2.9,2.9,0,0,1,56.7,90.8Z" fill="#002a4e"/>
    </g>
    <g>
      <path d="M83.3,91.5a3.8,3.8,0,0,1-3.6-2.8L75.3,70.9A3.7,3.7,0,0,1,78,66.4h.9a3.6,3.6,0,0,1,3.6,2.8l4.4,17.7a3.8,3.8,0,0,1-2.7,4.6Z" fill="#002a4e"/>
      <path d="M83.3,90.8a2.9,2.9,0,0,1-2.9-2.3L75.9,70.7A3.1,3.1,0,0,1,78.1,67a3,3,0,0,1,3.7,2.3L86.3,87A3.1,3.1,0,0,1,84,90.7Z" fill="#002a4e"/>
    </g>
  </g>
</svg>
