<?xml version="1.0" encoding="UTF-8"?>
<svg id="Layer_1" xmlns="http://www.w3.org/2000/svg" version="1.1" viewBox="0 0 140 140">
  <!-- Generator: Adobe Illustrator 29.6.0, SVG Export Plug-In . SVG Version: 2.1.1 Build 207)  -->
  <defs>
    <style>
      .st0 {
        fill: #0f2b4d;
      }
    </style>
  </defs>
  <path class="st0" d="M70,140c-2.7,0-5.3-.5-7.9-1.5l-6.1-2.3c-28.3-10.9-47.3-38.6-47.3-68.9V22.9c0-5.1,3-9.8,7.6-11.9C33.4,3.5,51.5-.2,70,0c18.5-.2,36.5,3.5,53.5,10.9,4.7,2.2,7.7,6.9,7.7,12v44.4c0,30.3-19,58-47.3,68.9l-6.1,2.3c-2.5,1-5.2,1.5-7.9,1.5ZM68.9,8.7c-17,0-33.4,3.4-48.9,10.2-1.5.7-2.4,2.2-2.4,3.9h0v44.4c0,26.7,16.8,51.1,41.7,60.7l6.1,2.3c3,1.2,6.4,1.2,9.4,0l6.1-2.3c24.9-9.6,41.7-34,41.7-60.7V22.9c0-1.7-1-3.3-2.5-4-15.8-6.9-32.6-10.3-49.9-10.2-.4,0-.8,0-1.2,0Z"/>
  <path class="st0" d="M100.6,96.2h-61.2c-2.4,0-4.4-2-4.4-4.4v-52.5c0-2.4,2-4.4,4.4-4.4h61.2c2.4,0,4.4,2,4.4,4.4v52.5c0,2.4-2,4.4-4.4,4.4ZM43.8,87.5h52.5v-43.8h-52.5v43.8Z"/>
  <path class="st0" d="M100.6,70h-61.2c-2.4,0-4.4-2-4.4-4.4s2-4.4,4.4-4.4h61.2c2.4,0,4.4,2,4.4,4.4s-2,4.4-4.4,4.4Z"/>
  <path class="st0" d="M65.6,70c-2.4,0-4.4-2-4.4-4.4v-26.2c0-2.4,2-4.4,4.4-4.4s4.4,2,4.4,4.4v26.2c0,2.4-2,4.4-4.4,4.4Z"/>
  <path class="st0" d="M74.4,96.2c-2.4,0-4.4-2-4.4-4.4v-26.2c0-2.4,2-4.4,4.4-4.4s4.4,2,4.4,4.4v26.2c0,2.4-2,4.4-4.4,4.4Z"/>
</svg>