<svg viewBox="0 0 140 140" height="140" width="140" xmlns="http://www.w3.org/2000/svg"><g transform="matrix(5.833333333333333,0,0,5.833333333333333,0,0)"><path d="M16.5 23.25L10.5 23.25 11.25 18.75 15.75 18.75 16.5 23.25z" fill="none" stroke="#0F2B40" stroke-linecap="round" stroke-linejoin="round" stroke-width="1.5"></path><path d="M8.25 23.25L18.75 23.25" fill="none" stroke="#0F2B40" stroke-linecap="round" stroke-linejoin="round" stroke-width="1.5"></path><path d="M11.25,5.25h10.5a1.5,1.5,0,0,1,1.5,1.5v10.5a1.5,1.5,0,0,1-1.5,1.5H5.25a1.5,1.5,0,0,1-1.5-1.5v-1.5" fill="none" stroke="#0F2B40" stroke-linecap="round" stroke-linejoin="round" stroke-width="1.5"></path><path d="M3.75 15.75L23.25 15.75" fill="none" stroke="#0F2B40" stroke-linecap="round" stroke-linejoin="round" stroke-width="1.5"></path><path d="M0.750 0.750 L8.250 0.750 L8.250 12.750 L0.750 12.750 Z" fill="none" stroke="#0F2B40" stroke-linecap="round" stroke-linejoin="round" stroke-width="1.5"></path><path d="M0.75 9.75L8.25 9.75" fill="none" stroke="#0F2B40" stroke-linecap="round" stroke-linejoin="round" stroke-width="1.5"></path></g></svg>