<?xml version="1.0" encoding="UTF-8"?>
<svg id="Layer_1" xmlns="http://www.w3.org/2000/svg" version="1.1" viewBox="0 0 140 140">
  <!-- Generator: Adobe Illustrator 29.6.0, SVG Export Plug-In . SVG Version: 2.1.1 Build 207)  -->
  <defs>
    <style>
      .st0 {
        fill: #0f2b4d;
      }
    </style>
  </defs>
  <path class="st0" d="M70,61.3C30.1,61.3,0,48.1,0,30.6S30.1,0,70,0s70,13.2,70,30.6-30.1,30.6-70,30.6ZM70,8.8c-36.1,0-61.2,11.5-61.2,21.9s25.2,21.9,61.2,21.9,61.2-11.5,61.2-21.9-25.2-21.9-61.2-21.9Z"/>
  <path class="st0" d="M70,100.6C30.1,100.6,0,87.5,0,70V30.6c0-2.4,2-4.4,4.4-4.4s4.4,2,4.4,4.4v39.4c0,10.3,25.2,21.9,61.2,21.9s61.2-11.5,61.2-21.9V30.6c0-2.4,2-4.4,4.4-4.4s4.4,2,4.4,4.4v39.4c0,17.5-30.1,30.6-70,30.6Z"/>
  <path class="st0" d="M70,140C30.1,140,0,126.8,0,109.4v-39.4c0-2.4,2-4.4,4.4-4.4s4.4,2,4.4,4.4v39.4c0,10.3,25.2,21.9,61.2,21.9s61.2-11.5,61.2-21.9v-39.4c0-2.4,2-4.4,4.4-4.4s4.4,2,4.4,4.4v39.4c0,17.5-30.1,30.6-70,30.6Z"/>
</svg>