<?xml version="1.0" encoding="UTF-8"?>
<svg id="Layer_1" xmlns="http://www.w3.org/2000/svg" version="1.1" viewBox="0 0 140 140">
  <!-- Generator: Adobe Illustrator 29.6.0, SVG Export Plug-In . SVG Version: 2.1.1 Build 207)  -->
  <defs>
    <style>
      .st0 {
        fill: #0f2b4d;
      }
    </style>
  </defs>
  <path class="st0" d="M70,140c-28.9,0-52.5-23.6-52.5-52.5s23.6-52.5,52.5-52.5,52.5,23.6,52.5,52.5-23.6,52.5-52.5,52.5ZM70,43.8c-24.1,0-43.8,19.6-43.8,43.8s19.6,43.8,43.8,43.8,43.8-19.6,43.8-43.8-19.6-43.8-43.8-43.8Z"/>
  <path class="st0" d="M70,105c-9.6,0-17.5-7.9-17.5-17.5s7.9-17.5,17.5-17.5,17.5,7.9,17.5,17.5-7.9,17.5-17.5,17.5ZM70,78.8c-4.8,0-8.8,3.9-8.8,8.8s3.9,8.8,8.8,8.8,8.8-3.9,8.8-8.8-3.9-8.8-8.8-8.8Z"/>
  <path class="st0" d="M100.6,54.7c-2.4,0-4.4-2-4.4-4.4v-15.4c0-14.5-11.8-26.2-26.2-26.2s-26.2,11.8-26.2,26.2v15.4c0,2.4-2,4.4-4.4,4.4s-4.4-2-4.4-4.4v-15.4C35,15.7,50.7,0,70,0s35,15.7,35,35v15.4c0,2.4-2,4.4-4.4,4.4Z"/>
</svg>