<?xml version="1.0" encoding="UTF-8"?>
<svg id="Layer_1" xmlns="http://www.w3.org/2000/svg" version="1.1" viewBox="0 0 140 140">
  <!-- Generator: Adobe Illustrator 29.6.0, SVG Export Plug-In . SVG Version: 2.1.1 Build 207)  -->
  <defs>
    <style>
      .st0 {
        fill: #0f2b4d;
      }
    </style>
  </defs>
  <path class="st0" d="M67,122.8c-26.5,0-48.1-21.6-48.1-48.1s21.6-48.1,48.1-48.1,48.1,21.6,48.1,48.1-21.6,48.1-48.1,48.1ZM67,35.3c-21.7,0-39.4,17.7-39.4,39.4s17.7,39.4,39.4,39.4,39.4-17.7,39.4-39.4-17.7-39.4-39.4-39.4Z"/>
  <path class="st0" d="M26.6,126.9c-1,0-2-.3-2.8-1C10.1,114.3,1.8,98.2.2,80.3c-1.5-17.8,4-35.2,15.5-48.9C39.6,3.2,82-.4,110.2,23.4c14.1,11.9,22.8,29.4,23.7,47.8.1,2.4-1.7,4.5-4.1,4.6-2.4,0-4.5-1.7-4.6-4.1-.8-16.1-8.3-31.2-20.6-41.6-24.6-20.7-61.4-17.6-82.1,7-10,11.9-14.8,27-13.5,42.5s8.6,29.6,20.5,39.6c1.8,1.6,2.1,4.3.5,6.2-.9,1-2.1,1.6-3.3,1.6h0Z"/>
  <path class="st0" d="M135.6,75.8h-11.9c-2.4,0-4.4-2-4.4-4.4s2-4.4,4.4-4.4h11.9c2.4,0,4.4,2,4.4,4.4s-2,4.4-4.4,4.4Z"/>
  <path class="st0" d="M22.3,132.7c-.9,0-1.8-.3-2.6-.9-1.9-1.5-2.3-4.2-.9-6.1l8.9-11.9c1.4-1.9,4.2-2.3,6.1-.9,1.9,1.5,2.3,4.2.9,6.1l-8.9,11.9c-.9,1.1-2.2,1.8-3.5,1.8Z"/>
  <path class="st0" d="M83.1,60.5c-3.6,0-6.6-2.9-6.6-6.6s2.9-6.6,6.6-6.6,6.6,2.9,6.6,6.6-2.9,6.6-6.6,6.6Z"/>
</svg>