<?xml version="1.0" encoding="UTF-8"?>
<svg id="Layer_1" xmlns="http://www.w3.org/2000/svg" version="1.1" viewBox="0 0 140 140">
  <!-- Generator: Adobe Illustrator 29.6.0, SVG Export Plug-In . SVG Version: 2.1.1 Build 207)  -->
  <defs>
    <style>
      .st0 {
        fill: #0f2b4d;
      }
    </style>
  </defs>
  <path class="st0" d="M135.6,109.4h-52.5c-2.4,0-4.4-2-4.4-4.4v-43.8c0-2.4,2-4.4,4.4-4.4h52.5c2.4,0,4.4,2,4.4,4.4v43.8c0,2.4-2,4.4-4.4,4.4ZM87.5,100.6h43.8v-35h-43.8v35Z"/>
  <path class="st0" d="M126.9,65.6c-2.4,0-4.4-2-4.4-4.4v-8.8c0-7.2-5.9-13.1-13.1-13.1s-13.1,5.9-13.1,13.1v8.8c0,2.4-2,4.4-4.4,4.4s-4.4-2-4.4-4.4v-8.8c0-12.1,9.8-21.9,21.9-21.9s21.9,9.8,21.9,21.9v8.8c0,2.4-2,4.4-4.4,4.4Z"/>
  <path class="st0" d="M109.4,89.7c-3.6,0-6.6-2.9-6.6-6.6s2.9-6.6,6.6-6.6h0c1.8,0,3.4.7,4.6,1.9,1.2,1.2,1.9,2.9,1.9,4.6,0,3.6-2.9,6.6-6.6,6.6Z"/>
  <path class="st0" d="M24.1,89.7c-3.6,0-6.6-2.9-6.6-6.6s2.9-6.6,6.6-6.6h0c1.8,0,3.4.7,4.6,1.9s1.9,2.9,1.9,4.6c0,3.6-2.9,6.5-6.6,6.5Z"/>
  <path class="st0" d="M45.9,89.7c-3.6,0-6.6-2.9-6.6-6.6s2.9-6.6,6.6-6.6h0c1.8,0,3.4.7,4.6,1.9s1.9,2.9,1.9,4.6c0,3.6-2.9,6.5-6.6,6.5Z"/>
  <path class="st0" d="M65.6,109.4H13.1c-7.2,0-13.1-5.9-13.1-13.1v-35c0-7.2,5.9-13.1,13.1-13.1h52.5c2.4,0,4.4,2,4.4,4.4s-2,4.4-4.4,4.4H13.1c-2.4,0-4.4,2-4.4,4.4v35c0,2.4,2,4.4,4.4,4.4h52.5c2.4,0,4.4,2,4.4,4.4s-2,4.4-4.4,4.4Z"/>
</svg>