<?xml version="1.0" encoding="UTF-8"?>
<svg id="Layer_1" xmlns="http://www.w3.org/2000/svg" version="1.1" viewBox="0 0 32 32">
  <!-- Generator: Adobe Illustrator 29.6.0, SVG Export Plug-In . SVG Version: 2.1.1 Build 207)  -->
  <path d="M26,5H6c-1.1,0-2,.9-2,2v7c0,6.6,3.2,10.6,5.9,12.8,2.9,2.4,5.8,3.2,5.9,3.2.2,0,.4,0,.5,0,.1,0,3-.8,5.9-3.2,2.7-2.2,5.9-6.2,5.9-12.8v-7c0-1.1-.9-2-2-2ZM26,14c0,4.6-1.7,8.4-5.1,11.2-1.5,1.2-3.1,2.1-4.9,2.8-1.8-.6-3.4-1.5-4.9-2.7-3.4-2.8-5.1-6.6-5.1-11.2v-7h20v7Z"/>
  <path d="M10.1,15.2h1.6c1.6,0,2.8-1.2,3-2.7h.9v2.5h-1.2c-1.4,0-2.5,1.1-2.5,2.5s1.1,2.5,2.5,2.5.9-.4.9-.9-.4-.9-.9-.9-.7-.3-.7-.7.3-.7.7-.7h1.2v4.6h-1.2c-.5,0-.9.4-.9.9s.4.9.9.9h1.2v.7c0,.5.4.9.9.9s.9-.4.9-.9v-.7h.2c.7,0,1.4-.3,1.9-.8.4-.5.7-1.1.6-1.8s-.3-1.3-.8-1.7c-.4-.3-.9-.3-1.2,0-.2.2-.3.4-.3.7,0,.2.1.5.3.6.1.1.2.3.2.5,0,.4-.3.7-.7.7h-.2v-4.6h2.3c1.7,0,3.1-1.4,3.1-3.1h0c0-1.7-1.3-3.1-3-3.1h-2.4v-.7c0-.5-.4-.9-.9-.9s-.9.4-.9.9v.7h-3.4c-1.7,0-3.1,1.4-3.1,3.1v.5c0,.5.4.9.9.9ZM21,13.8c0,.7-.6,1.2-1.2,1.2h-2.3v-2.5h2.4c.6,0,1.2.5,1.2,1.2Z"/>
</svg>