<svg xmlns="http://www.w3.org/2000/svg" viewBox="0 0 140 140" height="140" width="140"><g transform="matrix(5.833333333333333,0,0,5.833333333333333,0,0)"><path d="M18.751 14.25C22.5 3.75 16.087.751 12 .75h0c-4.088 0-10.5 3-6.751 13.5" fill="none" stroke="#0F2B4D" stroke-linecap="round" stroke-linejoin="round" stroke-width="1.5"></path><path d="m21.751 23.25.818-5.563A3 3 0 0 0 19.6 14.25H4.4a3.006 3.006 0 0 0-2.972 3.437l.819 5.563" fill="none" stroke="#0F2B4D" stroke-linecap="round" stroke-linejoin="round" stroke-width="1.5"></path><circle cx="15.001" cy="8.25" r="1.5" fill="none" stroke="#0F2B4D" stroke-linecap="round" stroke-linejoin="round" stroke-width="1.5"></circle><circle cx="9.001" cy="8.25" r="1.5" fill="none" stroke="#0F2B4D" stroke-linecap="round" stroke-linejoin="round" stroke-width="1.5"></circle><path fill="none" stroke="#0F2B4D" stroke-linecap="round" stroke-linejoin="round" stroke-width="1.5" d="M15.751 18.75h3m-3 3h3M19.875 9h3.376M4.117 9H.751"></path><rect x="5.251" y="18.75" width="7.5" height="4.5" rx=".75" ry=".75" fill="none" stroke="#0F2B4D" stroke-linecap="round" stroke-linejoin="round" stroke-width="1.5"></rect></g></svg>