<?xml version="1.0" encoding="UTF-8"?>
<svg id="Layer_1" xmlns="http://www.w3.org/2000/svg" version="1.1" viewBox="0 0 140 140">
  <!-- Generator: Adobe Illustrator 29.6.0, SVG Export Plug-In . SVG Version: 2.1.1 Build 207)  -->
  <defs>
    <style>
      .st0 {
        fill: #0f2b4d;
      }
    </style>
  </defs>
  <path class="st0" d="M107.2,118.1h-59.2c-23.1,0-43-16.5-47.3-39.2C-4.1,52.8,13.1,27.6,39.2,22.7c12.6-2.4,25.4.3,36,7.6,9,6.1,15.4,14.9,18.7,25.1,4.2-1.9,8.7-2.8,13.3-2.8h0c8.8,0,17,3.4,23.2,9.6,6.2,6.2,9.6,14.5,9.6,23.2,0,8.8-3.4,17-9.6,23.2-6.2,6.2-14.4,9.6-23.2,9.6ZM48.1,30.6c-2.4,0-4.9.2-7.4.7-21.3,4-35.4,24.6-31.4,46,3.5,18.6,19.8,32.1,38.7,32.1h59.1s0,0,0,0c6.4,0,12.4-2.5,17-7,4.6-4.5,7.1-10.6,7.1-17,0-6.4-2.5-12.5-7-17s-10.6-7.1-17-7.1h0c-4.9,0-9.6,1.5-13.7,4.3-1.2.8-2.8,1-4.2.4-1.4-.6-2.4-1.8-2.6-3.2-1.9-10.3-7.8-19.3-16.5-25.2-6.6-4.5-14.3-6.9-22.1-6.9Z"/>
</svg>