<?xml version="1.0" encoding="UTF-8"?>
<svg id="Layer_1" xmlns="http://www.w3.org/2000/svg" version="1.1" viewBox="0 0 140 140">
  <!-- Generator: Adobe Illustrator 29.6.0, SVG Export Plug-In . SVG Version: 2.1.1 Build 207)  -->
  <defs>
    <style>
      .st0 {
        fill: #102b4d;
      }
    </style>
  </defs>
  <path class="st0" d="M43.8,106.5H4.4c-2.4,0-4.4-2-4.4-4.4s2-4.4,4.4-4.4h39.4c2.4,0,4.4,2,4.4,4.4s-2,4.4-4.4,4.4Z"/>
  <path class="st0" d="M43.8,40.8H4.4c-2.4,0-4.4-2-4.4-4.4s2-4.4,4.4-4.4h39.4c2.4,0,4.4,2,4.4,4.4s-2,4.4-4.4,4.4Z"/>
  <path class="st0" d="M135.6,40.8h-39.4c-2.4,0-4.4-2-4.4-4.4s2-4.4,4.4-4.4h39.4c2.4,0,4.4,2,4.4,4.4s-2,4.4-4.4,4.4Z"/>
  <path class="st0" d="M135.6,106.5h-39.4c-2.4,0-4.4-2-4.4-4.4s2-4.4,4.4-4.4h39.4c2.4,0,4.4,2,4.4,4.4s-2,4.4-4.4,4.4Z"/>
  <path class="st0" d="M43.8,84.6H4.4c-2.4,0-4.4-2-4.4-4.4s2-4.4,4.4-4.4h39.4c2.4,0,4.4,2,4.4,4.4s-2,4.4-4.4,4.4Z"/>
  <path class="st0" d="M43.8,62.7H4.4c-2.4,0-4.4-2-4.4-4.4s2-4.4,4.4-4.4h39.4c2.4,0,4.4,2,4.4,4.4s-2,4.4-4.4,4.4Z"/>
  <path class="st0" d="M135.6,84.6h-39.4c-2.4,0-4.4-2-4.4-4.4s2-4.4,4.4-4.4h39.4c2.4,0,4.4,2,4.4,4.4s-2,4.4-4.4,4.4Z"/>
  <path class="st0" d="M135.6,62.7h-39.4c-2.4,0-4.4-2-4.4-4.4s2-4.4,4.4-4.4h39.4c2.4,0,4.4,2,4.4,4.4s-2,4.4-4.4,4.4Z"/>
  <path class="st0" d="M96.2,115.2h-52.5c-2.4,0-4.4-2-4.4-4.4V27.7c0-2.4,2-4.4,4.4-4.4h52.5c2.4,0,4.4,2,4.4,4.4v83.1c0,2.4-2,4.4-4.4,4.4ZM48.1,106.5h43.8V32.1h-43.8v74.4Z"/>
  <path class="st0" d="M69.5,91.7c-5.4,0-10.5-2.5-13.8-6.8-1.5-1.9-1.1-4.7.8-6.1,1.9-1.5,4.7-1.1,6.1.8,1.7,2.2,4.4,3.5,7.2,3.4,0,0,.1,0,.2,0,4.5,0,7.7-2.5,7.7-4.6s-3.1-4.6-7.7-4.6c-9.2,0-16.4-5.9-16.4-13.4s7.2-13.4,16.3-13.4c5.6-.2,11,2.4,14.4,6.8,1.5,1.9,1.1,4.7-.8,6.1-1.9,1.5-4.7,1.1-6.1-.8-1.7-2.2-4.4-3.5-7.2-3.4,0,0-.1,0-.2,0-4.5,0-7.7,2.5-7.7,4.6s3.1,4.7,7.7,4.7c9.2,0,16.4,5.9,16.4,13.4s-7.2,13.4-16.3,13.4c-.2,0-.4,0-.6,0Z"/>
  <path class="st0" d="M70,97.7c-2.4,0-4.4-2-4.4-4.4v-6c0-2.4,2-4.4,4.4-4.4s4.4,2,4.4,4.4v6c0,2.4-2,4.4-4.4,4.4Z"/>
  <path class="st0" d="M70,55.6c-2.4,0-4.4-2-4.4-4.4v-6c0-2.4,2-4.4,4.4-4.4s4.4,2,4.4,4.4v6c0,2.4-2,4.4-4.4,4.4Z"/>
</svg>