<svg viewBox="0 0 140 140" height="140" width="140" xmlns="http://www.w3.org/2000/svg"><g transform="matrix(5.833333333333333,0,0,5.833333333333333,0,0)"><path d="M0.749 23.25L22.499 23.25" fill="none" stroke="#0F2B4D" stroke-linecap="round" stroke-linejoin="round" stroke-width="1.5"></path><path d="M2.749,18.75H5.5a.5.5,0,0,1,.5.5v4a0,0,0,0,1,0,0H2.249a0,0,0,0,1,0,0v-4A.5.5,0,0,1,2.749,18.75Z" fill="none" stroke="#0F2B4D" stroke-linecap="round" stroke-linejoin="round" stroke-width="1.5"></path><path d="M10.249,9.75H13a.5.5,0,0,1,.5.5v13a0,0,0,0,1,0,0H9.749a0,0,0,0,1,0,0v-13A.5.5,0,0,1,10.249,9.75Z" fill="none" stroke="#0F2B4D" stroke-linecap="round" stroke-linejoin="round" stroke-width="1.5"></path><path d="M17.749,14.25H20.5a.5.5,0,0,1,.5.5v8.5a0,0,0,0,1,0,0h-3.75a0,0,0,0,1,0,0v-8.5A.5.5,0,0,1,17.749,14.25Z" fill="none" stroke="#0F2B4D" stroke-linecap="round" stroke-linejoin="round" stroke-width="1.5"></path><path d="M6.883 5.121L2.866 9.134" fill="none" stroke="#0F2B4D" stroke-linecap="round" stroke-linejoin="round" stroke-width="1.5"></path><path d="M14.311 6.325L9.637 5.075" fill="none" stroke="#0F2B4D" stroke-linecap="round" stroke-linejoin="round" stroke-width="1.5"></path><path d="M20.392 2.889L16.811 5.689" fill="none" stroke="#0F2B4D" stroke-linecap="round" stroke-linejoin="round" stroke-width="1.5"></path><path d="M6.749 4.501 A1.500 1.500 0 1 0 9.749 4.501 A1.500 1.500 0 1 0 6.749 4.501 Z" fill="none" stroke="#0F2B4D" stroke-linecap="round" stroke-linejoin="round" stroke-width="1.5"></path><path d="M20.250 2.250 A1.500 1.500 0 1 0 23.250 2.250 A1.500 1.500 0 1 0 20.250 2.250 Z" fill="none" stroke="#0F2B4D" stroke-linecap="round" stroke-linejoin="round" stroke-width="1.5"></path><path d="M14.250 6.750 A1.500 1.500 0 1 0 17.250 6.750 A1.500 1.500 0 1 0 14.250 6.750 Z" fill="none" stroke="#0F2B4D" stroke-linecap="round" stroke-linejoin="round" stroke-width="1.5"></path><path d="M0.749 10.501 A1.500 1.500 0 1 0 3.749 10.501 A1.500 1.500 0 1 0 0.749 10.501 Z" fill="none" stroke="#0F2B4D" stroke-linecap="round" stroke-linejoin="round" stroke-width="1.5"></path></g></svg>