<?xml version="1.0" encoding="UTF-8"?>
<svg id="Layer_1" xmlns="http://www.w3.org/2000/svg" version="1.1" viewBox="0 0 250 250">
  <!-- Generator: Adobe Illustrator 29.6.0, SVG Export Plug-In . SVG Version: 2.1.1 Build 207)  -->
  <defs>
    <style>
      .st0 {
        fill: #0f2b4d;
      }
    </style>
  </defs>
  <path class="st0" d="M125,250c-51.7,0-93.8-42.1-93.8-93.8S73.3,62.5,125,62.5s93.8,42.1,93.8,93.8-42.1,93.8-93.8,93.8ZM125,78.1c-43.1,0-78.1,35-78.1,78.1s35,78.1,78.1,78.1,78.1-35,78.1-78.1-35-78.1-78.1-78.1Z"/>
  <path class="st0" d="M155.3,205.4c-2.4,0-4.9-.6-7-1.9l-23.3-13.2-23.4,13.1c-3.2,1.8-6.9,2.3-10.5,1.4-3.6-1-6.6-3.3-8.5-6.5-2.2-3.8-2.5-8.4-.8-12.4h0c0,0,9.1-21.1,9.1-21.1l-16.5-16.3c-5.5-5.3-5.6-14.1-.3-19.6,2.7-2.7,6.4-4.3,10.2-4.2h17.3l10.8-21.3s0,0,0-.1c3.6-6.8,12.2-9.4,19-5.8,2.5,1.3,4.5,3.4,5.8,5.9,0,0,0,0,0,0l10.8,21.3h17.3c0,0,.2,0,.2,0,7.5,0,13.7,6,13.9,13.5,0,3.9-1.4,7.6-4.2,10.3l-16.5,16.2,9.1,21s0,0,0,0c1.4,3.4,1.5,7.2,0,10.7-1.4,3.4-4.1,6.1-7.5,7.6-1.7.7-3.5,1.1-5.4,1.1ZM93.8,190s0,0,0,0c0,0,0,0,0,0ZM156.1,190h0s0,0,0,0ZM125,173.6c1.3,0,2.6.3,3.8,1l22.9,12.9-9.2-21.2c-1.3-3-.6-6.4,1.7-8.7l17.3-17.1h-18c-2.9,0-5.6-1.7-7-4.3l-11.6-22.8-11.6,22.8c-1.3,2.6-4,4.3-7,4.3h-18l17.3,17.1c2.3,2.3,3,5.7,1.7,8.7l-9.2,21.2,23-12.9c1.2-.7,2.5-1,3.8-1ZM164.6,137.7s0,0,0,0h0ZM85.4,137.6h0s0,0,0,0Z"/>
  <path class="st0" d="M179.7,97.8c-.9,0-1.9-.2-2.8-.5-4-1.5-6.1-6-4.5-10.1l27.2-71.6H50.4l27.2,71.6c1.5,4-.5,8.5-4.5,10.1-4,1.5-8.5-.5-10.1-4.5L31.8,10.6c-.9-2.4-.6-5.1.9-7.2,1.5-2.1,3.9-3.4,6.4-3.4h171.9c2.6,0,5,1.3,6.4,3.4,1.5,2.1,1.8,4.8.9,7.2l-31.2,82.1c-1.2,3.1-4.2,5-7.3,5Z"/>
  <path class="st0" d="M105.5,80.3c-3.7,0-7-2.6-7.7-6.4l-11.8-64.7c-.8-4.2,2-8.3,6.3-9.1,4.2-.8,8.3,2,9.1,6.3l11.8,64.7c.8,4.2-2,8.3-6.3,9.1-.5,0-.9.1-1.4.1Z"/>
  <path class="st0" d="M144.5,80.3c-.5,0-.9,0-1.4-.1-4.2-.8-7.1-4.8-6.3-9.1l11.8-64.7c.8-4.2,4.8-7.1,9.1-6.3,4.2.8,7.1,4.8,6.3,9.1l-11.8,64.7c-.7,3.8-4,6.4-7.7,6.4Z"/>
</svg>