<svg id="Layer_1" data-name="Layer 1" xmlns="http://www.w3.org/2000/svg" viewBox="0 0 140 140">
  <title>Artboard 4</title>
  <g>
    <path d="M24.7,46.2a17,17,0,1,1,16.9-17A17,17,0,0,1,24.7,46.2Zm0-27.2A10.2,10.2,0,1,0,34.9,29.2,10.3,10.3,0,0,0,24.7,19Z" fill="#002a4e"/>
    <path d="M56.4,127.8h0a12.5,12.5,0,0,1-11.1-6.9l-4.1-8.1a5.5,5.5,0,0,0-5-3.2H24.7A12.4,12.4,0,0,1,12.2,97.2V60.9A12.5,12.5,0,0,1,24.7,48.5h0a12.4,12.4,0,0,1,6.9,2.1l6.7,4.5a14.8,14.8,0,0,0,8.2,2.4h9.9a12.5,12.5,0,0,1,0,24.9h-10a40.8,40.8,0,0,1-9.3-1.1v3.5a30.2,30.2,0,0,1,26.4,16.9l4,8.1a12.1,12.1,0,0,1,.7,9.5,12.2,12.2,0,0,1-6.2,7.2A13.5,13.5,0,0,1,56.4,127.8Zm0-6.8h0a5.8,5.8,0,0,0,2.6-.6,5.7,5.7,0,0,0,2.5-7.6l-4-8.1A23.6,23.6,0,0,0,36.2,91.5H33.7a3.4,3.4,0,0,1-3.3-3.4V76.7A3.2,3.2,0,0,1,31.8,74a3.4,3.4,0,0,1,3.1-.4,32.5,32.5,0,0,0,11.5,2.1h10A5.8,5.8,0,0,0,62.1,70a5.7,5.7,0,0,0-5.7-5.7H46.5a21.6,21.6,0,0,1-11.9-3.6l-6.8-4.5a5.7,5.7,0,0,0-3.1-1h0A5.7,5.7,0,0,0,19,60.9V97.2a5.7,5.7,0,0,0,5.7,5.7H36.2a12.4,12.4,0,0,1,11.1,6.9l4,8.1a5.7,5.7,0,0,0,5.1,3.1Z" fill="#002a4e"/>
    <path d="M24.7,109.6H6.5a3.4,3.4,0,0,1,0-6.7H24.7a3.4,3.4,0,0,1,0,6.7Z" fill="#002a4e"/>
    <path d="M119.9,82.4H56.4a3.4,3.4,0,1,1,0-6.7h63.5a3.4,3.4,0,0,1,0,6.7Z" fill="#002a4e"/>
    <path d="M88.1,127.8a3.4,3.4,0,0,1-3.3-3.4V79.1a3.4,3.4,0,1,1,6.7,0v45.3A3.4,3.4,0,0,1,88.1,127.8Z" fill="#002a4e"/>
    <path d="M119.9,64.3H83.6a3.4,3.4,0,1,1,0-6.7h34l12.8-29.7a3.4,3.4,0,0,1,6.2,2.6L123,62.3A3.5,3.5,0,0,1,119.9,64.3Z" fill="#002a4e"/>
    <path d="M20.1,127.8a3.4,3.4,0,0,1-3.3-3.4V106.3a3.4,3.4,0,1,1,6.7,0v18.1A3.4,3.4,0,0,1,20.1,127.8Z" fill="#002a4e"/>
  </g>
</svg>
