<?xml version="1.0" encoding="UTF-8"?>
<svg id="Layer_1" xmlns="http://www.w3.org/2000/svg" version="1.1" viewBox="0 0 140 140">
  <!-- Generator: Adobe Illustrator 29.6.0, SVG Export Plug-In . SVG Version: 2.1.1 Build 207)  -->
  <defs>
    <style>
      .st0 {
        fill: #0f2b4d;
      }
    </style>
  </defs>
  <path class="st0" d="M59.2,104.1c-2.3,0-4.7-.9-6.5-2.7,0,0,0,0,0,0,0,0,0,0,0,0l-10.9-10.9c-1.7-1.7-1.7-4.5,0-6.2,1.7-1.7,4.5-1.7,6.2,0l10.9,10.9s0,0,0,0h0c0,0,.2.1.3.1h0c.1,0,.2,0,.3-.1l32.6-32.6c1.7-1.7,4.5-1.7,6.2,0,1.7,1.7,1.7,4.5,0,6.2l-32.6,32.6c-1.8,1.8-4.1,2.7-6.5,2.7Z"/>
  <path class="st0" d="M113.8,140.1H26.2c-7.2,0-13.1-5.9-13.1-13.1V35.1c0-7.2,5.9-13.1,13.1-13.1h17.9C46.2,9.5,57,0,70,0s23.8,9.5,25.9,21.9h17.9c7.2,0,13.1,5.9,13.1,13.1v91.9c0,7.2-5.9,13.1-13.1,13.1ZM26.2,30.7c-2.4,0-4.4,2-4.4,4.4v91.9c0,2.4,2,4.4,4.4,4.4h87.5c2.4,0,4.4-2,4.4-4.4V35.1c0-2.4-2-4.4-4.4-4.4h-21.9c-2.4,0-4.4-2-4.4-4.4,0-9.6-7.9-17.5-17.5-17.5s-17.5,7.9-17.5,17.5-2,4.4-4.4,4.4h-21.9ZM96.2,26.3h0,0Z"/>
  <path class="st0" d="M70,30.7c-.3,0-.7,0-1,0-1.7-.3-3.3-1.2-4.3-2.6-1-1.4-1.5-3.1-1.2-4.9.6-3.6,3.9-6,7.5-5.5h0c3.6.6,6,3.9,5.5,7.5-.5,3.2-3.3,5.6-6.5,5.6ZM69.7,26.3c1.2.2,2.3-.6,2.5-1.8.2-1.2-.6-2.3-1.8-2.5h0c-1.2-.2-2.3.6-2.5,1.8-.2,1.2.6,2.3,1.8,2.5h0Z"/>
</svg>