<?xml version="1.0" encoding="UTF-8"?>
<svg id="Layer_1" xmlns="http://www.w3.org/2000/svg" version="1.1" viewBox="0 0 140 140">
  <!-- Generator: Adobe Illustrator 29.6.0, SVG Export Plug-In . SVG Version: 2.1.1 Build 207)  -->
  <defs>
    <style>
      .st0 {
        fill: #0f2b4d;
      }
    </style>
  </defs>
  <path class="st0" d="M135.6,140H4.4c-2.4,0-4.4-2-4.4-4.4V21.9c0-2.4,2-4.4,4.4-4.4h131.2c2.4,0,4.4,2,4.4,4.4v113.8c0,2.4-2,4.4-4.4,4.4ZM8.8,131.2h122.5V26.2H8.8v105Z"/>
  <path class="st0" d="M135.6,61.2H4.4c-2.4,0-4.4-2-4.4-4.4s2-4.4,4.4-4.4h131.2c2.4,0,4.4,2,4.4,4.4s-2,4.4-4.4,4.4Z"/>
  <path class="st0" d="M39.4,39.4c-2.4,0-4.4-2-4.4-4.4V4.4c0-2.4,2-4.4,4.4-4.4s4.4,2,4.4,4.4v30.6c0,2.4-2,4.4-4.4,4.4Z"/>
  <path class="st0" d="M100.6,39.4c-2.4,0-4.4-2-4.4-4.4V4.4c0-2.4,2-4.4,4.4-4.4s4.4,2,4.4,4.4v30.6c0,2.4-2,4.4-4.4,4.4Z"/>
  <path class="st0" d="M32.8,83.1c-.3,0-.6,0-.9,0-.3,0-.6-.1-.8-.2-.3-.1-.5-.2-.8-.4-.2-.2-.5-.3-.7-.5-.2-.2-.4-.4-.5-.7-.2-.2-.3-.5-.4-.8-.1-.3-.2-.5-.2-.8,0-.3,0-.6,0-.9s0-.6,0-.9c0-.3.1-.6.2-.8.1-.3.2-.5.4-.8.1-.2.3-.5.5-.7.2-.2.4-.4.7-.6.2-.1.5-.3.8-.4.3-.1.5-.2.8-.2.6-.1,1.1-.1,1.7,0,.3,0,.5.1.8.2.3.1.5.2.8.4.2.2.5.4.7.6.2.2.4.4.5.7.2.2.3.5.4.8.1.3.2.5.2.8,0,.3,0,.6,0,.9s0,.6,0,.9c0,.3-.1.6-.2.8-.1.3-.2.5-.4.8-.2.2-.3.5-.5.7s-.4.4-.7.5c-.2.2-.5.3-.8.4-.3.1-.5.2-.8.2-.3,0-.6,0-.9,0Z"/>
  <path class="st0" d="M32.8,87.5c-3.6,0-6.6-2.9-6.6-6.6s2.9-6.6,6.6-6.6,6.6,2.9,6.6,6.6-2.9,6.6-6.6,6.6ZM32.8,78.8c-1.2,0-2.2,1-2.2,2.2s1,2.2,2.2,2.2,2.2-1,2.2-2.2-1-2.2-2.2-2.2Z"/>
  <path class="st0" d="M32.8,113.8c-.3,0-.6,0-.9,0-.3,0-.6-.2-.8-.2-.3-.1-.5-.2-.8-.4-.2-.2-.5-.3-.7-.5-.2-.2-.4-.4-.5-.7-.2-.2-.3-.5-.4-.8-.1-.3-.2-.5-.2-.8,0-.3,0-.6,0-.8s0-.6,0-.9c0-.3.1-.5.2-.8.1-.3.2-.5.4-.8.1-.2.3-.5.5-.7.2-.2.4-.4.7-.5.2-.2.5-.3.8-.4.3-.1.5-.2.8-.2.6-.1,1.1-.1,1.7,0,.3,0,.5.1.8.2.3,0,.5.2.8.4.2.2.5.3.7.5.2.2.4.4.5.7.2.2.3.5.4.8.1.3.2.5.2.8,0,.3,0,.6,0,.9s0,.6,0,.8c0,.3-.1.6-.2.8-.1.3-.2.5-.4.8-.2.2-.3.5-.5.7-.2.2-.4.4-.7.5-.2.2-.5.3-.8.4-.3,0-.5.2-.8.2-.3,0-.6,0-.9,0Z"/>
  <path class="st0" d="M32.8,118.1c-3.6,0-6.6-2.9-6.6-6.6s2.9-6.6,6.6-6.6,6.6,2.9,6.6,6.6-2.9,6.6-6.6,6.6ZM32.8,109.4c-1.2,0-2.2,1-2.2,2.2s1,2.2,2.2,2.2,2.2-1,2.2-2.2-1-2.2-2.2-2.2Z"/>
  <path class="st0" d="M70,83.1c-.3,0-.6,0-.9,0-.3,0-.6-.1-.8-.2-.3-.1-.5-.2-.8-.4s-.5-.3-.7-.5c-.2-.2-.4-.4-.5-.7-.1-.2-.3-.5-.4-.8-.1-.3-.2-.5-.2-.8,0-.3,0-.6,0-.9s0-.6,0-.9c0-.3.1-.6.2-.8.1-.3.2-.5.4-.8.2-.2.4-.5.5-.7.2-.2.4-.4.7-.6.2-.1.5-.3.8-.4.3-.1.5-.2.8-.2.6-.1,1.1-.1,1.7,0,.3,0,.6.1.8.2.3.1.5.2.8.4.2.2.5.4.7.6.2.2.4.4.5.7.2.2.3.5.4.8.1.3.2.5.2.8,0,.3,0,.6,0,.9s0,.6,0,.9c0,.3-.1.6-.2.8-.1.3-.2.5-.4.8s-.3.5-.5.7c-.2.2-.4.4-.7.5s-.5.3-.8.4c-.3.1-.5.2-.8.2-.3,0-.6,0-.9,0Z"/>
  <path class="st0" d="M70,87.5c-3.6,0-6.6-2.9-6.6-6.6s2.9-6.6,6.6-6.6,6.6,2.9,6.6,6.6-2.9,6.6-6.6,6.6ZM70,78.8c-1.2,0-2.2,1-2.2,2.2s1,2.2,2.2,2.2,2.2-1,2.2-2.2-1-2.2-2.2-2.2Z"/>
  <path class="st0" d="M70,113.8c-1.2,0-2.3-.5-3.1-1.3-.2-.2-.4-.4-.5-.7-.1-.2-.3-.5-.4-.8-.1-.3-.2-.5-.2-.8,0-.3,0-.6,0-.8s0-.6,0-.9c0-.3.1-.5.2-.8.1-.3.2-.5.4-.8.2-.2.4-.5.5-.7,1-1,2.5-1.5,3.9-1.2.3,0,.6.1.8.2.3,0,.5.2.8.4.2.2.5.3.7.5.2.2.4.4.5.7.2.2.3.5.4.8.1.3.2.5.2.8,0,.3,0,.6,0,.9s0,.6,0,.8c0,.3-.1.6-.2.8-.1.3-.2.5-.4.8-.2.2-.3.5-.5.7-.2.2-.4.4-.7.5s-.5.3-.8.4c-.3,0-.5.2-.8.2-.3,0-.6,0-.8,0Z"/>
  <path class="st0" d="M70,118.1c-3.6,0-6.6-2.9-6.6-6.6s2.9-6.6,6.6-6.6,6.6,2.9,6.6,6.6-2.9,6.6-6.6,6.6ZM70,109.4c-1.2,0-2.2,1-2.2,2.2s1,2.2,2.2,2.2,2.2-1,2.2-2.2-1-2.2-2.2-2.2Z"/>
  <path class="st0" d="M107.2,83.1c-1.2,0-2.3-.5-3.1-1.3s-1.3-1.9-1.3-3.1,0-.6,0-.9c0-.3.1-.6.2-.8.1-.3.2-.5.4-.8.2-.2.3-.5.5-.7.8-.8,1.9-1.3,3.1-1.3s2.3.5,3.1,1.3c.2.2.4.4.5.7.1.2.3.5.4.8.1.3.2.5.2.8,0,.3,0,.6,0,.9,0,1.1-.5,2.3-1.3,3.1-.8.8-1.9,1.3-3.1,1.3Z"/>
  <path class="st0" d="M107.2,87.5c-3.6,0-6.6-2.9-6.6-6.6s2.9-6.6,6.6-6.6,6.6,2.9,6.6,6.6-2.9,6.6-6.6,6.6ZM107.2,78.8c-1.2,0-2.2,1-2.2,2.2s1,2.2,2.2,2.2,2.2-1,2.2-2.2-1-2.2-2.2-2.2Z"/>
  <path class="st0" d="M107.2,113.8c-.3,0-.6,0-.9,0-.3,0-.5-.2-.8-.2-.3-.1-.5-.2-.8-.4s-.5-.3-.7-.5c-.2-.2-.4-.4-.5-.7-.2-.2-.3-.5-.4-.8-.1-.3-.2-.5-.2-.8,0-.3,0-.6,0-.8s0-.6,0-.9c0-.3.1-.5.2-.8.1-.3.2-.5.4-.8.2-.2.3-.5.5-.7.2-.2.4-.4.7-.5.2-.2.5-.3.8-.4.3-.1.5-.2.8-.2.6-.1,1.1-.1,1.7,0,.3,0,.6.1.8.2.3,0,.5.2.8.4.2.2.5.3.7.5s.4.4.5.7c.1.2.3.5.4.8.1.3.2.5.2.8,0,.3,0,.6,0,.9s0,.6,0,.8c0,.3-.1.6-.2.8-.1.3-.2.5-.4.8-.2.2-.4.5-.5.7-.2.2-.4.4-.7.5-.2.2-.5.3-.8.4-.3,0-.5.2-.8.2-.3,0-.6,0-.9,0Z"/>
  <path class="st0" d="M107.2,118.1c-3.6,0-6.6-2.9-6.6-6.6s2.9-6.6,6.6-6.6,6.6,2.9,6.6,6.6-2.9,6.6-6.6,6.6ZM107.2,109.4c-1.2,0-2.2,1-2.2,2.2s1,2.2,2.2,2.2,2.2-1,2.2-2.2-1-2.2-2.2-2.2Z"/>
</svg>