<svg viewBox="0 0 140 140" height="140" width="140" xmlns="http://www.w3.org/2000/svg"><g transform="matrix(5.833333333333333,0,0,5.833333333333333,0,0)"><path d="M12.75,14.25v6.268a2.732,2.732,0,0,1-2.732,2.732H3.483A2.733,2.733,0,0,1,.75,20.518V4.983A2.734,2.734,0,0,1,3.483,2.25H6" fill="none" stroke="#0F2B4D" stroke-linecap="round" stroke-linejoin="round" stroke-width="1.5"></path><path d="M0.75 18.75L12.75 18.75" fill="none" stroke="#0F2B4D" stroke-linecap="round" stroke-linejoin="round" stroke-width="1.5"></path><path d="M20.25.75H12a3,3,0,0,0-3,3v4.5a3,3,0,0,0,3,3h3.75V15l3.75-3.75h.75a3,3,0,0,0,3-3V3.75A3,3,0,0,0,20.25.75Z" fill="none" stroke="#0F2B4D" stroke-linecap="round" stroke-linejoin="round" stroke-width="1.5"></path><path d="M12.375 5.625L12.375 5.625" fill="none" stroke="#0F2B4D" stroke-linecap="round" stroke-linejoin="round" stroke-width="1.5"></path><path d="M12.375,5.625A.375.375,0,1,0,12.75,6a.375.375,0,0,0-.375-.375" fill="none" stroke="#0F2B4D" stroke-linecap="round" stroke-linejoin="round" stroke-width="1.5"></path><path d="M16.125 5.625L16.125 5.625" fill="none" stroke="#0F2B4D" stroke-linecap="round" stroke-linejoin="round" stroke-width="1.5"></path><path d="M16.125,5.625A.375.375,0,1,0,16.5,6a.375.375,0,0,0-.375-.375" fill="none" stroke="#0F2B4D" stroke-linecap="round" stroke-linejoin="round" stroke-width="1.5"></path><path d="M19.875 5.625L19.875 5.625" fill="none" stroke="#0F2B4D" stroke-linecap="round" stroke-linejoin="round" stroke-width="1.5"></path><path d="M19.875,5.625A.375.375,0,1,0,20.25,6a.375.375,0,0,0-.375-.375" fill="none" stroke="#0F2B4D" stroke-linecap="round" stroke-linejoin="round" stroke-width="1.5"></path></g></svg>