<svg viewBox="0 0 140 140" height="140" width="140" xmlns="http://www.w3.org/2000/svg"><g transform="matrix(5.833333333333333,0,0,5.833333333333333,0,0)"><path d="M14.250 10.500 L23.250 10.500 L23.250 18.000 L14.250 18.000 Z" fill="none" stroke="#0F2B4D" stroke-linecap="round" stroke-linejoin="round" stroke-width="1.5"></path><path d="M15.75,10.5V9a3,3,0,0,1,3-3h0a3,3,0,0,1,3,3v1.5" fill="none" stroke="#0F2B4D" stroke-linecap="round" stroke-linejoin="round" stroke-width="1.5"></path><path d="M18.75,13.875a.375.375,0,1,0,.375.375.374.374,0,0,0-.375-.375h0" fill="none" stroke="#0F2B4D" stroke-linecap="round" stroke-linejoin="round" stroke-width="1.5"></path><path d="M4.125,13.875a.375.375,0,1,0,.375.375.374.374,0,0,0-.375-.375h0" fill="none" stroke="#0F2B4D" stroke-linecap="round" stroke-linejoin="round" stroke-width="1.5"></path><path d="M7.875,13.875a.375.375,0,1,0,.375.375.374.374,0,0,0-.375-.375h0" fill="none" stroke="#0F2B4D" stroke-linecap="round" stroke-linejoin="round" stroke-width="1.5"></path><path d="M11.25,18h-9a1.5,1.5,0,0,1-1.5-1.5v-6A1.5,1.5,0,0,1,2.25,9h9" fill="none" stroke="#0F2B4D" stroke-linecap="round" stroke-linejoin="round" stroke-width="1.5"></path></g></svg>