<svg viewBox="0 0 140 140" height="140" width="140" xmlns="http://www.w3.org/2000/svg"><g transform="matrix(5.833333333333333,0,0,5.833333333333333,0,0)"><path d="M15.752 16.503 A1.500 1.500 0 1 0 18.752 16.503 A1.500 1.500 0 1 0 15.752 16.503 Z" fill="none" stroke="#0F2B4D" stroke-linecap="round" stroke-linejoin="round" stroke-width="1.5"></path><path d="M18.526,10.7l.443,1.452a.992.992,0,0,0,1.173.681l1.472-.341a1.339,1.339,0,0,1,1.275,2.218l-1.031,1.111a1,1,0,0,0,0,1.363L22.889,18.3a1.339,1.339,0,0,1-1.275,2.218l-1.472-.341a.992.992,0,0,0-1.173.681l-.443,1.452a1.33,1.33,0,0,1-2.548,0l-.442-1.452a.993.993,0,0,0-1.174-.681l-1.472.341A1.339,1.339,0,0,1,11.615,18.3l1.031-1.111a1,1,0,0,0,0-1.363l-1.031-1.111a1.339,1.339,0,0,1,1.275-2.218l1.472.341a.993.993,0,0,0,1.174-.681l.442-1.452A1.33,1.33,0,0,1,18.526,10.7Z" fill="none" stroke="#0F2B4D" stroke-linecap="round" stroke-linejoin="round" stroke-width="1.5"></path><path d="M8.252,20.253h-6a1.5,1.5,0,0,1-1.5-1.5V2.253a1.5,1.5,0,0,1,1.5-1.5H12.881a1.5,1.5,0,0,1,1.06.44l2.872,2.871a1.5,1.5,0,0,1,.439,1.061V6.753" fill="none" stroke="#0F2B4D" stroke-linecap="round" stroke-linejoin="round" stroke-width="1.5"></path><path d="M9.002 6.003L11.252 8.253 9.002 10.503" fill="none" stroke="#0F2B4D" stroke-linecap="round" stroke-linejoin="round" stroke-width="1.5"></path><path d="M6.002 6.003L3.752 8.253 6.002 10.503" fill="none" stroke="#0F2B4D" stroke-linecap="round" stroke-linejoin="round" stroke-width="1.5"></path></g></svg>