<?xml version="1.0" encoding="UTF-8"?>
<svg id="Layer_1" xmlns="http://www.w3.org/2000/svg" version="1.1" viewBox="0 0 140 140">
  <!-- Generator: Adobe Illustrator 29.6.0, SVG Export Plug-In . SVG Version: 2.1.1 Build 207)  -->
  <defs>
    <style>
      .st0 {
        fill: #0f2b4d;
      }
    </style>
  </defs>
  <path class="st0" d="M68.1,88.7c-1.1,0-2.2-.4-3.1-1.3l-18.6-18.6c-.8-.8-1.3-1.9-1.3-3.1s.5-2.3,1.3-3.1l37.1-37.1c1.7-1.7,4.5-1.7,6.2,0l18.6,18.6c.8.8,1.3,1.9,1.3,3.1s-.5,2.3-1.3,3.1l-37.1,37.1c-.9.9-2,1.3-3.1,1.3ZM55.7,65.7l12.4,12.4,30.9-30.9-12.4-12.4-30.9,30.9Z"/>
  <path class="st0" d="M105.2,76.3c-1.1,0-2.2-.4-3.1-1.3-1.7-1.7-1.7-4.5,0-6.2l27.8-27.8c1.7-1.7,1.7-4.5,0-6.2l-6.2-6.2c-1.7-1.7-1.7-4.5,0-6.2,1.7-1.7,4.5-1.7,6.2,0l6.2,6.2c5.1,5.1,5.1,13.4,0,18.6l-27.8,27.8c-.9.9-2,1.3-3.1,1.3Z"/>
  <path class="st0" d="M105.2,51.5c-1.1,0-2.2-.4-3.1-1.3-1.7-1.7-1.7-4.5,0-6.2l21.7-21.7c1.7-1.7,1.7-4.5,0-6.2l-6.2-6.2c-1.7-1.7-4.5-1.7-6.2,0l-21.7,21.6c-1.7,1.7-4.5,1.7-6.2,0-1.7-1.7-1.7-4.5,0-6.2L105.2,3.8c5.1-5.1,13.4-5.1,18.6,0l6.2,6.2c5.1,5.1,5.1,13.4,0,18.6l-21.7,21.7c-.9.9-2,1.3-3.1,1.3Z"/>
  <path class="st0" d="M34,104.1c-1.2,0-2.3-.5-3.1-1.3-.9-.9-1.3-2.1-1.3-3.3.2-3.6,1.5-21.6,7.5-27.6,6.8-6.8,17.9-6.8,24.7,0,3.3,3.3,5.1,7.7,5.1,12.4s-1.8,9.1-5.1,12.4h0c-6,6-24,7.3-27.6,7.5,0,0-.2,0-.2,0ZM49.5,75.5c-2.2,0-4.5.9-6.2,2.6-2,2-3.7,9.5-4.5,16.9,7.4-.8,14.9-2.5,16.9-4.5h0c1.7-1.7,2.6-3.8,2.6-6.2s-.9-4.5-2.6-6.2c-1.7-1.7-3.9-2.6-6.2-2.6Z"/>
  <path class="st0" d="M109.4,140H17.5c-9.6,0-17.5-7.9-17.5-17.5s7.9-17.5,17.5-17.5h4.4c2.4,0,4.4,2,4.4,4.4s-2,4.4-4.4,4.4h-4.4c-4.8,0-8.8,3.9-8.8,8.8s3.9,8.8,8.8,8.8h91.9c2.4,0,4.4,2,4.4,4.4s-2,4.4-4.4,4.4Z"/>
</svg>