<svg viewBox="0 0 140 140" height="140" width="140" xmlns="http://www.w3.org/2000/svg"><g transform="matrix(5.833333333333333,0,0,5.833333333333333,0,0)"><path d="M18.750 3.000 A2.250 2.250 0 1 0 23.250 3.000 A2.250 2.250 0 1 0 18.750 3.000 Z" fill="none" stroke="#0F2B4D" stroke-linecap="round" stroke-linejoin="round" stroke-width="1.5"></path><path d="M18.750 12.000 A2.250 2.250 0 1 0 23.250 12.000 A2.250 2.250 0 1 0 18.750 12.000 Z" fill="none" stroke="#0F2B4D" stroke-linecap="round" stroke-linejoin="round" stroke-width="1.5"></path><path d="M14.25 12L18.75 12" fill="none" stroke="#0F2B4D" stroke-linecap="round" stroke-linejoin="round" stroke-width="1.5"></path><path d="M14.25 7.5L19.132 4.253" fill="none" stroke="#0F2B4D" stroke-linecap="round" stroke-linejoin="round" stroke-width="1.5"></path><path d="M18.750 21.000 A2.250 2.250 0 1 0 23.250 21.000 A2.250 2.250 0 1 0 18.750 21.000 Z" fill="none" stroke="#0F2B4D" stroke-linecap="round" stroke-linejoin="round" stroke-width="1.5"></path><path d="M14.25 16.5L19.132 19.746" fill="none" stroke="#0F2B4D" stroke-linecap="round" stroke-linejoin="round" stroke-width="1.5"></path><path d="M0.750 9.750 L11.250 9.750 L11.250 17.250 L0.750 17.250 Z" fill="none" stroke="#0F2B4D" stroke-linecap="round" stroke-linejoin="round" stroke-width="1.5"></path><path d="M6,13.125a.375.375,0,1,0,.375.375A.374.374,0,0,0,6,13.125H6" fill="none" stroke="#0F2B4D" stroke-linecap="round" stroke-linejoin="round" stroke-width="1.5"></path><path d="M2.25,9.75V7.5a3.75,3.75,0,0,1,7.5,0V9.75" fill="none" stroke="#0F2B4D" stroke-linecap="round" stroke-linejoin="round" stroke-width="1.5"></path></g></svg>