<?xml version="1.0" encoding="UTF-8"?>
<svg id="Layer_1" xmlns="http://www.w3.org/2000/svg" version="1.1" viewBox="0 0 140 140">
  <!-- Generator: Adobe Illustrator 29.6.0, SVG Export Plug-In . SVG Version: 2.1.1 Build 207)  -->
  <defs>
    <style>
      .st0 {
        fill: #0f2b4d;
      }
    </style>
  </defs>
  <path class="st0" d="M39.4,61.3C16.9,61.3,0,51.9,0,39.4s16.9-21.9,39.4-21.9,39.4,9.4,39.4,21.9-16.9,21.9-39.4,21.9ZM39.4,26.3c-17.5,0-30.6,6.9-30.6,13.1s13.1,13.1,30.6,13.1,30.6-6.9,30.6-13.1-13.1-13.1-30.6-13.1Z"/>
  <path class="st0" d="M39.4,87.5c-22.4,0-39.4-9.4-39.4-21.9v-26.2c0-2.4,2-4.4,4.4-4.4s4.4,2,4.4,4.4v26.2c0,6.2,13.1,13.1,30.6,13.1s30.6-6.9,30.6-13.1v-26.2c0-2.4,2-4.4,4.4-4.4s4.4,2,4.4,4.4v26.2c0,12.5-16.9,21.9-39.4,21.9Z"/>
  <path class="st0" d="M39.4,113.8c-22.4,0-39.4-9.4-39.4-21.9v-26.2c0-2.4,2-4.4,4.4-4.4s4.4,2,4.4,4.4v26.2c0,6.2,13.1,13.1,30.6,13.1s30.6-6.9,30.6-13.1v-26.2c0-2.4,2-4.4,4.4-4.4s4.4,2,4.4,4.4v26.2c0,12.5-16.9,21.9-39.4,21.9Z"/>
  <path class="st0" d="M74.4,61.3c-1.1,0-2.2-.4-3.1-1.3-1.7-1.7-1.7-4.5,0-6.2l17.5-17.5c1.7-1.7,4.5-1.7,6.2,0,1.7,1.7,1.7,4.5,0,6.2l-17.5,17.5c-.9.9-2,1.3-3.1,1.3Z"/>
  <path class="st0" d="M113.8,35c-14.7,0-26.2-7.7-26.2-17.5S99,0,113.8,0s26.2,7.7,26.2,17.5-11.5,17.5-26.2,17.5ZM113.8,8.8c-10,0-17.5,4.6-17.5,8.8s7.5,8.8,17.5,8.8,17.5-4.6,17.5-8.8-7.5-8.8-17.5-8.8Z"/>
  <path class="st0" d="M113.8,61.2c-14.7,0-26.2-7.7-26.2-17.5v-26.2c0-2.4,2-4.4,4.4-4.4s4.4,2,4.4,4.4v26.2c0,4.1,7.5,8.8,17.5,8.8s17.5-4.6,17.5-8.8v-26.2c0-2.4,2-4.4,4.4-4.4s4.4,2,4.4,4.4v26.2c0,9.8-11.5,17.5-26.2,17.5Z"/>
  <path class="st0" d="M91.9,122.5c-1.1,0-2.2-.4-3.1-1.3l-19.9-19.9c-1.7-1.7-1.7-4.5,0-6.2,1.7-1.7,4.5-1.7,6.2,0l19.9,19.9c1.7,1.7,1.7,4.5,0,6.2-.9.9-2,1.3-3.1,1.3Z"/>
  <path class="st0" d="M113.8,113.8c-14.7,0-26.2-7.7-26.2-17.5s11.5-17.5,26.2-17.5,26.2,7.7,26.2,17.5-11.5,17.5-26.2,17.5ZM113.8,87.5c-10,0-17.5,4.6-17.5,8.8s7.5,8.8,17.5,8.8,17.5-4.6,17.5-8.8-7.5-8.8-17.5-8.8Z"/>
  <path class="st0" d="M113.8,140c-14.7,0-26.2-7.7-26.2-17.5v-26.2c0-2.4,2-4.4,4.4-4.4s4.4,2,4.4,4.4v26.2c0,4.1,7.5,8.8,17.5,8.8s17.5-4.6,17.5-8.8v-26.2c0-2.4,2-4.4,4.4-4.4s4.4,2,4.4,4.4v26.2c0,9.8-11.5,17.5-26.2,17.5Z"/>
</svg>