<svg viewBox="0 0 140 140" height="140" width="140" xmlns="http://www.w3.org/2000/svg"><g transform="matrix(5.833333333333333,0,0,5.833333333333333,0,0)"><path d="M15.750 4.625 A3.125 3.125 0 1 0 22.000 4.625 A3.125 3.125 0 1 0 15.750 4.625 Z" fill="none" stroke="#0F2B4D" stroke-linecap="round" stroke-linejoin="round" stroke-width="1.5"></path><path d="M21.085 6.834L23.25 9" fill="none" stroke="#0F2B4D" stroke-linecap="round" stroke-linejoin="round" stroke-width="1.5"></path><path d="M12.75,7.5H2.25A1.5,1.5,0,0,1,.75,6V4.5A1.5,1.5,0,0,1,2.25,3h10.5" fill="none" stroke="#0F2B4D" stroke-linecap="round" stroke-linejoin="round" stroke-width="1.5"></path><path d="M2.625,11.25a.375.375,0,1,1-.375.375.375.375,0,0,1,.375-.375" fill="none" stroke="#0F2B4D" stroke-linecap="round" stroke-linejoin="round" stroke-width="1.5"></path><path d="M6 12L18 12" fill="none" stroke="#0F2B4D" stroke-linecap="round" stroke-linejoin="round" stroke-width="1.5"></path><path d="M2.625,16.5a.375.375,0,1,1-.375.375.375.375,0,0,1,.375-.375" fill="none" stroke="#0F2B4D" stroke-linecap="round" stroke-linejoin="round" stroke-width="1.5"></path><path d="M6 17.25L18 17.25" fill="none" stroke="#0F2B4D" stroke-linecap="round" stroke-linejoin="round" stroke-width="1.5"></path><path d="M2.625,21.75a.375.375,0,1,1-.375.375.375.375,0,0,1,.375-.375" fill="none" stroke="#0F2B4D" stroke-linecap="round" stroke-linejoin="round" stroke-width="1.5"></path><path d="M6 22.5L18 22.5" fill="none" stroke="#0F2B4D" stroke-linecap="round" stroke-linejoin="round" stroke-width="1.5"></path></g></svg>