<?xml version="1.0" encoding="UTF-8"?>
<svg id="Layer_1" xmlns="http://www.w3.org/2000/svg" version="1.1" viewBox="0 0 140 140">
  <!-- Generator: Adobe Illustrator 29.6.0, SVG Export Plug-In . SVG Version: 2.1.1 Build 207)  -->
  <defs>
    <style>
      .st0 {
        fill: #0f2b4d;
      }
    </style>
  </defs>
  <path class="st0" d="M122.5,35c-9.6,0-17.5-7.9-17.5-17.5S112.9,0,122.5,0s17.5,7.9,17.5,17.5-7.9,17.5-17.5,17.5ZM122.5,8.8c-4.8,0-8.8,3.9-8.8,8.8s3.9,8.8,8.8,8.8,8.8-3.9,8.8-8.8-3.9-8.8-8.8-8.8Z"/>
  <path class="st0" d="M122.5,87.5c-9.6,0-17.5-7.9-17.5-17.5s7.9-17.5,17.5-17.5,17.5,7.9,17.5,17.5-7.9,17.5-17.5,17.5ZM122.5,61.2c-4.8,0-8.8,3.9-8.8,8.8s3.9,8.8,8.8,8.8,8.8-3.9,8.8-8.8-3.9-8.8-8.8-8.8Z"/>
  <path class="st0" d="M109.4,74.4h-26.2c-2.4,0-4.4-2-4.4-4.4s2-4.4,4.4-4.4h26.2c2.4,0,4.4,2,4.4,4.4s-2,4.4-4.4,4.4Z"/>
  <path class="st0" d="M83.1,48.1c-1.4,0-2.8-.7-3.6-2-1.3-2-.8-4.7,1.2-6.1l28.5-18.9c2-1.3,4.7-.8,6.1,1.2,1.3,2,.8,4.7-1.2,6.1l-28.5,18.9c-.7.5-1.6.7-2.4.7h0Z"/>
  <path class="st0" d="M122.5,140c-9.6,0-17.5-7.9-17.5-17.5s7.9-17.5,17.5-17.5,17.5,7.9,17.5,17.5-7.9,17.5-17.5,17.5ZM122.5,113.8c-4.8,0-8.8,3.9-8.8,8.8s3.9,8.8,8.8,8.8,8.8-3.9,8.8-8.8-3.9-8.8-8.8-8.8Z"/>
  <path class="st0" d="M111.6,119.6c-.8,0-1.7-.2-2.4-.7l-28.5-18.9c-2-1.3-2.6-4.1-1.2-6.1,1.3-2,4.1-2.6,6.1-1.2l28.5,18.9c2,1.3,2.6,4.1,1.2,6.1-.8,1.3-2.2,2-3.6,2h0Z"/>
  <path class="st0" d="M65.6,105H4.4c-2.4,0-4.4-2-4.4-4.4v-43.8c0-2.4,2-4.4,4.4-4.4h61.2c2.4,0,4.4,2,4.4,4.4v43.8c0,2.4-2,4.4-4.4,4.4ZM8.8,96.2h52.5v-35H8.8v35Z"/>
  <path class="st0" d="M35,85.3c-3.6,0-6.6-2.9-6.6-6.6s2.9-6.6,6.6-6.6h0c1.8,0,3.4.7,4.6,1.9s1.9,2.9,1.9,4.6c0,3.6-2.9,6.5-6.6,6.5v.2Z"/>
  <path class="st0" d="M56.9,61.2c-2.4,0-4.4-2-4.4-4.4v-13.1c0-9.6-7.9-17.5-17.5-17.5s-17.5,7.9-17.5,17.5v13.1c0,2.4-2,4.4-4.4,4.4s-4.4-2-4.4-4.4v-13.1c0-14.5,11.8-26.2,26.2-26.2s26.2,11.8,26.2,26.2v13.1c0,2.4-2,4.4-4.4,4.4h.2Z"/>
</svg>