<?xml version="1.0" encoding="UTF-8"?>
<svg id="Layer_1" xmlns="http://www.w3.org/2000/svg" version="1.1" viewBox="0 0 140 140">
  <!-- Generator: Adobe Illustrator 29.6.0, SVG Export Plug-In . SVG Version: 2.1.1 Build 207)  -->
  <defs>
    <style>
      .st0 {
        fill: #0f2b4d;
      }
    </style>
  </defs>
  <path class="st0" d="M70,140C31.4,140,0,108.6,0,70S31.4,0,70,0s70,31.4,70,70-31.4,70-70,70ZM70,8.7c-33.8,0-61.2,27.5-61.2,61.2s27.5,61.2,61.2,61.2,61.2-27.5,61.2-61.2S103.8,8.7,70,8.7Z"/>
  <path class="st0" d="M43.8,100.6c-1.1,0-2.2-.4-3.1-1.3-1.7-1.7-1.7-4.5,0-6.2l52.5-52.5c1.7-1.7,4.5-1.7,6.2,0,1.7,1.7,1.7,4.5,0,6.2l-52.5,52.5c-.9.9-2,1.3-3.1,1.3Z"/>
  <path class="st0" d="M96.2,100.6c-1.1,0-2.2-.4-3.1-1.3l-52.5-52.5c-1.7-1.7-1.7-4.5,0-6.2,1.7-1.7,4.5-1.7,6.2,0l52.5,52.5c1.7,1.7,1.7,4.5,0,6.2-.9.9-2,1.3-3.1,1.3Z"/>
</svg>