<?xml version="1.0" encoding="UTF-8"?>
<svg id="Layer_1" xmlns="http://www.w3.org/2000/svg" version="1.1" viewBox="0 0 140 140">
  <!-- Generator: Adobe Illustrator 29.6.0, SVG Export Plug-In . SVG Version: 2.1.1 Build 207)  -->
  <defs>
    <style>
      .st0 {
        fill: #0f2b4d;
      }
    </style>
  </defs>
  <path class="st0" d="M70,61.3C30.1,61.3,0,48.1,0,30.6S30.1,0,70,0s70,13.2,70,30.6-6.8,15.9-19.1,21.4c-2.2,1-4.8,0-5.8-2.2-1-2.2,0-4.8,2.2-5.8,8.9-4,14-8.9,14-13.4,0-10.3-25.2-21.9-61.2-21.9S8.8,20.3,8.8,30.6s25.2,21.9,61.2,21.9,4.4,2,4.4,4.4-2,4.4-4.4,4.4Z"/>
  <path class="st0" d="M135.6,61.3c-2.4,0-4.4-2-4.4-4.4v-26.2c0-2.4,2-4.4,4.4-4.4s4.4,2,4.4,4.4v26.2c0,2.4-2,4.4-4.4,4.4Z"/>
  <path class="st0" d="M52.2,95.3c-.2,0-.3,0-.5,0C20.3,91.7,0,80.1,0,65.6V30.6c0-2.4,2-4.4,4.4-4.4s4.4,2,4.4,4.4v35c0,7.7,15.4,17.7,44,20.9,2.4.3,4.1,2.4,3.9,4.8-.3,2.2-2.1,3.9-4.3,3.9Z"/>
  <path class="st0" d="M52.4,130.3c-.2,0-.3,0-.5,0C20.4,126.8,0,115.1,0,100.6v-35c0-2.4,2-4.4,4.4-4.4s4.4,2,4.4,4.4v35c0,7.8,15.5,17.7,44.1,20.9,2.4.3,4.1,2.4,3.9,4.8-.2,2.2-2.1,3.9-4.3,3.9Z"/>
  <path class="st0" d="M100.6,109.4c-7.2,0-13.1-5.9-13.1-13.1s5.9-13.1,13.1-13.1,13.1,5.9,13.1,13.1-5.9,13.1-13.1,13.1ZM100.6,91.9c-2.4,0-4.4,2-4.4,4.4s2,4.4,4.4,4.4,4.4-2,4.4-4.4-2-4.4-4.4-4.4Z"/>
  <path class="st0" d="M100.6,140c-1.2,0-2.3-.2-3.5-.5-3.9-1.2-7-4.2-8.1-8.1l-2.6-8.5c-.2-.7-1-1.2-1.7-1l-8.6,2c-3.2.7-6.5.2-9.2-1.6-2.8-1.7-4.7-4.4-5.4-7.6-.9-3.9.2-8,3-11l6-6.5c.5-.6.5-1.4,0-2l-6-6.5c-4.6-4.9-4.3-12.6.6-17.2,3-2.8,7.1-3.9,11-3l8.6,2c.7.2,1.5-.3,1.7-1l2.6-8.5c.9-3.1,3-5.6,5.9-7.2,2.9-1.5,6.1-1.9,9.2-.9,3.9,1.2,7,4.2,8.1,8.1l2.6,8.5c.2.7,1,1.1,1.7,1l8.6-2c3.2-.7,6.5-.2,9.2,1.6,2.8,1.7,4.7,4.4,5.4,7.6.9,3.9-.2,8-3,11l-6,6.5c-.5.6-.5,1.4,0,2l6,6.5c4.6,4.9,4.3,12.6-.6,17.2-2.9,2.7-7.1,3.9-11,3l-8.6-2c-.7-.2-1.5.3-1.7,1l-2.6,8.5c-.9,3.1-3,5.6-5.9,7.2-1.8,1-3.8,1.5-5.7,1.5ZM85.1,113.1c4.4,0,8.4,2.9,9.7,7.2l2.6,8.5c.3,1.1,1.2,2,2.3,2.3.9.3,1.8.2,2.6-.3.8-.4,1.4-1.1,1.6-2l2.6-8.5c1.5-5.1,6.8-8.2,12-7l8.6,2c1.1.2,2.2,0,3.1-.8,1.4-1.3,1.5-3.5.2-4.9l-6-6.5c-3.6-3.9-3.6-10,0-13.9l6-6.5c.8-.8,1.1-2,.8-3.1-.4-1.8-2.3-3-4.1-2.6l-8.6,2c-5.2,1.2-10.5-1.9-12-7l-2.6-8.5s0,0,0,0c-.3-1.1-1.2-1.9-2.3-2.3-.9-.3-1.8-.2-2.6.3-.8.4-1.4,1.1-1.6,2l-2.6,8.5c-1.5,5.1-6.8,8.2-12,7l-8.6-2c-1.1-.2-2.2,0-3.1.8-1.4,1.3-1.5,3.5-.2,4.9l6,6.5c3.6,3.9,3.6,10,0,13.9l-6,6.5c-.8.8-1.1,2-.8,3.1.2.9.7,1.7,1.5,2.1.8.5,1.7.6,2.6.4l8.6-2c.8-.2,1.5-.3,2.3-.3Z"/>
</svg>