<?xml version="1.0" encoding="UTF-8"?>
<svg id="Layer_1" xmlns="http://www.w3.org/2000/svg" version="1.1" viewBox="0 0 140 140">
  <!-- Generator: Adobe Illustrator 29.6.0, SVG Export Plug-In . SVG Version: 2.1.1 Build 207)  -->
  <defs>
    <style>
      .st0 {
        fill: #102b4d;
      }
    </style>
  </defs>
  <path class="st0" d="M21.9,43.8c-1.1,0-2.2-.4-3.1-1.3L1.3,25c-1.7-1.7-1.7-4.5,0-6.2L18.8,1.3c1.7-1.7,4.5-1.7,6.2,0,1.7,1.7,1.7,4.5,0,6.2l-14.4,14.4,14.4,14.4c1.7,1.7,1.7,4.5,0,6.2-.9.9-2,1.3-3.1,1.3Z"/>
  <path class="st0" d="M70,140c-2.4,0-4.4-2-4.4-4.4V56.8c0-16.9-13.8-30.6-30.6-30.6h-.3s-30.3,0-30.3,0c-2.4,0-4.4-2-4.4-4.4s2-4.4,4.4-4.4h30.5s0,0,0,0c21.7,0,39.3,17.6,39.4,39.3v78.8c0,2.4-2,4.4-4.4,4.4Z"/>
  <path class="st0" d="M118.1,43.8c-1.1,0-2.2-.4-3.1-1.3-1.7-1.7-1.7-4.5,0-6.2l14.4-14.4-14.4-14.4c-1.7-1.7-1.7-4.5,0-6.2,1.7-1.7,4.5-1.7,6.2,0l17.5,17.5c1.7,1.7,1.7,4.5,0,6.2l-17.5,17.5c-.9.9-2,1.3-3.1,1.3Z"/>
  <path class="st0" d="M70,61.2h0c-2.4,0-4.4-2-4.4-4.4,0-21.7,17.7-39.3,39.4-39.3h.3s30.3,0,30.3,0c2.4,0,4.4,2,4.4,4.4s-2,4.4-4.4,4.4h-30.6s0,0,0,0c-16.8,0-30.6,13.7-30.6,30.6,0,2.4-2,4.4-4.4,4.4Z"/>
</svg>