<?xml version="1.0" encoding="UTF-8"?>
<svg id="Layer_1" xmlns="http://www.w3.org/2000/svg" version="1.1" viewBox="0 0 140 140">
  <!-- Generator: Adobe Illustrator 29.6.0, SVG Export Plug-In . SVG Version: 2.1.1 Build 207)  -->
  <defs>
    <style>
      .st0 {
        fill: #0f2b4d;
      }
    </style>
  </defs>
  <g>
    <path class="st0" d="M76,114.1h-23.9c-2.4,0-4.4-2-4.4-4.4v-23.8c0-2.4,2-4.4,4.4-4.4h23.9c2.4,0,4.4,2,4.4,4.4v23.8c0,2.4-2,4.4-4.4,4.4ZM56.5,105.3h15.1v-15.1h-15.1v15.1Z"/>
    <path class="st0" d="M116.1,114.1h-23.9c-2.4,0-4.4-2-4.4-4.4v-23.8c0-2.4,2-4.4,4.4-4.4h23.9c2.4,0,4.4,2,4.4,4.4v23.8c0,2.4-2,4.4-4.4,4.4ZM96.6,105.3h15.1v-15.1h-15.1v15.1Z"/>
  </g>
  <path class="st0" d="M76,73.5h-23.9c-2.4,0-4.4-2-4.4-4.4v-23.8c0-2.4,2-4.4,4.4-4.4h23.9c2.4,0,4.4,2,4.4,4.4v23.8c0,2.4-2,4.4-4.4,4.4ZM56.5,64.8h15.1v-15.1h-15.1v15.1Z"/>
  <g>
    <path class="st0" d="M92.2,53.3c-1.1,0-2-.9-2-2v-6c0-1.1.9-2,2-2h6c1.1,0,2,.9,2,2s-.9,2-2,2h-4v4c0,1.1-.9,2-2,2Z"/>
    <path class="st0" d="M116.1,53.3c-1.1,0-2-.9-2-2v-4h-4c-1.1,0-2-.9-2-2s.9-2,2-2h6c1.1,0,2,.9,2,2v6c0,1.1-.9,2-2,2Z"/>
    <path class="st0" d="M116.1,71.1h-6c-1.1,0-2-.9-2-2s.9-2,2-2h4v-4c0-1.1.9-2,2-2s2,.9,2,2v6c0,1.1-.9,2-2,2Z"/>
    <path class="st0" d="M98.2,71.1h-6c-1.1,0-2-.9-2-2v-6c0-1.1.9-2,2-2s2,.9,2,2v4h4c1.1,0,2,.9,2,2s-.9,2-2,2Z"/>
  </g>
  <path class="st0" d="M32.6,116.1h-1.3c-1.7,0-3.2-1-3.9-2.5-1.5-3.1-4.5-5-8-5s-6.5,1.9-8,5c-.7,1.5-2.3,2.5-3.9,2.5h-1.3c-2.4,0-4.4-2-4.4-4.4V25.6C1.8,15.9,9.7,8,19.4,8s17.6,7.9,17.6,17.6v86.1c0,2.4-2,4.4-4.4,4.4ZM19.4,99.8c3.2,0,6.2.9,8.8,2.4V25.6c0-4.9-4-8.8-8.8-8.8s-8.8,4-8.8,8.8v76.6c2.6-1.5,5.7-2.4,8.8-2.4Z"/>
  <path class="st0" d="M133.8,132H22c-11.1,0-20.2-9.1-20.2-20.2s2-4.4,4.4-4.4,4.4,2,4.4,4.4c0,6.3,5.1,11.5,11.5,11.5h107.5V31.8H32.6c-2.4,0-4.4-2-4.4-4.4s2-4.4,4.4-4.4h101.3c2.4,0,4.4,2,4.4,4.4v100.2c0,2.4-2,4.4-4.4,4.4Z"/>
</svg>