<svg viewBox="0 0 140 140" height="140" width="140" xmlns="http://www.w3.org/2000/svg"><g transform="matrix(5.833333333333333,0,0,5.833333333333333,0,0)"><path d="M12,9.751C5.787,9.751.75,7.736.75,5.251S5.787.751,12,.751s11.25,2.014,11.25,4.5c0,1.147-1.073,2.194-2.839,2.988" fill="none" stroke="#0F2B4D" stroke-linecap="round" stroke-linejoin="round" stroke-width="1.5"></path><path d="M23.25 9.751L23.25 5.251" fill="none" stroke="#0F2B4D" stroke-linecap="round" stroke-linejoin="round" stroke-width="1.5"></path><path d="M.75,5.251v6c0,2.063,3.472,3.8,8.206,4.333" fill="none" stroke="#0F2B4D" stroke-linecap="round" stroke-linejoin="round" stroke-width="1.5"></path><path d="M.75,11.251v6c0,2.066,3.481,3.806,8.225,4.335" fill="none" stroke="#0F2B4D" stroke-linecap="round" stroke-linejoin="round" stroke-width="1.5"></path><path d="M15.750 16.501 A1.500 1.500 0 1 0 18.750 16.501 A1.500 1.500 0 1 0 15.750 16.501 Z" fill="none" stroke="#0F2B4D" stroke-linecap="round" stroke-linejoin="round" stroke-width="1.5"></path><path d="M18.524,10.7l.442,1.452a.993.993,0,0,0,1.174.681l1.472-.341a1.339,1.339,0,0,1,1.275,2.219L21.856,15.82a1,1,0,0,0,0,1.362l1.031,1.111a1.339,1.339,0,0,1-1.275,2.218L20.14,20.17a.993.993,0,0,0-1.174.681L18.524,22.3a1.33,1.33,0,0,1-2.548,0l-.442-1.452a.993.993,0,0,0-1.174-.681l-1.472.341a1.339,1.339,0,0,1-1.275-2.218l1.031-1.111a1,1,0,0,0,0-1.362l-1.031-1.111a1.339,1.339,0,0,1,1.275-2.219l1.472.341a.993.993,0,0,0,1.174-.681l.442-1.452A1.33,1.33,0,0,1,18.524,10.7Z" fill="none" stroke="#0F2B4D" stroke-linecap="round" stroke-linejoin="round" stroke-width="1.5"></path></g></svg>