<?xml version="1.0" encoding="UTF-8"?>
<svg id="Layer_1" xmlns="http://www.w3.org/2000/svg" version="1.1" viewBox="0 0 140 140">
  <!-- Generator: Adobe Illustrator 29.6.0, SVG Export Plug-In . SVG Version: 2.1.1 Build 207)  -->
  <defs>
    <style>
      .st0 {
        fill: #0f2b4d;
      }
    </style>
  </defs>
  <path class="st0" d="M70,140c-.2,0-.5,0-.7,0C29.1,133.2,0,98.7,0,58V13.1C0,5.9,5.9,0,13.1,0h113.8c7.2,0,13.1,5.9,13.1,13.1v44.8c0,40.7-29.1,75.2-69.3,82-.2,0-.5,0-.7,0ZM13.1,8.8c-2.4,0-4.4,2-4.4,4.4v44.8c0,36.2,25.7,66.9,61.2,73.2,35.5-6.4,61.3-37,61.2-73.2h0V13.1c0-2.4-2-4.4-4.4-4.4H13.1Z"/>
  <path class="st0" d="M70,52.5c-9.6,0-17.5-7.9-17.5-17.5s7.9-17.5,17.5-17.5,17.5,7.9,17.5,17.5-7.9,17.5-17.5,17.5ZM70,26.2c-4.8,0-8.8,3.9-8.8,8.8s3.9,8.8,8.8,8.8,8.8-3.9,8.8-8.8-3.9-8.8-8.8-8.8Z"/>
  <path class="st0" d="M78.8,113.8h-17.5c-2.1,0-4-1.5-4.3-3.7l-3.8-22.6h-5c-2.4,0-4.4-2-4.4-4.4v-4.4c0-14.5,11.8-26.2,26.2-26.2s26.2,11.8,26.2,26.2v4.4c0,2.4-2,4.4-4.4,4.4h-5l-3.8,22.6c-.4,2.1-2.2,3.7-4.3,3.7ZM65,105h10.1l3.8-22.6c.4-2.1,2.2-3.7,4.3-3.7h4.4c0-9.6-7.9-17.5-17.5-17.5s-17.5,7.9-17.5,17.5h4.4c2.1,0,4,1.5,4.3,3.7l3.8,22.6Z"/>
</svg>