<?xml version="1.0" encoding="UTF-8"?>
<svg id="Layer_1" xmlns="http://www.w3.org/2000/svg" version="1.1" viewBox="0 0 140 140">
  <!-- Generator: Adobe Illustrator 29.6.0, SVG Export Plug-In . SVG Version: 2.1.1 Build 207)  -->
  <defs>
    <style>
      .st0 {
        fill: #0f2b4d;
      }
    </style>
  </defs>
  <path class="st0" d="M122.5,87.5H17.5c-2.4,0-4.4-2-4.4-4.4V26.2c0-7.2,5.9-13.1,13.1-13.1h87.5c7.2,0,13.1,5.9,13.1,13.1v56.9c0,2.4-2,4.4-4.4,4.4ZM21.9,78.8h96.2V26.2c0-2.4-2-4.4-4.4-4.4H26.2c-2.4,0-4.4,2-4.4,4.4v52.5Z"/>
  <path class="st0" d="M13.1,126.9c-3.5,0-6.8-1.4-9.3-3.8S0,117.3,0,113.8c0-1.8.4-3.6,1.1-5.3l12.4-27.1c.7-1.6,2.3-2.6,4-2.6h105c1.7,0,3.3,1,4,2.6l12.4,27.1s0,0,0,0c1.4,3.2,1.5,6.8.3,10-1.3,3.3-3.7,5.9-6.9,7.3-1.7.8-3.5,1.1-5.3,1.1H13.1ZM20.3,87.5l-11.2,24.5c-.2.5-.4,1.1-.4,1.7,0,1.2.5,2.3,1.3,3.1.8.8,1.9,1.3,3.1,1.3h113.8c.6,0,1.2-.1,1.8-.4,1.1-.5,1.9-1.3,2.3-2.4.4-1.1.4-2.3,0-3.3l-11.2-24.5H20.3Z"/>
  <path class="st0" d="M78.8,109.4h-17.5c-2.4,0-4.4-2-4.4-4.4s2-4.4,4.4-4.4h17.5c2.4,0,4.4,2,4.4,4.4s-2,4.4-4.4,4.4Z"/>
</svg>