<?xml version="1.0" encoding="UTF-8"?>
<svg id="Layer_1" xmlns="http://www.w3.org/2000/svg" version="1.1" viewBox="0 0 140 140">
  <!-- Generator: Adobe Illustrator 29.6.0, SVG Export Plug-In . SVG Version: 2.1.1 Build 207)  -->
  <defs>
    <style>
      .st0 {
        fill: #0f2b4d;
      }
    </style>
  </defs>
  <path class="st0" d="M39.4,89.7c-3.6,0-6.6-2.9-6.6-6.6s2.9-6.6,6.6-6.6,6.6,2.9,6.6,6.6-2.9,6.6-6.6,6.6ZM39.4,80.9c-1.2,0-2.2,1-2.2,2.2s1,2.2,2.2,2.2,2.2-1,2.2-2.2-1-2.2-2.2-2.2Z"/>
  <path class="st0" d="M78.8,87.5h-8.8c-2.4,0-4.4-2-4.4-4.4s2-4.4,4.4-4.4h8.8c2.4,0,4.4,2,4.4,4.4s-2,4.4-4.4,4.4Z"/>
  <path class="st0" d="M105,87.5h-8.8c-2.4,0-4.4-2-4.4-4.4s2-4.4,4.4-4.4h8.8c2.4,0,4.4,2,4.4,4.4s-2,4.4-4.4,4.4Z"/>
  <path class="st0" d="M39.4,124.7c-3.6,0-6.6-2.9-6.6-6.6s2.9-6.6,6.6-6.6,6.6,2.9,6.6,6.6-2.9,6.6-6.6,6.6ZM39.4,115.9c-1.2,0-2.2,1-2.2,2.2s1,2.2,2.2,2.2,2.2-1,2.2-2.2-1-2.2-2.2-2.2Z"/>
  <path class="st0" d="M78.8,122.5h-8.8c-2.4,0-4.4-2-4.4-4.4s2-4.4,4.4-4.4h8.8c2.4,0,4.4,2,4.4,4.4s-2,4.4-4.4,4.4Z"/>
  <path class="st0" d="M105,122.5h-8.8c-2.4,0-4.4-2-4.4-4.4s2-4.4,4.4-4.4h8.8c2.4,0,4.4,2,4.4,4.4s-2,4.4-4.4,4.4Z"/>
  <path class="st0" d="M105,105H35c-12.1,0-21.9-9.8-21.9-21.9s9.8-21.9,21.9-21.9h70c12.1,0,21.9,9.8,21.9,21.9s-9.8,21.9-21.9,21.9ZM35,70c-7.2,0-13.1,5.9-13.1,13.1s5.9,13.1,13.1,13.1h70c7.2,0,13.1-5.9,13.1-13.1s-5.9-13.1-13.1-13.1H35Z"/>
  <path class="st0" d="M105,140H35c-12.1,0-21.9-9.8-21.9-21.9s9.8-21.9,21.9-21.9h70c12.1,0,21.9,9.8,21.9,21.9s-9.8,21.9-21.9,21.9ZM35,105c-7.2,0-13.1,5.9-13.1,13.1s5.9,13.1,13.1,13.1h70c7.2,0,13.1-5.9,13.1-13.1s-5.9-13.1-13.1-13.1H35Z"/>
  <path class="st0" d="M134.9,74.4c-.3,0-.7,0-1-.1-2.4-.6-3.8-2.9-3.3-5.3,1.5-6.3.4-12.7-3-18.2s-8.7-9.3-15-10.8c-1.8-.4-3.6-.6-5.5-.6h0c-4.9,0-9.6,1.5-13.6,4.3-1.2.8-2.8,1-4.2.5-1.4-.6-2.4-1.8-2.6-3.3-3.9-21.4-24.5-35.5-45.8-31.6-10.3,1.9-19.3,7.7-25.3,16.4s-8.2,19.1-6.3,29.5c.6,3,1.5,6,2.7,8.8,1,2.2,0,4.8-2.2,5.8-2.2,1-4.8,0-5.8-2.2-1.5-3.5-2.6-7.1-3.3-10.8-2.3-12.6.4-25.4,7.7-36C15.7,10,26.7,2.9,39.4.6c24.1-4.4,47.4,10,54.6,32.8,4.1-1.8,8.6-2.8,13.3-2.8h0c2.5,0,5,.3,7.5.9,8.5,2,15.8,7.2,20.4,14.7,4.6,7.5,6.1,16.3,4,24.8-.5,2-2.3,3.4-4.3,3.4Z"/>
</svg>