<?xml version="1.0" encoding="UTF-8"?>
<svg id="Layer_1" xmlns="http://www.w3.org/2000/svg" version="1.1" viewBox="0 0 140 140">
  <!-- Generator: Adobe Illustrator 29.6.0, SVG Export Plug-In . SVG Version: 2.1.1 Build 207)  -->
  <defs>
    <style>
      .st0 {
        fill: #0f2b4d;
      }
    </style>
  </defs>
  <path class="st0" d="M65.6,105H4.4c-2.4,0-4.4-2-4.4-4.4V4.4C0,2,2,0,4.4,0h131.2c2.4,0,4.4,2,4.4,4.4v26.2c0,2.4-2,4.4-4.4,4.4s-4.4-2-4.4-4.4V8.8H8.8v87.5h56.9c2.4,0,4.4,2,4.4,4.4s-2,4.4-4.4,4.4Z"/>
  <path class="st0" d="M48.1,105c-1.1,0-2.2-.4-3.1-1.3L1.3,60c-1.7-1.7-1.7-4.5,0-6.2,1.7-1.7,4.5-1.7,6.2,0l43.8,43.8c1.7,1.7,1.7,4.5,0,6.2-.9.9-2,1.3-3.1,1.3Z"/>
  <path class="st0" d="M118.1,35c-1.1,0-2.2-.4-3.1-1.3l-26.2-26.2c-1.7-1.7-1.7-4.5,0-6.2,1.7-1.7,4.5-1.7,6.2,0l26.2,26.2c1.7,1.7,1.7,4.5,0,6.2-.9.9-2,1.3-3.1,1.3Z"/>
  <path class="st0" d="M124.4,140c-2.3,0-4.5-.9-6.2-2.6l-8.9-8.9-8.9,8.9c-2,2-4.9,2.9-7.7,2.4-2.3-.4-4.3-1.7-5.6-3.6-1.3-1.9-1.8-4.2-1.4-6.4l4.7-34.2c.3-2.4,2.5-4.1,4.9-3.7,2.4.3,4.1,2.5,3.7,4.9l-4.7,34.3c0,0,0,.1,0,.2l12-11.9c.8-.8,1.9-1.3,3.1-1.3s2.3.5,3.1,1.3l12,12c0,0,0-.1,0-.2l-4.7-34.3c-.3-2.4,1.4-4.6,3.7-4.9,2.4-.3,4.6,1.4,4.9,3.7l4.7,34.2c.5,2.8-.4,5.6-2.4,7.6-1.6,1.7-3.8,2.6-6.2,2.6h0Z"/>
  <path class="st0" d="M109.4,105c-16.9,0-30.6-13.7-30.6-30.6s13.7-30.6,30.6-30.6,30.6,13.7,30.6,30.6-13.7,30.6-30.6,30.6ZM109.4,52.5c-12.1,0-21.9,9.8-21.9,21.9s9.8,21.9,21.9,21.9,21.9-9.8,21.9-21.9-9.8-21.9-21.9-21.9Z"/>
  <path class="st0" d="M4.4,52.5c-1.1,0-2.2-.4-3.1-1.3-1.7-1.7-1.7-4.5,0-6.2L45,1.3c1.7-1.7,4.5-1.7,6.2,0,1.7,1.7,1.7,4.5,0,6.2L7.5,51.2c-.9.9-2,1.3-3.1,1.3Z"/>
  <path class="st0" d="M109.4,76.6c-.3,0-.6,0-.9,0-.3,0-.5-.1-.8-.2-.3-.1-.5-.2-.8-.4-.2-.2-.5-.3-.7-.5s-.4-.4-.5-.7c-.2-.2-.3-.5-.4-.8-.1-.3-.2-.5-.2-.8,0-.3,0-.6,0-.9s0-.6,0-.9c0-.3.1-.6.2-.8,0-.3.2-.5.4-.8.2-.2.3-.5.5-.7.2-.2.4-.4.7-.5.2-.2.5-.3.8-.4.3-.1.5-.2.8-.2.6-.1,1.2-.1,1.7,0,.3,0,.6.1.8.2.3.1.5.2.8.4.2.2.5.3.7.5.2.2.4.4.5.7.2.2.3.5.4.8,0,.3.2.5.2.8,0,.3,0,.6,0,.9s0,.6,0,.9c0,.3-.2.6-.2.8-.1.3-.2.5-.4.8-.2.2-.3.5-.5.7-.2.2-.4.4-.7.5-.2.2-.5.3-.8.4-.3.1-.5.2-.8.2-.3,0-.6,0-.8,0Z"/>
  <path class="st0" d="M109.4,80.9c-3.6,0-6.6-2.9-6.6-6.6s2.9-6.6,6.6-6.6,6.6,2.9,6.6,6.6-2.9,6.6-6.6,6.6ZM109.4,72.2c-1.2,0-2.2,1-2.2,2.2s1,2.2,2.2,2.2,2.2-1,2.2-2.2-1-2.2-2.2-2.2Z"/>
</svg>