<?xml version="1.0" encoding="UTF-8"?>
<svg id="Layer_1" xmlns="http://www.w3.org/2000/svg" version="1.1" viewBox="0 0 140 140">
  <!-- Generator: Adobe Illustrator 29.6.0, SVG Export Plug-In . SVG Version: 2.1.1 Build 207)  -->
  <defs>
    <style>
      .st0 {
        fill: #0f2b4d;
      }
    </style>
  </defs>
  <path class="st0" d="M70,140C31.4,140,0,108.6,0,70S31.4,0,70,0s70,31.4,70,70-31.4,70-70,70ZM70,8.7c-33.8,0-61.2,27.5-61.2,61.2s27.5,61.2,61.2,61.2,61.2-27.5,61.2-61.2S103.8,8.7,70,8.7Z"/>
  <path class="st0" d="M62,105c-7.7,0-13.9-6.2-13.9-13.9h0v-42.2c0-3.4,1.2-6.6,3.4-9.2,2.4-2.8,5.8-4.5,9.5-4.7,3.7-.2,7.3,1,10.1,3.4l32.3,28.3c.9.8,1.5,2,1.5,3.3s-.5,2.5-1.5,3.3l-32.3,28.3c-2.5,2.2-5.8,3.4-9.1,3.4h0ZM56.9,91.1c0,2.8,2.3,5.2,5.2,5.2h0c1.2,0,2.5-.5,3.4-1.3l28.5-25-28.5-25c-1-.9-2.4-1.4-3.7-1.3-1.4,0-2.6.7-3.5,1.8-.8.9-1.3,2.2-1.3,3.4v42.2Z"/>
</svg>