<?xml version="1.0" encoding="UTF-8"?>
<svg id="Layer_1" xmlns="http://www.w3.org/2000/svg" version="1.1" viewBox="0 0 140 140">
  <!-- Generator: Adobe Illustrator 29.6.0, SVG Export Plug-In . SVG Version: 2.1.1 Build 207)  -->
  <defs>
    <style>
      .st0 {
        fill: #0f2b4d;
      }
    </style>
  </defs>
  <path class="st0" d="M26.2,28.4c-3.6,0-6.6-2.9-6.6-6.6s2.9-6.6,6.6-6.6,6.6,2.9,6.6,6.6-2.9,6.6-6.6,6.6ZM26.2,19.7c-1.2,0-2.2,1-2.2,2.2s1,2.2,2.2,2.2,2.2-1,2.2-2.2-1-2.2-2.2-2.2Z"/>
  <path class="st0" d="M65.6,26.2h-8.8c-2.4,0-4.4-2-4.4-4.4s2-4.4,4.4-4.4h8.8c2.4,0,4.4,2,4.4,4.4s-2,4.4-4.4,4.4Z"/>
  <path class="st0" d="M91.9,26.2h-8.8c-2.4,0-4.4-2-4.4-4.4s2-4.4,4.4-4.4h8.8c2.4,0,4.4,2,4.4,4.4s-2,4.4-4.4,4.4Z"/>
  <path class="st0" d="M26.2,63.4c-3.6,0-6.6-2.9-6.6-6.6s2.9-6.6,6.6-6.6,6.6,2.9,6.6,6.6-2.9,6.6-6.6,6.6ZM26.2,54.7c-1.2,0-2.2,1-2.2,2.2s1,2.2,2.2,2.2,2.2-1,2.2-2.2-1-2.2-2.2-2.2Z"/>
  <path class="st0" d="M65.6,61.2h-8.8c-2.4,0-4.4-2-4.4-4.4s2-4.4,4.4-4.4h8.8c2.4,0,4.4,2,4.4,4.4s-2,4.4-4.4,4.4Z"/>
  <path class="st0" d="M43.8,113.8h-17.5c-2.4,0-4.4-2-4.4-4.4s2-4.4,4.4-4.4h13.1v-30.6c0-2.4,2-4.4,4.4-4.4s4.4,2,4.4,4.4v35c0,2.4-2,4.4-4.4,4.4Z"/>
  <path class="st0" d="M6.6,113.8C2.9,113.8,0,110.8,0,107.2s2.9-6.6,6.6-6.6,6.6,2.9,6.6,6.6-2.9,6.6-6.6,6.6ZM6.6,105c-1.2,0-2.2,1-2.2,2.2s1,2.2,2.2,2.2,2.2-1,2.2-2.2-1-2.2-2.2-2.2Z"/>
  <path class="st0" d="M91.9,43.8H21.9C9.8,43.8,0,33.9,0,21.9S9.8,0,21.9,0h70c12.1,0,21.9,9.8,21.9,21.9s-9.8,21.9-21.9,21.9ZM21.9,8.8c-7.2,0-13.1,5.9-13.1,13.1s5.9,13.1,13.1,13.1h70c7.2,0,13.1-5.9,13.1-13.1s-5.9-13.1-13.1-13.1H21.9Z"/>
  <path class="st0" d="M48.1,78.8h-26.2C9.8,78.8,0,68.9,0,56.9s9.8-21.9,21.9-21.9h70c7.8,0,15,4.2,18.9,10.9,1.2,2.1.5,4.8-1.6,6-2.1,1.2-4.8.5-6-1.6-2.3-4-6.7-6.6-11.4-6.6H21.9c-7.2,0-13.1,5.9-13.1,13.1s5.9,13.1,13.1,13.1h26.2c2.4,0,4.4,2,4.4,4.4s-2,4.4-4.4,4.4Z"/>
  <path class="st0" d="M91.9,126.9h0c-9.3,0-18.1-3.6-24.7-10.3s-10.2-15.4-10.2-24.8h0c0-19.3,15.7-35,35-35h0c19.3,0,35,15.7,35,35,0,9.4-3.6,18.2-10.3,24.8-6.6,6.6-15.4,10.2-24.7,10.2ZM91.9,65.6c-14.5,0-26.2,11.8-26.2,26.2h-4.4s4.4,0,4.4,0c0,7,2.7,13.6,7.7,18.6s11.5,7.7,18.6,7.7h0c7,0,13.6-2.7,18.6-7.7,5-5,7.7-11.5,7.7-18.6,0-14.5-11.8-26.3-26.2-26.3h0ZM61.3,91.9h0,0Z"/>
  <path class="st0" d="M135.6,140c-1.1,0-2.2-.4-3.1-1.3l-22.1-22.1c-1.7-1.7-1.7-4.5,0-6.2,1.7-1.7,4.5-1.7,6.2,0l22.1,22.1c1.7,1.7,1.7,4.5,0,6.2-.9.9-2,1.3-3.1,1.3Z"/>
</svg>