<?xml version="1.0" encoding="UTF-8"?>
<svg id="Layer_1" xmlns="http://www.w3.org/2000/svg" version="1.1" viewBox="0 0 140 140">
  <!-- Generator: Adobe Illustrator 29.6.0, SVG Export Plug-In . SVG Version: 2.1.1 Build 207)  -->
  <defs>
    <style>
      .st0 {
        fill: #0f2b4d;
      }
    </style>
  </defs>
  <g id="cursor-click">
    <g id="Union">
      <path class="st0" d="M121,116c-1.1,0-2.2-.4-3.1-1.3l-13.3-13.3-8.2,8.2c-1.1,1.1-2.8,1.6-4.3,1.1-1.5-.4-2.7-1.7-3-3.3l-10.1-45.3c-.3-1.3,0-2.7.9-3.7.8-1,2.1-1.6,3.4-1.6h0c.3,0,.6,0,.9.1l45.3,10.1c1.6.3,2.8,1.5,3.3,3,.4,1.5,0,3.2-1.1,4.3l-8.2,8.2,13.3,13.3c1.7,1.7,1.7,4.5,0,6.2l-12.6,12.6c-.9.9-2,1.3-3.1,1.3ZM104.6,90.8c1.1,0,2.2.4,3.1,1.3l13.3,13.3,6.4-6.4-13.3-13.3c-1.7-1.7-1.7-4.5,0-6.2l5.7-5.7-30.8-6.9,6.9,30.8,5.7-5.7c.9-.9,2-1.3,3.1-1.3Z"/>
    </g>
    <g id="vector_588">
      <path class="st0" d="M67.2,61.9c-.4,0-.8,0-1.1-.2l-12.3-3.3c-2.3-.6-3.7-3-3.1-5.4.6-2.3,3-3.7,5.4-3.1l12.3,3.3c2.3.6,3.7,3,3.1,5.4-.5,2-2.3,3.2-4.2,3.2Z"/>
    </g>
    <g id="vector_589">
      <path class="st0" d="M60.1,88.3c-1.1,0-2.2-.4-3.1-1.3-1.7-1.7-1.7-4.5,0-6.2l9-9c1.7-1.7,4.5-1.7,6.2,0,1.7,1.7,1.7,4.5,0,6.2l-9,9c-.9.9-2,1.3-3.1,1.3Z"/>
    </g>
    <g id="vector_591">
      <path class="st0" d="M79.9,49.3c-1.9,0-3.7-1.3-4.2-3.2l-3.3-12.3c-.6-2.3.8-4.7,3.1-5.4,2.3-.6,4.7.8,5.4,3.1l3.3,12.3c.6,2.3-.8,4.7-3.1,5.4-.4.1-.8.2-1.1.2Z"/>
    </g>
    <g id="vector_592">
      <path class="st0" d="M97.2,51.2c-1.1,0-2.2-.4-3.1-1.3-1.7-1.7-1.7-4.5,0-6.2l9-9c1.7-1.7,4.5-1.7,6.2,0,1.7,1.7,1.7,4.5,0,6.2l-9,9c-.9.9-2,1.3-3.1,1.3Z"/>
    </g>
  </g>
  <path class="st0" d="M40.5,90.8H6.4c-2.4,0-4.4-2-4.4-4.4V28.4c0-2.4,2-4.4,4.4-4.4h53.7c2.4,0,4.4,2,4.4,4.4s-2,4.4-4.4,4.4H10.8v49.2h29.7c2.4,0,4.4,2,4.4,4.4s-2,4.4-4.4,4.4Z"/>
</svg>