<?xml version="1.0" encoding="UTF-8"?>
<svg id="Layer_1" xmlns="http://www.w3.org/2000/svg" version="1.1" viewBox="0 0 140 140">
  <!-- Generator: Adobe Illustrator 29.6.0, SVG Export Plug-In . SVG Version: 2.1.1 Build 207)  -->
  <defs>
    <style>
      .st0 {
        fill: #0f2b4d;
      }
    </style>
  </defs>
  <path class="st0" d="M70,87.5c-2.4,0-4.4-2-4.4-4.4v-5.9c0-5.6,3.5-10.5,8.7-12.4,5.2-1.9,8.8-6.8,8.8-12.4,0-7.2-5.9-13.1-13.1-13.1h0c-7.2,0-13.1,5.9-13.1,13.1,0,2.4-2,4.4-4.4,4.4h0c-2.4,0-4.4-2-4.4-4.4,0-5.8,2.3-11.3,6.4-15.5,4.1-4.1,9.6-6.4,15.5-6.4h0c12.1,0,21.9,9.8,21.9,21.9,0,9.2-5.9,17.5-14.6,20.6-1.7.6-2.9,2.3-2.9,4.1v5.9c0,2.4-2,4.4-4.4,4.4Z"/>
  <path class="st0" d="M70,109.4c-3.6,0-6.6-2.9-6.6-6.6s2.9-6.6,6.6-6.6,6.6,2.9,6.6,6.6-2.9,6.6-6.6,6.6ZM70,100.6c-1.2,0-2.2,1-2.2,2.2s1,2.2,2.2,2.2,2.2-1,2.2-2.2-1-2.2-2.2-2.2Z"/>
  <path class="st0" d="M70,140C31.4,140,0,108.6,0,70S31.4,0,70,0s70,31.4,70,70-31.4,70-70,70ZM70,8.8c-33.8,0-61.2,27.5-61.2,61.2s27.5,61.2,61.2,61.2,61.2-27.5,61.2-61.2S103.8,8.8,70,8.8Z"/>
</svg>