<?xml version="1.0" encoding="UTF-8"?>
<svg id="Layer_1" xmlns="http://www.w3.org/2000/svg" version="1.1" viewBox="0 0 140 140">
  <!-- Generator: Adobe Illustrator 29.6.0, SVG Export Plug-In . SVG Version: 2.1.1 Build 207)  -->
  <defs>
    <style>
      .st0 {
        fill: #0f2b4d;
      }
    </style>
  </defs>
  <path class="st0" d="M70,96.2c-14.5,0-26.2-11.8-26.2-26.2s11.8-26.2,26.2-26.2,26.2,11.8,26.2,26.2-11.8,26.2-26.2,26.2ZM70,52.5c-9.6,0-17.5,7.9-17.5,17.5s7.9,17.5,17.5,17.5,17.5-7.9,17.5-17.5-7.9-17.5-17.5-17.5Z"/>
  <path class="st0" d="M99.9,122.8c-1.1,0-2.2-.4-3.1-1.3l-26.8-26.8c-1.7-1.7-1.7-4.5,0-6.2,1.7-1.7,4.5-1.7,6.2,0l26.8,26.8c1.7,1.7,1.7,4.5,0,6.2-.9.9-2,1.3-3.1,1.3Z"/>
  <path class="st0" d="M118.4,104.2c-1.1,0-2.2-.4-3.1-1.3l-26.8-26.8c-1.7-1.7-1.7-4.5,0-6.2,1.7-1.7,4.5-1.7,6.2,0l26.8,26.8c1.7,1.7,1.7,4.5,0,6.2-.9.9-2,1.3-3.1,1.3Z"/>
  <path class="st0" d="M21.6,104.2c-1.1,0-2.2-.4-3.1-1.3-1.7-1.7-1.7-4.5,0-6.2l26.8-26.8c1.7-1.7,4.5-1.7,6.2,0,1.7,1.7,1.7,4.5,0,6.2l-26.8,26.8c-.9.9-2,1.3-3.1,1.3Z"/>
  <path class="st0" d="M40.1,122.8c-1.1,0-2.2-.4-3.1-1.3-1.7-1.7-1.7-4.5,0-6.2l26.8-26.8c1.7-1.7,4.5-1.7,6.2,0,1.7,1.7,1.7,4.5,0,6.2l-26.8,26.8c-.9.9-2,1.3-3.1,1.3Z"/>
  <path class="st0" d="M66.9,52.7c-1.1,0-2.2-.4-3.1-1.3l-26.8-26.8c-1.7-1.7-1.7-4.5,0-6.2,1.7-1.7,4.5-1.7,6.2,0l26.8,26.8c1.7,1.7,1.7,4.5,0,6.2-.9.9-2,1.3-3.1,1.3Z"/>
  <path class="st0" d="M48.4,71.3c-1.1,0-2.2-.4-3.1-1.3l-26.8-26.8c-1.7-1.7-1.7-4.5,0-6.2,1.7-1.7,4.5-1.7,6.2,0l26.8,26.8c1.7,1.7,1.7,4.5,0,6.2-.9.9-2,1.3-3.1,1.3Z"/>
  <path class="st0" d="M91.6,71.3c-1.1,0-2.2-.4-3.1-1.3-1.7-1.7-1.7-4.5,0-6.2l26.8-26.8c1.7-1.7,4.5-1.7,6.2,0,1.7,1.7,1.7,4.5,0,6.2l-26.8,26.8c-.9.9-2,1.3-3.1,1.3Z"/>
  <path class="st0" d="M73.1,52.7c-1.1,0-2.2-.4-3.1-1.3-1.7-1.7-1.7-4.5,0-6.2l26.8-26.8c1.7-1.7,4.5-1.7,6.2,0,1.7,1.7,1.7,4.5,0,6.2l-26.8,26.8c-.9.9-2,1.3-3.1,1.3Z"/>
  <path class="st0" d="M70,131.2c-33.8,0-61.2-27.5-61.2-61.2S36.2,8.8,70,8.8s61.2,27.5,61.2,61.2-27.5,61.2-61.2,61.2ZM70,17.5c-28.9,0-52.5,23.6-52.5,52.5s23.6,52.5,52.5,52.5,52.5-23.6,52.5-52.5-23.6-52.5-52.5-52.5Z"/>
</svg>