<?xml version="1.0" encoding="UTF-8"?>
<svg id="Layer_1" xmlns="http://www.w3.org/2000/svg" version="1.1" viewBox="0 0 140 140">
  <!-- Generator: Adobe Illustrator 29.6.0, SVG Export Plug-In . SVG Version: 2.1.1 Build 207)  -->
  <defs>
    <style>
      .st0 {
        fill: #0f2b4d;
      }
    </style>
  </defs>
  <path class="st0" d="M30.6,122.5c-.7,0-1.3-.2-2-.5-1.5-.7-2.4-2.3-2.4-3.9v-21.9h-13.1c-7.2,0-13.1-5.9-13.1-13.1V13.1C0,5.9,5.9,0,13.1,0h96.2c7.2,0,13.1,5.9,13.1,13.1v26.2c0,2.4-2,4.4-4.4,4.4s-4.4-2-4.4-4.4V13.1c0-2.4-2-4.4-4.4-4.4H13.1c-2.4,0-4.4,2-4.4,4.4v70c0,2.4,2,4.4,4.4,4.4h17.5c2.4,0,4.4,2,4.4,4.4v17.5l10.5-7.9c1.9-1.4,4.7-1.1,6.1.9,1.4,1.9,1.1,4.7-.9,6.1l-17.5,13.1c-.8.6-1.7.9-2.6.9Z"/>
  <path class="st0" d="M91.9,35H30.6c-2.4,0-4.4-2-4.4-4.4s2-4.4,4.4-4.4h61.2c2.4,0,4.4,2,4.4,4.4s-2,4.4-4.4,4.4Z"/>
  <path class="st0" d="M48.1,61.2h-17.5c-2.4,0-4.4-2-4.4-4.4s2-4.4,4.4-4.4h17.5c2.4,0,4.4,2,4.4,4.4s-2,4.4-4.4,4.4Z"/>
  <path class="st0" d="M118.1,140c-1.1,0-2.3-.4-3.1-1.3l-25-25h-24.4c-2.4,0-4.4-2-4.4-4.4v-52.5c0-2.4,2-4.4,4.4-4.4h70c2.4,0,4.4,2,4.4,4.4v52.5c0,2.4-2,4.4-4.4,4.4h-13.1v21.9c0,1.8-1.1,3.4-2.7,4-.5.2-1.1.3-1.7.3ZM70,105h21.9c1.2,0,2.3.5,3.1,1.3l18.8,18.8v-15.7c0-2.4,2-4.4,4.4-4.4h13.1v-43.8h-61.2v43.8Z"/>
  <path class="st0" d="M118.1,78.8h-35c-2.4,0-4.4-2-4.4-4.4s2-4.4,4.4-4.4h35c2.4,0,4.4,2,4.4,4.4s-2,4.4-4.4,4.4Z"/>
  <path class="st0" d="M118.1,96.2h-35c-2.4,0-4.4-2-4.4-4.4s2-4.4,4.4-4.4h35c2.4,0,4.4,2,4.4,4.4s-2,4.4-4.4,4.4Z"/>
</svg>