<?xml version="1.0" encoding="UTF-8"?>
<svg id="Layer_1" xmlns="http://www.w3.org/2000/svg" version="1.1" viewBox="0 0 140 140">
  <!-- Generator: Adobe Illustrator 29.6.0, SVG Export Plug-In . SVG Version: 2.1.1 Build 207)  -->
  <defs>
    <style>
      .st0 {
        fill: #102b4d;
      }
    </style>
  </defs>
  <path class="st0" d="M32.1,140c-.9,0-1.7-.2-2.5-.8-1.7-1.2-2.4-3.4-1.6-5.3l23.6-55.1h-17.3s0,0,0,0c-4.8,0-8.7-3.9-8.7-8.7,0-1.2.2-2.4.7-3.5L53.2,5.2C54.5,2.1,57.7,0,61.2,0h44.9c4.8,0,8.8,3.9,8.7,8.8,0,2-.7,3.9-1.9,5.5l-23.6,29.5h19.7s0,0,0,0c2.3,0,4.5.9,6.2,2.6,1.7,1.7,2.6,3.8,2.6,6.2,0,2.3-.9,4.5-2.6,6.2l-80,80c-.8.8-2,1.3-3.1,1.3ZM51.7,70c1.2,0,2.3.2,3.4.7,2.1.9,3.8,2.6,4.7,4.8.9,2.2.8,4.5,0,6.7l-14.7,34.3,64-64h-19.7c-2,0-3.9-.7-5.5-1.9-1.8-1.5-3-3.5-3.2-5.9-.3-2.3.4-4.6,1.9-6.4l23.6-29.5h-44.9s-26.8,61.2-26.8,61.2h17.3Z"/>
</svg>