<?xml version="1.0" encoding="UTF-8"?>
<svg id="Layer_1" xmlns="http://www.w3.org/2000/svg" version="1.1" viewBox="0 0 140 140">
  <!-- Generator: Adobe Illustrator 29.6.0, SVG Export Plug-In . SVG Version: 2.1.1 Build 207)  -->
  <defs>
    <style>
      .st0 {
        fill: #102b4d;
      }
    </style>
  </defs>
  <path class="st0" d="M78.8,87.5c-14.5,0-26.2-11.8-26.2-26.2s11.8-26.2,26.2-26.2,26.2,11.8,26.2,26.2-11.8,26.2-26.2,26.2ZM78.8,43.7c-9.6,0-17.5,7.9-17.5,17.5s7.9,17.5,17.5,17.5,17.5-7.9,17.5-17.5-7.9-17.5-17.5-17.5Z"/>
  <path class="st0" d="M122.5,35c-9.6,0-17.5-7.9-17.5-17.5S112.9,0,122.5,0s17.5,7.9,17.5,17.5-7.9,17.5-17.5,17.5ZM122.5,8.7c-4.8,0-8.8,3.9-8.8,8.8s3.9,8.8,8.8,8.8,8.8-3.9,8.8-8.8-3.9-8.8-8.8-8.8Z"/>
  <path class="st0" d="M122.5,109.4c-9.6,0-17.5-7.9-17.5-17.5s7.9-17.5,17.5-17.5,17.5,7.9,17.5,17.5-7.9,17.5-17.5,17.5ZM122.5,83.1c-4.8,0-8.8,3.9-8.8,8.8s3.9,8.8,8.8,8.8,8.8-3.9,8.8-8.8-3.9-8.8-8.8-8.8Z"/>
  <path class="st0" d="M78.8,140c-9.6,0-17.5-7.9-17.5-17.5s7.9-17.5,17.5-17.5,17.5,7.9,17.5,17.5-7.9,17.5-17.5,17.5ZM78.8,113.7c-4.8,0-8.8,3.9-8.8,8.8s3.9,8.8,8.8,8.8,8.8-3.9,8.8-8.8-3.9-8.8-8.8-8.8Z"/>
  <path class="st0" d="M17.5,140c-9.6,0-17.5-7.9-17.5-17.5s7.9-17.5,17.5-17.5,17.5,7.9,17.5,17.5-7.9,17.5-17.5,17.5ZM17.5,113.7c-4.8,0-8.8,3.9-8.8,8.8s3.9,8.8,8.8,8.8,8.8-3.9,8.8-8.8-3.9-8.8-8.8-8.8Z"/>
  <path class="st0" d="M21.9,48.1c-9.6,0-17.5-7.9-17.5-17.5S12.2,13.1,21.9,13.1s17.5,7.9,17.5,17.5-7.9,17.5-17.5,17.5ZM21.9,21.9c-4.8,0-8.8,3.9-8.8,8.8s3.9,8.8,8.8,8.8,8.8-3.9,8.8-8.8-3.9-8.8-8.8-8.8Z"/>
  <path class="st0" d="M94.2,50.2c-1.1,0-2.2-.4-3.1-1.3-1.7-1.7-1.7-4.5,0-6.2l19-19c1.7-1.7,4.5-1.7,6.2,0,1.7,1.7,1.7,4.5,0,6.2l-19,19c-.9.9-2,1.3-3.1,1.3Z"/>
  <path class="st0" d="M111.3,89.4c-1.1,0-2.2-.4-3.1-1.3l-13.3-13.3c-1.7-1.7-1.7-4.5,0-6.2,1.7-1.7,4.5-1.7,6.2,0l13.3,13.3c1.7,1.7,1.7,4.5,0,6.2-.9.9-2,1.3-3.1,1.3Z"/>
  <path class="st0" d="M78.8,113.7c-2.4,0-4.4-2-4.4-4.4v-26.2c0-2.4,2-4.4,4.4-4.4s4.4,2,4.4,4.4v26.2c0,2.4-2,4.4-4.4,4.4Z"/>
  <path class="st0" d="M26.8,117.6c-1.1,0-2.2-.4-3.1-1.3-1.7-1.7-1.7-4.5,0-6.2l36.5-36.5c1.7-1.7,4.5-1.7,6.2,0,1.7,1.7,1.7,4.5,0,6.2l-36.5,36.5c-.9.9-2,1.3-3.1,1.3Z"/>
  <path class="st0" d="M58.3,57.7c-.8,0-1.5-.2-2.2-.6l-25.6-15.4c-2.1-1.2-2.7-3.9-1.5-6,1.2-2.1,3.9-2.7,6-1.5l25.6,15.4c2.1,1.2,2.7,3.9,1.5,6-.8,1.4-2.3,2.1-3.8,2.1Z"/>
</svg>