<?xml version="1.0" encoding="UTF-8"?>
<svg id="Layer_1" xmlns="http://www.w3.org/2000/svg" version="1.1" viewBox="0 0 140 140">
  <!-- Generator: Adobe Illustrator 29.6.0, SVG Export Plug-In . SVG Version: 2.1.1 Build 207)  -->
  <defs>
    <style>
      .st0 {
        fill: #0f2b4d;
      }
    </style>
  </defs>
  <path class="st0" d="M126.9,57h-21.9c-7.2,0-13.1-5.9-13.1-13.1s-2-4.4-4.4-4.4h-35c-2.4,0-4.4,2-4.4,4.4,0,7.2-5.9,13.1-13.1,13.1H13.1c-7.2,0-13.1-5.9-13.1-13.1v-5.2C0,24.2,9.9,11.9,24,8.8c.1,0,.3,0,.4,0,30.3-5.8,60.9-5.8,91.2,0,.1,0,.3,0,.4,0,14.1,3.1,24,15.4,24,29.9v5.2c0,7.2-5.9,13.1-13.1,13.1ZM52.5,30.8h35c7.2,0,13.1,5.9,13.1,13.1s2,4.4,4.4,4.4h21.9c2.4,0,4.4-2,4.4-4.4v-5.2c0-10.2-6.9-19-16.9-21.3,0,0-.1,0-.2,0-29.3-5.7-59-5.7-88.3,0,0,0-.1,0-.2,0-10,2.3-16.9,11.1-16.9,21.3v5.2c0,2.4,2,4.4,4.4,4.4h21.9c2.4,0,4.4-2,4.4-4.4,0-7.2,5.9-13.1,13.1-13.1ZM25,13.1h0,0Z"/>
  <path class="st0" d="M91.9,135.8h-43.8c-16.9,0-30.6-13.7-30.6-30.6v-35c0-2.4,2-4.4,4.4-4.4s4.4,2,4.4,4.4v35c0,12.1,9.8,21.9,21.9,21.9h43.8c12.1,0,21.9-9.8,21.9-21.9v-35c0-2.4,2-4.4,4.4-4.4s4.4,2,4.4,4.4v35c0,16.9-13.7,30.6-30.6,30.6Z"/>
  <path class="st0" d="M45.9,83.3c-.3,0-.6,0-.9,0-.3,0-.5-.1-.8-.2-.3-.1-.5-.2-.8-.4-.2-.2-.5-.3-.7-.5-.2-.2-.4-.4-.5-.7-.2-.2-.3-.5-.4-.8-.1-.3-.2-.5-.2-.8,0-.3,0-.6,0-.9s0-.6,0-.9c0-.3.1-.5.2-.8.1-.3.2-.5.4-.8.2-.2.3-.5.5-.7.2-.2.4-.4.7-.5.2-.2.5-.3.8-.4.3-.1.5-.2.8-.2,1.4-.3,2.9.2,4,1.2.2.2.4.4.5.7.2.2.3.5.4.8.1.3.2.5.2.8,0,.3,0,.6,0,.9s0,.6,0,.9c0,.3-.1.6-.2.8-.1.3-.2.5-.4.8-.2.2-.3.5-.5.7-.2.2-.4.4-.7.5-.2.2-.5.3-.8.4-.3.1-.5.2-.8.2-.3,0-.6,0-.9,0Z"/>
  <path class="st0" d="M45.9,87.6c-3.6,0-6.6-2.9-6.6-6.6s2.9-6.6,6.6-6.6,6.6,2.9,6.6,6.6-2.9,6.6-6.6,6.6ZM45.9,78.9c-1.2,0-2.2,1-2.2,2.2s1,2.2,2.2,2.2,2.2-1,2.2-2.2-1-2.2-2.2-2.2Z"/>
  <path class="st0" d="M70,83.3c-.3,0-.6,0-.9,0-.3,0-.6-.1-.8-.2-.3-.1-.5-.2-.8-.4-.2-.2-.5-.3-.7-.5-.2-.2-.4-.4-.5-.7-.1-.2-.3-.5-.4-.8-.1-.3-.2-.5-.2-.8s0-.6,0-.9,0-.6,0-.9c0-.3.1-.5.2-.8.1-.3.2-.5.4-.8.2-.2.4-.5.5-.7.2-.2.4-.4.7-.5s.5-.3.8-.4c.3-.1.5-.2.8-.2,1.4-.3,2.9.2,3.9,1.2s.4.4.5.7c.2.2.3.5.4.8.1.3.2.5.2.8,0,.3,0,.6,0,.9s0,.6,0,.9c0,.3-.1.6-.2.8-.1.3-.2.5-.4.8-.2.2-.3.5-.5.7-.2.2-.4.4-.7.5-.2.2-.5.3-.8.4-.3.1-.5.2-.8.2-.3,0-.6,0-.9,0Z"/>
  <path class="st0" d="M70,87.6c-3.6,0-6.6-2.9-6.6-6.6s2.9-6.6,6.6-6.6,6.6,2.9,6.6,6.6-2.9,6.6-6.6,6.6ZM70,78.9c-1.2,0-2.2,1-2.2,2.2s1,2.2,2.2,2.2,2.2-1,2.2-2.2-1-2.2-2.2-2.2Z"/>
  <path class="st0" d="M94.1,83.3c-.3,0-.6,0-.8,0-.3,0-.6-.1-.8-.2-.3-.1-.5-.2-.8-.4-.2-.2-.5-.3-.7-.5-.2-.2-.4-.4-.5-.7-.2-.2-.3-.5-.4-.8-.1-.3-.2-.5-.2-.8,0-.3,0-.6,0-.9s0-.6,0-.9c0-.3.1-.5.2-.8.1-.3.2-.5.4-.8.2-.2.3-.5.5-.7s.4-.4.7-.5c.2-.2.5-.3.8-.4.3-.1.5-.2.8-.2.6-.1,1.1-.1,1.7,0,.3,0,.5.1.8.2.3.1.5.2.8.4.2.2.5.3.7.5.2.2.4.4.6.7.2.2.3.5.4.8.1.3.2.5.2.8,0,.3,0,.6,0,.9s0,.6,0,.9c0,.3-.1.6-.2.8-.1.3-.2.5-.4.8-.2.2-.3.5-.6.7-.2.2-.4.4-.7.5-.2.2-.5.3-.8.4-.3.1-.5.2-.8.2-.3,0-.6,0-.9,0Z"/>
  <path class="st0" d="M94.1,87.6c-3.6,0-6.6-2.9-6.6-6.6s2.9-6.6,6.6-6.6,6.6,2.9,6.6,6.6-2.9,6.6-6.6,6.6ZM94.1,78.9c-1.2,0-2.2,1-2.2,2.2s1,2.2,2.2,2.2,2.2-1,2.2-2.2-1-2.2-2.2-2.2Z"/>
  <path class="st0" d="M45.9,105.1c-1.1,0-2.3-.5-3.1-1.3-.2-.2-.4-.4-.5-.7-.2-.2-.3-.5-.4-.8-.1-.3-.2-.5-.2-.8,0-.3,0-.6,0-.9s0-.6,0-.8c0-.3.1-.6.2-.8.1-.3.2-.5.4-.8s.3-.5.5-.7c.8-.8,1.9-1.3,3.1-1.3s2.3.5,3.1,1.3c.2.2.4.4.5.7.2.2.3.5.4.8.1.3.2.5.2.8,0,.3,0,.6,0,.8s0,.6,0,.9c0,.3-.1.5-.2.8-.1.3-.2.5-.4.8-.2.2-.3.5-.5.7-.8.8-1.9,1.3-3.1,1.3Z"/>
  <path class="st0" d="M45.9,109.5c-3.6,0-6.6-2.9-6.6-6.6s2.9-6.6,6.6-6.6,6.6,2.9,6.6,6.6-2.9,6.6-6.6,6.6ZM45.9,100.8c-1.2,0-2.2,1-2.2,2.2s1,2.2,2.2,2.2,2.2-1,2.2-2.2-1-2.2-2.2-2.2Z"/>
  <path class="st0" d="M70,105.1c-.3,0-.6,0-.9,0-.3,0-.6-.1-.8-.2-.3-.1-.5-.2-.8-.4-.2-.2-.5-.3-.7-.5-.8-.8-1.3-2-1.3-3.1s.5-2.3,1.3-3.1c.2-.2.4-.4.7-.5.2-.2.5-.3.8-.4.3-.1.5-.2.8-.2,1.4-.3,2.9.2,3.9,1.2.8.8,1.3,1.9,1.3,3.1s-.5,2.3-1.3,3.1-1.9,1.3-3.1,1.3Z"/>
  <path class="st0" d="M70,109.5c-3.6,0-6.6-2.9-6.6-6.6s2.9-6.6,6.6-6.6,6.6,2.9,6.6,6.6-2.9,6.6-6.6,6.6ZM70,100.8c-1.2,0-2.2,1-2.2,2.2s1,2.2,2.2,2.2,2.2-1,2.2-2.2-1-2.2-2.2-2.2Z"/>
  <path class="st0" d="M94.1,105.1c-1.1,0-2.3-.5-3.1-1.3-.2-.2-.4-.4-.5-.7-.2-.2-.3-.5-.4-.8-.1-.3-.2-.5-.2-.8,0-.3,0-.6,0-.9s0-.6,0-.8c0-.3.1-.6.2-.8.1-.3.2-.5.4-.8s.3-.5.5-.7c.8-.8,1.9-1.3,3.1-1.3s2.3.5,3.1,1.3c.8.8,1.3,1.9,1.3,3.1s-.5,2.3-1.3,3.1c-.8.8-2,1.3-3.1,1.3Z"/>
  <path class="st0" d="M94.1,109.5c-3.6,0-6.6-2.9-6.6-6.6s2.9-6.6,6.6-6.6,6.6,2.9,6.6,6.6-2.9,6.6-6.6,6.6ZM94.1,100.8c-1.2,0-2.2,1-2.2,2.2s1,2.2,2.2,2.2,2.2-1,2.2-2.2-1-2.2-2.2-2.2Z"/>
</svg>