<?xml version="1.0" encoding="UTF-8"?>
<svg id="Layer_1" xmlns="http://www.w3.org/2000/svg" version="1.1" viewBox="0 0 140 140">
  <!-- Generator: Adobe Illustrator 29.6.0, SVG Export Plug-In . SVG Version: 2.1.1 Build 207)  -->
  <defs>
    <style>
      .st0 {
        fill: #0f2b4d;
      }
    </style>
  </defs>
  <path class="st0" d="M48.1,140C21.6,140,0,118.4,0,91.9s21.6-48.1,48.1-48.1,48.1,21.6,48.1,48.1-21.6,48.1-48.1,48.1ZM48.1,52.5c-21.7,0-39.4,17.7-39.4,39.4s17.7,39.4,39.4,39.4,39.4-17.7,39.4-39.4-17.7-39.4-39.4-39.4Z"/>
  <path class="st0" d="M48.1,105c-12.1,0-21.9-9.8-21.9-21.9s9.8-21.9,21.9-21.9,21.9,9.8,21.9,21.9-9.8,21.9-21.9,21.9ZM48.1,70c-7.2,0-13.1,5.9-13.1,13.1s5.9,13.1,13.1,13.1,13.1-5.9,13.1-13.1-5.9-13.1-13.1-13.1Z"/>
  <path class="st0" d="M76.6,129.4c-1.6,0-3.2-.9-3.9-2.4-6.8-13.6-23.3-19.1-36.9-12.3-5.3,2.6-9.7,7-12.3,12.3-1.1,2.2-3.7,3-5.9,2-2.2-1.1-3-3.7-2-5.9,3.5-7,9.3-12.8,16.2-16.2,17.9-8.9,39.7-1.6,48.6,16.2,1.1,2.2.2,4.8-2,5.9-.6.3-1.3.5-2,.5Z"/>
  <path class="st0" d="M126.9,140h-26.2c-2.4,0-4.4-2-4.4-4.4s2-4.4,4.4-4.4h26.2c2.4,0,4.4-2,4.4-4.4V47.4c0-1.2-.5-2.3-1.3-3.1L95.7,10c-.8-.8-1.9-1.3-3.1-1.3H30.6c-2.4,0-4.4,2-4.4,4.4v17.5c0,2.4-2,4.4-4.4,4.4s-4.4-2-4.4-4.4V13.1c0-7.2,5.9-13.1,13.1-13.1h62c3.5,0,6.8,1.4,9.3,3.8l34.3,34.3c2.5,2.5,3.8,5.8,3.8,9.3v79.5c0,7.2-5.9,13.1-13.1,13.1Z"/>
  <path class="st0" d="M135.6,52.5h-35c-7.2,0-13.1-5.9-13.1-13.1V4.4c0-2.4,2-4.4,4.4-4.4s4.4,2,4.4,4.4v35c0,2.4,2,4.4,4.4,4.4h35c2.4,0,4.4,2,4.4,4.4s-2,4.4-4.4,4.4Z"/>
</svg>