<svg viewBox="0 0 140 140" height="140" width="140" xmlns="http://www.w3.org/2000/svg"><g transform="matrix(5.833333333333333,0,0,5.833333333333333,0,0)"><path d="M8.761 7.425H17.761V11.925H8.761z" fill="none" stroke="#0F2B4D" stroke-linecap="round" stroke-linejoin="round" stroke-width="1.5" transform="translate(-2.957 12.211) rotate(-45)"></path><path d="M21.747,4.371l1.06,1.061a1.5,1.5,0,0,1,0,2.121l-4.773,4.773" fill="none" stroke="#0F2B4D" stroke-linecap="round" stroke-linejoin="round" stroke-width="1.5"></path><path d="M18.034,8.084l3.713-3.713a1.5,1.5,0,0,0,0-2.121L20.686,1.189a1.5,1.5,0,0,0-2.121,0L14.852,4.9" fill="none" stroke="#0F2B4D" stroke-linecap="round" stroke-linejoin="round" stroke-width="1.5"></path><path d="M10.079,16.039c-.878.878-4.242,1.06-4.242,1.06s.182-3.364,1.06-4.242a2.25,2.25,0,0,1,3.182,3.182Z" fill="none" stroke="#0F2B4D" stroke-linecap="round" stroke-linejoin="round" stroke-width="1.5"></path><path d="M3.747,18.75H3a2.25,2.25,0,0,0,0,4.5h15.75" fill="none" stroke="#0F2B4D" stroke-linecap="round" stroke-linejoin="round" stroke-width="1.5"></path></g></svg>