<?xml version="1.0" encoding="UTF-8"?>
<svg id="Layer_1" xmlns="http://www.w3.org/2000/svg" version="1.1" viewBox="0 0 140 140">
  <!-- Generator: Adobe Illustrator 29.6.0, SVG Export Plug-In . SVG Version: 2.1.1 Build 207)  -->
  <defs>
    <style>
      .st0 {
        fill: #0f2b4d;
      }
    </style>
  </defs>
  <path class="st0" d="M39.4,140H13.1c-7.2,0-13.1-5.9-13.1-13.1V13.1C0,5.9,5.9,0,13.1,0h61.2c7.2,0,13.1,5.9,13.1,13.1v52.5c0,2.4-2,4.4-4.4,4.4s-4.4-2-4.4-4.4V13.1c0-2.4-2-4.4-4.4-4.4H13.1c-2.4,0-4.4,2-4.4,4.4v113.8c0,2.4,2,4.4,4.4,4.4h26.2c2.4,0,4.4,2,4.4,4.4s-2,4.4-4.4,4.4Z"/>
  <path class="st0" d="M39.4,118.1H4.4c-2.4,0-4.4-2-4.4-4.4s2-4.4,4.4-4.4h35c2.4,0,4.4,2,4.4,4.4s-2,4.4-4.4,4.4Z"/>
  <path class="st0" d="M135.6,140H56.9c-2.4,0-4.4-2-4.4-4.4v-52.5c0-2.4,2-4.4,4.4-4.4h78.8c2.4,0,4.4,2,4.4,4.4v52.5c0,2.4-2,4.4-4.4,4.4ZM61.2,131.2h70v-43.8H61.2v43.8Z"/>
  <path class="st0" d="M135.6,105H56.9c-2.4,0-4.4-2-4.4-4.4s2-4.4,4.4-4.4h78.8c2.4,0,4.4,2,4.4,4.4s-2,4.4-4.4,4.4Z"/>
  <path class="st0" d="M87.5,122.5h-13.1c-2.4,0-4.4-2-4.4-4.4s2-4.4,4.4-4.4h13.1c2.4,0,4.4,2,4.4,4.4s-2,4.4-4.4,4.4Z"/>
</svg>