<svg width="99" height="99" viewBox="0 0 99 99" fill="none" xmlns="http://www.w3.org/2000/svg">
<path d="M52.3438 41.2721V10H81.4741C89.9 10 96.7327 16.8693 96.7327 25.3431V44.8708C96.7327 53.3446 89.9015 60.2138 81.4741 60.2138H80.0003C79.5699 54.7517 76.0563 49.9731 70.8698 48.0743L52.3438 41.2721Z" fill="#EDB3BA"/>
<path d="M68.0136 55.9368L35.0542 43.8303L35.0424 43.8275C32.9186 43.0536 30.6268 43.5769 29.0395 45.1787C27.4522 46.7778 26.9466 49.0882 27.7218 51.1994L39.7616 84.3456C40.5914 86.6119 42.7373 88.1133 45.1264 88.1133H45.2517C47.6894 88.0586 49.8294 86.454 50.5663 84.1196L54.7446 71.002L67.7763 66.8065C70.1108 66.0626 71.7099 63.9107 71.7586 61.448C71.8131 58.9909 70.301 56.773 68.0136 55.9368Z" fill="#E14F62"/>
<path d="M17.6658 10C9.25024 10 2.40723 16.8815 2.40723 25.3431V44.8708C2.40723 53.3324 9.25024 60.2138 17.6658 60.2138H22.136L19.909 54.0811C18.0417 48.9748 19.2458 43.3249 22.9849 39.4331L23.2885 39.1271C25.9193 36.5464 29.371 35.1441 32.923 35.1063C33.8515 35.0965 34.7947 35.1797 35.6982 35.3672C36.9524 35.6278 38.1521 36.0642 39.3651 36.5053C39.4963 36.5535 39.6289 36.6017 39.7616 36.6497L52.3437 41.2721V10H17.6658Z" fill="#F1D4D8"/>
<path d="M81.9339 29.5276H68.0622C67.1867 29.5276 66.3865 30.0242 65.9929 30.8108C65.6053 31.5976 65.6878 32.5404 66.2096 33.2434L73.1455 42.5442C73.5832 43.13 74.2656 43.4759 74.9936 43.4759C75.7202 43.4759 76.4085 43.13 76.8404 42.5442L83.7762 33.2434C84.3039 32.5404 84.3864 31.5976 83.9929 30.8108C83.5994 30.0242 82.7991 29.5276 81.9236 29.5276H81.9339Z" fill="#E14F62"/>
</svg>
