<svg width="99" height="99" viewBox="0 0 99 99" fill="none" xmlns="http://www.w3.org/2000/svg">
<path d="M57.4907 6.71504L78.1706 27.476C79.9059 29.217 80.8805 31.5799 80.8805 34.0436V44.5895C64.3085 47.7753 54.3874 58.0181 48.7603 67.6964C45.0046 74.157 42.1774 81.377 41.3375 88.8466H21.4554C13.4327 88.8466 6.92926 82.3176 6.92926 74.2637V18.583C6.92926 10.5289 13.4327 4 21.4554 4H50.9619C53.4107 4 55.7593 4.97629 57.4907 6.71504Z" fill="#F3D299"/>
<path d="M80.1889 30.5189H59.7514C56.8462 30.5189 54.4692 28.1327 54.4692 25.2161V4.69389C55.589 5.15562 56.618 5.83892 57.4906 6.71506L78.1706 27.476C79.0458 28.3545 79.7277 29.3907 80.1889 30.5189Z" fill="#F09E0F"/>
<path fill-rule="evenodd" clip-rule="evenodd" d="M22.7758 34.4917C22.7758 32.2953 24.5495 30.5146 26.7374 30.5146H37.3019C39.4899 30.5146 41.2635 32.2953 41.2635 34.4917C41.2635 36.6883 39.4899 38.469 37.3019 38.469H26.7374C24.5495 38.469 22.7758 36.6883 22.7758 34.4917Z" fill="#F09E0F"/>
<path d="M91.0011 53.8724C90.2637 52.4433 88.7984 51.6018 87.1376 51.7411C53.5717 54.6907 49.2541 89.3718 49.2129 89.7211C48.9651 91.9038 50.5282 93.8744 52.7002 94.1231C52.855 94.1411 53.0045 94.1491 53.1539 94.1491C55.14 94.1491 56.8526 92.6526 57.0844 90.6227C57.1077 90.4175 57.2356 89.3961 57.5736 87.8456C58.0347 85.6066 59.9162 78.3231 64.1256 73.5176C64.1256 73.5176 62.3925 80.3116 63.467 86.1947H67.6748C83.7845 86.1947 85.7341 75.6663 87.1583 67.9787C87.8598 64.1982 88.52 60.6304 90.5061 58.2712C91.5431 57.0415 91.7385 55.3043 91.0011 53.8724Z" fill="#F09E0F"/>
<path fill-rule="evenodd" clip-rule="evenodd" d="M22.7758 50.4005C22.7758 48.204 24.5495 46.4234 26.7374 46.4234H50.5075C52.6953 46.4234 54.4691 48.204 54.4691 50.4005C54.4691 52.597 52.6953 54.3778 50.5075 54.3778H26.7374C24.5495 54.3778 22.7758 52.597 22.7758 50.4005Z" fill="#F09E0F"/>
</svg>
