<?xml version="1.0" encoding="UTF-8"?>
<svg id="Layer_1" xmlns="http://www.w3.org/2000/svg" version="1.1" viewBox="0 0 140 140">
  <!-- Generator: Adobe Illustrator 29.6.0, SVG Export Plug-In . SVG Version: 2.1.1 Build 207)  -->
  <defs>
    <style>
      .st0 {
        fill: #0f2b4d;
      }
    </style>
  </defs>
  <path class="st0" d="M118.1,133.8h-35c-2.4,0-4.4-2-4.4-4.4v-35c0-2.4-2-4.4-4.4-4.4h-8.8c-2.4,0-4.4,2-4.4,4.4v35c0,2.4-2,4.4-4.4,4.4H21.9c-2.4,0-4.4-2-4.4-4.4v-48.1c0-2.4,2-4.4,4.4-4.4s4.4,2,4.4,4.4v43.8h26.2v-30.6c0-7.2,5.9-13.1,13.1-13.1h8.8c7.2,0,13.1,5.9,13.1,13.1v30.6h26.2v-43.8c0-2.4,2-4.4,4.4-4.4s4.4,2,4.4,4.4v48.1c0,2.4-2,4.4-4.4,4.4Z"/>
  <path class="st0" d="M135.6,76.9c-1.1,0-2.2-.4-3.1-1.3l-59.4-59.4s0,0,0,0h0c-1.7-1.7-4.5-1.7-6.2,0L7.5,75.7c-1.7,1.7-4.5,1.7-6.2,0-1.7-1.7-1.7-4.5,0-6.2L60.7,10c5.1-5.1,13.4-5.1,18.6,0,0,0,0,0,0,0l59.4,59.4c1.7,1.7,1.7,4.5,0,6.2-.9.9-2,1.3-3.1,1.3Z"/>
  <path class="st0" d="M118.1,59.4c-2.4,0-4.4-2-4.4-4.4v-26.2h-13.1v4.4c0,2.4-2,4.4-4.4,4.4s-4.4-2-4.4-4.4v-8.8c0-2.4,2-4.4,4.4-4.4h21.9c2.4,0,4.4,2,4.4,4.4v30.6c0,2.4-2,4.4-4.4,4.4Z"/>
  <path class="st0" d="M131.2,133.8H8.8c-2.4,0-4.4-2-4.4-4.4s2-4.4,4.4-4.4h122.5c2.4,0,4.4,2,4.4,4.4s-2,4.4-4.4,4.4Z"/>
</svg>