<?xml version="1.0" encoding="UTF-8"?>
<svg id="Layer_1" xmlns="http://www.w3.org/2000/svg" version="1.1" viewBox="0 0 140 140">
  <!-- Generator: Adobe Illustrator 29.6.0, SVG Export Plug-In . SVG Version: 2.1.1 Build 207)  -->
  <defs>
    <style>
      .st0 {
        fill: #0f2b4d;
      }
    </style>
  </defs>
  <path class="st0" d="M131.2,140H8.8c-2.4,0-4.4-2-4.4-4.4s2-4.4,4.4-4.4h122.5c2.4,0,4.4,2,4.4,4.4s-2,4.4-4.4,4.4Z"/>
  <path class="st0" d="M131.2,122.5H8.8c-2.4,0-4.4-2-4.4-4.4s2-4.4,4.4-4.4h122.5c2.4,0,4.4,2,4.4,4.4s-2,4.4-4.4,4.4Z"/>
  <path class="st0" d="M17.5,105c-2.4,0-4.4-2-4.4-4.4v-43.8c0-2.4,2-4.4,4.4-4.4s4.4,2,4.4,4.4v43.8c0,2.4-2,4.4-4.4,4.4Z"/>
  <path class="st0" d="M35,105c-2.4,0-4.4-2-4.4-4.4v-43.8c0-2.4,2-4.4,4.4-4.4s4.4,2,4.4,4.4v43.8c0,2.4-2,4.4-4.4,4.4Z"/>
  <path class="st0" d="M61.2,105c-2.4,0-4.4-2-4.4-4.4v-43.8c0-2.4,2-4.4,4.4-4.4s4.4,2,4.4,4.4v43.8c0,2.4-2,4.4-4.4,4.4Z"/>
  <path class="st0" d="M78.8,105c-2.4,0-4.4-2-4.4-4.4v-43.8c0-2.4,2-4.4,4.4-4.4s4.4,2,4.4,4.4v43.8c0,2.4-2,4.4-4.4,4.4Z"/>
  <path class="st0" d="M105,105c-2.4,0-4.4-2-4.4-4.4v-43.8c0-2.4,2-4.4,4.4-4.4s4.4,2,4.4,4.4v43.8c0,2.4-2,4.4-4.4,4.4Z"/>
  <path class="st0" d="M122.5,105c-2.4,0-4.4-2-4.4-4.4v-43.8c0-2.4,2-4.4,4.4-4.4s4.4,2,4.4,4.4v43.8c0,2.4-2,4.4-4.4,4.4Z"/>
  <path class="st0" d="M131.2,43.8H8.8c-2,0-3.7-1.3-4.2-3.2-.5-1.9.3-3.9,2-4.9L63,2c4.3-2.7,9.8-2.7,14.1,0l56.5,33.6c1.7,1,2.5,3,2,4.9-.5,1.9-2.2,3.2-4.2,3.2ZM24.7,35h90.7l-42.8-25.5s0,0-.1,0c-1.4-.9-3.3-.9-4.7,0,0,0,0,0-.1,0l-42.8,25.5Z"/>
</svg>