<?xml version="1.0" encoding="UTF-8"?>
<svg id="Layer_1" xmlns="http://www.w3.org/2000/svg" version="1.1" viewBox="0 0 140 140">
  <!-- Generator: Adobe Illustrator 29.6.0, SVG Export Plug-In . SVG Version: 2.1.1 Build 207)  -->
  <defs>
    <style>
      .st0 {
        fill: #0f2b4d;
      }
    </style>
  </defs>
  <path class="st0" d="M83.1,43.8H21.9c-2.4,0-4.4-2-4.4-4.4s2-4.4,4.4-4.4h61.2c2.4,0,4.4,2,4.4,4.4s-2,4.4-4.4,4.4Z"/>
  <path class="st0" d="M43.8,70h-21.9c-2.4,0-4.4-2-4.4-4.4s2-4.4,4.4-4.4h21.9c2.4,0,4.4,2,4.4,4.4s-2,4.4-4.4,4.4Z"/>
  <path class="st0" d="M43.8,96.2h-21.9c-2.4,0-4.4-2-4.4-4.4s2-4.4,4.4-4.4h21.9c2.4,0,4.4,2,4.4,4.4s-2,4.4-4.4,4.4Z"/>
  <path class="st0" d="M43.8,122.5H13.1c-7.2,0-13.1-5.9-13.1-13.1V13.1C0,5.9,5.9,0,13.1,0h62c3.5,0,6.8,1.4,9.3,3.8l16.8,16.8c2.5,2.5,3.8,5.8,3.8,9.3v13.9c0,2.4-2,4.4-4.4,4.4s-4.4-2-4.4-4.4v-13.9c0-1.2-.5-2.3-1.3-3.1l-16.8-16.8c-.8-.8-1.9-1.3-3.1-1.3H13.1c-2.4,0-4.4,2-4.4,4.4v96.2c0,2.4,2,4.4,4.4,4.4h30.6c2.4,0,4.4,2,4.4,4.4s-2,4.4-4.4,4.4Z"/>
  <path class="st0" d="M92,126.9c-19.3,0-35-15.7-35-35s15.7-35,35-35,35,15.7,35,35-15.7,35-35,35ZM92,65.6c-14.5,0-26.3,11.8-26.3,26.2s11.8,26.2,26.3,26.2,26.2-11.8,26.2-26.2-11.8-26.2-26.2-26.2Z"/>
  <path class="st0" d="M135.6,140c-1.1,0-2.2-.4-3.1-1.3l-22-22.1c-1.7-1.7-1.7-4.5,0-6.2,1.7-1.7,4.5-1.7,6.2,0l22,22.1c1.7,1.7,1.7,4.5,0,6.2-.9.9-2,1.3-3.1,1.3Z"/>
</svg>