<?xml version="1.0" encoding="UTF-8"?>
<svg id="Layer_1" xmlns="http://www.w3.org/2000/svg" version="1.1" viewBox="0 0 140 140">
  <!-- Generator: Adobe Illustrator 29.6.0, SVG Export Plug-In . SVG Version: 2.1.1 Build 207)  -->
  <defs>
    <style>
      .st0 {
        fill: #0f2b4d;
      }
    </style>
  </defs>
  <path class="st0" d="M70,52.5c-12.1,0-21.9-9.8-21.9-21.9s9.8-21.9,21.9-21.9,21.9,9.8,21.9,21.9-9.8,21.9-21.9,21.9ZM70,17.5c-7.2,0-13.1,5.9-13.1,13.1s5.9,13.1,13.1,13.1,13.1-5.9,13.1-13.1-5.9-13.1-13.1-13.1Z"/>
  <path class="st0" d="M78.8,131.2h-17.5c-2.2,0-4.1-1.6-4.3-3.8l-3.9-31.2h-4.9c-2.4,0-4.4-2-4.4-4.4v-13.1c0-14.5,11.8-26.2,26.2-26.2s26.2,11.8,26.2,26.2v13.1c0,2.4-2,4.4-4.4,4.4h-4.9l-3.9,31.2c-.3,2.2-2.1,3.8-4.3,3.8ZM65.1,122.5h9.8l3.9-31.2c.3-2.2,2.1-3.8,4.3-3.8h4.4v-8.8c0-9.6-7.9-17.5-17.5-17.5s-17.5,7.9-17.5,17.5v8.8h4.4c2.2,0,4.1,1.6,4.3,3.8l3.9,31.2Z"/>
  <path class="st0" d="M118.1,140c-2.4,0-4.4-2-4.4-4.4v-43.8c0-2.4,2-4.4,4.4-4.4s4.4,2,4.4,4.4v43.8c0,2.4-2,4.4-4.4,4.4Z"/>
  <path class="st0" d="M21.9,52.5c-2.4,0-4.4-2-4.4-4.4V4.4c0-2.4,2-4.4,4.4-4.4s4.4,2,4.4,4.4v43.8c0,2.4-2,4.4-4.4,4.4Z"/>
  <path class="st0" d="M118.1,140c-1.1,0-2.2-.4-3.1-1.3l-17.5-17.5c-1.7-1.7-1.7-4.5,0-6.2,1.7-1.7,4.5-1.7,6.2,0l14.4,14.4,14.4-14.4c1.7-1.7,4.5-1.7,6.2,0,1.7,1.7,1.7,4.5,0,6.2l-17.5,17.5c-.9.9-2,1.3-3.1,1.3Z"/>
  <path class="st0" d="M39.4,26.2c-1.1,0-2.2-.4-3.1-1.3l-14.4-14.4-14.4,14.4c-1.7,1.7-4.5,1.7-6.2,0-1.7-1.7-1.7-4.5,0-6.2L18.8,1.3c1.7-1.7,4.5-1.7,6.2,0l17.5,17.5c1.7,1.7,1.7,4.5,0,6.2-.9.9-2,1.3-3.1,1.3Z"/>
</svg>