<?xml version="1.0" encoding="UTF-8"?>
<svg id="Layer_1" xmlns="http://www.w3.org/2000/svg" version="1.1" viewBox="0 0 140 140">
  <!-- Generator: Adobe Illustrator 29.6.0, SVG Export Plug-In . SVG Version: 2.1.1 Build 207)  -->
  <defs>
    <style>
      .st0 {
        fill: #0f2b4d;
      }
    </style>
  </defs>
  <path class="st0" d="M126.9,140H13.1c-2.4,0-4.4-2-4.4-4.4v-43.8c0-2.4,2-4.4,4.4-4.4h113.8c2.4,0,4.4,2,4.4,4.4v43.8c0,2.4-2,4.4-4.4,4.4ZM17.5,131.2h105v-35H17.5v35Z"/>
  <path class="st0" d="M135.6,140H4.4c-2.4,0-4.4-2-4.4-4.4s2-4.4,4.4-4.4h131.2c2.4,0,4.4,2,4.4,4.4s-2,4.4-4.4,4.4Z"/>
  <path class="st0" d="M135.6,96.2H4.4c-2.4,0-4.4-2-4.4-4.4s2-4.4,4.4-4.4h131.2c2.4,0,4.4,2,4.4,4.4s-2,4.4-4.4,4.4Z"/>
  <path class="st0" d="M113.8,52.5H26.2c-2.4,0-4.4-2-4.4-4.4s2-4.4,4.4-4.4h87.5c2.4,0,4.4,2,4.4,4.4s-2,4.4-4.4,4.4Z"/>
  <path class="st0" d="M43.8,122.5c-2.4,0-4.4-2-4.4-4.4v-8.8c0-2.4,2-4.4,4.4-4.4s4.4,2,4.4,4.4v8.8c0,2.4-2,4.4-4.4,4.4Z"/>
  <path class="st0" d="M61.2,122.5c-2.4,0-4.4-2-4.4-4.4v-8.8c0-2.4,2-4.4,4.4-4.4s4.4,2,4.4,4.4v8.8c0,2.4-2,4.4-4.4,4.4Z"/>
  <path class="st0" d="M78.8,122.5c-2.4,0-4.4-2-4.4-4.4v-8.8c0-2.4,2-4.4,4.4-4.4s4.4,2,4.4,4.4v8.8c0,2.4-2,4.4-4.4,4.4Z"/>
  <path class="st0" d="M61.2,78.8c-2.4,0-4.4-2-4.4-4.4v-8.8c0-2.4,2-4.4,4.4-4.4s4.4,2,4.4,4.4v8.8c0,2.4-2,4.4-4.4,4.4Z"/>
  <path class="st0" d="M78.8,78.8c-2.4,0-4.4-2-4.4-4.4v-8.8c0-2.4,2-4.4,4.4-4.4s4.4,2,4.4,4.4v8.8c0,2.4-2,4.4-4.4,4.4Z"/>
  <path class="st0" d="M96.2,122.5c-2.4,0-4.4-2-4.4-4.4v-8.8c0-2.4,2-4.4,4.4-4.4s4.4,2,4.4,4.4v8.8c0,2.4-2,4.4-4.4,4.4Z"/>
  <path class="st0" d="M105,96.2H35c-2.4,0-4.4-2-4.4-4.4v-43.8c0-2.4,2-4.4,4.4-4.4h70c2.4,0,4.4,2,4.4,4.4v43.8c0,2.4-2,4.4-4.4,4.4ZM39.4,87.5h61.2v-35h-61.2v35Z"/>
  <path class="st0" d="M70,26.2c-2.4,0-4.4-2-4.4-4.4V4.4c0-2.4,2-4.4,4.4-4.4s4.4,2,4.4,4.4v17.5c0,2.4-2,4.4-4.4,4.4Z"/>
  <path class="st0" d="M105,52.5c-2.4,0-4.4-2-4.4-4.4,0-12.1-13.7-21.9-30.6-21.9s-30.6,9.8-30.6,21.9-2,4.4-4.4,4.4-4.4-2-4.4-4.4c0-16.9,17.7-30.6,39.4-30.6s39.4,13.7,39.4,30.6-2,4.4-4.4,4.4Z"/>
</svg>