<?xml version="1.0" encoding="UTF-8"?>
<svg id="Layer_1" xmlns="http://www.w3.org/2000/svg" version="1.1" viewBox="0 0 140 140">
  <!-- Generator: Adobe Illustrator 29.6.0, SVG Export Plug-In . SVG Version: 2.1.1 Build 207)  -->
  <defs>
    <style>
      .st0 {
        fill: #0f2b4d;
      }
    </style>
  </defs>
  <path class="st0" d="M58.4,140H20.3C9.1,140,0,130.9,0,119.7V29.1C0,17.9,9.1,8.8,20.3,8.8h14.7c2.4,0,4.4,2,4.4,4.4s-2,4.4-4.4,4.4h-14.7c-6.4,0-11.6,5.2-11.6,11.6v90.6c0,6.4,5.2,11.6,11.6,11.6h38.1c6.4,0,11.6-5.2,11.6-11.6v-36.6c0-2.4,2-4.4,4.4-4.4s4.4,2,4.4,4.4v36.6c0,11.2-9.1,20.3-20.3,20.3Z"/>
  <path class="st0" d="M74.4,113.8H4.4c-2.4,0-4.4-2-4.4-4.4s2-4.4,4.4-4.4h70c2.4,0,4.4,2,4.4,4.4s-2,4.4-4.4,4.4Z"/>
  <path class="st0" d="M91.9,91.9c-.6,0-1.1-.1-1.7-.3-1.6-.7-2.7-2.3-2.7-4v-17.5h-17.5c-12.1,0-21.9-9.8-21.9-21.9v-26.2c0-12.1,9.8-21.9,21.9-21.9h48.1c12.1,0,21.9,9.8,21.9,21.9v26.2c0,12.1-9.8,21.9-21.9,21.9h-2.6l-20.6,20.6c-.8.8-2,1.3-3.1,1.3ZM70,8.8c-7.2,0-13.1,5.9-13.1,13.1v26.2c0,7.2,5.9,13.1,13.1,13.1h21.9c2.4,0,4.4,2,4.4,4.4v11.3l14.4-14.4c.8-.8,1.9-1.3,3.1-1.3h4.4c7.2,0,13.1-5.9,13.1-13.1v-26.2c0-7.2-5.9-13.1-13.1-13.1h-48.1Z"/>
  <path class="st0" d="M72.2,37.2c-.3,0-.6,0-.9,0-.3,0-.6-.1-.8-.2-.3-.1-.5-.2-.8-.4-.2-.2-.5-.3-.7-.5-.8-.8-1.3-1.9-1.3-3.1s.5-2.3,1.3-3.1c.2-.2.4-.4.7-.5.2-.2.5-.3.8-.4.3-.1.5-.2.8-.2.6-.1,1.1-.1,1.7,0,.3,0,.6.1.8.2.3.1.5.2.8.4.2.1.5.3.7.5.8.8,1.3,1.9,1.3,3.1s-.5,2.3-1.3,3.1c-.2.2-.4.4-.7.5-.2.2-.5.3-.8.4-.3.1-.5.2-.8.2-.3,0-.6,0-.9,0Z"/>
  <path class="st0" d="M72.2,41.6c-3.6,0-6.6-2.9-6.6-6.6s2.9-6.6,6.6-6.6,6.6,2.9,6.6,6.6-2.9,6.6-6.6,6.6ZM72.2,32.8c-1.2,0-2.2,1-2.2,2.2s1,2.2,2.2,2.2,2.2-1,2.2-2.2-1-2.2-2.2-2.2Z"/>
  <path class="st0" d="M94.1,37.2c-.3,0-.6,0-.8,0-.3,0-.6-.1-.8-.2-.3-.1-.5-.2-.8-.4-.2-.2-.5-.3-.7-.5-.8-.8-1.3-1.9-1.3-3.1s0-.6,0-.9c0-.3.1-.6.2-.8.1-.3.2-.5.4-.8.2-.2.3-.5.5-.7.2-.2.4-.4.7-.5.2-.2.5-.3.8-.4.3-.1.5-.2.8-.2,1.4-.3,2.9.2,3.9,1.2.2.2.4.4.6.7.2.2.3.5.4.8.1.3.2.5.2.8,0,.3,0,.6,0,.9s0,.6,0,.9c0,.3-.1.5-.2.8-.1.3-.2.5-.4.8-.2.2-.3.5-.6.7-.8.8-1.9,1.3-3.1,1.3Z"/>
  <path class="st0" d="M94.1,41.6c-3.6,0-6.6-2.9-6.6-6.6s2.9-6.6,6.6-6.6,6.6,2.9,6.6,6.6-2.9,6.6-6.6,6.6ZM94.1,32.8c-1.2,0-2.2,1-2.2,2.2s1,2.2,2.2,2.2,2.2-1,2.2-2.2-1-2.2-2.2-2.2Z"/>
  <path class="st0" d="M115.9,37.2c-.3,0-.6,0-.9,0-.3,0-.5-.1-.8-.2-.3-.1-.5-.2-.8-.4-.2-.2-.5-.3-.7-.5-.8-.8-1.3-1.9-1.3-3.1s.5-2.3,1.3-3.1c.2-.2.4-.4.7-.5.2-.2.5-.3.8-.4.3-.1.5-.2.8-.2.6-.1,1.1-.1,1.7,0,.3,0,.6.1.8.2.3.1.5.2.8.4.2.1.5.3.7.5.8.8,1.3,1.9,1.3,3.1s-.5,2.3-1.3,3.1c-.2.2-.4.4-.7.5-.2.2-.5.3-.8.4-.3.1-.5.2-.8.2-.3,0-.6,0-.9,0Z"/>
  <path class="st0" d="M115.9,41.6c-3.6,0-6.6-2.9-6.6-6.6s2.9-6.6,6.6-6.6,6.6,2.9,6.6,6.6-2.9,6.6-6.6,6.6ZM115.9,32.8c-1.2,0-2.2,1-2.2,2.2s1,2.2,2.2,2.2,2.2-1,2.2-2.2-1-2.2-2.2-2.2Z"/>
</svg>