<?xml version="1.0" encoding="UTF-8"?>
<svg id="Layer_1" xmlns="http://www.w3.org/2000/svg" version="1.1" viewBox="0 0 140 140">
  <!-- Generator: Adobe Illustrator 29.6.0, SVG Export Plug-In . SVG Version: 2.1.1 Build 207)  -->
  <defs>
    <style>
      .st0 {
        fill: #0f2b4d;
      }
    </style>
  </defs>
  <path class="st0" d="M135.6,140H4.4c-2.4,0-4.4-2-4.4-4.4V4.4C0,1.9,2,0,4.4,0h131.2c2.4,0,4.4,2,4.4,4.4v131.2c0,2.4-2,4.4-4.4,4.4ZM8.8,131.2h122.5V8.7H8.8v122.5Z"/>
  <path class="st0" d="M109.4,35h-26.2c-2.4,0-4.4-2-4.4-4.4s2-4.4,4.4-4.4h26.2c2.4,0,4.4,2,4.4,4.4s-2,4.4-4.4,4.4Z"/>
  <path class="st0" d="M109.4,61.2h-35c-2.4,0-4.4-2-4.4-4.4s2-4.4,4.4-4.4h35c2.4,0,4.4,2,4.4,4.4s-2,4.4-4.4,4.4Z"/>
  <path class="st0" d="M109.4,87.5h-35c-2.4,0-4.4-2-4.4-4.4s2-4.4,4.4-4.4h35c2.4,0,4.4,2,4.4,4.4s-2,4.4-4.4,4.4Z"/>
  <path class="st0" d="M100.6,113.7h-26.2c-2.4,0-4.4-2-4.4-4.4s2-4.4,4.4-4.4h26.2c2.4,0,4.4,2,4.4,4.4s-2,4.4-4.4,4.4Z"/>
  <path class="st0" d="M56.9,61.2h-26.2c-2.4,0-4.4-2-4.4-4.4v-26.2c0-2.4,2-4.4,4.4-4.4h26.2c2.4,0,4.4,2,4.4,4.4v26.2c0,2.4-2,4.4-4.4,4.4ZM35,52.5h17.5v-17.5h-17.5v17.5Z"/>
  <path class="st0" d="M56.9,113.7h-26.2c-2.4,0-4.4-2-4.4-4.4v-26.2c0-2.4,2-4.4,4.4-4.4h26.2c2.4,0,4.4,2,4.4,4.4v26.2c0,2.4-2,4.4-4.4,4.4ZM35,105h17.5v-17.5h-17.5v17.5Z"/>
</svg>