<?xml version="1.0" encoding="UTF-8"?>
<svg id="Layer_1" xmlns="http://www.w3.org/2000/svg" version="1.1" viewBox="0 0 140 140">
  <!-- Generator: Adobe Illustrator 29.6.0, SVG Export Plug-In . SVG Version: 2.1.1 Build 207)  -->
  <defs>
    <style>
      .st0 {
        fill: #0f2b4d;
      }
    </style>
  </defs>
  <path class="st0" d="M65.6,96.2H13.1c-7.2,0-13.1-5.9-13.1-13.1V13.1C0,5.9,5.9,0,13.1,0h96.2c7.2,0,13.1,5.9,13.1,13.1v35c0,2.4-2,4.4-4.4,4.4s-4.4-2-4.4-4.4V13.1c0-2.4-2-4.4-4.4-4.4H13.1c-2.4,0-4.4,2-4.4,4.4v70c0,2.4,2,4.4,4.4,4.4h52.5c2.4,0,4.4,2,4.4,4.4s-2,4.4-4.4,4.4Z"/>
  <path class="st0" d="M118.1,35H4.4c-2.4,0-4.4-2-4.4-4.4s2-4.4,4.4-4.4h113.8c2.4,0,4.4,2,4.4,4.4s-2,4.4-4.4,4.4Z"/>
  <path class="st0" d="M56.9,56.9H21.9c-2.4,0-4.4-2-4.4-4.4s2-4.4,4.4-4.4h35c2.4,0,4.4,2,4.4,4.4s-2,4.4-4.4,4.4Z"/>
  <path class="st0" d="M39.4,74.4h-17.5c-2.4,0-4.4-2-4.4-4.4s2-4.4,4.4-4.4h17.5c2.4,0,4.4,2,4.4,4.4s-2,4.4-4.4,4.4Z"/>
  <path class="st0" d="M135.6,140h-52.5c-2.4,0-4.4-2-4.4-4.4v-43.8c0-2.4,2-4.4,4.4-4.4h52.5c2.4,0,4.4,2,4.4,4.4v43.8c0,2.4-2,4.4-4.4,4.4ZM87.5,131.2h43.8v-35h-43.8v35Z"/>
  <path class="st0" d="M126.9,96.2h-35c-2.4,0-4.4-2-4.4-4.4v-8.8c0-12.1,9.8-21.9,21.9-21.9s21.9,9.8,21.9,21.9v8.8c0,2.4-2,4.4-4.4,4.4ZM96.2,87.5h26.2v-4.4c0-7.2-5.9-13.1-13.1-13.1s-13.1,5.9-13.1,13.1v4.4Z"/>
  <path class="st0" d="M109.4,120.5c-3.6,0-6.6-2.9-6.6-6.6s2.9-6.6,6.6-6.6,6.6,2.9,6.6,6.6-2.9,6.6-6.6,6.6ZM109.4,111.7c-1.2,0-2.2,1-2.2,2.2s1,2.2,2.2,2.2,2.2-1,2.2-2.2-1-2.2-2.2-2.2Z"/>
</svg>