<svg width="99" height="99" viewBox="0 0 99 99" fill="none" xmlns="http://www.w3.org/2000/svg">
<path d="M87.6978 29.2771C87.6978 27.0386 85.857 25.224 83.5861 25.224C81.3168 25.224 79.4761 27.0386 79.4761 29.2771V35.0142L73.9445 33.2421C71.7847 32.5504 69.466 33.7154 68.763 35.8443C68.0615 37.973 69.244 40.2596 71.4023 40.9514L76.9339 42.7234L73.5129 47.3646C72.1793 49.1754 72.5848 51.7101 74.4225 53.0259C76.2586 54.3418 78.8301 53.9407 80.1652 52.1299L83.5861 47.4874L87.0086 52.1299C88.3437 53.9407 90.9137 54.3418 92.7514 53.0259C94.5875 51.7101 94.9961 49.1754 93.6594 47.3646L90.2384 42.7235L95.7715 40.9514C97.9314 40.2596 99.1123 37.973 98.4109 35.8443C97.7094 33.7154 95.3892 32.5504 93.2308 33.2421L87.6978 35.0144V29.2771Z" fill="#A14DFD"/>
<path fill-rule="evenodd" clip-rule="evenodd" d="M34.2589 68.9627C34.2589 66.7243 36.0997 64.9096 38.3706 64.9096H60.2962C62.567 64.9096 64.4078 66.7243 64.4078 68.9627C64.4078 71.201 62.567 73.0157 60.2962 73.0157H38.3706C36.0997 73.0157 34.2589 71.201 34.2589 68.9627Z" fill="#D3B2F8"/>
<path fill-rule="evenodd" clip-rule="evenodd" d="M68.5179 68.9627C68.5179 66.7243 70.3586 64.9096 72.6295 64.9096H94.5551C96.826 64.9096 98.6667 66.7243 98.6667 68.9627C98.6667 71.201 96.826 73.0157 94.5551 73.0157H72.6295C70.3586 73.0157 68.5179 71.201 68.5179 68.9627Z" fill="#D3B2F8"/>
<path fill-rule="evenodd" clip-rule="evenodd" d="M0 68.9627C0 66.7243 1.84076 64.9096 4.11164 64.9096H26.0373C28.3081 64.9096 30.1489 66.7243 30.1489 68.9627C30.1489 71.201 28.3081 73.0157 26.0373 73.0157H4.11164C1.84076 73.0157 0 71.201 0 68.9627Z" fill="#D3B2F8"/>
<path d="M19.1799 29.2771C19.1799 27.0386 17.3392 25.224 15.0683 25.224C12.7974 25.224 10.9566 27.0386 10.9566 29.2771V35.0142L5.42515 33.2421C3.26681 32.5504 0.946596 33.7154 0.245137 35.8443C-0.456323 37.973 0.724604 40.2596 2.88448 40.9514L8.41599 42.7234L4.99503 47.3646C3.65995 49.1754 4.06694 51.7101 5.90461 53.0259C7.74074 54.3418 10.3122 53.9407 11.6458 52.1299L15.0683 47.4874L18.4908 52.1299C19.8259 53.9407 22.3958 54.3418 24.2335 53.0259C26.0696 51.7101 26.4766 49.1754 25.1416 47.3646L21.7206 42.7235L27.2521 40.9514C29.412 40.2596 30.5944 37.973 29.8914 35.8443C29.19 33.7154 26.8713 32.5504 24.7114 33.2421L19.1799 35.0144V29.2771Z" fill="#A14DFD"/>
<path d="M53.4388 29.2771C53.4388 27.0386 51.5981 25.224 49.3272 25.224C47.0579 25.224 45.2171 27.0386 45.2171 29.2771V35.0142L39.6841 33.2421C37.5257 32.5504 35.2056 33.7154 34.5041 35.8443C33.8026 37.973 34.9851 40.2596 37.1434 40.9514L42.6749 42.7234L39.254 47.3646C37.9189 49.1754 38.3259 51.7101 40.1635 53.0259C41.9997 54.3418 44.5712 53.9407 45.9047 52.1299L49.3272 47.4874L52.7497 52.1299C54.0848 53.9407 56.6548 54.3418 58.4925 53.0259C60.3286 51.7101 60.7356 49.1754 59.4005 47.3646L55.9795 42.7235L61.5126 40.9514C63.6709 40.2596 64.8534 37.973 64.1519 35.8443C63.4489 33.7154 61.1302 32.5504 58.9704 33.2421L53.4388 35.0144V29.2771Z" fill="#A14DFD"/>
</svg>
